<svg class="typst-doc" viewBox="0 0 708.6614173228346 134.17291338582677" width="708.6614173228346pt" height="134.17291338582677pt" xmlns="http://www.w3.org/2000/svg" xmlns:xlink="http://www.w3.org/1999/xlink" xmlns:h5="http://www.w3.org/1999/xhtml">
    <path class="typst-shape" fill="#ffffff" fill-rule="nonzero" d="M 0 0v 134.17291 h 708.66144 v -134.17291 Z "/>
    <g>
        <g class="typst-text" transform="matrix(1 0 0 -1 28.346456692913385 41.50645669291338)">
            <use xlink:href="#gDBCDAEFE2793D454A67DE32C7948AE1E" x="0" y="0" fill="#000000" fill-rule="nonzero"/>
            <use xlink:href="#g394E98138A88D9F9E4ADCFC4904E23E1" x="11.140000000000002" y="0" fill="#000000" fill-rule="nonzero"/>
            <use xlink:href="#gDD70DBC7FD82AB9B40B9A3C6BF7DE1B4" x="20.94" y="0" fill="#000000" fill-rule="nonzero"/>
            <use xlink:href="#g39326302C9A4C7E2C89CB4A130ACCC1F" x="31.32" y="0" fill="#000000" fill-rule="nonzero"/>
            <use xlink:href="#g845F8E06D89F63DD7162DF20339DA4BA" x="36.6" y="0" fill="#000000" fill-rule="nonzero"/>
            <use xlink:href="#gF12A6623DEF2800D3705B175D5318F31" x="45.74" y="0" fill="#000000" fill-rule="nonzero"/>
            <use xlink:href="#g845F8E06D89F63DD7162DF20339DA4BA" x="56.58" y="0" fill="#000000" fill-rule="nonzero"/>
            <use xlink:href="#g455A0A7B253B5C18AD25DE6C3DE6D827" x="65.72" y="0" fill="#000000" fill-rule="nonzero"/>
            <use xlink:href="#g6F5C25B9CDC78954A95E66C4D9476159" x="72.03999999999999" y="0" fill="#000000" fill-rule="nonzero"/>
            <use xlink:href="#g55A4F9C04CEF5831C57E09A53675FDC4" x="77.46" y="0" fill="#000000" fill-rule="nonzero"/>
            <use xlink:href="#gF12A6623DEF2800D3705B175D5318F31" x="87.53999999999999" y="0" fill="#000000" fill-rule="nonzero"/>
            <use xlink:href="#g1008B222C930C175D69E151B58290E06" x="98.38" y="0" fill="#000000" fill-rule="nonzero"/>
        </g>
        <g class="typst-group">
            <g>
                <g class="typst-text" transform="matrix(1 0 0 -1 28.346456692913385 79.16645669291339)">
                    <use xlink:href="#g3AB6CB6EB06359E9BB28DD7756390F38" x="0" y="0" fill="#000000" fill-rule="nonzero"/>
                    <use xlink:href="#g3F63B8AB50DA2B339D744B7E20C42106" x="9.3" y="0" fill="#000000" fill-rule="nonzero"/>
                    <use xlink:href="#gDD70DBC7FD82AB9B40B9A3C6BF7DE1B4" x="28.32" y="0" fill="#000000" fill-rule="nonzero"/>
                    <use xlink:href="#gF1A05E093C6DE90BD48222B92008B3B5" x="38.7" y="0" fill="#000000" fill-rule="nonzero"/>
                    <use xlink:href="#g55A4F9C04CEF5831C57E09A53675FDC4" x="45.980000000000004" y="0" fill="#000000" fill-rule="nonzero"/>
                    <use xlink:href="#g45A98D2144EF71BB022E685F85B1460A" x="56.06" y="0" fill="#000000" fill-rule="nonzero"/>
                    <use xlink:href="#g845F8E06D89F63DD7162DF20339DA4BA" x="65.92" y="0" fill="#000000" fill-rule="nonzero"/>
                    <use xlink:href="#g45A98D2144EF71BB022E685F85B1460A" x="75.06" y="0" fill="#000000" fill-rule="nonzero"/>
                    <use xlink:href="#g6F5C25B9CDC78954A95E66C4D9476159" x="84.92" y="0" fill="#000000" fill-rule="nonzero"/>
                    <use xlink:href="#g39326302C9A4C7E2C89CB4A130ACCC1F" x="90.34" y="0" fill="#000000" fill-rule="nonzero"/>
                    <use xlink:href="#g6F5C25B9CDC78954A95E66C4D9476159" x="95.62" y="0" fill="#000000" fill-rule="nonzero"/>
                    <use xlink:href="#g455A0A7B253B5C18AD25DE6C3DE6D827" x="101.04" y="0" fill="#000000" fill-rule="nonzero"/>
                    <use xlink:href="#gC54F0BD112AA562BDA71FCC9B2FEEB2D" x="107.36000000000001" y="0" fill="#000000" fill-rule="nonzero"/>
                    <use xlink:href="#gB651CB2A67A04083D280B4901C83844A" x="122.66000000000001" y="0" fill="#000000" fill-rule="nonzero"/>
                    <use xlink:href="#g6484C2A7F9C5874771031F6B94CC5AE6" x="132.78" y="0" fill="#000000" fill-rule="nonzero"/>
                    <use xlink:href="#gF12A6623DEF2800D3705B175D5318F31" x="141.72" y="0" fill="#000000" fill-rule="nonzero"/>
                    <use xlink:href="#g9CB997671DA533BA094E4093D11E3C6E" x="152.56" y="0" fill="#000000" fill-rule="nonzero"/>
                    <use xlink:href="#g6F5C25B9CDC78954A95E66C4D9476159" x="160.36" y="0" fill="#000000" fill-rule="nonzero"/>
                    <use xlink:href="#g455A0A7B253B5C18AD25DE6C3DE6D827" x="165.78" y="0" fill="#000000" fill-rule="nonzero"/>
                    <use xlink:href="#gC54F0BD112AA562BDA71FCC9B2FEEB2D" x="172.1" y="0" fill="#000000" fill-rule="nonzero"/>
                    <use xlink:href="#gE2958D1F03DC8FCC9778E10404824F9" x="187.4" y="0" fill="#000000" fill-rule="nonzero"/>
                    <use xlink:href="#g845F8E06D89F63DD7162DF20339DA4BA" x="198.16" y="0" fill="#000000" fill-rule="nonzero"/>
                    <use xlink:href="#g9CB997671DA533BA094E4093D11E3C6E" x="207.3" y="0" fill="#000000" fill-rule="nonzero"/>
                    <use xlink:href="#g7D4859D7BE0F93757B3F43DE58BC361" x="220.10000000000002" y="0" fill="#000000" fill-rule="nonzero"/>
                    <use xlink:href="#gF12A6623DEF2800D3705B175D5318F31" x="230.72000000000003" y="0" fill="#000000" fill-rule="nonzero"/>
                    <use xlink:href="#g6F5C25B9CDC78954A95E66C4D9476159" x="241.56000000000003" y="0" fill="#000000" fill-rule="nonzero"/>
                    <use xlink:href="#g455A0A7B253B5C18AD25DE6C3DE6D827" x="246.98000000000002" y="0" fill="#000000" fill-rule="nonzero"/>
                    <use xlink:href="#g9CB997671DA533BA094E4093D11E3C6E" x="253.3" y="0" fill="#000000" fill-rule="nonzero"/>
                </g>
                <g class="typst-text" transform="matrix(1 0 0 -1 297.9514566929134 71.28645669291339)">
                    <use xlink:href="#gC63031E906AB132A58D37390B30BBE2F" x="0" y="0" fill="#000000" fill-rule="nonzero"/>
                </g>
                <g class="typst-text" transform="matrix(1 0 0 -1 296.4464566929134 86.06645669291339)">
                    <use xlink:href="#g5A73EE92ADACCF62A253EAD493DA5CB7" x="0" y="0" fill="#000000" fill-rule="nonzero"/>
                </g>
                <path class="typst-shape" fill="none" stroke="#000000" stroke-width="0.96" stroke-linecap="butt" stroke-linejoin="miter" stroke-miterlimit="4" transform="matrix(1 0 0 1 296.4464566929134 74.16645669291339)" d="M 0 0h 10.976 "/>
                <g class="typst-text" transform="matrix(1 0 0 -1 309.42245669291333 79.16645669291339)">
                    <use xlink:href="#gE19E7D929419AC927655EB9570AAFFC" x="0" y="0" fill="#000000" fill-rule="nonzero"/>
                    <use xlink:href="#gF038496AD7A5287CE3AC894432DCFC28" x="9.399999999999999" y="0" fill="#000000" fill-rule="nonzero"/>
                    <use xlink:href="#gE2958D1F03DC8FCC9778E10404824F9" x="21.339999999999996" y="0" fill="#000000" fill-rule="nonzero"/>
                    <use xlink:href="#g6484C2A7F9C5874771031F6B94CC5AE6" x="32.099999999999994" y="0" fill="#000000" fill-rule="nonzero"/>
                    <use xlink:href="#gFC1E6F621AEE291BFF0CDFA12D64D859" x="46.03999999999999" y="0" fill="#000000" fill-rule="nonzero"/>
                    <use xlink:href="#g7D4859D7BE0F93757B3F43DE58BC361" x="54.599999999999994" y="0" fill="#000000" fill-rule="nonzero"/>
                    <use xlink:href="#gF1A05E093C6DE90BD48222B92008B3B5" x="65.22" y="0" fill="#000000" fill-rule="nonzero"/>
                    <use xlink:href="#gF1A05E093C6DE90BD48222B92008B3B5" x="72.66" y="0" fill="#000000" fill-rule="nonzero"/>
                    <use xlink:href="#g6484C2A7F9C5874771031F6B94CC5AE6" x="79.94" y="0" fill="#000000" fill-rule="nonzero"/>
                    <use xlink:href="#gF12A6623DEF2800D3705B175D5318F31" x="88.88" y="0" fill="#000000" fill-rule="nonzero"/>
                    <use xlink:href="#g455A0A7B253B5C18AD25DE6C3DE6D827" x="99.72" y="0" fill="#000000" fill-rule="nonzero"/>
                </g>
                <g class="typst-text" transform="matrix(1 0 0 -1 420.4624566929133 79.16645669291339)">
                    <use xlink:href="#gF1BD2D8A8ACC12D734D8EDB6CD7EDAC1" x="0" y="0" fill="#000000" fill-rule="nonzero"/>
                </g>
                <g class="typst-text" transform="matrix(1 0 0 -1 434.51801224846884 79.16645669291339)">
                    <use xlink:href="#g41740715EF81681FDFFBE8835EFC6236" x="0" y="0" fill="#000000" fill-rule="nonzero"/>
                </g>
                <g class="typst-group">
                    <g>
                        <g class="typst-text" transform="matrix(1 0 0 -1 455.63356780402444 79.16645669291339)">
                            <use xlink:href="#gAC064D620FFF1D0B2B308D3563B50DAF" x="0" y="0" fill="#000000" fill-rule="nonzero"/>
                        </g>
                        <g class="typst-text" transform="matrix(1 0 0 -1 469.8595678040244 71.28645669291338)">
                            <use xlink:href="#gE9C054051612A7ECC9FAE27369A6054" x="0" y="0" fill="#000000" fill-rule="nonzero"/>
                        </g>
                        <g class="typst-text" transform="matrix(1 0 0 -1 466.7935678040244 86.06645669291339)">
                            <use xlink:href="#g9F6ABC37453B8A762789F6A851A2EF62" x="0" y="0" fill="#000000" fill-rule="nonzero"/>
                        </g>
                        <path class="typst-shape" fill="none" stroke="#000000" stroke-width="0.96" stroke-linecap="butt" stroke-linejoin="miter" stroke-miterlimit="4" transform="matrix(1 0 0 1 466.7935678040244 74.16645669291339)" d="M 0 0h 14.196 "/>
                        <g class="typst-text" transform="matrix(1 0 0 -1 482.98956780402443 79.16645669291339)">
                            <use xlink:href="#gD326571D21B4B2DADD0F36779558E6BF" x="0" y="0" fill="#000000" fill-rule="nonzero"/>
                        </g>
                        <g class="typst-text" transform="matrix(1 0 0 -1 492.1495678040244 79.16645669291339)">
                            <use xlink:href="#g4A37B710C38AE1895316A633E3E7C049" x="0" y="0" fill="#000000" fill-rule="nonzero"/>
                            <use xlink:href="#g8E5B3F5430B9A7C13BF6D752A19937A4" x="7.22" y="0" fill="#000000" fill-rule="nonzero"/>
                        </g>
                        <g class="typst-text" transform="matrix(1 0 0 -1 516.0295678040244 79.16645669291339)">
                            <use xlink:href="#g2F639873C0D5402462C634F13849FF05" x="0" y="0" fill="#000000" fill-rule="nonzero"/>
                        </g>
                        <g class="typst-text" transform="matrix(1 0 0 -1 523.8095678040244 79.16645669291339)">
                            <use xlink:href="#g3AF466DF87933CB5D256B971C60B38AC" x="0" y="0" fill="#000000" fill-rule="nonzero"/>
                        </g>
                        <g class="typst-text" transform="matrix(1 0 0 -1 537.0695678040244 71.90645669291338)">
                            <use xlink:href="#gA0D7CB97105FD3FAA5E495EC8F7158F1" x="0" y="0" fill="#000000" fill-rule="nonzero"/>
                        </g>
                        <g class="typst-text" transform="matrix(1 0 0 -1 545.1895678040245 79.16645669291339)">
                            <use xlink:href="#gDB8CED24FD5AA817B10DE250B76545EF" x="0" y="0" fill="#000000" fill-rule="nonzero"/>
                        </g>
                        <g class="typst-text" transform="matrix(1 0 0 -1 561.8495678040243 79.16645669291339)">
                            <use xlink:href="#g3AF466DF87933CB5D256B971C60B38AC" x="0" y="0" fill="#000000" fill-rule="nonzero"/>
                        </g>
                        <g class="typst-text" transform="matrix(1 0 0 -1 575.1095678040244 79.16645669291339)">
                            <use xlink:href="#g909FB5CE54FFAC644324B9DB0DB66D02" x="0" y="0" fill="#000000" fill-rule="nonzero"/>
                        </g>
                    </g>
                </g>
                <g class="typst-text" transform="matrix(1 0 0 -1 582.8895678040244 79.16645669291339)">
                    <use xlink:href="#g6484C2A7F9C5874771031F6B94CC5AE6" x="5" y="0" fill="#000000" fill-rule="nonzero"/>
                    <use xlink:href="#g8360F7B7DA6FAE7789B8C0569A4CED25" x="13.799999999999999" y="0" fill="#000000" fill-rule="nonzero"/>
                    <use xlink:href="#g845F8E06D89F63DD7162DF20339DA4BA" x="23.74" y="0" fill="#000000" fill-rule="nonzero"/>
                    <use xlink:href="#g39326302C9A4C7E2C89CB4A130ACCC1F" x="32.879999999999995" y="0" fill="#000000" fill-rule="nonzero"/>
                    <use xlink:href="#g7D4859D7BE0F93757B3F43DE58BC361" x="38.16" y="0" fill="#000000" fill-rule="nonzero"/>
                    <use xlink:href="#g845F8E06D89F63DD7162DF20339DA4BA" x="48.779999999999994" y="0" fill="#000000" fill-rule="nonzero"/>
                    <use xlink:href="#g455A0A7B253B5C18AD25DE6C3DE6D827" x="57.919999999999995" y="0" fill="#000000" fill-rule="nonzero"/>
                    <use xlink:href="#g6484C2A7F9C5874771031F6B94CC5AE6" x="64.24" y="0" fill="#000000" fill-rule="nonzero"/>
                    <use xlink:href="#g9CB997671DA533BA094E4093D11E3C6E" x="73.17999999999999" y="0" fill="#000000" fill-rule="nonzero"/>
                </g>
            </g>
        </g>
        <g class="typst-group">
            <g>
                <g class="typst-text" transform="matrix(1 0 0 -1 28.346456692913385 105.82645669291338)">
                    <use xlink:href="#g455A0A7B253B5C18AD25DE6C3DE6D827" x="0" y="0" fill="#000000" fill-rule="nonzero"/>
                    <use xlink:href="#g55A4F9C04CEF5831C57E09A53675FDC4" x="6.32" y="0" fill="#000000" fill-rule="nonzero"/>
                    <use xlink:href="#gB651CB2A67A04083D280B4901C83844A" x="21.4" y="0" fill="#000000" fill-rule="nonzero"/>
                    <use xlink:href="#g6F5C25B9CDC78954A95E66C4D9476159" x="31.519999999999996" y="0" fill="#000000" fill-rule="nonzero"/>
                    <use xlink:href="#g418D5BD7C95AA4207A662276C9943AB7" x="36.94" y="0" fill="#000000" fill-rule="nonzero"/>
                    <use xlink:href="#g6484C2A7F9C5874771031F6B94CC5AE6" x="52.739999999999995" y="0" fill="#000000" fill-rule="nonzero"/>
                    <use xlink:href="#gF12A6623DEF2800D3705B175D5318F31" x="61.67999999999999" y="0" fill="#000000" fill-rule="nonzero"/>
                    <use xlink:href="#g9CB997671DA533BA094E4093D11E3C6E" x="72.52" y="0" fill="#000000" fill-rule="nonzero"/>
                    <use xlink:href="#g6F5C25B9CDC78954A95E66C4D9476159" x="80.32" y="0" fill="#000000" fill-rule="nonzero"/>
                    <use xlink:href="#g55A4F9C04CEF5831C57E09A53675FDC4" x="85.74" y="0" fill="#000000" fill-rule="nonzero"/>
                    <use xlink:href="#gF12A6623DEF2800D3705B175D5318F31" x="95.82" y="0" fill="#000000" fill-rule="nonzero"/>
                    <use xlink:href="#g9CB997671DA533BA094E4093D11E3C6E" x="106.66" y="0" fill="#000000" fill-rule="nonzero"/>
                    <use xlink:href="#g55A4F9C04CEF5831C57E09A53675FDC4" x="119.46" y="0" fill="#000000" fill-rule="nonzero"/>
                    <use xlink:href="#gED8BFC6625972CAA3A6D301AEE2A29E6" x="129.54" y="0" fill="#000000" fill-rule="nonzero"/>
                </g>
                <g class="typst-text" transform="matrix(1 0 0 -1 172.82945669291342 97.94645669291339)">
                    <use xlink:href="#gC63031E906AB132A58D37390B30BBE2F" x="0" y="0" fill="#000000" fill-rule="nonzero"/>
                </g>
                <g class="typst-text" transform="matrix(1 0 0 -1 171.0864566929134 112.72645669291339)">
                    <use xlink:href="#gB7BCFA38660BCAAFBF3C97CBDCF4F95F" x="0" y="0" fill="#000000" fill-rule="nonzero"/>
                </g>
                <path class="typst-shape" fill="none" stroke="#000000" stroke-width="0.96" stroke-linecap="butt" stroke-linejoin="miter" stroke-miterlimit="4" transform="matrix(1 0 0 1 171.0864566929134 100.82645669291338)" d="M 0 0h 11.452 "/>
                <g class="typst-text" transform="matrix(1 0 0 -1 184.5384566929134 105.82645669291338)">
                    <use xlink:href="#gF46C2F940A7482FC531947379BAB4653" x="5" y="0" fill="#000000" fill-rule="nonzero"/>
                    <use xlink:href="#g55A4F9C04CEF5831C57E09A53675FDC4" x="10.620000000000001" y="0" fill="#000000" fill-rule="nonzero"/>
                    <use xlink:href="#gF1A05E093C6DE90BD48222B92008B3B5" x="20.700000000000003" y="0" fill="#000000" fill-rule="nonzero"/>
                </g>
                <g class="typst-text" transform="matrix(1 0 0 -1 219.67845669291341 97.94645669291339)">
                    <use xlink:href="#gC63031E906AB132A58D37390B30BBE2F" x="0" y="0" fill="#000000" fill-rule="nonzero"/>
                </g>
                <g class="typst-text" transform="matrix(1 0 0 -1 219.8884566929134 112.72645669291339)">
                    <use xlink:href="#gD061FD30BF4F1C404F3C784BEDC079C4" x="0" y="0" fill="#000000" fill-rule="nonzero"/>
                </g>
                <path class="typst-shape" fill="none" stroke="#000000" stroke-width="0.96" stroke-linecap="butt" stroke-linejoin="miter" stroke-miterlimit="4" transform="matrix(1 0 0 1 219.67845669291341 100.82645669291338)" d="M 0 0h 7.966 "/>
                <g class="typst-text" transform="matrix(1 0 0 -1 229.64445669291342 105.82645669291338)">
                    <use xlink:href="#g8CF6B46BE1D64F90EF46A5849F1A5736" x="0" y="0" fill="#000000" fill-rule="nonzero"/>
                    <use xlink:href="#gE19E7D929419AC927655EB9570AAFFC" x="5.96" y="0" fill="#000000" fill-rule="nonzero"/>
                </g>
            </g>
        </g>
    </g>
    <defs id="glyph">
        <symbol id="gDBCDAEFE2793D454A67DE32C7948AE1E" overflow="visible">
            <path d="M 0 0m 5.62 7.22 h -1.8199999 v 3.6 c 0 0.8800001 0.24000001 1.2799997 1.3199999 1.2799997 h 1.5 c 1.5 0 1.8199997 -0.79999924 2.2600002 -2.1799994 c 0.23999977 -0.03999996 0.46000004 0 0.65999985 0.09999943 c -0.10000038 0.82000065 -0.40000057 2.7399998 -0.44000053 2.9000006 c 0 0.03999996 -0.019999504 0.059999466 -0.07999992 0.059999466 c -0.34000015 -0.059999466 -0.5 -0.07999992 -0.97999954 -0.07999992 h -5.1000004 c -0.5999999 0 -1.7799999 0.020000458 -2.58 0.03999996 c -0.11999999 -0.119999886 -0.11999999 -0.53999996 0 -0.65999985 c 1.4 -0.06000042 1.7399999 -0.15999985 1.7399999 -1.8199997 v -8.02 c 0 -1.6600001 -0.3399999 -1.76 -1.7399999 -1.82 c -0.11999999 -0.120000005 -0.11999999 -0.54 0 -0.66 c 0.74 0.02 1.9399999 0.04 2.6000001 0.04 h 4.2999997 c 0.9600005 0 2.56 -0.04 2.56 -0.04 c 0.27999973 1 0.5799999 2.32 0.7399998 3.34 c -0.19999981 0.119999886 -0.43999958 0.16000009 -0.6999998 0.099999905 c -0.39999962 -1.4399999 -1.0999994 -2.62 -2.62 -2.62 h -2.3199997 c -0.84000015 0 -1.1200001 0.32000005 -1.1200001 1.26 v 4.42 h 1.8199999 c 1.6999998 0 1.7599998 -0.46000004 1.8200002 -1.3600001 c 0.119999886 -0.119999886 0.53999996 -0.119999886 0.6599994 0 c -0.019999504 0.52 -0.03999996 1.0799999 -0.03999996 1.7599998 c 0 0.55999994 0.020000458 1.2399998 0.03999996 1.7200003 c -0.11999941 0.119999886 -0.5399995 0.119999886 -0.6599994 0 c -0.06000042 -1.0999999 -0.12000036 -1.3600001 -1.8200002 -1.3600001 Z "/>
        </symbol>
        <symbol id="g394E98138A88D9F9E4ADCFC4904E23E1" overflow="visible">
            <path d="M 0 0m 3.6399999 7.16 c -0.46000004 0.6799998 -0.31999993 0.6999998 0.5799999 0.8000002 c 0.119999886 0.119999886 0.119999886 0.53999996 0 0.65999985 c -0.53999996 -0.020000458 -1.4199998 -0.03999996 -2.0199997 -0.03999996 c -0.60000014 0 -1.2 0.019999504 -1.72 0.03999996 c -0.120000005 -0.119999886 -0.120000005 -0.53999996 0 -0.65999985 c 0.67999995 -0.06000042 1.2399999 -0.4000001 1.8 -1.2200003 l 1.74 -2.54 c 0.099999905 -0.13999987 0.099999905 -0.19999981 0.01999998 -0.29999995 l -1.6800001 -2.1599998 c -0.79999995 -1.02 -1.2399999 -1.08 -1.9399999 -1.12 c -0.120000005 -0.120000005 -0.120000005 -0.54 0 -0.66 c 0.4 0.02 0.84000003 0.04 1.44 0.04 c 0.6 0 1.16 -0.02 1.68 -0.04 c 0.119999886 0.12 0.119999886 0.54 0 0.66 c -0.72 0.07999998 -0.8800001 0.15999997 -0.44000006 0.79999995 l 1.2600002 1.82 c 0.15999985 0.24000001 0.23999977 0.22000003 0.35999966 0.03999996 l 1.1599998 -1.6 c 0.7000003 -0.96 0.3800001 -0.99999994 -0.25999975 -1.06 c -0.119999886 -0.120000005 -0.119999886 -0.54 0 -0.66 c 0.5999999 0.02 1.2599998 0.04 1.98 0.04 c 0.75999975 0 1.2999997 -0.02 1.7800002 -0.04 c 0.119999886 0.12 0.119999886 0.54 0 0.66 c -0.9000006 0.060000002 -1.2000008 0.120000005 -2.0000005 1.26 l -1.7999997 2.54 c -0.07999992 0.119999886 -0.099999905 0.17999983 0 0.2999997 l 1.6799998 2.1399999 c 0.74000025 0.94000006 1.2199998 1.04 1.94 1.1000004 c 0.119999886 0.119999886 0.119999886 0.53999996 0 0.65999985 c -0.39999962 -0.020000458 -0.85999966 -0.03999996 -1.46 -0.03999996 c -0.5999999 0 -1.1599998 0.019999504 -1.6799998 0.03999996 c -0.119999886 -0.119999886 -0.119999886 -0.53999996 0 -0.65999985 c 0.7399998 -0.0800004 0.96000004 -0.14000034 0.48000002 -0.8200002 l -1.3000002 -1.8200002 c -0.13999987 -0.19999981 -0.21999979 -0.17999983 -0.3800001 0.03999996 Z "/>
        </symbol>
        <symbol id="gDD70DBC7FD82AB9B40B9A3C6BF7DE1B4" overflow="visible">
            <path d="M 0 0m 3.12 7.3599997 c -0.01999998 0.6000004 -0.059999943 1.1199999 -0.15999985 1.3199997 c -0.0400002 0.10000038 -0.08000016 0.1600008 -0.24000001 0.1600008 c -0.5600002 -0.22000027 -1.08 -0.40000057 -2.46 -0.5799999 c -0.03999999 -0.12000084 0 -0.44000053 0.03999999 -0.5600004 c 1.08 -0.099999905 1.3 -0.19999981 1.3 -1.3600001 v -8.54 c 0 -1.6599998 -0.21999991 -1.7599998 -1.4399999 -1.8199999 c -0.12 -0.119999886 -0.12 -0.53999996 0 -0.65999985 c 0.6999999 0.01999998 1.4399999 0.03999996 2.2399998 0.03999996 c 0.79999995 0 1.76 -0.01999998 2.4199998 -0.03999996 c 0.12000036 0.119999886 0.12000036 0.53999996 0 0.65999985 c -1.4199998 0.08000016 -1.6399999 0.16000009 -1.6399999 1.8199999 v 2.16 c 0 0.26 0.08000016 0.23999998 0.2800002 0.16 c 0.49999976 -0.19999999 1.0999999 -0.32 1.7399998 -0.32 c 1.1199999 0 2.12 0.33999997 2.9399996 1.1199999 c 0.94000053 0.91999996 1.4800005 2.1599998 1.4800005 3.7799997 c 0 2.12 -1.5 4.08 -3.54 4.08 c -0.9200001 0 -1.94 -0.6000004 -2.74 -1.5 c -0.119999886 -0.119999886 -0.20000005 -0.119999886 -0.22000003 0.07999992 Z m 0.3800001 -0.7399998 c 0.52 0.63999987 1.44 1.2399998 2.02 1.2399998 c 1.2799997 0 2.3799996 -1.4399996 2.3799996 -3.6999998 c 0 -1.6399999 -0.5799999 -3.6799998 -2.8199997 -3.6799998 c -0.36000013 0 -1.06 0.099999994 -1.4200001 0.42 c -0.39999986 0.36 -0.48000002 0.48000002 -0.48000002 1.1999999 v 3.6399999 c 0 0.42000008 0.08000016 0.5999999 0.32000017 0.8800001 Z "/>
        </symbol>
        <symbol id="g39326302C9A4C7E2C89CB4A130ACCC1F" overflow="visible">
            <path d="M 0 0m 1.9 2.44 c 0 -1.6600001 -0.22000003 -1.76 -1.44 -1.82 c -0.119999975 -0.120000005 -0.119999975 -0.54 0 -0.66 c 0.7 0.02 1.44 0.04 2.24 0.04 c 0.79999995 0 1.5599997 -0.02 2.22 -0.04 c 0.119999886 0.12 0.119999886 0.54 0 0.66 c -1.2200003 0.060000002 -1.44 0.15999997 -1.44 1.82 v 9.219999 c 0 1.3000002 0.07999992 2.0999994 0.07999992 2.0999994 c 0 0.14000034 -0.07999992 0.20000076 -0.26 0.20000076 c -0.5 -0.20000076 -2 -0.4800005 -2.8 -0.53999996 c -0.04000002 -0.1600008 0 -0.4800005 0.120000005 -0.6000004 c 1.16 -0.07999992 1.28 -0.14000034 1.28 -1.6400003 Z "/>
        </symbol>
        <symbol id="g845F8E06D89F63DD7162DF20339DA4BA" overflow="visible">
            <path d="M 0 0m 5.8599997 0.96 c 0.12000036 -0.62 0.34000015 -1.16 1.3400002 -1.16 c 0.7600002 0 1.4799995 0.33999997 1.8999996 0.73999995 c -0.03999996 0.24000001 -0.119999886 0.42000002 -0.3399992 0.53999996 c -0.14000034 -0.119999945 -0.4800005 -0.31999993 -0.7400007 -0.31999993 c -0.57999945 0 -0.5999999 0.78 -0.5999999 1.7 v 2.94 c 0 2.8399997 -1.56 3.3799996 -3.0199995 3.3799996 c -1.6400001 0 -3.3000002 -1.0799999 -3.3000002 -2.2199998 c 0 -0.48000002 0.23999989 -0.72000027 0.6999999 -0.72000027 c 0.5799999 0 0.94000006 0.42000008 0.94000006 0.6800003 c 0 0.13999987 -0.01999998 0.27999973 -0.06000018 0.35999966 c -0.01999998 0.06000042 -0.03999996 0.1800003 -0.03999996 0.4000001 c 0 0.6199999 0.84000015 0.84000015 1.5999999 0.84000015 c 0.6800003 0 1.6199999 -0.34000015 1.6199999 -2.6 c 0 -0.13999987 -0.059999943 -0.22000027 -0.119999886 -0.24000025 l -1.7199998 -0.42000008 c -1.9200001 -0.47999954 -3.3 -1.5399997 -3.3 -2.8999996 c 0 -1.6399999 1.1199999 -2.1599998 2.52 -2.1599998 c 0.6999998 0 1.3 0.16 2.18 0.84 l 0.39999962 0.32 Z m 0 3.6999998 v -2.6399999 c 0 -0.26 -0.119999886 -0.39999998 -0.27999973 -0.52 c -0.52 -0.42000008 -1.1999998 -0.88 -1.76 -0.88 c -1 0 -1.44 0.79999995 -1.44 1.42 c 0 0.89999986 0.42000008 1.8199999 1.8999999 2.1999998 Z "/>
        </symbol>
        <symbol id="gF12A6623DEF2800D3705B175D5318F31" overflow="visible">
            <path d="M 0 0m 3.6799998 7.16 c -0.119999886 -0.13999987 -0.24000001 -0.17999983 -0.24000001 0 c -0.01999998 0.53999996 -0.059999943 1.3199997 -0.15999985 1.5199995 c -0.03999996 0.10000038 -0.08000016 0.1600008 -0.24000001 0.1600008 c -0.55999994 -0.22000027 -1.08 -0.40000057 -2.46 -0.5799999 c -0.04000002 -0.12000084 0 -0.44000053 0.04000002 -0.5600004 c 1.0799999 -0.099999905 1.3 -0.19999981 1.3 -1.3600001 v -3.8999996 c 0 -1.6400001 -0.20000005 -1.72 -1.4 -1.82 c -0.120000005 -0.120000005 -0.120000005 -0.54 0 -0.66 c 0.6 0.02 1.4 0.04 2.2 0.04 c 0.79999995 0 1.3999999 -0.02 1.9999998 -0.04 c 0.119999886 0.12 0.119999886 0.54 0 0.66 c -1.02 0.099999964 -1.2199998 0.17999995 -1.2199998 1.82 v 3.2799997 c 0 0.42000008 0.17999983 0.65999985 0.3399999 0.84000015 c 0.76 0.7399998 1.6600001 1.1799998 2.4399998 1.1799998 c 0.4000001 0 0.8200002 -0.25999975 1.06 -0.7199998 c 0.20000029 -0.4000001 0.24000025 -0.94000006 0.24000025 -1.54 v -3.04 c 0 -1.6400001 -0.20000029 -1.72 -1.2400002 -1.82 c -0.099999905 -0.120000005 -0.099999905 -0.54 0 -0.66 c 0.6000004 0.02 1.2400002 0.04 2.0400004 0.04 c 0.79999924 0 1.5199995 -0.02 2.12 -0.04 c 0.09999943 0.12 0.09999943 0.54 0 0.66 c -1.1199999 0.099999964 -1.3400002 0.17999995 -1.3400002 1.82 v 2.98 c 0 1.0999999 -0.07999992 2.06 -0.53999996 2.6799994 c -0.34000015 0.44000053 -0.96000004 0.6800003 -1.6599998 0.6800003 c -0.98 0 -2.1000004 -0.26000023 -3.2800002 -1.6199999 Z "/>
        </symbol>
        <symbol id="g455A0A7B253B5C18AD25DE6C3DE6D827" overflow="visible">
            <path d="M 0 0m 0.85999995 8.58 c -0.27999997 0 -0.35999995 -0.23999977 -0.35999995 -0.40000057 v -0.25999975 c 0 -0.099999905 0.01999998 -0.119999886 0.099999964 -0.119999886 h 1.1800001 v -6.0199995 c 0 -1.42 0.6199999 -1.98 1.54 -1.98 c 0.91999984 0 1.9199998 0.44 2.7 1.3199999 c -0.03999996 0.19999993 -0.16000032 0.31999993 -0.36000013 0.3399999 c -0.52 -0.39999998 -1.1199999 -0.55999994 -1.6399999 -0.55999994 c -0.53999996 0 -0.6600001 0.6 -0.6600001 1.84 v 5.0599995 h 2.0800002 c 0.19999981 0 0.48000002 0.07999992 0.48000002 0.25999975 v 0.40000057 c 0 0.07999992 -0.06000042 0.119999886 -0.16000032 0.119999886 h -2.3999999 v 0.77999973 c 0 1.3000002 0.07999992 2.1000004 0.07999992 2.1000004 c 0 0.119999886 -0.059999943 0.17999935 -0.15999985 0.17999935 c -0.08000016 0 -0.26 -0.07999992 -0.44000006 -0.17999935 c -0.22000003 -0.119999886 -0.42000008 -0.22000027 -0.68000007 -0.2800007 c -0.23999989 -0.07999992 -0.43999994 -0.13999939 -0.43999994 -0.27999973 c 0 -0.23999977 0.060000062 -0.09999943 0.060000062 -2.3199997 Z "/>
        </symbol>
        <symbol id="g6F5C25B9CDC78954A95E66C4D9476159" overflow="visible">
            <path d="M 0 0m 3.62 2.44 v 3.98 c 0 0.9999995 0.07999992 2.2799997 0.07999992 2.2799997 c 0 0.07999992 -0.099999905 0.14000034 -0.26 0.14000034 c -0.55999994 -0.22000027 -1.3599999 -0.40000057 -2.7399998 -0.5799999 c -0.04000002 -0.12000084 0 -0.44000053 0.04000002 -0.5600004 c 1.0999999 -0.099999905 1.3 -0.21999979 1.3 -1.3600001 v -3.8999996 c 0 -1.6600001 -0.22000003 -1.72 -1.44 -1.82 c -0.119999975 -0.120000005 -0.119999975 -0.54 0 -0.66 c 0.66 0.02 1.44 0.04 2.24 0.04 c 0.79999995 0 1.5600002 -0.02 2.22 -0.04 c 0.119999886 0.12 0.119999886 0.54 0 0.66 c -1.22 0.07999998 -1.44 0.15999997 -1.44 1.82 Z m -1.8199999 9.539999 c 0 -0.5199995 0.48000002 -1.04 0.96000004 -1.04 c 0.55999994 0 1.04 0.53999996 1.04 0.96000004 c 0 0.4800005 -0.42000008 1.04 -0.96000004 1.04 c -0.48000002 0 -1.04 -0.47999954 -1.04 -0.96000004 Z "/>
        </symbol>
        <symbol id="g55A4F9C04CEF5831C57E09A53675FDC4" overflow="visible">
            <path d="M 0 0m 0.82 4.1 c 0 -2.04 1.3600001 -4.2999997 4.2 -4.2999997 c 1.2799997 0 2.2599998 0.45999998 2.94 1.1199999 c 0.8999996 0.88 1.3000002 2.1399999 1.3000002 3.3599997 c 0 2.08 -1.1400003 4.5 -4.2000003 4.5 c -1.3199999 0 -2.4 -0.53999996 -3.1399999 -1.4000001 c -0.72 -0.85999966 -1.0999999 -2.02 -1.0999999 -3.2799997 Z m 3.9399998 3.98 c 1.7200003 0 2.7800002 -1.56 2.7800002 -4.44 c 0 -2.52 -1.3000002 -3.1399999 -2.2400002 -3.1399999 c -2.0799997 0 -2.7599998 2.52 -2.7599998 4.06 c 0 1.7399998 0.42000008 3.52 2.2199998 3.52 Z "/>
        </symbol>
        <symbol id="g1008B222C930C175D69E151B58290E06" overflow="visible">
            <path d="M 0 0m 1.4 1.1999999 c 0 -0.5799999 0.48000002 -1.06 1.0600001 -1.06 c 0.5799999 0 1.06 0.48000002 1.06 1.06 c 0 0.58000004 -0.48000002 1.0600001 -1.06 1.0600001 c -0.58000004 0 -1.0600001 -0.48000002 -1.0600001 -1.0600001 Z m 0 5.96 c 0 -0.5799999 0.48000002 -1.06 1.0600001 -1.06 c 0.5799999 0 1.06 0.48000002 1.06 1.06 c 0 0.5799999 -0.48000002 1.0600004 -1.06 1.0600004 c -0.58000004 0 -1.0600001 -0.4800005 -1.0600001 -1.0600004 Z "/>
        </symbol>
        <symbol id="g3AB6CB6EB06359E9BB28DD7756390F38" overflow="visible">
            <path d="M 0 0m 5.7599998 2.44 v 6.94 c 0 1.1999998 0.01999998 2.42 0.059999943 2.6799994 c 0 0.10000038 -0.03999996 0.10000038 -0.119999886 0.10000038 c -1.0999999 -0.6800003 -2.1599998 -1.1800003 -3.9199998 -2 c 0.03999996 -0.22000027 0.120000005 -0.42000008 0.29999995 -0.53999996 c 0.9200001 0.3800001 1.3599999 0.5 1.74 0.5 c 0.3399999 0 0.39999986 -0.4800005 0.39999986 -1.1599998 v -6.52 c 0 -1.6600001 -0.53999996 -1.76 -1.9399998 -1.82 c -0.120000124 -0.120000005 -0.120000124 -0.54 0 -0.66 c 0.98 0.02 1.7 0.04 2.78 0.04 c 0.96000004 0 1.44 -0.02 2.44 -0.04 c 0.119999886 0.12 0.119999886 0.54 0 0.66 c -1.4000001 0.060000002 -1.7400002 0.15999997 -1.7400002 1.82 Z "/>
        </symbol>
        <symbol id="g3F63B8AB50DA2B339D744B7E20C42106" overflow="visible">
            <path d="M 0 0m 2.96 12.9 c -0.72 0 -1.7800001 0.020000458 -2.58 0.03999996 c -0.120000005 -0.119999886 -0.120000005 -0.53999996 0 -0.65999985 c 1.4 -0.06000042 1.7399999 -0.15999985 1.7399999 -1.8199997 v -8.02 c 0 -1.6600001 -0.3399999 -1.76 -1.7399999 -1.82 c -0.120000005 -0.120000005 -0.120000005 -0.54 0 -0.66 c 0.78 0.02 1.84 0.04 2.6 0.04 c 0.74 0 1.5799999 -0.04 3.6399999 -0.04 c 2.8199997 0 6.54 1.28 6.54 6.2 c 0 3.7200003 -3.0600004 6.7799997 -6.9 6.7799997 c -1.4200001 0 -2.5199997 -0.03999996 -3.2999997 -0.03999996 Z m 0.8599999 -11.219999 v 9.599999 c 0 0.6999998 0.70000005 0.97999954 1.6800001 0.97999954 c 4.3199997 0 5.74 -3.499999 5.74 -6.5799994 c 0 -4.04 -2.42 -5.04 -5.24 -5.04 c -1.96 0 -2.18 0.39999998 -2.18 1.04 Z "/>
        </symbol>
        <symbol id="gF1A05E093C6DE90BD48222B92008B3B5" overflow="visible">
            <path d="M 0 0m 3.52 7.16 c -0.03999996 0.8000002 -0.059999943 1.3199997 -0.16000009 1.5199995 c -0.03999996 0.10000038 -0.07999992 0.1600008 -0.24000001 0.1600008 c -0.55999994 -0.22000027 -1.0799999 -0.40000057 -2.46 -0.5799999 c -0.03999996 -0.12000084 0 -0.44000053 0.04000002 -0.5600004 c 1.0799999 -0.099999905 1.3 -0.19999981 1.3 -1.3600001 v -3.8999996 c 0 -1.6600001 -0.24000001 -1.74 -1.48 -1.82 c -0.120000005 -0.120000005 -0.120000005 -0.54 0 -0.66 c 0.70000005 0.02 1.48 0.04 2.28 0.04 c 0.79999995 0 1.72 -0.02 2.4199998 -0.04 c 0.119999886 0.12 0.119999886 0.54 0 0.66 c -1.3999999 0.099999964 -1.6399999 0.15999997 -1.6399999 1.82 v 2.7799997 c 0 0.52 0.24000001 0.98 0.48000002 1.3400002 c 0.21999979 0.3199997 0.6799998 0.98 0.9200001 0.98 c 0.17999983 0 0.35999966 -0.03999996 0.52 -0.26000023 c 0.13999987 -0.19999981 0.37999964 -0.46000004 0.7199998 -0.46000004 c 0.48000002 0 0.94000006 0.5 0.94000006 1 c 0 0.3800001 -0.36000013 0.96000004 -1.1999998 0.96000004 c -0.94000006 0 -1.7600002 -0.8800001 -2.22 -1.6599998 c -0.120000124 -0.22000027 -0.22000003 -0.059999943 -0.22000003 0.03999996 Z "/>
        </symbol>
        <symbol id="g45A98D2144EF71BB022E685F85B1460A" overflow="visible">
            <path d="M 0 0m 3.34 7.8799996 c -0.119999886 -0.119999886 -0.20000005 -0.07999992 -0.20000005 0.10000038 v 3.6799998 c 0 1.3000002 0.08000016 2.0999994 0.08000016 2.0999994 c 0 0.14000034 -0.08000016 0.20000076 -0.26 0.20000076 c -0.5 -0.20000076 -2 -0.4800005 -2.8 -0.53999996 c -0.04 -0.1600008 0 -0.4800005 0.120000005 -0.6000004 c 0.060000002 0 0.119999975 0 0.17999998 0 c 0.87999994 -0.06000042 1.0999999 -0.06000042 1.0999999 -1.6400003 v -9.759999 c 0 -0.78 -0.01999998 -1.14 -0.07999992 -1.42 c 0.099999905 -0.16 0.19999993 -0.24 0.43999994 -0.24 c 0.120000005 0.12 0.32000005 0.29999998 0.4799999 0.48 c 0.20000005 0.24 0.32000017 0.24 0.53999996 0.059999987 c 0.46000004 -0.38 1.0600002 -0.49999997 1.76 -0.49999997 c 2.04 0 4.42 1.8599999 4.42 5.0399995 c 0 2.44 -1.8000002 3.94 -3.54 3.94 c -0.86000013 0 -1.6200001 -0.34000015 -2.24 -0.9000001 Z m 0.1400001 -0.6199999 c 0.52 0.46000004 1.1199999 0.63999987 1.6999998 0.63999987 c 1.2199998 0 2.2199998 -1.4799995 2.2199998 -3.4199996 c 0 -2.28 -0.9199996 -4 -2.8199997 -4 c -0.6200001 0 -1.04 0.43999997 -1.44 0.93999994 v 5 c 0 0.4199996 0.08000016 0.6199999 0.34000015 0.8399997 Z "/>
        </symbol>
        <symbol id="gC54F0BD112AA562BDA71FCC9B2FEEB2D" overflow="visible">
            <path d="M 0 0m 4.08 -3.1999998 c 0.32000017 0.55999994 0.5799999 1.1199999 0.8200002 1.7199998 c 1.5999999 3.86 2.4999995 5.92 3.5399995 8.16 c 0.40000057 0.84000015 0.6800003 1.1599998 1.6199999 1.2800002 c 0.119999886 0.119999886 0.119999886 0.53999996 0 0.65999985 c -0.39999962 -0.020000458 -0.85999966 -0.03999996 -1.4200001 -0.03999996 c -0.5999994 0 -1.2199998 0.019999504 -1.8199997 0.03999996 c -0.119999886 -0.119999886 -0.119999886 -0.53999996 0 -0.65999985 c 0.64000034 -0.06000042 1.2799997 -0.1800003 0.96000004 -0.9000001 l -1.98 -4.58 c -0.13999987 -0.32000017 -0.3199997 -0.3800001 -0.48000002 0.01999998 l -1.7799997 4.16 c -0.36000013 0.84000015 -0.46000004 1.2199998 0.65999985 1.3000002 c 0.119999886 0.119999886 0.119999886 0.53999996 0 0.65999985 c -0.7399998 -0.020000458 -1.54 -0.03999996 -2.2599998 -0.03999996 c -0.67999995 0 -1.22 0.019999504 -1.6199999 0.03999996 c -0.120000005 -0.119999886 -0.120000005 -0.53999996 0 -0.65999985 c 0.8 -0.10000038 1.06 -0.2800002 1.5799999 -1.5 l 2.2599998 -5.26 c 0.17999983 -0.39999998 0.48000002 -1.3199999 0.2800002 -1.8799999 c -0.24000025 -0.6599999 -0.48000026 -1.22 -0.7800002 -1.8399999 c -0.22000003 -0.39999986 -0.5 -0.5799999 -1 -0.5799999 c -0.27999997 0 -0.3599999 0.059999943 -0.5799999 0.059999943 c -0.5799999 0 -0.88 -0.5999999 -0.88 -0.8599999 c 0 -0.41999984 0.39999998 -0.74 0.93999994 -0.74 c 0.42000008 0 1.22 0.15999985 1.94 1.44 Z "/>
        </symbol>
        <symbol id="gB651CB2A67A04083D280B4901C83844A" overflow="visible">
            <path d="M 0 0m 6.68 1 c 0.099999905 0.07999992 0.2800002 0.120000005 0.3000002 -0.02000004 c 0.059999943 -0.47999996 0.21999979 -1.18 0.21999979 -1.18 c 0.15999985 -0.060000002 0.26000023 -0.040000007 0.3800001 0 c 0.43999958 0.35999998 1.1400003 0.65999997 2.3599997 0.79999995 c 0.119999886 0.120000005 0.119999886 0.42000002 0 0.54 c -1.2799997 0.100000024 -1.46 0.48000002 -1.46 1.4599999 v 9.059999 c 0 1.3000002 0.07999992 2.0999994 0.07999992 2.0999994 c 0 0.14000034 -0.07999992 0.20000076 -0.25999928 0.20000076 c -0.5000005 -0.20000076 -2.0000005 -0.4800005 -2.8000002 -0.53999996 c -0.03999996 -0.1600008 0 -0.4800005 0.119999886 -0.6000004 c 0.059999943 0 0.119999886 0 0.17999983 0 c 0.8800001 -0.06000042 1.0999999 -0.06000042 1.0999999 -1.6400003 v -2.5599995 c 0 -0.14000034 -0.03999996 -0.1800003 -0.17999983 -0.1800003 c -0.07999992 0 -0.9000001 0.34000015 -1.56 0.34000015 c -1.3199999 0 -2.1999998 -0.43999958 -3 -1.1999998 c -0.8599999 -0.86000013 -1.3799999 -2.04 -1.3799999 -3.52 c 0 -2.46 1.24 -4.2599998 3.3999999 -4.2599998 c 0.7800002 0 1.52 0.39999998 2.5 1.2 Z m 0.21999979 1.48 c 0 -0.3800001 -0.03999996 -0.5400001 -0.3199997 -0.7800001 c -0.74000025 -0.64 -1.3800001 -0.9599999 -1.8800001 -0.9599999 c -1.0799999 0 -2.1999998 1.18 -2.1999998 3.68 c 0 1.4399996 0.27999997 2.2399998 0.5799999 2.6599998 c 0.6199999 0.9399996 1.46 1 1.8600001 1 c 0.7199998 0 1.2199998 -0.26000023 1.6199999 -0.72000027 c 0.27999973 -0.3199997 0.33999968 -0.46000004 0.33999968 -1.0799999 Z "/>
        </symbol>
        <symbol id="g6484C2A7F9C5874771031F6B94CC5AE6" overflow="visible">
            <path d="M 0 0m 7.72 1.86 c -0.7399998 -0.76 -1.3200002 -1.08 -2.48 -1.08 c -0.7199998 0 -1.56 0.41999996 -2.1799998 1.44 c -0.4000001 0.65999985 -0.6400001 1.5799999 -0.6400001 2.74 l 5.3199997 -0.03999996 c 0.24000025 0 0.3800001 0.119999886 0.3800001 0.33999968 c 0 1.6800003 -0.5999999 3.48 -3.38 3.48 c -1.7399998 0 -3.9999998 -1.6599998 -3.9999998 -4.7 c 0 -1.1200001 0.27999997 -2.2 0.93999994 -2.96 c 0.67999995 -0.79999995 1.62 -1.28 3.06 -1.28 c 1.52 0 2.6 0.7 3.3999996 1.74 c -0.059999466 0.20000005 -0.17999935 0.29999995 -0.4199996 0.32000005 Z m -5.24 3.7799997 c 0.37999988 2.2599998 1.7799997 2.44 2.2599998 2.44 c 0.7600002 0 1.6599998 -0.42000008 1.6599998 -2.1 c 0 -0.1800003 -0.07999992 -0.2800002 -0.2999997 -0.2800002 Z "/>
        </symbol>
        <symbol id="g9CB997671DA533BA094E4093D11E3C6E" overflow="visible">
            <path d="M 0 0m 0.96 2.76 c 0.07999998 -0.98 0.14000005 -1.9200001 0.14000005 -2.76 c 0.19999993 0.04 0.39999998 0.06 0.49999988 0.06 c 0.1400001 0 0.2600001 0 0.4000001 -0.04 c 0.53999996 -0.14 1.0799999 -0.21999998 1.8199999 -0.21999998 c 1.1200001 0 3.18 0.53999996 3.18 2.52 c 0 1.3599999 -0.98 2.16 -2.3400002 2.66 c -1.1999998 0.46000004 -2 0.75999975 -2 1.8599997 c 0 0.8200002 0.72 1.2800002 1.4000001 1.2800002 c 0.44000006 0 1.5999999 -0.15999985 1.8600001 -1.8600001 c 0.119999886 -0.119999886 0.52 -0.099999905 0.63999987 0.01999998 c 0.059999943 0.72000027 0.099999905 1.46 0.119999886 2.12 c -0.6199999 0.10000038 -1.5799999 0.3800001 -2.62 0.3800001 c -1.48 0 -2.82 -0.96000004 -2.82 -2.2399998 c 0 -1.46 0.65999997 -2.08 2.1999998 -2.72 c 1.6600001 -0.68000007 2.0400002 -1.0999999 2.0400002 -1.9599999 c 0 -0.98 -0.96000004 -1.4000001 -1.7 -1.4000001 c -0.78 0 -1.22 0.26 -1.4200001 0.48000002 c -0.43999994 0.45999998 -0.65999997 1.3399999 -0.78 1.8399999 c -0.120000005 0.119999886 -0.5 0.099999905 -0.61999995 -0.01999998 Z "/>
        </symbol>
        <symbol id="gE2958D1F03DC8FCC9778E10404824F9" overflow="visible">
            <path d="M 0 0m 3.34 5.72 c 0 0.42000008 0.18000007 0.65999985 0.3399999 0.84000015 c 0.7600002 0.7399998 1.7800002 1.1799998 2.56 1.1799998 c 0.4000001 0 0.8200002 -0.25999975 1.06 -0.7199998 c 0.20000029 -0.4000001 0.24000025 -0.94000006 0.24000025 -1.54 v -3.04 c 0 -1.6400001 -0.20000029 -1.72 -1.2400002 -1.82 c -0.099999905 -0.120000005 -0.099999905 -0.54 0 -0.66 c 0.55999994 0.02 1.2400002 0.04 2.0400004 0.04 c 0.79999924 0 1.46 -0.02 2.12 -0.04 c 0.09999943 0.12 0.09999943 0.54 0 0.66 c -1.1199999 0.099999964 -1.3400002 0.17999995 -1.3400002 1.82 v 2.98 c 0 1.0999999 -0.07999992 2.08 -0.53999996 2.6799994 c -0.34000015 0.44000053 -0.96000004 0.6800003 -1.6599998 0.6800003 c -0.98 0 -2.1800003 -0.26000023 -3.4 -1.6199999 c 0 -0.01999998 -0.01999998 -0.01999998 -0.03999996 -0.03999996 c -0.06000018 -0.07999992 -0.16000009 -0.19999981 -0.16000009 0.03999996 l 0.01999998 4.5 c 0 1.3000002 0.07999992 2.0999994 0.07999992 2.0999994 c 0 0.14000034 -0.07999992 0.20000076 -0.26 0.20000076 c -0.5 -0.20000076 -1.9999999 -0.4800005 -2.8 -0.53999996 c -0.03999999 -0.1600008 0 -0.4800005 0.120000005 -0.6000004 c 0.059999973 0 0.119999975 0 0.17999998 0 c 0.88 -0.06000042 1.1 -0.06000042 1.1 -1.6400003 v -8.74 c 0 -1.6600001 -0.24000001 -1.74 -1.4 -1.82 c -0.11999999 -0.120000005 -0.11999999 -0.54 0 -0.66 c 0.65999997 0.02 1.4 0.04 2.2 0.04 c 0.76 0 1.4200001 -0.02 1.98 -0.04 c 0.119999886 0.12 0.119999886 0.54 0 0.66 c -1.02 0.07999998 -1.2 0.15999997 -1.2 1.82 Z "/>
        </symbol>
        <symbol id="g7D4859D7BE0F93757B3F43DE58BC361" overflow="visible">
            <path d="M 0 0m 4.3399997 -0.19999999 c 0.7800002 0 1.7200003 0.39999998 2.7000003 1.2 c 0.099999905 0.07999992 0.27999973 0.120000005 0.2999997 -0.02000004 c 0.059999943 -0.49999997 0.22000027 -1.18 0.22000027 -1.18 c 0.15999985 -0.060000002 0.25999975 -0.040000007 0.3800001 0 c 0.44000006 0.35999998 1.1399999 0.65999997 2.3600001 0.79999995 c 0.119999886 0.120000005 0.119999886 0.42000002 0 0.54 c -1.2800007 0.100000024 -1.46 0.48000002 -1.46 1.4599999 v 3.8400002 c 0 0.5999999 0.07999992 2.06 0.07999992 2.06 c 0 0.059999466 -0.06000042 0.119999886 -0.15999985 0.119999886 c -0.10000038 -0.020000458 -0.40000057 -0.03999996 -0.70000076 -0.03999996 c -0.63999987 0 -1.3599997 0.019999504 -2.0399995 0.03999996 c -0.119999886 -0.119999886 -0.119999886 -0.53999996 0 -0.65999985 c 0.98 -0.06000042 1.2399998 -0.3000002 1.2399998 -1.6200004 v -3.8599997 c 0 -0.3800001 -0.03999996 -0.5400001 -0.3199997 -0.7800001 c -0.74000025 -0.64 -1.5 -0.9599999 -2 -0.9599999 c -0.6000004 0 -1.6000001 0.27999997 -1.6000001 2.06 v 3.64 c 0 0.5999999 0.07999992 2.06 0.07999992 2.06 c 0 0.059999466 -0.059999943 0.119999886 -0.15999985 0.119999886 c -0.10000014 -0.020000458 -0.4000001 -0.03999996 -0.70000005 -0.03999996 c -0.64 0 -1.36 0.019999504 -2.04 0.03999996 c -0.120000005 -0.119999886 -0.120000005 -0.53999996 0 -0.65999985 c 0.96000004 -0.0800004 1.24 -0.3000002 1.24 -1.6000004 v -3.8399997 c 0 -1.38 0.5999999 -2.72 2.5799997 -2.72 Z "/>
        </symbol>
        <symbol id="gC63031E906AB132A58D37390B30BBE2F" overflow="visible">
            <path d="M 0 0m 4.242 9.2960005 c -0.602 -0.5880003 -1.4979999 -0.88199997 -2.716 -0.88199997 v -0.6160002 c 0.826 0 1.484 0.12599993 1.9880002 0.36400032 v -6.9720006 c 0 -0.18200004 -0.014000177 -0.29400003 -0.055999994 -0.35000002 c -0.07000017 -0.15399998 -0.49 -0.23800004 -1.2600002 -0.23800004 h -0.5739999 v -0.602 l 2.492 0.056 l 2.506 -0.056 v 0.602 h -0.5739999 c -0.77 0 -1.19 0.08400005 -1.2740002 0.23800004 c -0.027999878 0.055999994 -0.041999817 0.16799998 -0.041999817 0.35000002 v 7.6580005 c 0 0.3779993 -0.056000233 0.44799995 -0.49000025 0.44799995 Z "/>
        </symbol>
        <symbol id="g5A73EE92ADACCF62A253EAD493DA5CB7" overflow="visible">
            <path d="M 0 0m 3.9060001 0.68600005 l 1.9180002 7.672 c 0.041999817 0.18200016 0.09800005 0.30800056 0.13999987 0.37800026 c 0.11199999 0.15400028 0.53200006 0.22399998 1.2459998 0.22399998 c 0.3920002 0 0.6160002 0 0.6160002 0.36400032 c -0.041999817 0.14000034 -0.07000017 0.23799992 -0.29400015 0.23799992 c -0.32200003 -0.013999939 -0.658 -0.027999878 -1.0219998 -0.041999817 l -1.106 -0.013999939 l -0.95200014 0.013999939 c -0.16800022 0 -0.7279999 0.041999817 -0.89600015 0.041999817 c -0.23799992 0 -0.3499999 -0.1260004 -0.3499999 -0.36400032 c 0 -0.15399933 0.09800005 -0.22399998 0.27999997 -0.23799992 l 0.7420001 -0.027999878 c 0.16799974 -0.013999939 0.2659998 -0.013999939 0.2659998 -0.14000034 l -1.8899999 -7.644 c -0.06999993 -0.27999997 -0.21000004 -0.44799995 -0.42000008 -0.518 c -0.06999993 -0.013999999 -0.30799997 -0.027999997 -0.742 -0.027999997 h -0.23800004 c -0.15399992 -0.013999999 -0.23799998 -0.12599999 -0.23799998 -0.336 c 0 -0.238 0.18199998 -0.266 0.476 -0.266 h 6.9440007 c 0.39199924 0 0.40599918 0.028 0.5319996 0.308 c 0.027999878 0.07000002 0.14000034 0.36400005 0.33600044 0.9100001 l 0.5739994 1.5260001 c 0.18200016 0.4619999 0.2659998 0.714 0.2659998 0.7559998 c 0 0.16800022 -0.09799957 0.2520001 -0.29399967 0.2520001 c -0.12599945 0 -0.21000004 -0.055999994 -0.25199986 -0.15400004 c -0.36400032 -0.86800003 -0.37800026 -1.0079999 -0.8540001 -1.708 c -0.5039997 -0.7700001 -1.526 -1.2880001 -2.828 -1.2880001 h -1.5679998 c -0.25200033 0 -0.3920002 -0.027999997 -0.3920002 0.08400005 Z "/>
        </symbol>
        <symbol id="gE19E7D929419AC927655EB9570AAFFC" overflow="visible">
            <path d="M 0 0m 1.14 0.85999995 c 0 -0.5799999 0.48000002 -1.06 1.0600001 -1.06 c 0.5799999 0 1.06 0.48 1.06 1.06 c 0 0.58 -0.48000002 1.06 -1.06 1.06 c -0.58000004 0 -1.0600001 -0.48000002 -1.0600001 -1.06 Z "/>
        </symbol>
        <symbol id="gF038496AD7A5287CE3AC894432DCFC28" overflow="visible">
            <path d="M 0 0m 7 2.44 v 7.64 c 0 1.2799997 0.19999981 2.04 0.9199996 2.04 h 0.44000006 c 1.5 0 2.4400005 -0.52000046 2.7799997 -2.0600004 c 0.22000027 0 0.5 0.020000458 0.6800003 0.10000038 c -0.14000034 0.9200001 -0.23999977 1.9399996 -0.26000023 2.8400002 c 0 0.019999504 -0.03999996 0.059999466 -0.059999466 0.059999466 c -0.6800003 -0.059999466 -2.9000006 -0.15999985 -4.48 -0.15999985 h -1.7200003 c -1.5399997 0 -3.8999996 0.10000038 -4.66 0.15999985 c -0.04000002 0 -0.07999998 -0.03999996 -0.07999998 -0.059999466 c -0.08000001 -0.9000006 -0.28 -1.9400005 -0.5 -2.9000006 c 0.19999999 -0.07999992 0.44 -0.09999943 0.68 -0.09999943 c 0.39999998 1.5999994 1.3199999 2.12 2.6399999 2.12 h 0.98000026 c 0.7399998 0 0.9399996 -0.7600002 0.9399996 -1.9800005 v -7.6999993 c 0 -1.6600001 -0.33999968 -1.76 -1.9399998 -1.82 c -0.119999886 -0.120000005 -0.119999886 -0.54 0 -0.66 c 0.9799998 0.02 1.9999998 0.04 2.8 0.04 c 0.7600002 0 1.7800002 -0.02 2.7799997 -0.04 c 0.119999886 0.12 0.119999886 0.54 0 0.66 c -1.5999999 0.060000002 -1.9399996 0.15999997 -1.9399996 1.82 Z "/>
        </symbol>
        <symbol id="gFC1E6F621AEE291BFF0CDFA12D64D859" overflow="visible">
            <path d="M 0 0m 7.96 1.8199999 c -0.0800004 0.18000007 -0.24000025 0.26 -0.42000008 0.27999997 c -0.6800003 -0.8799999 -1.54 -1.3199999 -2.4 -1.3199999 c -1.46 0 -2.6799998 1.48 -2.6799998 3.82 c 0 2.1999998 0.9599998 3.52 2.2799997 3.52 c 1.1800003 0 1.3400002 -0.7000003 1.4200001 -1.4000001 c 0.059999943 -0.53999996 0.34000015 -0.7199998 0.7600002 -0.7199998 c 0.4199996 0 0.97999954 0.25999975 0.97999954 0.87999964 c 0 1.1000004 -1.1399999 1.9000001 -3.06 1.9000001 c -1.9799998 0 -4.0999994 -1.7799997 -4.0999994 -4.62 c 0 -2.58 1.44 -4.3599997 3.9599998 -4.3599997 c 1.2000003 0 2.2600002 0.38 3.2600002 2.02 Z "/>
        </symbol>
        <symbol id="gF1BD2D8A8ACC12D734D8EDB6CD7EDAC1" overflow="visible">
            <path d="M 0 0m 7.94 12.42 c 0 0.53999996 -0.2800002 0.79999924 -0.8200002 0.79999924 c -0.55999994 0 -1.1199999 -0.55999947 -1.1199999 -1.1199999 c 0 -0.53999996 0.25999975 -0.79999924 0.7999997 -0.79999924 c 0.55999994 0 1.1400003 0.55999947 1.1400003 1.1199999 Z m -2.6000004 -3.54 c -1.06 0 -1.9599998 -0.8000002 -2.3999999 -1.5000005 c -0.53999996 -0.85999966 -0.79999995 -1.3999996 -0.79999995 -1.6399999 c 0 -0.17999983 0.10000014 -0.25999975 0.3000002 -0.25999975 c 0.099999905 0 0.15999985 0.01999998 0.21999979 0.03999996 c 0.10000014 0.15999985 0.16000009 0.2999997 0.22000003 0.4000001 c 0.6400001 1.5799999 1.4399998 2.3599997 2.3999999 2.3599997 c 0.36000013 0 0.53999996 -0.27999973 0.53999996 -0.8199997 c 0 -0.3000002 -0.03999996 -0.64000034 -0.13999987 -1 l -1.8399999 -7.38 c -0.27999997 -1.16 -1.0799999 -2.58 -2.34 -2.58 c -0.18000007 0 -0.36 0.01999998 -0.54 0.08000016 c 0.49999994 0.19999981 0.73999995 0.55999994 0.73999995 1.06 c 0 0.52 -0.27999997 0.78 -0.81999993 0.78 c -0.64 0 -1.14 -0.5799999 -1.14 -1.22 c 0 -0.8799999 0.85999995 -1.3 1.8 -1.3 c 0.8599999 0 1.6599998 0.29999995 2.3999999 0.9000001 c 0.70000005 0.5799999 1.1400001 1.3199998 1.3599999 2.1799998 l 1.8200002 7.24 c 0.059999943 0.26000023 0.099999905 0.52 0.099999905 0.7600002 c 0 1.0999999 -0.77999973 1.9000001 -1.8800001 1.9000001 Z "/>
        </symbol>
        <symbol id="g41740715EF81681FDFFBE8835EFC6236" overflow="visible">
            <path d="M 0 0m 13.96 7.3399997 h -12.360001 c -0.31999993 0 -0.4799999 -0.15999985 -0.4799999 -0.46000004 c 0 -0.2999997 0.15999997 -0.45999956 0.4799999 -0.45999956 h 12.360001 c 0.3199997 0 0.47999954 0.15999985 0.47999954 0.45999956 c 0 0.24000025 -0.22000027 0.46000004 -0.47999954 0.46000004 Z m 0 -3.7599998 h -12.360001 c -0.31999993 0 -0.4799999 -0.16000009 -0.4799999 -0.46000004 c 0 -0.29999995 0.15999997 -0.46000004 0.4799999 -0.46000004 h 12.360001 c 0.3199997 0 0.47999954 0.16000009 0.47999954 0.46000004 c 0 0.26 -0.22000027 0.46000004 -0.47999954 0.46000004 Z "/>
        </symbol>
        <symbol id="gAC064D620FFF1D0B2B308D3563B50DAF" overflow="visible">
            <path d="M 0 0m 7.6 -6.94 c 0.19999981 0 0.2999997 0.10000038 0.2999997 0.3000002 c 0 0.099999905 -0.03999996 0.17999983 -0.099999905 0.24000025 c -1.2199998 0.9399996 -2.1999998 2.4799998 -2.94 4.6399994 c -0.63999987 1.86 -0.9599998 3.6999998 -0.9599998 5.48 v 2.5599997 c 0 1.7799997 0.31999993 3.62 0.9599998 5.4799995 c 0.74000025 2.1600008 1.7200003 3.7000008 2.94 4.6400003 c 0.059999943 0.059999466 0.099999905 0.13999939 0.099999905 0.23999977 c 0 0.20000076 -0.099999905 0.30000114 -0.2999997 0.30000114 c -0.03999996 0 -0.099999905 -0.020000458 -0.15999985 -0.060001373 c -1.4000001 -1.0599995 -2.56 -2.6599998 -3.4800003 -4.799999 c -0.89999986 -2.0200005 -1.3399999 -3.96 -1.3399999 -5.8 v -2.5599997 c 0 -1.84 0.44000006 -3.78 1.3399999 -5.8 c 0.9200003 -2.1399999 2.0800002 -3.7399998 3.4800003 -4.7999997 c 0.059999943 -0.04000044 0.119999886 -0.06000042 0.15999985 -0.06000042 Z "/>
        </symbol>
        <symbol id="gE9C054051612A7ECC9FAE27369A6054" overflow="visible">
            <path d="M 0 0m 7.168 1.932 c -0.32200003 -1.106 -0.77 -1.666 -1.3580003 -1.666 c -0.18199968 0 -0.27999973 0.12600002 -0.27999973 0.392 c 0 0.21000004 0.08400011 0.53200006 0.25199986 0.9660001 c 0.55999994 1.4979999 0.84000015 2.52 0.84000015 3.066 c 0 0.99399996 -0.64400005 1.54 -1.638 1.54 c -0.7420001 0 -1.3860002 -0.3079996 -1.9320002 -0.90999985 l 0.37800002 1.5679998 l 2.3240001 1.428 c 0.07000017 0.041999817 0.11199999 0.112000465 0.11199999 0.18200016 c 0 0.15400028 -0.07000017 0.22399998 -0.22399998 0.22399998 c -0.041999817 0 -0.08400011 -0.013999939 -0.11199999 -0.041999817 l -1.9460001 -1.19 l 0.49000025 2.0160003 c -0.028000355 0.12599945 -0.056000233 0.21000004 -0.23800015 0.21000004 c -0.46200013 0 -1.4840002 -0.1260004 -1.6660001 -0.14000034 c -0.21000004 -0.027999878 -0.32200003 -0.12599945 -0.32200003 -0.3359995 c 0 -0.14000034 0.12600005 -0.21000004 0.37800002 -0.21000004 c 0.2939999 0 0.61599994 0.013999939 0.64400005 -0.18200016 l -0.042000055 -0.2659998 l -0.4619999 -1.8340006 l -1.3440001 -0.84000015 c -0.07000005 -0.041999817 -0.11200005 -0.09800005 -0.11200005 -0.18199968 c 0 -0.15400028 0.06999999 -0.22399998 0.22400004 -0.22399998 c 0.027999997 0 0.06999993 0.013999939 0.11199999 0.041999817 l 0.9660001 0.5879998 l -1.3860002 -5.5299997 c -0.041999996 -0.15399998 -0.055999994 -0.25199997 -0.055999994 -0.308 c 0 -0.294 0.15399998 -0.448 0.448 -0.448 c 0.27999997 0 0.47599995 0.14 0.574 0.40600002 l 0.55999994 2.296 c 0.16799998 0.6860001 0.29400015 1.204 0.3920002 1.5540001 c 0.041999817 0.09800005 0.1539998 0.29399967 0.33599997 0.5739999 c 0.50399995 0.75600004 1.1200001 1.1339998 1.8620002 1.1339998 c 0.4619999 0 0.6859999 -0.3079996 0.6859999 -0.90999985 c 0 -0.5739999 -0.2800002 -1.596 -0.84000015 -3.08 c -0.12599993 -0.32200003 -0.18200016 -0.574 -0.18200016 -0.78400004 c 0 -0.672 0.5040002 -1.19 1.1760001 -1.19 c 0.6160002 0 1.106 0.35000002 1.4560003 1.064 c 0.2659998 0.56 0.40599966 0.938 0.40599966 1.1199999 c 0 0.12600017 -0.069999695 0.1960001 -0.22399998 0.1960001 c -0.041999817 0 -0.25199986 -0.12599993 -0.25199986 -0.29400003 Z "/>
        </symbol>
        <symbol id="g9F6ABC37453B8A762789F6A851A2EF62" overflow="visible">
            <path d="M 0 0m 2.3100002 6.1740003 c -0.46200013 0 -0.8540001 -0.25199986 -1.1480001 -0.77 c -0.19600004 -0.3499999 -0.35000002 -0.7140002 -0.448 -1.1200004 c -0.041999996 -0.1539998 -0.056000054 -0.23799992 -0.056000054 -0.2659998 c 0 -0.15400004 0.09800005 -0.23799992 0.29400003 -0.23799992 c 0.26600003 0 0.27999997 0.1539998 0.35000002 0.44799995 c 0.23800004 0.9660001 0.56000006 1.4559999 0.9660001 1.4559999 c 0.26600003 0 0.4059999 -0.21000004 0.4059999 -0.62999964 c 0 -0.15400028 -0.06999993 -0.5180001 -0.22399998 -1.1200004 l -0.75600004 -2.996 c -0.09799993 -0.37800002 -0.13999999 -0.574 -0.13999999 -0.588 c 0 -0.32200003 0.18200004 -0.49 0.53199995 -0.49 c 0.26600003 0 0.46200013 0.112 0.58800006 0.33600003 c 0.042000055 0.08399999 0.12600017 0.378 0.2520001 0.86800003 l 0.3080001 1.232 c 0.16799998 0.658 0.2659998 1.0220001 0.2939999 1.1060002 c 0.11199999 0.36399984 0.27999997 0.714 0.5179999 1.036 c 0.5880003 0.82599974 1.2740002 1.2459998 2.0440001 1.2459998 c 0.5040002 0 0.75600004 -0.3079996 0.75600004 -0.90999985 c 0 -0.23799992 -0.08400011 -0.658 -0.23799992 -1.2880001 l -0.5739999 -2.31 c -0.1260004 -0.518 -0.1960001 -0.784 -0.1960001 -0.826 c 0 -0.32200003 0.16799974 -0.49 0.5180001 -0.49 c 0.2659998 0 0.47599983 0.112 0.60199976 0.33600003 c 0.041999817 0.08399999 0.12599993 0.378 0.25199986 0.86800003 l 0.3080001 1.232 c 0.22399998 0.86800003 0.26600027 1.3860002 0.65800047 1.9460001 c 0.6300001 0.9660001 1.3439999 1.4419999 2.17 1.4419999 c 0.5039997 0 0.75599957 -0.3079996 0.75599957 -0.90999985 c 0 -0.546 -0.2659998 -1.5120001 -0.8120003 -2.9120002 c -0.13999939 -0.36400008 -0.21000004 -0.61600006 -0.21000004 -0.7700001 c 0 -0.756 0.6160002 -1.232 1.3720007 -1.232 c 0.67199993 0 1.2039995 0.33600003 1.5819998 1.008 c 0.32199955 0.574 0.47599983 0.952 0.47599983 1.148 c 0 0.15400004 -0.09799957 0.23800015 -0.27999973 0.23800015 c -0.09800053 -0.014000177 -0.23799992 -0.12600017 -0.3220005 -0.2800001 c -0.32199955 -1.0780001 -0.78399944 -1.6240001 -1.4139996 -1.6240001 c -0.1960001 0 -0.29399967 0.13999999 -0.29399967 0.43400002 c 0 0.19599998 0.11199951 0.56000006 0.32199955 1.092 c 0.48999977 1.2459999 0.7419996 2.1420002 0.7419996 2.6740003 c 0 1.0780001 -0.6159992 1.6240001 -1.8619995 1.6240001 c -0.90999985 0 -1.7080002 -0.43400002 -2.4220004 -1.302 c -0.13999987 0.86800003 -0.75599957 1.302 -1.8339996 1.302 c -0.9100003 0 -1.6800003 -0.3920002 -2.3100002 -1.1760001 c -0.12600017 0.6859999 -0.72800016 1.1760001 -1.526 1.1760001 Z "/>
        </symbol>
        <symbol id="gD326571D21B4B2DADD0F36779558E6BF" overflow="visible">
            <path d="M 0 0m 1.7199999 -6.8799996 c 1.4 1.06 2.56 2.6599998 3.48 4.7999997 c 0.9000001 2.02 1.3400002 3.96 1.3400002 5.8 v 2.5599997 c 0 1.8400002 -0.44000006 3.7799997 -1.3400002 5.8 c -0.9200001 2.1399994 -2.08 3.7399998 -3.48 4.799999 c -0.059999943 0.040000916 -0.120000005 0.060001373 -0.15999997 0.060001373 c -0.19999993 0 -0.29999995 -0.10000038 -0.29999995 -0.30000114 c 0 -0.10000038 0.03999996 -0.1800003 0.100000024 -0.23999977 c 1.2199999 -0.9399996 2.1999998 -2.4799995 2.9399996 -4.6400003 c 0.64000034 -1.8599997 0.96000004 -3.6999998 0.96000004 -5.4799995 v -2.5599997 c 0 -1.7800001 -0.3199997 -3.6200001 -0.96000004 -5.48 c -0.7399998 -2.1599998 -1.7199998 -3.7 -2.9399996 -4.6399994 c -0.060000062 -0.06000042 -0.100000024 -0.14000034 -0.100000024 -0.24000025 c 0 -0.19999981 0.100000024 -0.3000002 0.29999995 -0.3000002 c 0.03999996 0 0.100000024 0.01999998 0.15999997 0.06000042 Z "/>
        </symbol>
        <symbol id="g4A37B710C38AE1895316A633E3E7C049" overflow="visible">
            <path d="M 0 0m 3.6 0.06 c 1.54 0 2.56 -0.02 3.06 -0.06 v 0.78 h -0.5799999 c -0.72000027 0 -1.1599998 0.04000002 -1.3000002 0.13999999 c -0.13999987 0.100000024 -0.21999979 0.34000003 -0.21999979 0.70000005 v 10.42 c 0 0.35999966 0.07999992 0.5799999 0.21999979 0.67999935 c 0.14000034 0.10000038 0.5799999 0.1600008 1.3000002 0.1600008 h 0.5799999 v 0.77999973 c -0.5 -0.03999996 -1.52 -0.06000042 -3.04 -0.06000042 c -1.54 0 -2.56 0.020000458 -3.06 0.06000042 v -0.77999973 h 0.58 c 0.72 0 1.16 -0.06000042 1.3000001 -0.1600008 c 0.13999987 -0.09999943 0.21999979 -0.3199997 0.21999979 -0.67999935 v -10.42 c 0 -0.36 -0.07999992 -0.6 -0.21999979 -0.70000005 c -0.1400001 -0.099999964 -0.58000004 -0.13999999 -1.3000001 -0.13999999 h -0.58 v -0.78 c 0.49999994 0.04 1.52 0.06 3.04 0.06 Z "/>
        </symbol>
        <symbol id="g8E5B3F5430B9A7C13BF6D752A19937A4" overflow="visible">
            <path d="M 0 0m 6.2999997 8.26 c 0.9200001 0 1.3800001 -0.7000003 1.3800001 -2.1200004 v -4.56 c 0 -0.38 -0.059999943 -0.61999995 -0.19999981 -0.6999999 c -0.14000034 -0.08000004 -0.6000004 -0.120000005 -1.3400002 -0.120000005 v -0.76 l 2.3200002 0.06 l 2.3000002 -0.06 v 0.76 c -0.7400007 0 -1.1800003 0.03999996 -1.3200006 0.120000005 c -0.13999939 0.07999998 -0.21999931 0.31999993 -0.21999931 0.6999999 v 3.6 c 0 1.5999999 1.04 3.0800004 2.58 3.0800004 c 0.9399996 0 1.3999996 -0.7000003 1.3999996 -2.1200004 v -4.56 c 0 -0.38 -0.07999992 -0.61999995 -0.22000027 -0.6999999 c -0.13999939 -0.08000004 -0.5999994 -0.120000005 -1.3400002 -0.120000005 v -0.76 l 2.3200006 0.06 l 2.3000002 -0.06 v 0.76 c -0.64000034 0 -1.0600004 0.01999998 -1.2600002 0.07999998 c -0.20000076 0.060000002 -0.2800007 0.19999999 -0.2800007 0.44 v 3.74 c 0 0.94000006 -0.03999996 1.5999999 -0.09999943 1.98 c -0.19999981 1.2200003 -1.1000004 1.8400002 -2.6800003 1.8400002 c -1.2600002 0 -2.1999998 -0.5799999 -2.8400002 -1.7600002 c -0.27999973 1.1800003 -1.1599994 1.7600002 -2.6599994 1.7600002 c -1.2600002 0 -2.2200003 -0.6000004 -2.8600001 -1.8000002 v 1.8000002 l -2.94 -0.22000027 v -0.7600002 c 0.72 0 1.16 -0.059999943 1.3199999 -0.17999983 c 0.15999997 -0.119999886 0.22000015 -0.3800001 0.22000015 -0.84000015 v -5.2599998 c 0 -0.38 -0.08000016 -0.61999995 -0.22000015 -0.6999999 c -0.13999999 -0.08000004 -0.5799999 -0.120000005 -1.3199999 -0.120000005 v -0.76 l 2.3200002 0.06 l 2.2999997 -0.06 v 0.76 c -0.7399998 0 -1.1999998 0.03999996 -1.3399999 0.120000005 c -0.13999987 0.07999998 -0.22000003 0.31999993 -0.22000003 0.6999999 v 3.6 c 0 1.6199999 1.06 3.0800004 2.6 3.0800004 Z "/>
        </symbol>
        <symbol id="g2F639873C0D5402462C634F13849FF05" overflow="visible">
            <path d="M 0 0m 6.3599997 -4.96 c 0.1800003 0 0.2800002 0.10000038 0.2800002 0.2800002 c 0 0.059999943 -0.03999996 0.13999987 -0.099999905 0.21999979 c -1.04 0.8000002 -1.8800001 2.1200001 -2.5 3.94 c -0.53999996 1.5799999 -0.81999993 3.1399999 -0.81999993 4.68 v 1.6799998 c 0 1.54 0.27999997 3.1 0.81999993 4.68 c 0.6199999 1.8200006 1.46 3.1400003 2.5 3.9400005 c 0.059999943 0.059999466 0.099999905 0.13999939 0.099999905 0.21999931 c 0 0.1800003 -0.099999905 0.2800007 -0.2800002 0.2800007 c -0.01999998 0 -0.07999992 -0.020000458 -0.13999987 -0.06000042 c -1.1999998 -0.9200001 -2.1999998 -2.2799997 -3.02 -4.0999994 c -0.78 -1.7400007 -1.1799998 -3.3800006 -1.1799998 -4.9600005 v -1.6799998 c 0 -1.5799999 0.39999986 -3.2199998 1.1799998 -4.96 c 0.8200002 -1.8199999 1.8200002 -3.18 3.02 -4.1000004 c 0.059999943 -0.03999996 0.119999886 -0.059999943 0.13999987 -0.059999943 Z "/>
        </symbol>
        <symbol id="g3AF466DF87933CB5D256B971C60B38AC" overflow="visible">
            <path d="M 0 0m 10.679999 7.8599997 c 0 -0.17999983 0.10000038 -0.37999964 0.32000065 -0.5999999 c 0.46000004 -0.44000006 0.6999998 -0.98 0.6999998 -1.6199999 c 0 -0.5799999 -0.1800003 -1.1999998 -0.5600004 -1.8999999 c -0.6999998 -1.3400002 -1.6199999 -2.3000002 -2.7199993 -2.88 c -0.6600003 -0.33999997 -1.3200002 -0.49999997 -1.98 -0.52 l 3.2399993 12.919999 c 0.03999996 0.1800003 0.06000042 0.2800007 0.06000042 0.32000065 c 0 0.19999981 -0.10000038 0.3000002 -0.3199997 0.3000002 c -0.10000038 0 -0.15999985 -0.020000458 -0.22000027 -0.06000042 c -0.07999992 -0.15999985 -0.119999886 -0.3000002 -0.14000034 -0.39999962 l -3.2599998 -13.04 c -1.4199996 0.18 -2.12 0.9 -2.12 2.1399999 c 0 0.53999996 0.36000013 1.7599998 1.06 3.6599998 c 0.14000034 0.4000001 0.22000027 0.74000025 0.22000027 1 c 0 0.9999995 -0.7000003 1.7000003 -1.7 1.7000003 c -0.9000001 0 -1.58 -0.5 -2.08 -1.5000005 c -0.39999998 -0.7999997 -0.59999996 -1.3399997 -0.59999996 -1.6199999 c 0 -0.17999983 0.100000024 -0.27999973 0.32 -0.27999973 c 0.26 0 0.29999995 0.119999886 0.38 0.39999962 c 0.46000004 1.6000004 1.0999999 2.4 1.9199998 2.4 c 0.2800002 0 0.42000008 -0.1800003 0.42000008 -0.53999996 c 0 -0.32000017 -0.13999987 -0.8800001 -0.44000006 -1.6799998 c -0.63999987 -1.6999998 -0.9599998 -2.82 -0.9599998 -3.38 c 0 -1.7399998 1.1399999 -2.6999998 3.4199998 -2.8799999 c -0.15999985 -0.7 -0.3000002 -1.28 -0.42000008 -1.72 c -0.2999997 -1.14 -0.46000004 -1.7799999 -0.46000004 -1.92 c 0.059999943 -0.16000009 0.07999992 -0.26 0.34000015 -0.26 l 0.19999981 0.07999992 c 0.12000036 0.32000017 0.22000027 0.6200001 0.2800002 0.8800001 l 0.7199998 2.8799999 c 1.6400003 0.019999996 3.0800004 0.74 4.32 2.1599998 c 0.65999985 0.7399999 1.1399994 1.5399998 1.46 2.3999996 c 0.42000008 1.1000004 0.6199999 2.1400003 0.6199999 3.12 c 0 0.98 -0.3199997 1.4600005 -0.94000053 1.4600005 c -0.5199995 0 -1.0799999 -0.5 -1.0799999 -1.0200005 Z "/>
        </symbol>
        <symbol id="gA0D7CB97105FD3FAA5E495EC8F7158F1" overflow="visible">
            <path d="M 0 0m 3.22 3.99 l -1.61 1.162 c -0.22399998 0.18200016 -0.546 0.08400011 -0.686 -0.1539998 c -0.13999999 -0.23799992 -0.055999994 -0.5739999 0.19599998 -0.6859999 l 1.82 -0.8120003 l -1.82 -0.79799986 c -0.25199997 -0.11199999 -0.33599997 -0.44799995 -0.19599998 -0.6860001 c 0.13999999 -0.23800004 0.462 -0.33599997 0.686 -0.16799998 l 1.61 1.1760001 l -0.21000004 -1.9740001 c -0.027999878 -0.29400003 0.22400022 -0.51800007 0.49 -0.51800007 c 0.26600003 0 0.5180001 0.22400004 0.49 0.51800007 l -0.2099998 1.9740001 l 1.6100001 -1.1760001 c 0.23799992 -0.16799998 0.546 -0.07000005 0.6859999 0.16799998 c 0.13999987 0.23800015 0.055999756 0.5740001 -0.1960001 0.6860001 l -1.8200002 0.79799986 l 1.8200002 0.8120003 c 0.25199986 0.11199999 0.33599997 0.44799995 0.1960001 0.6859999 c -0.13999987 0.23799992 -0.4619999 0.33599997 -0.6859999 0.1539998 l -1.6100001 -1.162 l 0.2099998 1.9740002 c 0.028000116 0.27999973 -0.22399998 0.5180001 -0.49 0.5180001 c -0.2659998 0 -0.5179999 -0.2380004 -0.49 -0.5180001 Z "/>
        </symbol>
        <symbol id="gDB8CED24FD5AA817B10DE250B76545EF" overflow="visible">
            <path d="M 0 0m 15.599999 13.139999 c 0.06000042 0.14000034 0.10000038 0.24000072 0.10000038 0.2800007 c 0 0.15999985 -0.1800003 0.23999977 -0.52000046 0.23999977 h -13.719999 c -0.3399999 0 -0.5199999 -0.07999992 -0.5199999 -0.26000023 l 6.7999997 -13.66 c 0.13999987 -0.26 0.3199997 -0.39999998 0.5799999 -0.39999998 c 0.26000023 0 0.44000053 0.13999999 0.5799999 0.39999998 Z m -6.7 -11.7 l -5.3199997 10.66 h 10.62 Z "/>
        </symbol>
        <symbol id="g909FB5CE54FFAC644324B9DB0DB66D02" overflow="visible">
            <path d="M 0 0m 1.56 -4.9 c 1.2 0.9200001 2.2 2.2800002 3.02 4.1000004 c 0.77999973 1.74 1.1799998 3.3799999 1.1799998 4.96 v 1.6799998 c 0 1.5799999 -0.4000001 3.2199998 -1.1799998 4.9600005 c -0.81999993 1.8199997 -1.8199999 3.1799994 -3.02 4.0999994 c -0.059999943 0.03999996 -0.120000005 0.06000042 -0.13999999 0.06000042 c -0.17999995 0 -0.27999997 -0.10000038 -0.27999997 -0.2800007 c 0 -0.07999992 0.03999996 -0.15999985 0.100000024 -0.21999931 c 1.04 -0.8000002 1.8799999 -2.12 2.5 -3.9400005 c 0.5399997 -1.5799999 0.81999993 -3.1399999 0.81999993 -4.68 v -1.6799998 c 0 -1.54 -0.2800002 -3.1 -0.81999993 -4.68 c -0.6200001 -1.8199999 -1.46 -3.1399999 -2.5 -3.94 c -0.060000062 -0.07999992 -0.100000024 -0.15999985 -0.100000024 -0.21999979 c 0 -0.17999983 0.100000024 -0.2800002 0.27999997 -0.2800002 c 0.01999998 0 0.08000004 0.01999998 0.13999999 0.059999943 Z "/>
        </symbol>
        <symbol id="g8360F7B7DA6FAE7789B8C0569A4CED25" overflow="visible">
            <path d="M 0 0m 6.5 7.96 c 1.0799999 -0.0800004 1.1999998 -0.32000017 0.77999973 -1.3400002 l -1.6199999 -3.9199998 c -0.32000017 -0.7800001 -0.42000008 -0.7800001 -0.7399998 0.059999943 l -1.44 3.86 c -0.36000013 0.96000004 -0.44000006 1.1999998 0.6199999 1.3400002 c 0.119999886 0.119999886 0.119999886 0.53999996 0 0.65999985 c -0.6600001 -0.020000458 -1.3599999 -0.03999996 -2.02 -0.03999996 c -0.65999997 0 -1.26 0.019999504 -1.8599999 0.03999996 c -0.120000005 -0.119999886 -0.120000005 -0.53999996 0 -0.65999985 c 1.06 -0.12000036 1.1999999 -0.44000006 1.5999999 -1.46 l 2.5600002 -6.32 c 0.119999886 -0.29999998 0.23999977 -0.42 0.5 -0.42 c 0.19999981 0 0.33999968 0.12 0.47999954 0.45999998 l 2.6599998 6.26 c 0.3800001 0.87999964 0.6000004 1.3799996 1.7200003 1.48 c 0.119999886 0.119999886 0.119999886 0.53999996 0 0.65999985 c -0.39999962 -0.020000458 -0.8800001 -0.03999996 -1.3999996 -0.03999996 c -0.6600003 0 -1.3400002 0.019999504 -1.8400002 0.03999996 c -0.12000036 -0.119999886 -0.12000036 -0.53999996 0 -0.65999985 Z "/>
        </symbol>
        <symbol id="g418D5BD7C95AA4207A662276C9943AB7" overflow="visible">
            <path d="M 0 0m 3.3999999 7.16 c -0.01999998 0.5999999 -0.059999943 1.3199997 -0.15999985 1.5199995 c -0.0400002 0.10000038 -0.08000016 0.1600008 -0.24000001 0.1600008 c -0.55999994 -0.22000027 -1.08 -0.40000057 -2.46 -0.5799999 c -0.03999996 -0.12000084 0 -0.44000053 0.04000002 -0.5600004 c 1.0799999 -0.099999905 1.3 -0.19999981 1.3 -1.3600001 v -3.8999996 c 0 -1.6400001 -0.26 -1.74 -1.36 -1.82 c -0.120000005 -0.120000005 -0.120000005 -0.54 0 -0.66 c 0.6 0.02 1.36 0.04 2.1599998 0.04 c 0.8000002 0 1.4200001 -0.02 2.02 -0.04 c 0.119999886 0.12 0.119999886 0.54 0 0.66 c -1.02 0.099999964 -1.2399998 0.17999995 -1.2399998 1.82 v 3.2799997 c 0 0.42000008 0.17999983 0.65999985 0.3399999 0.84000015 c 0.79999995 0.77999973 1.5399997 1.1799998 2.16 1.1799998 c 0.75999975 0 1.3199997 -0.48000002 1.3199997 -1.8199997 v -3.48 c 0 -1.6400001 -0.15999985 -1.74 -1.2399998 -1.82 c -0.099999905 -0.120000005 -0.099999905 -0.54 0 -0.66 c 0.5 0.02 1.2399998 0.04 2.04 0.04 c 0.8000002 0 1.46 -0.02 1.96 -0.04 c 0.09999943 0.12 0.09999943 0.54 0 0.66 c -1 0.07999998 -1.1800003 0.17999995 -1.1800003 1.82 v 3.1799998 c 0 0.2800002 0 0.55999994 -0.019999504 0.8000002 c 0.96000004 1.06 1.8599997 1.3199997 2.6399994 1.3199997 c 0.7600002 0 1.1999998 -0.44000006 1.1999998 -1.7799997 v -3.52 c 0 -1.6400001 -0.19999981 -1.74 -1.2399998 -1.82 c -0.09999943 -0.120000005 -0.09999943 -0.54 0 -0.66 c 0.5 0.02 1.2399998 0.04 2.04 0.04 c 0.8000002 0 1.5 -0.02 2.0600004 -0.04 c 0.09999943 0.12 0.09999943 0.54 0 0.66 c -1.1000004 0.07999998 -1.2800007 0.17999995 -1.2800007 1.82 v 3.1599998 c 0 1.7799997 -0.29999924 3.1799998 -2.0599995 3.1799998 c -1.0200005 0 -2.2600002 -0.3800001 -3.3000002 -1.48 c -0.059999466 -0.059999943 -0.17999935 -0.15999985 -0.22000027 0.01999998 c -0.17999935 0.8199997 -0.95999956 1.46 -1.9999995 1.46 c -1.1599998 0 -2.1999998 -0.6800003 -3.04 -1.6199999 c -0.099999905 -0.099999905 -0.22000003 -0.23999977 -0.24000001 0 Z "/>
        </symbol>
        <symbol id="gED8BFC6625972CAA3A6D301AEE2A29E6" overflow="visible">
            <path d="M 0 0m 3.5 2.44 v 5.3599997 h 1.8599997 c 0.1800003 0 0.46000004 0.07999992 0.46000004 0.25999975 v 0.40000057 c 0 0.07999992 -0.059999943 0.119999886 -0.15999985 0.119999886 h -2.1599998 v 1.1399994 c 0 3.08 0.9200001 3.5600004 1.5799999 3.5600004 c 0.5999999 0 0.9200001 -0.23999977 1.1999998 -0.9399996 c 0.16000032 -0.3600006 0.3800001 -0.64000034 0.8000002 -0.64000034 c 0.33999968 0 0.8199997 0.42000008 0.8199997 0.8199997 c 0 0.34000015 -0.21999979 0.6999998 -0.63999987 1.0200005 c -0.52 0.35999966 -1.04 0.42000008 -1.7999997 0.42000008 c -1.6800001 0 -3.54 -1.46 -3.54 -4.58 v -0.8000002 h -1.02 c -0.36 0 -0.45999998 -0.23999977 -0.45999998 -0.40000057 v -0.25999975 c 0 -0.099999905 0.01999998 -0.119999886 0.099999964 -0.119999886 h 1.38 v -5.3599997 c 0 -1.6600001 -0.32000005 -1.74 -1.4 -1.82 c -0.120000005 -0.120000005 -0.120000005 -0.54 0 -0.66 c 0.70000005 0.02 1.4 0.04 2.2 0.04 c 0.79999995 0 1.76 -0.02 2.4599998 -0.04 c 0.119999886 0.12 0.119999886 0.54 0 0.66 c -1.56 0.07999998 -1.6799998 0.15999997 -1.6799998 1.82 Z "/>
        </symbol>
        <symbol id="gB7BCFA38660BCAAFBF3C97CBDCF4F95F" overflow="visible">
            <path d="M 0 0m 5.5020003 8.778 l -1.8760002 -7.56 c -0.055999994 -0.21000004 -0.11199999 -0.33600003 -0.15400004 -0.39200002 c -0.12599993 -0.15399998 -0.602 -0.22400004 -1.414 -0.22400004 c -0.462 0 -0.686 0.027999997 -0.686 -0.35 c 0 -0.168 0.09799993 -0.252 0.2939999 -0.252 c 0.75600016 0 1.5960001 0.07 2.38 0.056 l 1.2460003 -0.013999999 c 0.36399984 0 0.90999985 -0.014000002 1.1760001 -0.042000003 c 0.23799992 0 0.36399984 0.126 0.36399984 0.36400002 c 0 0.12599999 -0.07000017 0.20999998 -0.22399998 0.23799998 h -0.3920002 c -0.6859999 0 -1.092 0.027999997 -1.19 0.09800005 c -0.041999817 0.027999997 -0.055999756 0.06999999 -0.055999756 0.13999999 c 0 0.06999999 0.013999939 0.16799998 0.041999817 0.30799997 l 1.8340001 7.2660007 c 0.09800005 0.32199955 0.07000017 0.40600014 0.37800026 0.43400002 c 0.041999817 0.013999939 0.3079996 0.013999939 0.82599974 0.013999939 c 0.79800034 0 1.316 -0.041999817 1.54 -0.112000465 c 0.44799995 -0.15399933 0.6160002 -0.36399937 0.6160002 -1.0499997 c 0 -0.37800026 -0.041999817 -0.79799986 -0.1260004 -1.2600002 c 0 -0.18199968 0.09800053 -0.2659998 0.29400063 -0.2659998 c 0.069999695 0 0.13999939 0.013999939 0.18200016 0.055999756 c 0.069999695 0.14000034 0.11199951 0.25200033 0.12599945 0.33599997 l 0.37800026 2.646 c 0 0.16800022 -0.15400028 0.2520008 -0.47599983 0.2520008 h -8.512001 c -0.39199996 0 -0.41999996 -0.028000832 -0.518 -0.3220005 l -0.88199997 -2.4499998 c -0.014000058 -0.07000017 -0.07000005 -0.22399998 -0.07000005 -0.26600027 c 0 -0.16799974 0.09800005 -0.25199986 0.29400003 -0.25199986 c 0.13999999 0 0.25199997 0.12599993 0.33599997 0.36399984 c 0.47600007 1.302 0.78400004 2.1280003 2.2260003 2.2960005 c 0.15400004 0.013999939 0.5179999 0.027999878 1.092 0.027999878 h 0.5879998 c 0.25200033 0 0.36400032 0.027999878 0.36400032 -0.08400059 Z "/>
        </symbol>
        <symbol id="gF46C2F940A7482FC531947379BAB4653" overflow="visible">
            <path d="M 0 0m 0.88 5.04 c 0 -0.9000001 0.07999998 -5.52 4.24 -9.12 c 0.19999981 0.03999996 0.36000013 0.18000007 0.42000008 0.3399999 c -0.65999985 0.76 -3 3.52 -3 8.78 c 0 5.26 2.3600001 8.0199995 3 8.74 c -0.059999943 0.19999981 -0.20000029 0.34000015 -0.42000008 0.35999966 c -2.3799999 -2.04 -4.24 -5.379999 -4.24 -9.099999 Z "/>
        </symbol>
        <symbol id="gD061FD30BF4F1C404F3C784BEDC079C4" overflow="visible">
            <path d="M 0 0m 6.5800004 4.928 c 0 0.86800003 -0.9100003 1.2460003 -1.8760004 1.2460003 c -1.0079999 0 -1.7219999 -0.29400015 -2.128 -0.88199997 c -0.30799985 -0.43400002 -0.4619999 -0.8260002 -0.4619999 -1.1760001 c 0 -0.658 0.3499999 -1.1060002 1.05 -1.3440001 c 0.12600017 -0.042000055 0.47600007 -0.11199999 1.0360003 -0.21000004 c 0.7420001 -0.13999987 1.1199999 -0.42000008 1.1199999 -0.854 c 0 -0.15400004 -0.056000233 -0.32200003 -0.16800022 -0.53200006 c -0.29399967 -0.546 -0.9239998 -0.826 -1.8759999 -0.826 c -0.77 0 -1.288 0.16799998 -1.554 0.49 c 0.37800014 0.06999999 0.7140001 0.39199996 0.7140001 0.826 c 0 0.37800014 -0.1960001 0.56000006 -0.58800006 0.56000006 c -0.53200006 0 -0.85400003 -0.44800007 -0.85400003 -0.98 c 0 -0.98 1.1620002 -1.386 2.2680001 -1.386 c 0.95200014 0 1.6800003 0.224 2.184 0.658 c 0.5739999 0.49 0.8540001 1.0500001 0.8540001 1.666 c 0 0.86800003 -0.64400005 1.4280002 -1.9320002 1.6660001 c -0.23799992 0.055999994 -0.41999984 0.09800005 -0.546 0.11199999 c -0.47599983 0.08399987 -0.714 0.2939999 -0.714 0.6299999 c 0 0.15400028 0.055999994 0.29400015 0.15400004 0.44799995 c 0.26600003 0.43400002 0.7420001 0.64400005 1.428 0.64400005 c 0.5880003 0 0.99399996 -0.13999987 1.204 -0.42000008 c -0.3499999 -0.11199999 -0.53200006 -0.33599997 -0.53200006 -0.6859999 c 0 -0.32200003 0.16800022 -0.48999977 0.5040002 -0.48999977 c 0.42000008 0 0.7140002 0.36399984 0.7140002 0.8399997 Z "/>
        </symbol>
        <symbol id="g8CF6B46BE1D64F90EF46A5849F1A5736" overflow="visible">
            <path d="M 0 0m 5.08 5.04 c 0 0.9000001 -0.07999992 5.5199995 -4.24 9.12 c -0.19999999 -0.03999996 -0.35999998 -0.1800003 -0.42 -0.34000015 c 0.65999997 -0.7600002 2.9999998 -3.5199995 2.9999998 -8.78 c 0 -5.2599998 -2.36 -8.02 -2.9999998 -8.74 c 0.060000002 -0.20000005 0.20000002 -0.34000015 0.42 -0.36000013 c 2.38 2.04 4.24 5.38 4.24 9.1 Z "/>
        </symbol>
    </defs>
</svg>
