<svg class="typst-doc" viewBox="0 0 66.52174803149607 47.67574803149606" width="66.52174803149607pt" height="47.67574803149606pt" xmlns="http://www.w3.org/2000/svg" xmlns:xlink="http://www.w3.org/1999/xlink" xmlns:h5="http://www.w3.org/1999/xhtml">
    <path class="typst-shape" fill="#ffffff" fill-rule="nonzero" d="M 0 0v 47.675747 h 66.52175 v -47.675747 Z "/>
    <g>
        <g class="typst-text" transform="matrix(1 0 0 -1 17.007874015748033 30.667874015748033)">
            <use xlink:href="#gA9E6634B798363FDA0017F1ED4FD0F01" x="0" y="0" fill="#000000" fill-rule="nonzero"/>
        </g>
        <g class="typst-text" transform="matrix(1 0 0 -1 28.42787401574803 30.667874015748033)">
            <use xlink:href="#gB8171A29E2AC289092CCFF9FCE16788" x="0" y="0" fill="#000000" fill-rule="nonzero"/>
        </g>
        <g class="typst-text" transform="matrix(1 0 0 -1 40.42787401574803 23.407874015748032)">
            <use xlink:href="#g4C246396D9CDC6B04C7B7E33F0CAAF26" x="0" y="0" fill="#000000" fill-rule="nonzero"/>
        </g>
    </g>
    <defs id="glyph">
        <symbol id="gA9E6634B798363FDA0017F1ED4FD0F01" overflow="visible">
            <path d="M 0 0m 10.48 7.56 c 0.26000023 0.49999952 0.3800001 0.75999975 0.3800001 0.7800002 c 0 0.17999935 -0.09999943 0.27999973 -0.3199997 0.27999973 c -0.14000034 0 -0.23999977 -0.06000042 -0.3000002 -0.1800003 c -0.6999998 -1.2999997 -1.5199995 -3.1399999 -2.48 -5.5199995 c -0.07999992 1.3199999 -0.34000015 2.5600002 -0.77999973 3.7 c -0.5800004 1.4799995 -1.48 2.2200003 -2.7000003 2.2200003 c -1.2599998 0 -2.3599997 -0.84000015 -2.9199996 -1.6200004 c -0.66 -0.94000006 -1 -1.6399999 -1 -2.08 c 0 -0.17999983 0.16 -0.2800002 0.49999997 -0.2800002 l 0.100000024 0.14000034 c 0.33999997 1.04 0.92 1.6999998 1.74 1.98 c 0.55999994 0.17999983 0.99999976 0.27999973 1.3199999 0.27999973 c 2.08 0 3.12 -1.6399999 3.12 -4.9399996 c 0 -0.78 -0.07999992 -1.42 -0.24000025 -1.92 c -0.6799998 -2.2199998 -1.02 -3.6399999 -1.02 -4.2599998 c 0 -0.29999995 0.12000036 -0.43999982 0.34000015 -0.43999982 c 0.24000025 0 0.48000002 0.41999984 0.7000003 1.2399998 c 0.33999968 1.28 0.5799999 2.42 0.7199998 3.4199998 c 0.059999943 0.29999998 0.099999905 0.55999994 0.15999985 0.74 c 0.7199998 2.2399998 1.6200004 4.4 2.6799998 6.46 Z "/>
        </symbol>
        <symbol id="gB8171A29E2AC289092CCFF9FCE16788" overflow="visible">
            <path d="M 0 0m 10.74 2.74 c -0.46000004 -1.58 -1.1199999 -2.38 -1.9399996 -2.38 c -0.26000023 0 -0.40000057 0.20000002 -0.40000057 0.58000004 c 0 0.28000003 0.119999886 0.73999995 0.3600006 1.3599999 c 0.79999924 2.18 1.1999998 3.6200001 1.1999998 4.3599997 c 0 1.3999996 -0.94000053 2.1800003 -2.3400002 2.1800003 c -1.1799998 0 -2.1999998 -0.52000046 -3.02 -1.5800004 c -0.15999985 0.87999964 -0.8599999 1.5800004 -1.8799999 1.5800004 c -1.1200001 0 -1.5600001 -1.0400004 -1.84 -1.9400005 c -0.19999999 -0.63999987 -0.3 -1.02 -0.3 -1.1599998 c 0 -0.17999983 0.100000024 -0.27999973 0.32 -0.27999973 c 0.100000024 0 0.15999997 0.01999998 0.22000003 0.059999943 c 0.100000024 0.17999983 0.15999997 0.3199997 0.17999995 0.46000004 c 0.36 1.52 0.81999993 2.2800002 1.3599999 2.2800002 c 0.36000013 0 0.53999996 -0.2800002 0.53999996 -0.8400006 c 0 -0.25999975 -0.099999905 -0.7999997 -0.31999993 -1.6199999 l -1.1399999 -4.54 c -0.060000062 -0.26 -0.18000007 -0.78 -0.18000007 -0.88 c 0 -0.4 0.22000003 -0.6 0.6600001 -0.6 c 0.37999988 0 0.65999985 0.2 0.79999995 0.6 c 0.03999996 0.099999994 0.15999985 0.59999996 0.37999988 1.4599999 l 0.42000008 1.78 l 0.60000014 2.2800002 c 0.21999979 0.45999956 0.55999994 0.9199996 0.98 1.3999996 c 0.5799999 0.64000034 1.2999997 0.9600005 2.1599998 0.9600005 c 0.6600003 0 0.98 -0.44000053 0.98 -1.3000002 c 0 -0.7600002 -0.42000008 -2.2800002 -1.2800002 -4.5600004 c -0.13999987 -0.3599999 -0.19999981 -0.65999985 -0.19999981 -0.91999984 c 0 -0.98 0.7399998 -1.7 1.7000003 -1.7 c 0.87999916 0 1.5799999 0.5 2.08 1.5 c 0.37999916 0.79999995 0.5799999 1.3399999 0.5799999 1.5999999 c 0 0.18000007 -0.10000038 0.27999997 -0.32000065 0.27999997 c -0.059999466 0 -0.35999966 -0.17999983 -0.35999966 -0.41999984 Z "/>
        </symbol>
        <symbol id="g4C246396D9CDC6B04C7B7E33F0CAAF26" overflow="visible">
            <path d="M 0 0m 4.9420004 4.9420004 c 0.9379997 0.37799978 1.8339996 1.204 1.8339996 2.394 c 0 0.62999964 -0.33599997 1.1339998 -0.99399996 1.4980001 c -0.546 0.3079996 -1.1619997 0.4619999 -1.848 0.4619999 c -0.6859999 0 -1.2879999 -0.14000034 -1.806 -0.43400002 c -0.63 -0.35000038 -0.952 -0.84000015 -0.952 -1.4700003 c 0 -0.53200006 0.26600003 -0.79799986 0.78400004 -0.79799986 c 0.43400002 0 0.75600004 0.33599997 0.75600004 0.77 c 0 0.43400002 -0.22399998 0.6859999 -0.658 0.75599957 c 0.4059999 0.43400002 1.0079999 0.658 1.8340001 0.658 c 0.90999985 0 1.428 -0.5459995 1.428 -1.4419994 c 0 -0.65800047 -0.18200016 -1.19 -0.53200006 -1.6100001 c -0.3920002 -0.46200037 -0.67199993 -0.53200006 -1.484 -0.5880003 c -0.37800002 -0.027999878 -0.6300001 0.013999939 -0.6300001 -0.2659998 c 0 -0.16800022 0.1400001 -0.25199986 0.40600014 -0.25199986 h 0.74199986 c 1.204 0 1.7920003 -0.9100003 1.7920003 -2.1700003 c 0 -1.232 -0.55999994 -2.17 -1.7360003 -2.17 c -1.0219998 0 -1.7639999 0.28 -2.2259998 0.8540001 c 0.4899999 0.055999994 0.742 0.33599997 0.742 0.826 c 0 0.46200013 -0.3499999 0.81200004 -0.81200004 0.81200004 c -0.546 0 -0.826 -0.27999997 -0.826 -0.854 c 0 -0.7140001 0.36399996 -1.2880001 1.0780001 -1.6940001 c 0.602 -0.33600003 1.2879999 -0.504 2.072 -0.504 c 0.8540001 0 1.5960002 0.238 2.2400002 0.714 c 0.6999998 0.518 1.0499997 1.19 1.0499997 2.016 c 0 1.302 -1.1339998 2.1980002 -2.2539997 2.4920003 Z "/>
        </symbol>
    </defs>
</svg>
