<svg class="typst-doc" viewBox="0 0 158.51574803149606 47.17574803149606" width="158.51574803149606pt" height="47.17574803149606pt" xmlns="http://www.w3.org/2000/svg" xmlns:xlink="http://www.w3.org/1999/xlink" xmlns:h5="http://www.w3.org/1999/xhtml">
    <path class="typst-shape" fill="#ffffff" fill-rule="nonzero" d="M 0 0v 47.175747 h 158.51575 v -47.175747 Z "/>
    <g>
        <g class="typst-text" transform="matrix(1 0 0 -1 17.007874015748033 30.167874015748033)">
            <use xlink:href="#gF038496AD7A5287CE3AC894432DCFC28" x="0" y="0" fill="#000000" fill-rule="nonzero"/>
            <use xlink:href="#g845F8E06D89F63DD7162DF20339DA4BA" x="16.939999999999998" y="0" fill="#000000" fill-rule="nonzero"/>
            <use xlink:href="#gDD70DBC7FD82AB9B40B9A3C6BF7DE1B4" x="26.08" y="0" fill="#000000" fill-rule="nonzero"/>
            <use xlink:href="#gDD70DBC7FD82AB9B40B9A3C6BF7DE1B4" x="36.46" y="0" fill="#000000" fill-rule="nonzero"/>
            <use xlink:href="#gF1A05E093C6DE90BD48222B92008B3B5" x="46.84" y="0" fill="#000000" fill-rule="nonzero"/>
            <use xlink:href="#g55A4F9C04CEF5831C57E09A53675FDC4" x="54.120000000000005" y="0" fill="#000000" fill-rule="nonzero"/>
            <use xlink:href="#g394E98138A88D9F9E4ADCFC4904E23E1" x="64.06" y="0" fill="#000000" fill-rule="nonzero"/>
            <use xlink:href="#g6584034674B70F4F6164F507BD53D42" x="78.86" y="0" fill="#000000" fill-rule="nonzero"/>
            <use xlink:href="#g4FDD36593C0167B73F8CDD458FE8374" x="88.16" y="0" fill="#000000" fill-rule="nonzero"/>
            <use xlink:href="#g29927B633914011D34EE4DDCA3BDA371" x="97.46" y="0" fill="#000000" fill-rule="nonzero"/>
            <use xlink:href="#g750F5F2555145575861EE82BF2C4A337" x="111.75999999999999" y="0" fill="#000000" fill-rule="nonzero"/>
        </g>
    </g>
    <defs id="glyph">
        <symbol id="gF038496AD7A5287CE3AC894432DCFC28" overflow="visible">
            <path d="M 0 0m 7 2.44 v 7.64 c 0 1.2799997 0.19999981 2.04 0.9199996 2.04 h 0.44000006 c 1.5 0 2.4400005 -0.52000046 2.7799997 -2.0600004 c 0.22000027 0 0.5 0.020000458 0.6800003 0.10000038 c -0.14000034 0.9200001 -0.23999977 1.9399996 -0.26000023 2.8400002 c 0 0.019999504 -0.03999996 0.059999466 -0.059999466 0.059999466 c -0.6800003 -0.059999466 -2.9000006 -0.15999985 -4.48 -0.15999985 h -1.7200003 c -1.5399997 0 -3.8999996 0.10000038 -4.66 0.15999985 c -0.04000002 0 -0.07999998 -0.03999996 -0.07999998 -0.059999466 c -0.08000001 -0.9000006 -0.28 -1.9400005 -0.5 -2.9000006 c 0.19999999 -0.07999992 0.44 -0.09999943 0.68 -0.09999943 c 0.39999998 1.5999994 1.3199999 2.12 2.6399999 2.12 h 0.98000026 c 0.7399998 0 0.9399996 -0.7600002 0.9399996 -1.9800005 v -7.6999993 c 0 -1.6600001 -0.33999968 -1.76 -1.9399998 -1.82 c -0.119999886 -0.120000005 -0.119999886 -0.54 0 -0.66 c 0.9799998 0.02 1.9999998 0.04 2.8 0.04 c 0.7600002 0 1.7800002 -0.02 2.7799997 -0.04 c 0.119999886 0.12 0.119999886 0.54 0 0.66 c -1.5999999 0.060000002 -1.9399996 0.15999997 -1.9399996 1.82 Z "/>
        </symbol>
        <symbol id="g845F8E06D89F63DD7162DF20339DA4BA" overflow="visible">
            <path d="M 0 0m 5.8599997 0.96 c 0.12000036 -0.62 0.34000015 -1.16 1.3400002 -1.16 c 0.7600002 0 1.4799995 0.33999997 1.8999996 0.73999995 c -0.03999996 0.24000001 -0.119999886 0.42000002 -0.3399992 0.53999996 c -0.14000034 -0.119999945 -0.4800005 -0.31999993 -0.7400007 -0.31999993 c -0.57999945 0 -0.5999999 0.78 -0.5999999 1.7 v 2.94 c 0 2.8399997 -1.56 3.3799996 -3.0199995 3.3799996 c -1.6400001 0 -3.3000002 -1.0799999 -3.3000002 -2.2199998 c 0 -0.48000002 0.23999989 -0.72000027 0.6999999 -0.72000027 c 0.5799999 0 0.94000006 0.42000008 0.94000006 0.6800003 c 0 0.13999987 -0.01999998 0.27999973 -0.06000018 0.35999966 c -0.01999998 0.06000042 -0.03999996 0.1800003 -0.03999996 0.4000001 c 0 0.6199999 0.84000015 0.84000015 1.5999999 0.84000015 c 0.6800003 0 1.6199999 -0.34000015 1.6199999 -2.6 c 0 -0.13999987 -0.059999943 -0.22000027 -0.119999886 -0.24000025 l -1.7199998 -0.42000008 c -1.9200001 -0.47999954 -3.3 -1.5399997 -3.3 -2.8999996 c 0 -1.6399999 1.1199999 -2.1599998 2.52 -2.1599998 c 0.6999998 0 1.3 0.16 2.18 0.84 l 0.39999962 0.32 Z m 0 3.6999998 v -2.6399999 c 0 -0.26 -0.119999886 -0.39999998 -0.27999973 -0.52 c -0.52 -0.42000008 -1.1999998 -0.88 -1.76 -0.88 c -1 0 -1.44 0.79999995 -1.44 1.42 c 0 0.89999986 0.42000008 1.8199999 1.8999999 2.1999998 Z "/>
        </symbol>
        <symbol id="gDD70DBC7FD82AB9B40B9A3C6BF7DE1B4" overflow="visible">
            <path d="M 0 0m 3.12 7.3599997 c -0.01999998 0.6000004 -0.059999943 1.1199999 -0.15999985 1.3199997 c -0.0400002 0.10000038 -0.08000016 0.1600008 -0.24000001 0.1600008 c -0.5600002 -0.22000027 -1.08 -0.40000057 -2.46 -0.5799999 c -0.03999999 -0.12000084 0 -0.44000053 0.03999999 -0.5600004 c 1.08 -0.099999905 1.3 -0.19999981 1.3 -1.3600001 v -8.54 c 0 -1.6599998 -0.21999991 -1.7599998 -1.4399999 -1.8199999 c -0.12 -0.119999886 -0.12 -0.53999996 0 -0.65999985 c 0.6999999 0.01999998 1.4399999 0.03999996 2.2399998 0.03999996 c 0.79999995 0 1.76 -0.01999998 2.4199998 -0.03999996 c 0.12000036 0.119999886 0.12000036 0.53999996 0 0.65999985 c -1.4199998 0.08000016 -1.6399999 0.16000009 -1.6399999 1.8199999 v 2.16 c 0 0.26 0.08000016 0.23999998 0.2800002 0.16 c 0.49999976 -0.19999999 1.0999999 -0.32 1.7399998 -0.32 c 1.1199999 0 2.12 0.33999997 2.9399996 1.1199999 c 0.94000053 0.91999996 1.4800005 2.1599998 1.4800005 3.7799997 c 0 2.12 -1.5 4.08 -3.54 4.08 c -0.9200001 0 -1.94 -0.6000004 -2.74 -1.5 c -0.119999886 -0.119999886 -0.20000005 -0.119999886 -0.22000003 0.07999992 Z m 0.3800001 -0.7399998 c 0.52 0.63999987 1.44 1.2399998 2.02 1.2399998 c 1.2799997 0 2.3799996 -1.4399996 2.3799996 -3.6999998 c 0 -1.6399999 -0.5799999 -3.6799998 -2.8199997 -3.6799998 c -0.36000013 0 -1.06 0.099999994 -1.4200001 0.42 c -0.39999986 0.36 -0.48000002 0.48000002 -0.48000002 1.1999999 v 3.6399999 c 0 0.42000008 0.08000016 0.5999999 0.32000017 0.8800001 Z "/>
        </symbol>
        <symbol id="gF1A05E093C6DE90BD48222B92008B3B5" overflow="visible">
            <path d="M 0 0m 3.52 7.16 c -0.03999996 0.8000002 -0.059999943 1.3199997 -0.16000009 1.5199995 c -0.03999996 0.10000038 -0.07999992 0.1600008 -0.24000001 0.1600008 c -0.55999994 -0.22000027 -1.0799999 -0.40000057 -2.46 -0.5799999 c -0.03999996 -0.12000084 0 -0.44000053 0.04000002 -0.5600004 c 1.0799999 -0.099999905 1.3 -0.19999981 1.3 -1.3600001 v -3.8999996 c 0 -1.6600001 -0.24000001 -1.74 -1.48 -1.82 c -0.120000005 -0.120000005 -0.120000005 -0.54 0 -0.66 c 0.70000005 0.02 1.48 0.04 2.28 0.04 c 0.79999995 0 1.72 -0.02 2.4199998 -0.04 c 0.119999886 0.12 0.119999886 0.54 0 0.66 c -1.3999999 0.099999964 -1.6399999 0.15999997 -1.6399999 1.82 v 2.7799997 c 0 0.52 0.24000001 0.98 0.48000002 1.3400002 c 0.21999979 0.3199997 0.6799998 0.98 0.9200001 0.98 c 0.17999983 0 0.35999966 -0.03999996 0.52 -0.26000023 c 0.13999987 -0.19999981 0.37999964 -0.46000004 0.7199998 -0.46000004 c 0.48000002 0 0.94000006 0.5 0.94000006 1 c 0 0.3800001 -0.36000013 0.96000004 -1.1999998 0.96000004 c -0.94000006 0 -1.7600002 -0.8800001 -2.22 -1.6599998 c -0.120000124 -0.22000027 -0.22000003 -0.059999943 -0.22000003 0.03999996 Z "/>
        </symbol>
        <symbol id="g55A4F9C04CEF5831C57E09A53675FDC4" overflow="visible">
            <path d="M 0 0m 0.82 4.1 c 0 -2.04 1.3600001 -4.2999997 4.2 -4.2999997 c 1.2799997 0 2.2599998 0.45999998 2.94 1.1199999 c 0.8999996 0.88 1.3000002 2.1399999 1.3000002 3.3599997 c 0 2.08 -1.1400003 4.5 -4.2000003 4.5 c -1.3199999 0 -2.4 -0.53999996 -3.1399999 -1.4000001 c -0.72 -0.85999966 -1.0999999 -2.02 -1.0999999 -3.2799997 Z m 3.9399998 3.98 c 1.7200003 0 2.7800002 -1.56 2.7800002 -4.44 c 0 -2.52 -1.3000002 -3.1399999 -2.2400002 -3.1399999 c -2.0799997 0 -2.7599998 2.52 -2.7599998 4.06 c 0 1.7399998 0.42000008 3.52 2.2199998 3.52 Z "/>
        </symbol>
        <symbol id="g394E98138A88D9F9E4ADCFC4904E23E1" overflow="visible">
            <path d="M 0 0m 3.6399999 7.16 c -0.46000004 0.6799998 -0.31999993 0.6999998 0.5799999 0.8000002 c 0.119999886 0.119999886 0.119999886 0.53999996 0 0.65999985 c -0.53999996 -0.020000458 -1.4199998 -0.03999996 -2.0199997 -0.03999996 c -0.60000014 0 -1.2 0.019999504 -1.72 0.03999996 c -0.120000005 -0.119999886 -0.120000005 -0.53999996 0 -0.65999985 c 0.67999995 -0.06000042 1.2399999 -0.4000001 1.8 -1.2200003 l 1.74 -2.54 c 0.099999905 -0.13999987 0.099999905 -0.19999981 0.01999998 -0.29999995 l -1.6800001 -2.1599998 c -0.79999995 -1.02 -1.2399999 -1.08 -1.9399999 -1.12 c -0.120000005 -0.120000005 -0.120000005 -0.54 0 -0.66 c 0.4 0.02 0.84000003 0.04 1.44 0.04 c 0.6 0 1.16 -0.02 1.68 -0.04 c 0.119999886 0.12 0.119999886 0.54 0 0.66 c -0.72 0.07999998 -0.8800001 0.15999997 -0.44000006 0.79999995 l 1.2600002 1.82 c 0.15999985 0.24000001 0.23999977 0.22000003 0.35999966 0.03999996 l 1.1599998 -1.6 c 0.7000003 -0.96 0.3800001 -0.99999994 -0.25999975 -1.06 c -0.119999886 -0.120000005 -0.119999886 -0.54 0 -0.66 c 0.5999999 0.02 1.2599998 0.04 1.98 0.04 c 0.75999975 0 1.2999997 -0.02 1.7800002 -0.04 c 0.119999886 0.12 0.119999886 0.54 0 0.66 c -0.9000006 0.060000002 -1.2000008 0.120000005 -2.0000005 1.26 l -1.7999997 2.54 c -0.07999992 0.119999886 -0.099999905 0.17999983 0 0.2999997 l 1.6799998 2.1399999 c 0.74000025 0.94000006 1.2199998 1.04 1.94 1.1000004 c 0.119999886 0.119999886 0.119999886 0.53999996 0 0.65999985 c -0.39999962 -0.020000458 -0.85999966 -0.03999996 -1.46 -0.03999996 c -0.5999999 0 -1.1599998 0.019999504 -1.6799998 0.03999996 c -0.119999886 -0.119999886 -0.119999886 -0.53999996 0 -0.65999985 c 0.7399998 -0.0800004 0.96000004 -0.14000034 0.48000002 -0.8200002 l -1.3000002 -1.8200002 c -0.13999987 -0.19999981 -0.21999979 -0.17999983 -0.3800001 0.03999996 Z "/>
        </symbol>
        <symbol id="g6584034674B70F4F6164F507BD53D42" overflow="visible">
            <path d="M 0 0m 6.54 5.12 c -0.53999996 -1.8199999 -1.8200002 -3.84 -4.48 -4.8399997 c 0 -0.24000001 0.07999992 -0.42000002 0.24000001 -0.52 c 2.0199997 0.59999996 3.26 1.4399999 4.38 2.74 c 1.2399998 1.4399998 1.8600001 3.2599998 1.8600001 4.8399997 c 0 4.06 -2.3000002 4.86 -3.8400002 4.86 c -2.62 0 -3.6999998 -2.54 -3.6999998 -4.2599998 c 0 -1.7200003 0.91999996 -3.2600002 3.6399999 -3.2600002 c 0.52 0 1.3000002 0.15999985 1.9000001 0.44000006 Z m 0.17999983 0.7199998 c -0.65999985 -0.43999958 -1.3199997 -0.45999956 -1.6599998 -0.45999956 c -1.96 0 -2.4 1.9199996 -2.4 2.92 c 0 2.1999998 0.84000015 3.1999998 1.8200002 3.1999998 c 1.2599998 0 2.3999996 -0.6800003 2.3999996 -4.1000004 c 0 -0.43999958 -0.03999996 -0.97999954 -0.15999985 -1.56 Z "/>
        </symbol>
        <symbol id="g4FDD36593C0167B73F8CDD458FE8374" overflow="visible">
            <path d="M 0 0m 1.22 9.36 c 0 -0.42000008 0.37999988 -0.77999973 0.79999995 -0.77999973 c 0.3399999 0 0.94000006 0.35999966 0.94000006 0.8000002 c 0 0.15999985 -0.0400002 0.27999973 -0.08000016 0.42000008 c -0.03999996 0.13999939 -0.15999985 0.3199997 -0.15999985 0.47999954 c 0 0.5 0.52 1.2200003 1.9799998 1.2200003 c 0.72000027 0 1.7400002 -0.5 1.7400002 -2.42 c 0 -1.2800002 -0.46000004 -2.3200002 -1.6400003 -3.52 l -1.4799998 -1.46 c -1.9599999 -2 -2.28 -2.96 -2.28 -4.14 c 0 0 1.02 0.04 1.6600001 0.04 h 3.4999998 c 0.63999987 0 1.56 -0.04 1.56 -0.04 c 0.25999975 1.06 0.46000051 2.56 0.48000002 3.1599998 c -0.119999886 0.10000014 -0.3800001 0.1400001 -0.5799999 0.10000014 c -0.34000015 -1.4200001 -0.6799998 -1.9200001 -1.4000001 -1.9200001 h -3.5599997 c 0 0.96000004 1.3799999 2.32 1.4799998 2.42 l 2.02 1.9399998 c 1.1399999 1.0999999 2 1.98 2 3.5 c 0 2.1599998 -1.7599998 3.04 -3.38 3.04 c -2.2199998 0 -3.5999997 -1.6400003 -3.5999997 -2.8400002 Z "/>
        </symbol>
        <symbol id="g29927B633914011D34EE4DDCA3BDA371" overflow="visible">
            <path d="M 0 0m 8.599999 4.38 h -1.6599994 v 5.839999 c 0 1 0 1.7800007 0.03999996 1.9400005 l -0.03999996 0.03999996 h -0.64000034 c -0.13999987 0 -0.23999977 -0.119999886 -0.3199997 -0.22000027 c -1.2600002 -1.54 -3.5800002 -4.8399997 -5.42 -7.7 c 0.060000002 -0.2999997 0.18 -0.8399999 0.7799999 -0.8399999 h 4.08 v -1.8399999 c 0 -0.9199999 -0.7600002 -0.9199999 -1.6200001 -0.9799999 c -0.120000124 -0.120000005 -0.120000124 -0.54 0 -0.66 c 0.6400001 0.02 1.4399998 0.04 2.36 0.04 c 0.7800002 0 1.54 -0.02 2.1800003 -0.04 c 0.119999886 0.12 0.119999886 0.54 0 0.66 c -0.9800005 0.07999998 -1.4000001 0.03999996 -1.4000001 0.9799999 v 1.8399999 h 1.3799996 c 0.27999973 0 0.5799999 0.3800001 0.5799999 0.6200001 c 0 0.19999981 -0.07999992 0.32000017 -0.3000002 0.32000017 Z m -3.1799994 5.7599993 v -5.7599993 h -3.8200002 c 1.02 1.6399999 2.44 3.88 3.8200002 5.7599993 Z "/>
        </symbol>
        <symbol id="g750F5F2555145575861EE82BF2C4A337" overflow="visible">
            <path d="M 0 0m 3.82 2.44 v 3.7399998 c 0.68000007 -0.01999998 1.26 -0.23999977 1.6600001 -0.75999975 l 3.1399999 -3.96 c 0.39999962 -0.5199999 0.6800003 -1.06 0.72000027 -1.3799999 c 0 -0.06 0.019999504 -0.12 0.09999943 -0.12 c 0.40000057 0.02 0.65999985 0.04 1.0799999 0.04 c 0.6800003 0 1.3600006 -0.02 2.0200005 -0.04 c 0.119999886 0.12 0.119999886 0.54 0 0.66 c -0.5799999 0.060000002 -1.1400003 0.120000005 -1.7600002 0.8399999 l -4.38 5.2 c -0.15999985 0.17999983 -0.25999975 0.34000015 -0.25999975 0.5 c 0 0.13999987 0.01999998 0.2800002 0.6999998 0.97999954 l 2.94 3.0200005 c 0.9200001 0.97999954 1.7200003 1.0599995 2.5200005 1.1199999 c 0.119999886 0.119999886 0.119999886 0.53999996 0 0.65999985 c -0.62000084 -0.019999504 -1.2600002 -0.03999996 -1.9000006 -0.03999996 c -0.7399998 0 -1.5199995 0.020000458 -2.2600002 0.03999996 c -0.119999886 -0.119999886 -0.119999886 -0.53999996 0 -0.65999985 c 0.72000027 -0.06000042 1.4000006 -0.14000034 0.5600004 -1.04 l -3.2999997 -3.52 c -0.42000008 -0.46000004 -0.8800001 -0.7199998 -1.5800002 -0.77999973 v 3.52 c 0 1.6599998 0.3399999 1.7599993 1.74 1.8199997 c 0.119999886 0.119999886 0.119999886 0.53999996 0 0.65999985 c -0.9200001 -0.019999504 -1.8600001 -0.03999996 -2.6 -0.03999996 c -0.76 0 -1.6800001 0.020000458 -2.58 0.03999996 c -0.120000005 -0.119999886 -0.120000005 -0.53999996 0 -0.65999985 c 1.4 -0.06000042 1.7399999 -0.15999985 1.7399999 -1.8199997 v -8.02 c 0 -1.6600001 -0.3399999 -1.76 -1.7399999 -1.82 c -0.120000005 -0.120000005 -0.120000005 -0.54 0 -0.66 c 0.9 0.02 1.82 0.04 2.6 0.04 c 0.76 0 1.6799998 -0.02 2.58 -0.04 c 0.119999886 0.12 0.119999886 0.54 0 0.66 c -1.4000001 0.060000002 -1.74 0.15999997 -1.74 1.82 Z "/>
        </symbol>
    </defs>
</svg>
