<svg class="typst-doc" viewBox="0 0 793.7007874015748 115.13591338582677" width="793.7007874015748pt" height="115.13591338582677pt" xmlns="http://www.w3.org/2000/svg" xmlns:xlink="http://www.w3.org/1999/xlink" xmlns:h5="http://www.w3.org/1999/xhtml">
    <path class="typst-shape" fill="#ffffff" fill-rule="nonzero" d="M 0 0v 115.13591 h 793.7008 v -115.13591 Z "/>
    <g>
        <g class="typst-text" transform="matrix(1 0 0 -1 28.346456692913385 43.480456692913386)">
            <use xlink:href="#g8B357D142571D6610777D475FB43C7E2" x="0" y="0" fill="#000000" fill-rule="nonzero"/>
            <use xlink:href="#gAA1A5EB72FF7F33402A5B05F9464173D" x="12.811" y="0" fill="#000000" fill-rule="nonzero"/>
            <use xlink:href="#g2D18F0C480219300B90694E310D937E8" x="24.081" y="0" fill="#000000" fill-rule="nonzero"/>
            <use xlink:href="#gB5C2AF791EB11DC382D7D52C5245183A" x="36.018" y="0" fill="#000000" fill-rule="nonzero"/>
            <use xlink:href="#g6EDEC7CFE0FF41E4C99195D7FA267726" x="42.09" y="0" fill="#000000" fill-rule="nonzero"/>
            <use xlink:href="#gB343D807E1CB93F472B90F9E10F3FC37" x="52.601000000000006" y="0" fill="#000000" fill-rule="nonzero"/>
            <use xlink:href="#g6EDEC7CFE0FF41E4C99195D7FA267726" x="65.06700000000001" y="0" fill="#000000" fill-rule="nonzero"/>
            <use xlink:href="#gA708B7317D066AACA16A8CF1BCCF9219" x="75.578" y="0" fill="#000000" fill-rule="nonzero"/>
            <use xlink:href="#g53101F28E17FBF7AFD91854E30D810C7" x="82.846" y="0" fill="#000000" fill-rule="nonzero"/>
            <use xlink:href="#gF08C01CE4B15EB9A355572885E9E40A7" x="89.07900000000001" y="0" fill="#000000" fill-rule="nonzero"/>
            <use xlink:href="#gB343D807E1CB93F472B90F9E10F3FC37" x="100.671" y="0" fill="#000000" fill-rule="nonzero"/>
            <use xlink:href="#g7F931CCB0BC0E88A78904DD690B95A3B" x="113.137" y="0" fill="#000000" fill-rule="nonzero"/>
        </g>
        <g class="typst-text" transform="matrix(1 0 0 -1 28.346456692913385 86.78945669291339)">
            <use xlink:href="#g7176A7FD60B43CBAB7AFC5052D098127" x="0" y="0" fill="#000000" fill-rule="nonzero"/>
            <use xlink:href="#g8394266AEDBDAE5791EC8B20E560D183" x="14.858" y="0" fill="#000000" fill-rule="nonzero"/>
            <use xlink:href="#g9390E41BB8FAB9F56F81F195EEEF9575" x="27.232" y="0" fill="#000000" fill-rule="nonzero"/>
            <use xlink:href="#gF08C01CE4B15EB9A355572885E9E40A7" x="35.604" y="0" fill="#000000" fill-rule="nonzero"/>
            <use xlink:href="#gF6B0282C592AC9F033DCF38E9D7F9F7" x="47.196" y="0" fill="#000000" fill-rule="nonzero"/>
            <use xlink:href="#g53101F28E17FBF7AFD91854E30D810C7" x="65.366" y="0" fill="#000000" fill-rule="nonzero"/>
            <use xlink:href="#g9B7F9713B4E9EFEB34E9BA215EB9194E" x="71.599" y="0" fill="#000000" fill-rule="nonzero"/>
            <use xlink:href="#gF6B0282C592AC9F033DCF38E9D7F9F7" x="83.81200000000001" y="0" fill="#000000" fill-rule="nonzero"/>
            <use xlink:href="#g53101F28E17FBF7AFD91854E30D810C7" x="107.73200000000001" y="0" fill="#000000" fill-rule="nonzero"/>
            <use xlink:href="#g28E39A6866B5D79D9C6AA1FEFC6D616B" x="113.96500000000002" y="0" fill="#000000" fill-rule="nonzero"/>
            <use xlink:href="#g6EDEC7CFE0FF41E4C99195D7FA267726" x="128.685" y="0" fill="#000000" fill-rule="nonzero"/>
            <use xlink:href="#gB343D807E1CB93F472B90F9E10F3FC37" x="139.196" y="0" fill="#000000" fill-rule="nonzero"/>
            <use xlink:href="#gBDDF711540E9D8CD85D8E10D69FAB298" x="157.412" y="0" fill="#000000" fill-rule="nonzero"/>
            <use xlink:href="#gAA1A5EB72FF7F33402A5B05F9464173D" x="167.532" y="0" fill="#000000" fill-rule="nonzero"/>
            <use xlink:href="#g9CBD281D7A29E4AC748208EE0E06C698" x="178.80200000000002" y="0" fill="#000000" fill-rule="nonzero"/>
            <use xlink:href="#gBDDF711540E9D8CD85D8E10D69FAB298" x="188.64600000000002" y="0" fill="#000000" fill-rule="nonzero"/>
            <use xlink:href="#g2D18F0C480219300B90694E310D937E8" x="198.92700000000002" y="0" fill="#000000" fill-rule="nonzero"/>
            <use xlink:href="#gA708B7317D066AACA16A8CF1BCCF9219" x="210.86400000000003" y="0" fill="#000000" fill-rule="nonzero"/>
            <use xlink:href="#g53101F28E17FBF7AFD91854E30D810C7" x="218.13200000000003" y="0" fill="#000000" fill-rule="nonzero"/>
            <use xlink:href="#gF08C01CE4B15EB9A355572885E9E40A7" x="224.36500000000004" y="0" fill="#000000" fill-rule="nonzero"/>
            <use xlink:href="#gB343D807E1CB93F472B90F9E10F3FC37" x="235.95700000000005" y="0" fill="#000000" fill-rule="nonzero"/>
            <use xlink:href="#g39A8423162778569ECD4747BFA738685" x="254.17300000000006" y="0" fill="#000000" fill-rule="nonzero"/>
            <use xlink:href="#g8394266AEDBDAE5791EC8B20E560D183" x="271.35400000000004" y="0" fill="#000000" fill-rule="nonzero"/>
            <use xlink:href="#gBDDF711540E9D8CD85D8E10D69FAB298" x="283.72800000000007" y="0" fill="#000000" fill-rule="nonzero"/>
            <use xlink:href="#g9390E41BB8FAB9F56F81F195EEEF9575" x="294.00900000000007" y="0" fill="#000000" fill-rule="nonzero"/>
            <use xlink:href="#gBDDF711540E9D8CD85D8E10D69FAB298" x="302.3810000000001" y="0" fill="#000000" fill-rule="nonzero"/>
            <use xlink:href="#g6EDEC7CFE0FF41E4C99195D7FA267726" x="318.4120000000001" y="0" fill="#000000" fill-rule="nonzero"/>
            <use xlink:href="#g8394266AEDBDAE5791EC8B20E560D183" x="334.6730000000001" y="0" fill="#000000" fill-rule="nonzero"/>
            <use xlink:href="#g6EDEC7CFE0FF41E4C99195D7FA267726" x="347.04700000000014" y="0" fill="#000000" fill-rule="nonzero"/>
            <use xlink:href="#gB5C2AF791EB11DC382D7D52C5245183A" x="357.55800000000016" y="0" fill="#000000" fill-rule="nonzero"/>
            <use xlink:href="#g89CCC747E44A011CD9A8A1AAE3D0C2C8" x="363.63000000000017" y="0" fill="#000000" fill-rule="nonzero"/>
            <use xlink:href="#gB6E18D7676EBB0E48E4D822142602988" x="370.76000000000016" y="0" fill="#000000" fill-rule="nonzero"/>
            <use xlink:href="#gD2ADE5A886ECC0F3ED8BB4CD8E833D44" x="378.53400000000016" y="0" fill="#000000" fill-rule="nonzero"/>
            <use xlink:href="#gB5C2AF791EB11DC382D7D52C5245183A" x="391.41400000000016" y="0" fill="#000000" fill-rule="nonzero"/>
            <use xlink:href="#gB5C2AF791EB11DC382D7D52C5245183A" x="397.48600000000016" y="0" fill="#000000" fill-rule="nonzero"/>
            <use xlink:href="#gBDDF711540E9D8CD85D8E10D69FAB298" x="403.55800000000016" y="0" fill="#000000" fill-rule="nonzero"/>
            <use xlink:href="#gDA27726B7C89943A61F15D2B642599F0" x="414.00000000000017" y="0" fill="#000000" fill-rule="nonzero"/>
        </g>
        <g class="typst-text" transform="matrix(1 0 0 -1 459.7344566929134 86.78945669291339)">
            <use xlink:href="#gAD2F0D1F56F413AE924D9480CE006C7C" x="0" y="0" fill="#000000" fill-rule="nonzero"/>
        </g>
        <g class="typst-text" transform="matrix(1 0 0 -1 472.24645669291334 86.78945669291339)">
            <use xlink:href="#gB6E18D7676EBB0E48E4D822142602988" x="0" y="0" fill="#000000" fill-rule="nonzero"/>
            <use xlink:href="#g28E39A6866B5D79D9C6AA1FEFC6D616B" x="7.774000000000001" y="0" fill="#000000" fill-rule="nonzero"/>
            <use xlink:href="#g8394266AEDBDAE5791EC8B20E560D183" x="16.744" y="0" fill="#000000" fill-rule="nonzero"/>
            <use xlink:href="#gBDDF711540E9D8CD85D8E10D69FAB298" x="29.118000000000002" y="0" fill="#000000" fill-rule="nonzero"/>
            <use xlink:href="#gB5C2AF791EB11DC382D7D52C5245183A" x="39.399" y="0" fill="#000000" fill-rule="nonzero"/>
            <use xlink:href="#gB5C2AF791EB11DC382D7D52C5245183A" x="45.471000000000004" y="0" fill="#000000" fill-rule="nonzero"/>
            <use xlink:href="#g53101F28E17FBF7AFD91854E30D810C7" x="57.293000000000006" y="0" fill="#000000" fill-rule="nonzero"/>
            <use xlink:href="#g28E39A6866B5D79D9C6AA1FEFC6D616B" x="63.526" y="0" fill="#000000" fill-rule="nonzero"/>
            <use xlink:href="#gF6B0282C592AC9F033DCF38E9D7F9F7" x="78.24600000000001" y="0" fill="#000000" fill-rule="nonzero"/>
            <use xlink:href="#gF08C01CE4B15EB9A355572885E9E40A7" x="96.41600000000001" y="0" fill="#000000" fill-rule="nonzero"/>
            <use xlink:href="#g9390E41BB8FAB9F56F81F195EEEF9575" x="108.00800000000001" y="0" fill="#000000" fill-rule="nonzero"/>
            <use xlink:href="#gBDDF711540E9D8CD85D8E10D69FAB298" x="116.38000000000001" y="0" fill="#000000" fill-rule="nonzero"/>
            <use xlink:href="#g28E39A6866B5D79D9C6AA1FEFC6D616B" x="132.411" y="0" fill="#000000" fill-rule="nonzero"/>
            <use xlink:href="#gA708B7317D066AACA16A8CF1BCCF9219" x="141.381" y="0" fill="#000000" fill-rule="nonzero"/>
            <use xlink:href="#g6EDEC7CFE0FF41E4C99195D7FA267726" x="148.649" y="0" fill="#000000" fill-rule="nonzero"/>
            <use xlink:href="#g82CEEDD0D349599323E64BB4663C0624" x="159.16" y="0" fill="#000000" fill-rule="nonzero"/>
            <use xlink:href="#gB5C2AF791EB11DC382D7D52C5245183A" x="170.499" y="0" fill="#000000" fill-rule="nonzero"/>
            <use xlink:href="#gBDDF711540E9D8CD85D8E10D69FAB298" x="176.571" y="0" fill="#000000" fill-rule="nonzero"/>
            <use xlink:href="#gE7684A05A8ED9E92010F1AB50BE29568" x="186.62199999999999" y="0" fill="#000000" fill-rule="nonzero"/>
        </g>
    </g>
    <defs id="glyph">
        <symbol id="g8B357D142571D6610777D475FB43C7E2" overflow="visible">
            <path d="M 0 0m 6.463 8.303 h -2.093 v 4.1399994 c 0 1.0120001 0.27600002 1.4720001 1.5180001 1.4720001 h 1.7249999 c 1.7250004 0 2.0930004 -0.9200001 2.599 -2.507 c 0.27600002 -0.045999527 0.5290003 0 0.7589998 0.11499977 c -0.11499977 0.94299984 -0.46000004 3.151 -0.50599957 3.335 c 0 0.04600048 -0.022999763 0.069000244 -0.09200001 0.069000244 c -0.3909998 -0.069000244 -0.5749998 -0.09200001 -1.1269999 -0.09200001 h -5.8650002 c -0.69000006 0 -2.047 0.022999763 -2.967 0.045999527 c -0.13800001 -0.13799953 -0.13800001 -0.62099934 0 -0.7589998 c 1.6099999 -0.06899929 2.001 -0.18400002 2.001 -2.0929995 v -9.223001 c 0 -1.9089999 -0.39100003 -2.024 -2.001 -2.093 c -0.13800001 -0.13800001 -0.13800001 -0.621 0 -0.759 c 0.85099995 0.023 2.231 0.046 2.99 0.046 h 4.9449997 c 1.1040001 0 2.9440002 -0.046 2.9440002 -0.046 c 0.32199955 1.15 0.6669998 2.668 0.85099983 3.841 c -0.2300005 0.13800001 -0.50599957 0.18400002 -0.8050003 0.11500001 c -0.46000004 -1.6560001 -1.2649994 -3.013 -3.0129995 -3.013 h -2.6680002 c -0.9660001 0 -1.2880001 0.36799997 -1.2880001 1.4489999 v 5.083 h 2.093 c 1.9550004 0 2.0240006 -0.5289998 2.093 -1.5639997 c 0.13800049 -0.13800001 0.6210003 -0.13800001 0.7589998 0 c -0.022999763 0.5979996 -0.045999527 1.2419996 -0.045999527 2.0239997 c 0 0.64400005 0.022999763 1.4259996 0.045999527 1.9779997 c -0.13799953 0.13800049 -0.62099934 0.13800049 -0.7589998 0 c -0.06899929 -1.2649994 -0.13799953 -1.5639992 -2.093 -1.5639992 Z "/>
        </symbol>
        <symbol id="gAA1A5EB72FF7F33402A5B05F9464173D" overflow="visible">
            <path d="M 0 0m 4.186 8.234 c -0.5289998 0.7819996 -0.3679998 0.80499935 0.6670003 0.9200001 c 0.13800001 0.13799953 0.13800001 0.62099934 0 0.7589998 c -0.6210003 -0.022999763 -1.6330001 -0.04600048 -2.3230002 -0.04600048 c -0.68999994 0 -1.38 0.023000717 -1.9779999 0.04600048 c -0.13799998 -0.13800049 -0.13799998 -0.6210003 0 -0.7589998 c 0.782 -0.069000244 1.4260001 -0.46000004 2.07 -1.4030004 l 2.0010002 -2.921 c 0.11499977 -0.16099977 0.11499977 -0.23000002 0.022999763 -0.3449998 l -1.9319999 -2.4840002 c -0.91999996 -1.1729999 -1.426 -1.2419999 -2.231 -1.2879999 c -0.13800001 -0.13800001 -0.13800001 -0.621 0 -0.759 c 0.46 0.023 0.96599996 0.046 1.6559999 0.046 c 0.69000006 0 1.3340001 -0.023 1.9320002 -0.046 c 0.13800001 0.138 0.13800001 0.621 0 0.759 c -0.82800007 0.09200001 -1.0120001 0.18400002 -0.50600004 0.92 l 1.4489999 2.093 c 0.18400002 0.27599978 0.27600002 0.25300002 0.41400003 0.046000004 l 1.3340001 -1.84 c 0.8049998 -1.1040001 0.4369998 -1.1500001 -0.29900026 -1.2190001 c -0.13800001 -0.13800001 -0.13800001 -0.621 0 -0.759 c 0.69000006 0.023 1.4490004 0.046 2.277 0.046 c 0.87400055 0 1.4949999 -0.023 2.047 -0.046 c 0.13800049 0.138 0.13800049 0.621 0 0.759 c -1.0349998 0.069000006 -1.3800001 0.13800001 -2.2999992 1.4489999 l -2.0700006 2.9210002 c -0.09200001 0.13800001 -0.11499977 0.20699978 0 0.3449998 l 1.9320002 2.461 c 0.85099983 1.0810003 1.4029999 1.1960001 2.231 1.2650003 c 0.13800049 0.13799953 0.13800049 0.62099934 0 0.7589998 c -0.46000004 -0.022999763 -0.9890003 -0.04600048 -1.6789999 -0.04600048 c -0.6899996 0 -1.3340001 0.023000717 -1.9320002 0.04600048 c -0.13800001 -0.13800049 -0.13800001 -0.6210003 0 -0.7589998 c 0.8510003 -0.09200001 1.1040001 -0.16100025 0.55200005 -0.94299984 l -1.4949999 -2.0930004 c -0.16099977 -0.23000002 -0.25299978 -0.20700026 -0.4369998 0.046000004 Z "/>
        </symbol>
        <symbol id="g2D18F0C480219300B90694E310D937E8" overflow="visible">
            <path d="M 0 0m 3.588 8.464 c -0.023000002 0.69000053 -0.069000006 1.2880001 -0.18400002 1.5180006 c -0.046000004 0.11499977 -0.09200001 0.18400002 -0.27600002 0.18400002 c -0.64400005 -0.25300026 -1.242 -0.46000004 -2.829 -0.6670008 c -0.046000004 -0.13799953 0 -0.50599957 0.046000004 -0.64400005 c 1.242 -0.11499977 1.495 -0.22999954 1.495 -1.5639997 v -9.821 c 0 -1.9090002 -0.25300002 -2.024 -1.656 -2.0930002 c -0.138 -0.13800001 -0.138 -0.6209998 0 -0.7589998 c 0.805 0.022999763 1.656 0.046000004 2.576 0.046000004 c 0.9200001 0 2.024 -0.02300024 2.7830002 -0.046000004 c 0.13800001 0.13800001 0.13800001 0.6209998 0 0.7589998 c -1.6330001 0.09200001 -1.8860002 0.18400002 -1.8860002 2.0930002 v 2.484 c 0 0.299 0.09200001 0.276 0.32200003 0.184 c 0.5749998 -0.22999999 1.2649999 -0.368 2.001 -0.368 c 1.2880001 0 2.4380002 0.391 3.381 1.288 c 1.0810003 1.058 1.7019997 2.4840002 1.7019997 4.347 c 0 2.4379997 -1.7249994 4.692 -4.0709996 4.692 c -1.0580001 0 -2.231 -0.69000053 -3.151 -1.7250004 c -0.13800001 -0.13799953 -0.23000002 -0.13799953 -0.25300002 0.09200001 Z m 0.43700004 -0.85099983 c 0.59800005 0.73600006 1.6560001 1.4259996 2.323 1.4259996 c 1.4720001 0 2.737 -1.6559997 2.737 -4.2549996 c 0 -1.8859999 -0.6669998 -4.232 -3.243 -4.232 c -0.41400003 0 -1.2189999 0.11500001 -1.6329999 0.48299998 c -0.46000004 0.41400003 -0.55200005 0.55200005 -0.55200005 1.38 v 4.186 c 0 0.48300028 0.09200001 0.69000006 0.36800003 1.0120001 Z "/>
        </symbol>
        <symbol id="gB5C2AF791EB11DC382D7D52C5245183A" overflow="visible">
            <path d="M 0 0m 2.185 2.806 c 0 -1.9089999 -0.2529999 -2.024 -1.6559999 -2.093 c -0.13799998 -0.13800001 -0.13799998 -0.621 0 -0.759 c 0.805 0.023 1.6559999 0.046 2.576 0.046 c 0.9200001 0 1.7940001 -0.023 2.553 -0.046 c 0.13800001 0.138 0.13800001 0.621 0 0.759 c -1.4029999 0.069000006 -1.6560001 0.18400002 -1.6560001 2.093 v 10.603001 c 0 1.4949999 0.09200001 2.415 0.09200001 2.415 c 0 0.1609993 -0.09200001 0.2300005 -0.2989998 0.2300005 c -0.57500005 -0.2300005 -2.3000002 -0.552001 -3.22 -0.62100124 c -0.046000004 -0.18400002 0 -0.55200005 0.13800001 -0.6899996 c 1.3339999 -0.09200001 1.4719999 -0.16100025 1.4719999 -1.8859997 Z "/>
        </symbol>
        <symbol id="g6EDEC7CFE0FF41E4C99195D7FA267726" overflow="visible">
            <path d="M 0 0m 6.739 1.104 c 0.13800001 -0.71299994 0.39100027 -1.334 1.5409999 -1.334 c 0.87400055 0 1.7020006 0.391 2.1850004 0.851 c -0.04600048 0.27600002 -0.13800049 0.48299998 -0.3909998 0.621 c -0.16100025 -0.13800001 -0.55200005 -0.36799997 -0.8510008 -0.36799997 c -0.6669998 0 -0.6899996 0.897 -0.6899996 1.9549999 v 3.381 c 0 3.2659998 -1.7940001 3.887 -3.473 3.887 c -1.8859999 0 -3.795 -1.2420006 -3.795 -2.553 c 0 -0.55200005 0.27600002 -0.82800007 0.80499995 -0.82800007 c 0.66700006 0 1.0810001 0.4829998 1.0810001 0.78200006 c 0 0.16099977 -0.023000002 0.32200003 -0.069000006 0.41400003 c -0.023000002 0.06899977 -0.046000004 0.20700026 -0.046000004 0.45999956 c 0 0.7130003 0.96599984 0.96600056 1.8399999 0.96600056 c 0.78200006 0 1.8629999 -0.39100075 1.8629999 -2.9900002 c 0 -0.16100025 -0.06899977 -0.25300026 -0.13800001 -0.27600002 l -1.9779997 -0.4829998 c -2.2080002 -0.55200005 -3.795 -1.7710001 -3.795 -3.3350003 c 0 -1.8859999 1.2879999 -2.484 2.898 -2.484 c 0.80500007 0 1.4950001 0.184 2.5069997 0.966 l 0.46000004 0.36799997 Z m 0 4.255 v -3.0360003 c 0 -0.29900002 -0.13800001 -0.45999992 -0.32200003 -0.59799993 c -0.5979996 -0.48300004 -1.3799996 -1.0120001 -2.0239997 -1.0120001 c -1.1500001 0 -1.6560001 0.92 -1.6560001 1.6329999 c 0 1.0350001 0.48300004 2.0930002 2.185 2.53 Z "/>
        </symbol>
        <symbol id="gB343D807E1CB93F472B90F9E10F3FC37" overflow="visible">
            <path d="M 0 0m 4.232 8.234 c -0.13800001 -0.16100025 -0.27599978 -0.20699978 -0.27599978 0 c -0.023000002 0.62099934 -0.069000006 1.5179996 -0.18400002 1.7480001 c -0.046000004 0.11499977 -0.09200001 0.18400002 -0.27600002 0.18400002 c -0.64400005 -0.25300026 -1.2420001 -0.46000004 -2.829 -0.6670008 c -0.046000004 -0.13799953 0 -0.50599957 0.046000004 -0.64400005 c 1.2420001 -0.11499977 1.4949999 -0.22999954 1.4949999 -1.5639997 v -4.4849997 c 0 -1.8859999 -0.2299999 -1.9779999 -1.6099999 -2.093 c -0.13799998 -0.13800001 -0.13799998 -0.621 0 -0.759 c 0.69 0.023 1.6099999 0.046 2.53 0.046 c 0.91999984 0 1.6099999 -0.023 2.3 -0.046 c 0.13800001 0.138 0.13800001 0.621 0 0.759 c -1.1729999 0.11500001 -1.4029999 0.20700002 -1.4029999 2.093 v 3.772 c 0 0.4829998 0.20699978 0.7589998 0.3909998 0.9660001 c 0.8740001 0.8510003 1.9089999 1.3569999 2.8060002 1.3569999 c 0.46000004 0 0.94299984 -0.2989998 1.2189999 -0.82800007 c 0.2300005 -0.46000004 0.27600002 -1.0809999 0.27600002 -1.7709999 v -3.496 c 0 -1.8859999 -0.22999954 -1.9779999 -1.4260001 -2.093 c -0.11499977 -0.13800001 -0.11499977 -0.621 0 -0.759 c 0.69000006 0.023 1.4260001 0.046 2.3460002 0.046 c 0.9200001 0 1.7480001 -0.023 2.4379997 -0.046 c 0.11499977 0.138 0.11499977 0.621 0 0.759 c -1.2880001 0.11500001 -1.5409994 0.20700002 -1.5409994 2.093 v 3.4269998 c 0 1.2650003 -0.09200001 2.3690004 -0.6210003 3.0819998 c -0.3909998 0.5060005 -1.1040001 0.78200054 -1.9090004 0.78200054 c -1.1269999 0 -2.4149995 -0.2989998 -3.7719998 -1.8629999 Z "/>
        </symbol>
        <symbol id="gA708B7317D066AACA16A8CF1BCCF9219" overflow="visible">
            <path d="M 0 0m 0.989 9.867 c -0.32200003 0 -0.41400003 -0.27600002 -0.41400003 -0.46000004 v -0.2989998 c 0 -0.11499977 0.023000002 -0.13799953 0.11500001 -0.13799953 h 1.3569999 v -6.9230003 c 0 -1.6329999 0.71300006 -2.277 1.7710001 -2.277 c 1.0579998 0 2.208 0.506 3.1049998 1.518 c -0.046000004 0.23000002 -0.18400002 0.36800003 -0.41400003 0.39100003 c -0.59800005 -0.46000004 -1.2879996 -0.64400005 -1.8859997 -0.64400005 c -0.6210003 0 -0.75900006 0.69000006 -0.75900006 2.1160002 v 5.8190002 h 2.392 c 0.23000002 0 0.55200005 0.09200001 0.55200005 0.2989998 v 0.46000004 c 0 0.09200001 -0.069000244 0.13799953 -0.18400002 0.13799953 h -2.76 v 0.8970003 c 0 1.4949999 0.09200001 2.415 0.09200001 2.415 c 0 0.13800049 -0.069000006 0.20699978 -0.18400002 0.20699978 c -0.09200001 0 -0.29900002 -0.09200001 -0.50600004 -0.20699978 c -0.25300002 -0.13799953 -0.48300004 -0.25300026 -0.78200006 -0.32199955 c -0.27600002 -0.09200001 -0.5059999 -0.16100025 -0.5059999 -0.3220005 c 0 -0.27600002 0.06899989 -0.11499977 0.06899989 -2.6680002 Z "/>
        </symbol>
        <symbol id="g53101F28E17FBF7AFD91854E30D810C7" overflow="visible">
            <path d="M 0 0m 4.163 2.806 v 4.5769997 c 0 1.1500001 0.09200001 2.6220002 0.09200001 2.6220002 c 0 0.09200001 -0.11500025 0.16100025 -0.29900002 0.16100025 c -0.64400005 -0.25300026 -1.5640001 -0.46000004 -3.151 -0.6670008 c -0.046000004 -0.13799953 0 -0.50599957 0.046000004 -0.64400005 c 1.2649999 -0.11499977 1.4949999 -0.2529993 1.4949999 -1.5639997 v -4.4849997 c 0 -1.9089999 -0.25300002 -1.9779999 -1.6559999 -2.093 c -0.13800001 -0.13800001 -0.13800001 -0.621 0 -0.759 c 0.759 0.023 1.6559999 0.046 2.576 0.046 c 0.91999984 0 1.7939999 -0.023 2.5530002 -0.046 c 0.13799953 0.138 0.13799953 0.621 0 0.759 c -1.4030004 0.09200001 -1.6560001 0.18400002 -1.6560001 2.093 Z m -2.0930002 10.971001 c 0 -0.5980005 0.55200005 -1.1960001 1.1040001 -1.1960001 c 0.64400005 0 1.1959999 0.62099934 1.1959999 1.1040001 c 0 0.55200005 -0.4829998 1.1959991 -1.1039999 1.1959991 c -0.55200005 0 -1.1960001 -0.5519991 -1.1960001 -1.1039991 Z "/>
        </symbol>
        <symbol id="gF08C01CE4B15EB9A355572885E9E40A7" overflow="visible">
            <path d="M 0 0m 0.943 4.715 c 0 -2.3460002 1.5639999 -4.945 4.8300004 -4.945 c 1.4719996 0 2.5989995 0.529 3.381 1.288 c 1.0349998 1.012 1.4949999 2.461 1.4949999 3.8639998 c 0 2.3920002 -1.3109999 5.175 -4.83 5.175 c -1.5180001 0 -2.7600002 -0.6210003 -3.6110003 -1.6099997 c -0.82799995 -0.9890003 -1.2649999 -2.3230004 -1.2649999 -3.7720003 Z m 4.531 4.5769997 c 1.9780002 0 3.1970005 -1.7939997 3.1970005 -5.106 c 0 -2.8979998 -1.4950004 -3.6109998 -2.5760007 -3.6109998 c -2.3919997 0 -3.1739998 2.898 -3.1739998 4.669 c 0 2.001 0.48300004 4.048 2.553 4.048 Z "/>
        </symbol>
        <symbol id="g7F931CCB0BC0E88A78904DD690B95A3B" overflow="visible">
            <path d="M 0 0m 1.61 1.38 c 0 -0.667 0.5519999 -1.219 1.219 -1.219 c 0.66700006 0 1.2189999 0.552 1.2189999 1.219 c 0 0.66699994 -0.5519998 1.219 -1.2189999 1.219 c -0.66700006 0 -1.219 -0.55200005 -1.219 -1.219 Z m 0 6.854 c 0 -0.6670003 0.5519999 -1.2190003 1.219 -1.2190003 c 0.66700006 0 1.2189999 0.55200005 1.2189999 1.2190003 c 0 0.6669998 -0.5519998 1.2189999 -1.2189999 1.2189999 c -0.66700006 0 -1.219 -0.55200005 -1.219 -1.2189999 Z "/>
        </symbol>
        <symbol id="g7176A7FD60B43CBAB7AFC5052D098127" overflow="visible">
            <path d="M 0 0m 8.211 -0.23 c 2.231 0 4.278 1.058 5.842 3.105 c -0.115000725 0.20700002 -0.27600002 0.34500003 -0.5290003 0.34500003 c -1.6330004 -1.794 -3.1970005 -2.507 -5.3360004 -2.507 c -3.1049995 0 -5.2439995 3.496 -5.2439995 6.854 c 0 1.9780002 0.52900004 3.6340003 1.3570001 4.669 c 1.1500001 1.4029999 2.4839997 2.047 3.6799998 2.047 c 3.1739998 0 4.439 -1.8859997 5.0369997 -3.8640003 c 0.27600002 -0.09200001 0.5060005 -0.022999763 0.7590008 0.115000725 c -0.115000725 1.1960001 -0.27600002 2.2999992 -0.5060005 3.5649996 c -1.1730003 0.11499977 -2.2080002 1.0349998 -5.0369997 1.0349998 c -1.9550004 0 -3.5880003 -0.71299934 -4.945 -1.9549999 c -1.518 -1.4029999 -2.438 -3.6569996 -2.438 -6.049 c 0 -4.002 2.415 -7.36 7.3600006 -7.36 Z "/>
        </symbol>
        <symbol id="g8394266AEDBDAE5791EC8B20E560D183" overflow="visible">
            <path d="M 0 0m 3.841 6.578 c 0 0.4829998 0.20699978 0.7589998 0.3909998 0.9660001 c 0.8740001 0.8510003 2.047 1.3569999 2.9440002 1.3569999 c 0.46000004 0 0.9430003 -0.2989998 1.2190003 -0.82800007 c 0.22999954 -0.46000004 0.27600002 -1.0809999 0.27600002 -1.7709999 v -3.496 c 0 -1.8859999 -0.2300005 -1.9779999 -1.4260006 -2.093 c -0.11499977 -0.13800001 -0.11499977 -0.621 0 -0.759 c 0.64400005 0.023 1.4260006 0.046 2.3459997 0.046 c 0.9200001 0 1.6790009 -0.023 2.4380007 -0.046 c 0.11499977 0.138 0.11499977 0.621 0 0.759 c -1.2880001 0.11500001 -1.5410004 0.20700002 -1.5410004 2.093 v 3.4269998 c 0 1.2650003 -0.09200001 2.3920002 -0.6210003 3.0819998 c -0.3909998 0.5060005 -1.1039991 0.78200054 -1.9089994 0.78200054 c -1.1270003 0 -2.507 -0.2989998 -3.9100003 -1.8629999 c 0 -0.022999763 -0.022999763 -0.022999763 -0.046000004 -0.04600048 c -0.06899977 -0.09200001 -0.18399978 -0.22999954 -0.18399978 0.04600048 l 0.023000002 5.175 c 0 1.4949999 0.09200001 2.415 0.09200001 2.415 c 0 0.1609993 -0.09200001 0.2300005 -0.29900002 0.2300005 c -0.57500005 -0.2300005 -2.3000002 -0.552001 -3.22 -0.62100124 c -0.046000004 -0.18400002 0 -0.55200005 0.13799998 -0.6899996 c 0.069000006 0 0.13800001 0 0.20700002 0 c 1.0120001 -0.069000244 1.2649999 -0.069000244 1.2649999 -1.8859997 v -10.051001 c 0 -1.9089999 -0.2759999 -2.001 -1.6099999 -2.093 c -0.13800001 -0.13800001 -0.13800001 -0.621 0 -0.759 c 0.75899994 0.023 1.6099999 0.046 2.53 0.046 c 0.8740001 0 1.6330001 -0.023 2.2770002 -0.046 c 0.13800001 0.138 0.13800001 0.621 0 0.759 c -1.1730003 0.09200001 -1.3800001 0.18400002 -1.3800001 2.093 Z "/>
        </symbol>
        <symbol id="g9390E41BB8FAB9F56F81F195EEEF9575" overflow="visible">
            <path d="M 0 0m 4.048 8.234 c -0.046000004 0.9200001 -0.06899977 1.5179996 -0.18399978 1.7480001 c -0.046000004 0.11499977 -0.09200001 0.18400002 -0.27600002 0.18400002 c -0.64400005 -0.25300026 -1.2420001 -0.46000004 -2.829 -0.6670008 c -0.046000004 -0.13799953 0 -0.50599957 0.046000004 -0.64400005 c 1.2419999 -0.11499977 1.4949999 -0.22999954 1.4949999 -1.5639997 v -4.4849997 c 0 -1.9089999 -0.27600002 -2.001 -1.7019999 -2.093 c -0.13799998 -0.13800001 -0.13799998 -0.621 0 -0.759 c 0.805 0.023 1.7019999 0.046 2.622 0.046 c 0.91999984 0 1.9779999 -0.023 2.7829998 -0.046 c 0.13800001 0.138 0.13800001 0.621 0 0.759 c -1.6099997 0.11500001 -1.8859997 0.18400002 -1.8859997 2.093 v 3.1969998 c 0 0.59800005 0.27600002 1.1270003 0.55200005 1.5410004 c 0.25299978 0.36800003 0.78200006 1.1270003 1.0580001 1.1270003 c 0.20699978 0 0.41399956 -0.04600048 0.5979996 -0.29900074 c 0.16100025 -0.22999954 0.43700027 -0.5289998 0.82800007 -0.5289998 c 0.55200005 0 1.0810003 0.5750003 1.0810003 1.1500001 c 0 0.43700027 -0.41400003 1.1040001 -1.3800001 1.1040001 c -1.0809999 0 -2.0240002 -1.0120001 -2.553 -1.9090004 c -0.13800001 -0.25299978 -0.25300026 -0.06899929 -0.25300026 0.04600048 Z "/>
        </symbol>
        <symbol id="gF6B0282C592AC9F033DCF38E9D7F9F7" overflow="visible">
            <path d="M 0 0m 3.91 8.234 c -0.023000002 0.6899996 -0.069000006 1.5179996 -0.18400002 1.7480001 c -0.046000004 0.11499977 -0.09200001 0.18400002 -0.27600002 0.18400002 c -0.64400005 -0.25300026 -1.2420001 -0.46000004 -2.829 -0.6670008 c -0.046000004 -0.13799953 0 -0.50599957 0.046000004 -0.64400005 c 1.2420001 -0.11499977 1.4949999 -0.22999954 1.4949999 -1.5639997 v -4.4849997 c 0 -1.8859999 -0.2989999 -2.001 -1.5639999 -2.093 c -0.13799998 -0.13800001 -0.13799998 -0.621 0 -0.759 c 0.69 0.023 1.5639999 0.046 2.484 0.046 c 0.91999984 0 1.6330001 -0.023 2.3230002 -0.046 c 0.13800001 0.138 0.13800001 0.621 0 0.759 c -1.1730003 0.11500001 -1.4260001 0.20700002 -1.4260001 2.093 v 3.772 c 0 0.4829998 0.20699978 0.7589998 0.3909998 0.9660001 c 0.9200001 0.89699984 1.7709999 1.3569999 2.4840002 1.3569999 c 0.8740001 0 1.5179996 -0.55200005 1.5179996 -2.093 v -4.002 c 0 -1.8859999 -0.18400002 -2.001 -1.4259996 -2.093 c -0.11500025 -0.13800001 -0.11500025 -0.621 0 -0.759 c 0.5749998 0.023 1.4259996 0.046 2.3459997 0.046 c 0.9200001 0 1.6789999 -0.023 2.2540007 -0.046 c 0.11499977 0.138 0.11499977 0.621 0 0.759 c -1.1500006 0.09200001 -1.3570004 0.20700002 -1.3570004 2.093 v 3.6569998 c 0 0.32200003 0 0.64400005 -0.022999763 0.9200001 c 1.1040001 1.2190003 2.139 1.5180001 3.0359993 1.5180001 c 0.87400055 0 1.3800001 -0.50599957 1.3800001 -2.047 v -4.0480003 c 0 -1.8859999 -0.22999954 -2.001 -1.4259996 -2.093 c -0.11499977 -0.13800001 -0.11499977 -0.621 0 -0.759 c 0.5749998 0.023 1.4259996 0.046 2.3459997 0.046 c 0.92000103 0 1.7249994 -0.023 2.3690004 -0.046 c 0.11499977 0.138 0.11499977 0.621 0 0.759 c -1.2649994 0.09200001 -1.4720001 0.20700002 -1.4720001 2.093 v 3.634 c 0 2.0470004 -0.3449993 3.657 -2.3690004 3.657 c -1.1729994 0 -2.599 -0.43700027 -3.795 -1.7019997 c -0.06899929 -0.069000244 -0.20699978 -0.18400002 -0.2529993 0.022999763 c -0.20700073 0.94299984 -1.1040001 1.6789999 -2.3000002 1.6789999 c -1.3340001 0 -2.5300002 -0.78200054 -3.4960003 -1.8629999 c -0.11499977 -0.11499977 -0.25299978 -0.27600002 -0.27599978 0 Z "/>
        </symbol>
        <symbol id="g9B7F9713B4E9EFEB34E9BA215EB9194E" overflow="visible">
            <path d="M 0 0m 4.991 -0.23 c 0.89699984 0 1.9779997 0.46 3.1049995 1.38 c 0.115000725 0.09200001 0.3220005 0.13800001 0.34500027 -0.023000002 c 0.069000244 -0.575 0.25300026 -1.357 0.25300026 -1.357 c 0.18400002 -0.06899999 0.2989998 -0.04599999 0.43699932 0 c 0.5060005 0.414 1.3110008 0.759 2.7140007 0.92 c 0.13799953 0.13800001 0.13799953 0.48299998 0 0.621 c -1.4720001 0.11500001 -1.6789999 0.55200005 -1.6789999 1.679 v 4.4160004 c 0 0.6899996 0.09200001 2.3689995 0.09200001 2.3689995 c 0 0.069000244 -0.069000244 0.13800049 -0.18400002 0.13800049 c -0.115000725 -0.022999763 -0.46000004 -0.04600048 -0.8050003 -0.04600048 c -0.73600006 0 -1.5640001 0.023000717 -2.3460002 0.04600048 c -0.13800001 -0.13800049 -0.13800001 -0.6210003 0 -0.7589998 c 1.1270003 -0.069000244 1.4260001 -0.34500027 1.4260001 -1.8630004 v -4.439 c 0 -0.43700004 -0.045999527 -0.62100005 -0.36800003 -0.89699996 c -0.85099983 -0.73600006 -1.7249999 -1.1040001 -2.2999997 -1.1040001 c -0.69000006 0 -1.8400002 0.32199997 -1.8400002 2.369 v 4.186 c 0 0.6899996 0.09200001 2.3689995 0.09200001 2.3689995 c 0 0.069000244 -0.069000006 0.13800049 -0.18400002 0.13800049 c -0.11500001 -0.022999763 -0.46000004 -0.04600048 -0.80500007 -0.04600048 c -0.73600006 0 -1.564 0.023000717 -2.346 0.04600048 c -0.13799998 -0.13800049 -0.13799998 -0.6210003 0 -0.7589998 c 1.1040001 -0.09200001 1.4259999 -0.34500027 1.4259999 -1.8400002 v -4.4160004 c 0 -1.587 0.69000006 -3.128 2.9670002 -3.128 Z "/>
        </symbol>
        <symbol id="g28E39A6866B5D79D9C6AA1FEFC6D616B" overflow="visible">
            <path d="M 0 0m 1.104 3.174 c 0.09200001 -1.1270001 0.16100001 -2.208 0.16100001 -3.174 c 0.23000002 0.046 0.46000004 0.069 0.57500005 0.069 c 0.1609999 0 0.2989999 0 0.45999992 -0.045999996 c 0.62100005 -0.161 1.2420001 -0.253 2.0930002 -0.253 c 1.2880001 0 3.657 0.621 3.657 2.898 c 0 1.5639999 -1.1270003 2.484 -2.691 3.0590003 c -1.3800001 0.5289998 -2.3000002 0.8739996 -2.3000002 2.139 c 0 0.94299984 0.82800007 1.4720001 1.6100001 1.4720001 c 0.50600004 0 1.8399997 -0.18400002 2.139 -2.1390004 c 0.13800001 -0.13800001 0.59800005 -0.11499977 0.73600006 0.02300024 c 0.06899977 0.82800007 0.11499977 1.6789999 0.13800001 2.4379997 c -0.7130003 0.11499977 -1.8169999 0.43700027 -3.013 0.43700027 c -1.7020001 0 -3.243 -1.1040001 -3.243 -2.5760002 c 0 -1.6789999 0.75899994 -2.3919997 2.5300002 -3.1279998 c 1.9090002 -0.78200006 2.346 -1.2650001 2.346 -2.2540002 c 0 -1.127 -1.1040001 -1.6099999 -1.9549999 -1.6099999 c -0.8970001 0 -1.4030001 0.29900002 -1.6330001 0.552 c -0.50600004 0.52900004 -0.75899994 1.541 -0.89699996 2.1160002 c -0.13800001 0.13800001 -0.57500005 0.11500001 -0.71300006 -0.023000002 Z "/>
        </symbol>
        <symbol id="gBDDF711540E9D8CD85D8E10D69FAB298" overflow="visible">
            <path d="M 0 0m 8.878 2.139 c -0.85099983 -0.87399995 -1.5180001 -1.2419999 -2.8520002 -1.2419999 c -0.82800007 0 -1.7940001 0.48299998 -2.507 1.6559999 c -0.46000004 0.75900006 -0.73600006 1.8169999 -0.73600006 3.151 l 6.118 -0.046000004 c 0.27600002 0 0.43700027 0.13800001 0.43700027 0.3909998 c 0 1.9320002 -0.69000053 4.002 -3.887 4.002 c -2.0010002 0 -4.6000004 -1.9089994 -4.6000004 -5.4049997 c 0 -1.2879999 0.32199997 -2.53 1.0810001 -3.4039998 c 0.78199995 -0.91999996 1.863 -1.472 3.519 -1.472 c 1.7479997 0 2.9899998 0.805 3.9099998 2.001 c -0.069000244 0.2299999 -0.20699978 0.3449999 -0.4829998 0.3679999 Z m -6.026 4.347 c 0.43700004 2.599 2.0470002 2.8059998 2.5990002 2.8059998 c 0.8739996 0 1.9089999 -0.4829998 1.9089999 -2.415 c 0 -0.20699978 -0.09200001 -0.32200003 -0.34500027 -0.32200003 Z "/>
        </symbol>
        <symbol id="g9CBD281D7A29E4AC748208EE0E06C698" overflow="visible">
            <path d="M 0 0m 9.154 2.093 c -0.09200001 0.20700002 -0.27600002 0.29900002 -0.4829998 0.32200003 c -0.78200054 -1.012 -1.7710004 -1.5179999 -2.7600007 -1.5179999 c -1.6789999 0 -3.0819998 1.7019999 -3.0819998 4.393 c 0 2.5300002 1.1040001 4.0480003 2.6220002 4.0480003 c 1.3569999 0 1.5409999 -0.8050003 1.6329999 -1.6100001 c 0.06899977 -0.6210003 0.3909998 -0.82800007 0.8740001 -0.82800007 c 0.4829998 0 1.1269999 0.2989998 1.1269999 1.0120001 c 0 1.2649999 -1.3109999 2.185 -3.519 2.185 c -2.277 0 -4.715 -2.047 -4.715 -5.313 c 0 -2.967 1.6559999 -5.014 4.5540004 -5.014 c 1.3799996 0 2.5989995 0.437 3.749 2.323 Z "/>
        </symbol>
        <symbol id="g39A8423162778569ECD4747BFA738685" overflow="visible">
            <path d="M 0 0m 4.669 9.154 c 0.13800001 0.13799953 0.13800001 0.62099934 0 0.7589998 c -0.69000006 -0.022999763 -1.4950001 -0.04600048 -2.3230002 -0.04600048 c -0.87399995 0 -1.4949999 0.023000717 -2.093 0.04600048 c -0.13799998 -0.13800049 -0.13799998 -0.6210003 0 -0.7589998 c 1.081 -0.115000725 1.334 -0.34500027 1.8169999 -1.5410004 l 3.0130002 -7.429 c 0.13800001 -0.322 0.32200003 -0.45999998 0.55200005 -0.45999998 c 0.20699978 0 0.3909998 0.138 0.55199957 0.506 l 2.3230004 5.658 l 2.3689995 -5.704 c 0.13800049 -0.322 0.3220005 -0.45999998 0.55200005 -0.45999998 c 0.20700073 0 0.3909998 0.138 0.5290003 0.48299998 l 3.0129995 7.2910004 c 0.36800003 0.94299984 0.7590008 1.5869999 1.9320011 1.6560001 c 0.13799858 0.13799953 0.13799858 0.62099934 0 0.7589998 c -0.460001 -0.022999763 -0.96600056 -0.04600048 -1.6560011 -0.04600048 c -0.6899996 0 -1.6559992 0.023000717 -2.3459997 0.04600048 c -0.13799953 -0.13800049 -0.13799953 -0.6210003 0 -0.7589998 c 1.7250004 -0.09200001 1.4949999 -0.7589998 1.1730003 -1.5640001 l -1.9320002 -4.7840004 c -0.2300005 -0.57500005 -0.3220005 -0.57500005 -0.50599957 -0.09200001 l -1.9780006 5.0369997 c -0.43700027 1.0809999 -0.3909998 1.3110003 0.82800007 1.4030004 c 0.13800049 0.13799953 0.13800049 0.62099934 0 0.7589998 c -0.6899996 -0.022999763 -1.6099997 -0.04600048 -2.3000002 -0.04600048 c -0.5749998 0 -1.3339996 0.023000717 -2.0239997 0.04600048 c -0.13800001 -0.13800049 -0.13800001 -0.6210003 0 -0.7589998 c 1.0809999 -0.09200001 1.3569999 -0.7589998 1.7709999 -1.7940001 l 0.13800001 -0.36800003 l -1.6100001 -4.071 c -0.2989998 -0.75900006 -0.3449998 -0.78200006 -0.6439996 -0.046000004 l -1.8400002 4.738 c -0.43700004 1.1040001 -0.41400003 1.4720001 0.69000006 1.5410004 Z "/>
        </symbol>
        <symbol id="g89CCC747E44A011CD9A8A1AAE3D0C2C8" overflow="visible">
            <path d="M 0 0m 4.025 2.806 v 6.1640005 h 2.139 c 0.20699978 0 0.5289998 0.09200001 0.5289998 0.2989998 v 0.46000004 c 0 0.09200001 -0.06899977 0.13799953 -0.18400002 0.13799953 h -2.4839997 v 1.3110008 c 0 3.5419998 1.0580001 4.094 1.8169999 4.094 c 0.69000006 0 1.0580001 -0.27600002 1.3800001 -1.0810003 c 0.18400002 -0.41399956 0.4369998 -0.73600006 0.9200001 -0.73600006 c 0.3909998 0 0.94299984 0.4829998 0.94299984 0.94299984 c 0 0.3909998 -0.25300026 0.8050003 -0.73600006 1.1730003 c -0.59800005 0.41399956 -1.1960001 0.48300076 -2.0700002 0.48300076 c -1.9319997 0 -4.071 -1.6790009 -4.071 -5.267001 v -0.9200001 h -1.173 c -0.41399997 0 -0.529 -0.27600002 -0.529 -0.46000004 v -0.2989998 c 0 -0.11499977 0.023000002 -0.13799953 0.11500001 -0.13799953 h 1.5869999 v -6.1640005 c 0 -1.9089999 -0.3679999 -2.001 -1.6099999 -2.093 c -0.13799998 -0.13800001 -0.13799998 -0.621 0 -0.759 c 0.805 0.023 1.6099999 0.046 2.53 0.046 c 0.91999984 0 2.024 -0.023 2.8289998 -0.046 c 0.13800001 0.138 0.13800001 0.621 0 0.759 c -1.7939997 0.09200001 -1.9319997 0.18400002 -1.9319997 2.093 Z "/>
        </symbol>
        <symbol id="gB6E18D7676EBB0E48E4D822142602988" overflow="visible">
            <path d="M 0 0m 6.233 5.129 c 0.29900026 0 0.6210003 0.64400005 0.6210003 0.9199996 c 0 0.23000002 -0.09200001 0.46000004 -0.32200003 0.46000004 h -5.037 c -0.27600002 0 -0.575 -0.5289998 -0.575 -0.94299984 c 0 -0.23000002 0.13799995 -0.4369998 0.34499997 -0.4369998 Z "/>
        </symbol>
        <symbol id="gD2ADE5A886ECC0F3ED8BB4CD8E833D44" overflow="visible">
            <path d="M 0 0m 10.81 2.806 v 4.8529997 c 0 0.89699984 0.09200001 2.369 0.09200001 2.369 c 0 0.09200001 -0.13800049 0.13800049 -0.2300005 0.13800049 c -0.6899996 -0.27600002 -1.3570004 -0.29900074 -2.1619997 -0.29900074 h -4.531 v 1.3110008 c 0 2.1849995 0.78200006 4.094 2.3459997 4.094 c 0.9890003 0 1.7709999 -0.25300026 1.9549999 -1.1960001 c 0.2300005 -1.1500006 0.7130003 -1.4949999 1.4260006 -1.4949999 c 0.50599957 0 0.98899937 0.46000004 0.98899937 0.94299984 c 0 1.4259996 -1.9549999 2.5300007 -4.094 2.5300007 c -1.0579996 0 -2.323 -0.4140005 -3.2659998 -1.5180006 c -0.9660001 -1.1269999 -1.1730001 -2.5300007 -1.1730001 -4.3240004 v -0.34500027 h -1.127 c -0.41399997 0 -0.529 -0.27600002 -0.529 -0.46000004 v -0.2989998 c 0 -0.11499977 0.023000002 -0.13799953 0.11500001 -0.13799953 h 1.5409999 v -6.1640005 c 0 -1.9089999 -0.2529999 -2.001 -1.4949999 -2.093 c -0.13800001 -0.13800001 -0.13800001 -0.621 0 -0.759 c 0.782 0.023 1.6099999 0.046 2.415 0.046 c 0.80500007 0 1.8399999 -0.023 2.5990002 -0.046 c 0.13800001 0.138 0.13800001 0.621 0 0.759 c -1.4720001 0.09200001 -1.7020001 0.18400002 -1.7020001 2.093 v 6.1640005 h 4.1169996 c 0.7130003 0 0.8970003 -0.46000004 0.8970003 -1.6330004 v -4.531 c 0 -1.9089999 -0.27600002 -2.001 -1.5409999 -2.093 c -0.13800001 -0.13800001 -0.13800001 -0.621 0 -0.759 c 0.8049998 0.023 1.6329999 0.046 2.461 0.046 c 0.8050003 0 1.7019997 -0.023 2.5529995 -0.046 c 0.13800049 0.138 0.13800049 0.621 0 0.759 c -1.4029999 0.09200001 -1.6559992 0.18400002 -1.6559992 2.093 Z "/>
        </symbol>
        <symbol id="gDA27726B7C89943A61F15D2B642599F0" overflow="visible">
            <path d="M 0 0m 7.682 1.15 c 0.11499977 0.09200001 0.32199955 0.13800001 0.34500027 -0.023000002 c 0.06899929 -0.552 0.2529993 -1.357 0.2529993 -1.357 c 0.18400002 -0.06899999 0.29900074 -0.04599999 0.43700027 0 c 0.50599957 0.414 1.3109999 0.759 2.7139997 0.92 c 0.13800049 0.13800001 0.13800049 0.48299998 0 0.621 c -1.4720001 0.11500001 -1.6789999 0.55200005 -1.6789999 1.679 v 10.419001 c 0 1.4949999 0.09200001 2.415 0.09200001 2.415 c 0 0.1609993 -0.09200001 0.2300005 -0.2989998 0.2300005 c -0.5749998 -0.2300005 -2.3000002 -0.552001 -3.2200003 -0.62100124 c -0.046000004 -0.18400002 0 -0.55200005 0.13800001 -0.6899996 c 0.069000244 0 0.13800001 0 0.20700026 0 c 1.0120001 -0.069000244 1.2649999 -0.069000244 1.2649999 -1.8859997 v -2.9440002 c 0 -0.16100025 -0.046000004 -0.20699978 -0.20699978 -0.20699978 c -0.09200001 0 -1.0350003 0.3909998 -1.7940001 0.3909998 c -1.5180001 0 -2.53 -0.5060005 -3.45 -1.3800001 c -0.98899996 -0.98899984 -1.5869999 -2.3460002 -1.5869999 -4.048 c 0 -2.829 1.4259999 -4.899 3.91 -4.899 c 0.89699984 0 1.7479997 0.46 2.875 1.38 Z m 0.25299978 1.702 c 0 -0.43700004 -0.046000004 -0.62100005 -0.36800003 -0.89699996 c -0.85099983 -0.73600006 -1.5869999 -1.1040001 -2.1619997 -1.1040001 c -1.2420001 0 -2.5300002 1.3569999 -2.5300002 4.2320004 c 0 1.6559997 0.32200003 2.5759997 0.66700006 3.059 c 0.71300006 1.0809994 1.6790001 1.1499996 2.1390002 1.1499996 c 0.8279996 0 1.4029999 -0.2989998 1.8629999 -0.82800007 c 0.32200003 -0.36800003 0.3909998 -0.5289998 0.3909998 -1.2419996 Z "/>
        </symbol>
        <symbol id="gAD2F0D1F56F413AE924D9480CE006C7C" overflow="visible">
            <path d="M 0 0m 9.867 14.536 l -1.3569994 -5.5890007 c -0.4829998 0.8510008 -1.1500001 1.2880001 -2.0470004 1.2880001 c -1.4949999 0 -2.8059998 -0.7589998 -3.9559999 -2.2999997 c -1.058 -1.4260001 -1.5869999 -2.921 -1.5869999 -4.462 c 0 -2.0240002 1.1729999 -3.726 3.105 -3.726 c 0.98899984 0 1.9549999 0.529 2.875 1.61 c 0.25299978 -0.87399995 1.0349998 -1.61 2.1159997 -1.61 c 1.5869999 0 2.0930004 1.886 2.4380007 3.588 c 0 0.20700002 -0.115000725 0.32200003 -0.34500027 0.32200003 c -0.20699978 0 -0.34500027 -0.16100001 -0.4140005 -0.48300004 c -0.46000004 -1.817 -1.0120001 -2.737 -1.6329994 -2.737 c -0.3909998 0 -0.5980005 0.322 -0.5980005 0.94299996 c 0 0.34500003 0.04600048 0.71299994 0.13800049 1.081 l 3.2659998 13.156 v 0.09200001 c -0.069000244 0.16100025 -0.20699978 0.25300026 -0.3909998 0.25300026 c -0.5290003 0 -1.4949999 -0.09200001 -2.875 -0.25300026 c -0.25300026 -0.022999763 -0.3909998 -0.20699978 -0.3909998 -0.5289993 c 0 -0.2300005 0.20699978 -0.34500027 0.62099934 -0.34500027 c 0.43700027 0 1.0349998 0.022999763 1.0349998 -0.2989998 Z m -2.0239997 -5.8880005 c 0.23000002 -0.4829998 0.3449998 -0.8049998 0.3449998 -1.0119996 c -0.022999763 -0.09200001 -0.045999527 -0.20700026 -0.06899929 -0.36800003 l -1.1270003 -4.462 c -0.069000244 -0.25300002 -0.23000002 -0.52900004 -0.43700027 -0.80500007 c -0.85099983 -1.0349998 -1.6789999 -1.5639999 -2.4839997 -1.5639999 c -0.8970001 0 -1.3570001 0.68999994 -1.3570001 2.047 c 0 0.55200005 0.13800001 1.3800001 0.41400003 2.484 c 0.48300004 1.9549999 1.1730001 3.289 2.024 4.0020003 c 0.46000004 0.3909998 0.89699984 0.5749998 1.3340001 0.5749998 c 0.6209998 0 1.0809999 -0.2989998 1.3569999 -0.8970003 Z "/>
        </symbol>
        <symbol id="g82CEEDD0D349599323E64BB4663C0624" overflow="visible">
            <path d="M 0 0m 3.841 9.062 c -0.13800001 -0.13800049 -0.23000002 -0.09200001 -0.23000002 0.11499977 v 4.2320004 c 0 1.4949999 0.09200001 2.415 0.09200001 2.415 c 0 0.1609993 -0.09200001 0.2300005 -0.29900002 0.2300005 c -0.57500005 -0.2300005 -2.3000002 -0.552001 -3.22 -0.62100124 c -0.046000004 -0.18400002 0 -0.55200005 0.138 -0.6899996 c 0.069000006 0 0.13800001 0 0.20699999 0 c 1.0120001 -0.069000244 1.2650001 -0.069000244 1.2650001 -1.8859997 v -11.224 c 0 -0.897 -0.023000002 -1.311 -0.09200001 -1.633 c 0.11500001 -0.184 0.23000002 -0.276 0.5059999 -0.276 c 0.13800001 0.138 0.36800003 0.345 0.55200005 0.552 c 0.23000002 0.276 0.36800003 0.276 0.62100005 0.069000006 c 0.52900004 -0.437 1.2189999 -0.575 2.0240002 -0.575 c 2.3459997 0 5.0829997 2.139 5.0829997 5.796 c 0 2.8059998 -2.0699997 4.531 -4.071 4.531 c -0.98899984 0 -1.8629999 -0.3909998 -2.5759997 -1.0349998 Z m 0.16099977 -0.7130003 c 0.59800005 0.5290003 1.2880001 0.73600006 1.9549999 0.73600006 c 1.4030004 0 2.5530005 -1.7020001 2.5530005 -3.933 c 0 -2.622 -1.0580001 -4.6 -3.243 -4.6 c -0.7130003 0 -1.1960001 0.506 -1.6560001 1.0810001 v 5.75 c 0 0.48300028 0.09200001 0.7129998 0.3909998 0.9660001 Z "/>
        </symbol>
        <symbol id="gE7684A05A8ED9E92010F1AB50BE29568" overflow="visible">
            <path d="M 0 0m 1.311 0.989 c 0 -0.66700006 0.55200005 -1.219 1.219 -1.219 c 0.66700006 0 1.2190001 0.552 1.2190001 1.219 c 0 0.667 -0.55200005 1.2189999 -1.2190001 1.2189999 c -0.66699994 0 -1.219 -0.5519999 -1.219 -1.2189999 Z "/>
        </symbol>
    </defs>
</svg>
