<svg class="typst-doc" viewBox="0 0 283.46456692913387 39.06916535433071" width="283.46456692913387pt" height="39.06916535433071pt" xmlns="http://www.w3.org/2000/svg" xmlns:xlink="http://www.w3.org/1999/xlink" xmlns:h5="http://www.w3.org/1999/xhtml">
    <path class="typst-shape" fill="#ffffff" fill-rule="nonzero" d="M 0 0v 39.069164 h 283.46457 v -39.069164 Z "/>
    <g>
        <g class="typst-group">
            <g>
                <g class="typst-text" transform="matrix(1 0 0 -1 11.338582677165354 27.730582677165355)">
                    <use xlink:href="#g906A7926A6D43E294A0FCAA48AF8EB6E" x="0" y="0" fill="#000000" fill-rule="nonzero"/>
                    <use xlink:href="#g6F66984D67E5BC4A5021796A76CA5E6" x="7.968" y="0" fill="#000000" fill-rule="nonzero"/>
                    <use xlink:href="#gD3182813BC598743594E42A1008C6E95" x="24.647999999999996" y="0" fill="#000000" fill-rule="nonzero"/>
                    <use xlink:href="#gD21C6435A321CD6AD91A35BCDE5B242D" x="33.16799999999999" y="0" fill="#000000" fill-rule="nonzero"/>
                </g>
                <g class="typst-text" transform="matrix(1 0 0 -1 59.050582677165345 27.730582677165355)">
                    <use xlink:href="#g6A16A3CE7ABA862B9DB20A617584DF2" x="0" y="0" fill="#000000" fill-rule="nonzero"/>
                </g>
                <g class="typst-text" transform="matrix(1 0 0 -1 71.05058267716535 27.730582677165355)">
                    <use xlink:href="#g39386230269B0472C849DA704688D4F9" x="0" y="0" fill="#000000" fill-rule="nonzero"/>
                </g>
                <g class="typst-text" transform="matrix(1 0 0 -1 84.10658267716535 19.018582677165355)">
                    <use xlink:href="#gDFF122171ED891AA2952A98E6E1F4B4F" x="0" y="0" fill="#000000" fill-rule="nonzero"/>
                </g>
            </g>
        </g>
    </g>
    <defs id="glyph">
        <symbol id="g906A7926A6D43E294A0FCAA48AF8EB6E" overflow="visible">
            <path d="M 0 0m 2.592 -4.632 h 5.0880003 c 0.14399958 0.14400005 0.14399958 0.57599974 0 0.72 c -3.3120003 0.26399994 -3.4800005 0.62399983 -3.4800005 2.712 v 14.664 c 0 2.0880003 0.19200039 2.448 3.4800005 2.6880007 c 0.14399958 0.1439991 0.14399958 0.5760002 0 0.7199993 h -5.0880003 Z "/>
        </symbol>
        <symbol id="g6F66984D67E5BC4A5021796A76CA5E6" overflow="visible">
            <path d="M 0 0m 3.72 1.896 l 1.3199999 3.48 c 0.119999886 0.31200027 0.26399994 0.408 0.84000015 0.408 h 5.064 l 1.3920002 -4.0559998 c 0.2880001 -0.81600004 -0.62400055 -0.91200006 -1.776 -0.984 c -0.14400005 -0.144 -0.14400005 -0.648 0 -0.792 c 0.88799953 0.024 2.2079992 0.048 3.144 0.048 c 0.98399925 0 1.8959999 -0.024 2.736 -0.048 c 0.1439991 0.144 0.1439991 0.648 0 0.792 c -0.9360008 0.096000016 -1.7520008 0.16799998 -2.1600008 1.3200002 l -4.9439993 13.728 c -0.3600006 -0.2159996 -1.0080004 -0.47999954 -1.3200006 -0.47999954 l -5.448 -12.864 c -0.6240001 -1.4879999 -1.3440001 -1.632 -2.4 -1.704 c -0.144 -0.144 -0.144 -0.648 0 -0.792 c 0.624 0.024 1.416 0.048 2.136 0.048 c 0.9840002 0 2.184 -0.024 3.072 -0.048 c 0.14400005 0.144 0.14400005 0.648 0 0.792 c -0.9119997 0.07199997 -2.04 0.16799998 -1.6559999 1.152 Z m 2.5920002 4.8960004 c -0.52800035 0 -0.6960001 0.07199955 -0.6000004 0.3119998 l 2.448 6.2159996 h 0.14400005 l 2.2560005 -6.5279994 Z "/>
        </symbol>
        <symbol id="gD3182813BC598743594E42A1008C6E95" overflow="visible">
            <path d="M 0 0m 4.224 8.592 c -0.04799986 0.96000004 -0.07200003 1.5839996 -0.19199991 1.8240004 c -0.048000097 0.119999886 -0.095999956 0.19199944 -0.2880001 0.19199944 c -0.67199993 -0.26399994 -1.296 -0.47999954 -2.952 -0.6960001 c -0.047999978 -0.14400005 0 -0.5279999 0.048000038 -0.67199993 c 1.2959999 -0.119999886 1.5600001 -0.23999977 1.5600001 -1.6319995 v -4.6800003 c 0 -1.992 -0.2880001 -2.0879998 -1.776 -2.184 c -0.144 -0.144 -0.144 -0.648 0 -0.792 c 0.84 0.024 1.776 0.048 2.736 0.048 c 0.96000004 0 2.0640001 -0.024 2.9039998 -0.048 c 0.14400005 0.144 0.14400005 0.648 0 0.792 c -1.6799998 0.120000005 -1.9679999 0.19199997 -1.9679999 2.184 v 3.336 c 0 0.6240001 0.2880001 1.1760001 0.5760002 1.6080003 c 0.26399994 0.3840003 0.816 1.1760001 1.1039996 1.1760001 c 0.21600008 0 0.43200016 -0.048000336 0.6240001 -0.31200027 c 0.16800022 -0.23999977 0.45600033 -0.55200005 0.8640003 -0.55200005 c 0.57599974 0 1.1279998 0.6000004 1.1279998 1.1999998 c 0 0.45600033 -0.43200016 1.1520004 -1.44 1.1520004 c -1.1279998 0 -2.112 -1.0559998 -2.664 -1.9920006 c -0.14400005 -0.26399994 -0.26399994 -0.07199955 -0.26399994 0.048000336 Z "/>
        </symbol>
        <symbol id="gD21C6435A321CD6AD91A35BCDE5B242D" overflow="visible">
            <path d="M 0 0m 5.952 16.896 h -5.0880003 c -0.144 -0.1439991 -0.144 -0.5760002 0 -0.7199993 c 3.312 -0.2640009 3.4799998 -0.62400055 3.4799998 -2.7120008 v -14.664 c 0 -2.088 -0.19199991 -2.448 -3.4799998 -2.688 c -0.144 -0.14400005 -0.144 -0.5760002 0 -0.7199998 h 5.0880003 Z "/>
        </symbol>
        <symbol id="g6A16A3CE7ABA862B9DB20A617584DF2" overflow="visible">
            <path d="M 0 0m 7.272 8.472 c 1.5840001 0.6000004 3.072 2.1119995 3.072 4.1520004 c 0 1.0319996 -0.5039997 1.8719997 -1.4879999 2.5199995 c -0.86399984 0.55200005 -1.848 0.84000015 -2.9519997 0.84000015 c -1.0800004 0 -2.0160003 -0.2880001 -2.8560002 -0.84000015 c -0.9360001 -0.6239996 -1.4160001 -1.4399996 -1.4160001 -2.4720001 c 0 -0.7919998 0.5280001 -1.3439999 1.296 -1.3439999 c 0.7680001 0 1.296 0.55200005 1.296 1.3199997 c 0 0.7920008 -0.45599985 1.224 -1.368 1.2720003 c 0.6240001 0.84000015 1.6080003 1.2720003 2.9520001 1.2720003 c 1.44 0 2.1599998 -0.84000015 2.1599998 -2.5440006 c 0 -1.0079994 -0.19199991 -1.8479996 -0.55200005 -2.5439997 c -0.64799976 -1.1520004 -1.5359998 -1.368 -3.0239997 -1.368 c -0.2880001 -0.048000336 -0.43200016 -0.16800022 -0.43200016 -0.38399982 c 0 -0.36000013 0.16800022 -0.36000013 0.64799976 -0.36000013 h 1.0320001 c 1.8000002 0 2.7120004 -1.2719998 2.7120004 -3.8400002 c 0 -2.04 -0.74399996 -3.816 -2.5680003 -3.816 c -1.56 0 -2.712 0.528 -3.408 1.5840001 c 0.84000015 -0.024000049 1.4640002 0.5999999 1.4640002 1.4159999 c 0 0.816 -0.60000014 1.4159999 -1.4160001 1.4159999 c -0.936 0 -1.416 -0.48000002 -1.416 -1.4639997 c 0 -1.1760001 0.528 -2.112 1.584 -2.8560002 c 0.9360001 -0.648 2.04 -0.96000004 3.264 -0.96000004 c 1.368 0 2.5439997 0.456 3.5760002 1.344 c 1.0319996 0.888 1.5360003 1.9920001 1.5360003 3.336 c 0 2.256 -1.776 3.816 -3.6960006 4.32 Z "/>
        </symbol>
        <symbol id="g39386230269B0472C849DA704688D4F9" overflow="visible">
            <path d="M 0 0m 10.2960005 15.168 l -1.4160004 -5.832 c -0.5039997 0.88799953 -1.1999998 1.3439999 -2.1360002 1.3439999 c -1.56 0 -2.928 -0.7919998 -4.1280003 -2.4000006 c -1.104 -1.4879994 -1.6559999 -3.0479999 -1.6559999 -4.6559997 c 0 -2.112 1.224 -3.888 3.2399998 -3.888 c 1.0320001 0 2.0400004 0.552 3.0000005 1.6800001 c 0.26399994 -0.912 1.0799994 -1.6800001 2.2079997 -1.6800001 c 1.6560001 0 2.184 1.9679999 2.5439997 3.744 c 0 0.21600008 -0.119999886 0.33599997 -0.35999966 0.33599997 c -0.2159996 0 -0.35999966 -0.16799998 -0.43200016 -0.50399995 c -0.47999954 -1.896 -1.0559998 -2.856 -1.7039995 -2.856 c -0.408 0 -0.62400055 0.336 -0.62400055 0.9840001 c 0 0.36 0.048000336 0.74399996 0.14400005 1.128 l 3.408 13.728 v 0.09600067 c -0.07199955 0.16799927 -0.2159996 0.26399994 -0.408 0.26399994 c -0.55200005 0 -1.5599995 -0.09600067 -3 -0.26399994 c -0.26399994 -0.024000168 -0.408 -0.2159996 -0.408 -0.55200005 c 0 -0.23999977 0.21600056 -0.35999966 0.64799976 -0.35999966 c 0.45600033 0 1.0800009 0.023999214 1.0800009 -0.31200027 Z m -2.1120005 -6.144 c 0.23999977 -0.5039997 0.35999966 -0.84000015 0.35999966 -1.0560002 c -0.023999214 -0.09599972 -0.047999382 -0.21600008 -0.07199955 -0.38399982 l -1.1760001 -4.656 c -0.07200003 -0.26399994 -0.23999977 -0.55200005 -0.45599985 -0.8399999 c -0.888 -1.08 -1.7520003 -1.6320001 -2.592 -1.6320001 c -0.9360001 0 -1.4160001 0.72 -1.4160001 2.136 c 0 0.576 0.14400005 1.44 0.43199992 2.592 c 0.5040002 2.04 1.224 3.4320002 2.112 4.1759996 c 0.48000002 0.408 0.93600035 0.6000004 1.3920002 0.6000004 c 0.64799976 0 1.1279998 -0.31200027 1.4159999 -0.9359999 Z "/>
        </symbol>
        <symbol id="gDFF122171ED891AA2952A98E6E1F4B4F" overflow="visible">
            <path d="M 0 0m 5.7791996 11.1552 c -1.4615998 0 -2.6711998 -0.62160015 -3.5951996 -1.8648005 c -0.8568001 -1.1255999 -1.2768 -2.4527998 -1.2768 -3.9648 c 0 -2.0831997 0.41999996 -3.5783997 1.2599999 -4.4687996 c 0.75600004 -0.78959996 1.6296 -1.1927999 2.6376002 -1.1927999 c 1.0751996 0 1.9824 0.3696 2.7215996 1.092 c 0.73919964 0.7224 1.1087999 1.6295998 1.1087999 2.6879997 c 0 1.0416002 -0.35279942 1.9320002 -1.0583997 2.6543999 c -0.70560026 0.7224002 -1.5792003 1.092 -2.604 1.092 c -1.0247998 0 -1.7975998 -0.47039986 -2.3519998 -1.428 c 0.033599854 1.4616003 0.28559995 2.5536003 0.7391999 3.2928 c 0.6215999 0.99120045 1.4279997 1.4784002 2.4528 1.4784002 c 0.6215997 0 1.0751996 -0.1512003 1.3607998 -0.45359993 c -0.47039986 -0.100800514 -0.7055998 -0.38640022 -0.7055998 -0.8568001 c 0 -0.55440044 0.2855997 -0.84000015 0.8399997 -0.84000015 c 0.5711999 0 0.8568001 0.2855997 0.8568001 0.8736 c 0 1.2768002 -1.0415998 1.8984003 -2.3856 1.8984003 Z m -3.1079998 -7.3584003 c 0 1.4448001 0.8568001 2.7888 2.2175999 2.7888 c 0.5208001 0 0.9576001 -0.16800022 1.3104 -0.5040002 c 0.6384001 -0.60479975 0.7224002 -1.3607998 0.7224002 -2.6376 c 0 -1.0751998 -0.1512003 -1.8311999 -0.4368 -2.2511997 c -0.40320015 -0.57119995 -0.9576001 -0.85679996 -1.6799998 -0.85679996 c -1.6296 0 -2.1336002 1.5288 -2.1336002 3.4608 Z "/>
        </symbol>
    </defs>
</svg>
