<svg class="typst-doc" viewBox="0 0 195.91574803149607 47.67574803149606" width="195.91574803149607pt" height="47.67574803149606pt" xmlns="http://www.w3.org/2000/svg" xmlns:xlink="http://www.w3.org/1999/xlink" xmlns:h5="http://www.w3.org/1999/xhtml">
    <path class="typst-shape" fill="#ffffff" fill-rule="nonzero" d="M 0 0v 47.675747 h 195.91574 v -47.675747 Z "/>
    <g>
        <g class="typst-group">
            <g>
                <g class="typst-text" transform="matrix(1 0 0 -1 17.007874015748033 30.667874015748033)">
                    <use xlink:href="#g3B72E9852D8F83859C2A44C892D48337" x="0" y="0" fill="#000000" fill-rule="nonzero"/>
                </g>
                <g class="typst-text" transform="matrix(1 0 0 -1 32.807874015748034 30.667874015748033)">
                    <use xlink:href="#g864EED0182BBFAEBA7FBB3E0B6830570" x="0" y="0" fill="#000000" fill-rule="nonzero"/>
                </g>
                <g class="typst-text" transform="matrix(1 0 0 -1 40.58787401574803 30.667874015748033)">
                    <use xlink:href="#g3CB75A2C6CABB4B819F0DFCB4C9B05D7" x="0" y="0" fill="#000000" fill-rule="nonzero"/>
                </g>
                <g class="typst-text" transform="matrix(1 0 0 -1 53.667874015748026 30.667874015748033)">
                    <use xlink:href="#g693FE4CA6294DA3419DAE50537EB5967" x="0" y="0" fill="#000000" fill-rule="nonzero"/>
                </g>
                <g class="typst-text" transform="matrix(1 0 0 -1 67.00342957130358 30.667874015748033)">
                    <use xlink:href="#g27AB4EA44FC7EFA3D6635B4CEE34D19" x="0" y="0" fill="#000000" fill-rule="nonzero"/>
                </g>
                <g class="typst-text" transform="matrix(1 0 0 -1 88.11898512685914 30.667874015748033)">
                    <use xlink:href="#g3B72E9852D8F83859C2A44C892D48337" x="0" y="0" fill="#000000" fill-rule="nonzero"/>
                </g>
                <g class="typst-text" transform="matrix(1 0 0 -1 103.91898512685914 30.667874015748033)">
                    <use xlink:href="#g864EED0182BBFAEBA7FBB3E0B6830570" x="0" y="0" fill="#000000" fill-rule="nonzero"/>
                </g>
                <g class="typst-text" transform="matrix(1 0 0 -1 111.69898512685914 30.667874015748033)">
                    <use xlink:href="#g3CB75A2C6CABB4B819F0DFCB4C9B05D7" x="0" y="0" fill="#000000" fill-rule="nonzero"/>
                </g>
                <g class="typst-text" transform="matrix(1 0 0 -1 129.22342957130357 30.667874015748033)">
                    <use xlink:href="#g45B03BE6AC4A29D528960DC6771E8891" x="0" y="0" fill="#000000" fill-rule="nonzero"/>
                </g>
                <g class="typst-text" transform="matrix(1 0 0 -1 149.22787401574803 30.667874015748033)">
                    <use xlink:href="#g46E9782DEA6A8D41E1E45A17443603F" x="0" y="0" fill="#000000" fill-rule="nonzero"/>
                </g>
                <g class="typst-text" transform="matrix(1 0 0 -1 159.22787401574803 30.667874015748033)">
                    <use xlink:href="#gD7F7B8E14AB8BA870DBD114AC4C2F59B" x="0" y="0" fill="#000000" fill-rule="nonzero"/>
                </g>
                <g class="typst-text" transform="matrix(1 0 0 -1 171.127874015748 30.667874015748033)">
                    <use xlink:href="#g693FE4CA6294DA3419DAE50537EB5967" x="0" y="0" fill="#000000" fill-rule="nonzero"/>
                </g>
            </g>
        </g>
    </g>
    <defs id="glyph">
        <symbol id="g3B72E9852D8F83859C2A44C892D48337" overflow="visible">
            <path d="M 0 0m 13.28 13.599999 c -0.35999966 0 -1.6000004 0.06000042 -1.9799995 0.06000042 c -0.3000002 0 -0.46000004 -0.15999985 -0.46000004 -0.46000004 c 0 -0.22000027 0.119999886 -0.3199997 0.37999916 -0.3199997 c 0.42000008 0 0.64000034 -0.12000084 0.64000034 -0.3600006 c 0 -0.21999931 -0.1800003 -0.5199995 -0.5199995 -0.8999996 l -4.5000005 -5.18 l -2.12 5.7399993 c -0.059999943 0.1600008 -0.099999905 0.26000023 -0.119999886 0.32000065 c 0 0.25999928 0.36000013 0.3800001 1.0799999 0.3800001 c 0.3800001 0 0.55999994 0.15999985 0.55999994 0.47999954 c 0 0.19999981 -0.119999886 0.3000002 -0.3800001 0.3000002 l -2.4999998 -0.06000042 c -0.44000006 0 -1.8399999 0.06000042 -2.1999998 0.06000042 c -0.3 0 -0.45999998 -0.15999985 -0.45999998 -0.4800005 c 0 -0.19999981 0.18 -0.29999924 0.54 -0.29999924 c 0.3599999 0 0.65999997 -0.03999996 0.8399999 -0.08000088 c 0.3800001 -0.09999943 0.4000001 -0.15999985 0.52 -0.53999996 l 2.44 -6.4999995 c 0.059999943 -0.13999987 0.07999992 -0.23999977 0.07999992 -0.2999997 l -0.42000008 -1.6600001 c -0.23999977 -1.02 -0.4000001 -1.6600001 -0.48000002 -1.92 c -0.13999987 -0.5400001 -0.27999997 -0.86 -0.41999984 -0.96000004 c -0.1400001 -0.099999964 -0.60000014 -0.13999999 -1.3599999 -0.13999999 c -0.44000006 -0.01999998 -0.6200001 -0.03999996 -0.6200001 -0.48 c 0 -0.19999999 0.120000005 -0.29999998 0.36000013 -0.29999998 l 2.4999998 0.06 l 2.52 -0.06 c 0.3000002 -0.02 0.46000004 0.14 0.46000004 0.48 c 0 0.14000002 -0.059999943 0.23999998 -0.15999985 0.26000002 c -0.20000029 0.01999998 -0.36000013 0.03999996 -0.46000004 0.03999996 c -0.6600003 0.01999998 -1.06 0.060000002 -1.1600003 0.120000005 c -0.03999996 0.01999998 -0.059999943 0.060000002 -0.059999943 0.13999999 c 0 0.08000004 0.10000038 0.5 0.2800002 1.24 l 0.6999998 2.78 c 0.059999943 0.25999975 0.14000034 0.46000004 0.26000023 0.5799999 l 4.9 5.64 l 0.25999928 0.26000023 c 0.52000046 0.5199995 1 0.8800001 1.4200001 1.0599995 c 0.34000015 0.15999985 0.72000027 0.26000023 1.1400003 0.2800007 c 0.35999966 0.03999996 0.46000004 0.13999939 0.46000004 0.46000004 c 0 0.21999931 -0.119999886 0.3199997 -0.34000015 0.3199997 c -0.3000002 0 -1.3199997 -0.06000042 -1.6199999 -0.06000042 Z "/>
        </symbol>
        <symbol id="g864EED0182BBFAEBA7FBB3E0B6830570" overflow="visible">
            <path d="M 0 0m 6.3599997 -4.96 c 0.1800003 0 0.2800002 0.10000038 0.2800002 0.2800002 c 0 0.059999943 -0.03999996 0.13999987 -0.099999905 0.21999979 c -1.04 0.8000002 -1.8800001 2.1200001 -2.5 3.94 c -0.53999996 1.5799999 -0.81999993 3.1399999 -0.81999993 4.68 v 1.6799998 c 0 1.54 0.27999997 3.1 0.81999993 4.68 c 0.6199999 1.8200006 1.46 3.1400003 2.5 3.9400005 c 0.059999943 0.059999466 0.099999905 0.13999939 0.099999905 0.21999931 c 0 0.1800003 -0.099999905 0.2800007 -0.2800002 0.2800007 c -0.01999998 0 -0.07999992 -0.020000458 -0.13999987 -0.06000042 c -1.1999998 -0.9200001 -2.1999998 -2.2799997 -3.02 -4.0999994 c -0.78 -1.7400007 -1.1799998 -3.3800006 -1.1799998 -4.9600005 v -1.6799998 c 0 -1.5799999 0.39999986 -3.2199998 1.1799998 -4.96 c 0.8200002 -1.8199999 1.8200002 -3.18 3.02 -4.1000004 c 0.059999943 -0.03999996 0.119999886 -0.059999943 0.13999987 -0.059999943 Z "/>
        </symbol>
        <symbol id="g3CB75A2C6CABB4B819F0DFCB4C9B05D7" overflow="visible">
            <path d="M 0 0m 10.059999 8.84 c -0.34000015 0 -0.6399994 -0.06000042 -0.9399996 -0.1600008 c -1.2600002 -0.41999912 -2.1399999 -1.6599994 -2.6399999 -2.7999997 c -0.84000015 -1.8599997 -1.0799999 -2.6199996 -1.7000003 -4.72 c -2.0599997 0.41999996 -3.1 1.36 -3.1 2.8400002 c 0 1.3399997 0.93999994 3.2799997 1.6 4.04 c 0.119999886 0.13999939 0.18000007 0.23999977 0.18000007 0.3000002 c 0 0.17999935 -0.10000014 0.27999973 -0.32000017 0.27999973 c -0.3399999 0 -0.78 -0.5799999 -1.3199999 -1.7400002 c -0.53999996 -1.1599998 -0.81999993 -2.1999998 -0.81999993 -3.0999997 c 0 -2.08 1.5799999 -3.4 3.4 -3.84 l -1.0200002 -3.24 c -0.07999992 -0.22000003 -0.119999886 -0.3599999 -0.119999886 -0.42000008 c 0 -0.41999984 0.22000003 -0.6400001 0.65999985 -0.6400001 c 0.37999988 0 0.6400001 0.20000029 0.79999995 0.58000016 l 0.6800003 3.54 c 0.21999979 -0.019999996 0.39999962 -0.019999996 0.5799999 -0.019999996 c 1.6399999 0 3.1 0.64 4.4199996 1.92 c 1.3199997 1.2799999 1.9800005 2.7400002 1.9800005 4.38 c 0 1.56 -0.82000065 2.8000002 -2.3200006 2.8000002 Z m 1.6000004 -3.2400002 c 0 -1.2600002 -0.6000004 -2.36 -1.8199997 -3.3 c -1.1400003 -0.84000003 -2.3600001 -1.26 -3.6800003 -1.26 c -0.119999886 0 -0.23999977 0 -0.34000015 0.01999998 c -0.119999886 0 -0.17999983 0 -0.17999983 -0.01999998 c 0.3000002 1.5799999 0.48000002 2.52 0.55999994 2.8 c 0.46000004 1.5800002 1.8199997 3.7 3.6599998 3.7 c 1.1199999 0 1.8000002 -0.8000002 1.8000002 -1.94 Z "/>
        </symbol>
        <symbol id="g693FE4CA6294DA3419DAE50537EB5967" overflow="visible">
            <path d="M 0 0m 1.56 -4.9 c 1.2 0.9200001 2.2 2.2800002 3.02 4.1000004 c 0.77999973 1.74 1.1799998 3.3799999 1.1799998 4.96 v 1.6799998 c 0 1.5799999 -0.4000001 3.2199998 -1.1799998 4.9600005 c -0.81999993 1.8199997 -1.8199999 3.1799994 -3.02 4.0999994 c -0.059999943 0.03999996 -0.120000005 0.06000042 -0.13999999 0.06000042 c -0.17999995 0 -0.27999997 -0.10000038 -0.27999997 -0.2800007 c 0 -0.07999992 0.03999996 -0.15999985 0.100000024 -0.21999931 c 1.04 -0.8000002 1.8799999 -2.12 2.5 -3.9400005 c 0.5399997 -1.5799999 0.81999993 -3.1399999 0.81999993 -4.68 v -1.6799998 c 0 -1.54 -0.2800002 -3.1 -0.81999993 -4.68 c -0.6200001 -1.8199999 -1.46 -3.1399999 -2.5 -3.94 c -0.060000062 -0.07999992 -0.100000024 -0.15999985 -0.100000024 -0.21999979 c 0 -0.17999983 0.100000024 -0.2800002 0.27999997 -0.2800002 c 0.01999998 0 0.08000004 0.01999998 0.13999999 0.059999943 Z "/>
        </symbol>
        <symbol id="g27AB4EA44FC7EFA3D6635B4CEE34D19" overflow="visible">
            <path d="M 0 0m 13.96 7.3399997 h -12.360001 c -0.31999993 0 -0.4799999 -0.15999985 -0.4799999 -0.46000004 c 0 -0.2999997 0.15999997 -0.45999956 0.4799999 -0.45999956 h 12.360001 c 0.3199997 0 0.47999954 0.15999985 0.47999954 0.45999956 c 0 0.24000025 -0.22000027 0.46000004 -0.47999954 0.46000004 Z m 0 -3.7599998 h -12.360001 c -0.31999993 0 -0.4799999 -0.16000009 -0.4799999 -0.46000004 c 0 -0.29999995 0.15999997 -0.46000004 0.4799999 -0.46000004 h 12.360001 c 0.3199997 0 0.47999954 0.16000009 0.47999954 0.46000004 c 0 0.26 -0.22000027 0.46000004 -0.47999954 0.46000004 Z "/>
        </symbol>
        <symbol id="g45B03BE6AC4A29D528960DC6771E8891" overflow="visible">
            <path d="M 0 0m 13.96 5.48 h -5.7 v 5.6999993 c 0 0.32000065 -0.1600008 0.4800005 -0.4800005 0.4800005 c -0.3199997 0 -0.48000002 -0.15999985 -0.48000002 -0.4800005 v -5.6999993 h -5.7 c -0.31999993 0 -0.4799999 -0.16000032 -0.4799999 -0.48000002 c 0 -0.32000017 0.15999997 -0.48000002 0.4799999 -0.48000002 h 5.7 v -5.7 c 0 -0.32000005 0.16000032 -0.48000002 0.48000002 -0.48000002 c 0.3199997 0 0.4800005 0.15999997 0.4800005 0.48000002 v 5.7 h 5.7 c 0.3199997 0 0.47999954 0.15999985 0.47999954 0.48000002 c 0 0.25999975 -0.22000027 0.48000002 -0.47999954 0.48000002 Z "/>
        </symbol>
        <symbol id="g46E9782DEA6A8D41E1E45A17443603F" overflow="visible">
            <path d="M 0 0m 4.74 13.32 c -1.0199997 0 -1.8799999 -0.35999966 -2.62 -1.0799999 c -0.7399999 -0.72000027 -1.1199999 -1.5600004 -1.1199999 -2.58 c 0 -0.6800003 0.5 -1.1800003 1.1199999 -1.1800003 c 0.60000014 0 1.1000001 0.52000046 1.1000001 1.1199999 c 0 0.6600008 -0.48000002 1.1199999 -1.1200001 1.1199999 c -0.059999943 0 -0.099999905 0 -0.13999999 -0.019999504 c 0.38 0.97999954 1.2600001 1.8400002 2.52 1.8400002 c 1.6399999 0 2.56 -1.4200001 2.56 -3.1400003 c 0 -1.3400002 -0.6800003 -2.7799997 -2.04 -4.2999997 l -3.76 -4.24 c -0.26000005 -0.29999995 -0.24000001 -0.27999997 -0.24000001 -0.85999995 h 7.42 l 0.5799999 3.6 h -0.65999985 c -0.1600008 -1.02 -0.3000002 -1.5999999 -0.42000055 -1.78 c -0.099999905 -0.100000024 -0.6999998 -0.13999999 -1.7999997 -0.13999999 h -3.34 l 1.9399998 1.9 c 1.3600001 1.2799997 3.08 2.6599998 3.6600003 3.7199998 c 0.39999962 0.7000003 0.5999994 1.4000001 0.5999994 2.1 c 0 2.3599997 -1.8399997 3.92 -4.24 3.92 Z "/>
        </symbol>
        <symbol id="gD7F7B8E14AB8BA870DBD114AC4C2F59B" overflow="visible">
            <path d="M 0 0m 10.48 8.62 h -6.5999994 c -0.81999993 0 -1.54 -0.3199997 -2.12 -0.94000006 c -0.27999997 -0.3000002 -1.22 -1.5799999 -1.22 -1.8400002 c 0.08000004 -0.13999987 0.08000004 -0.25999975 0.32 -0.25999975 c 0.14000005 0 0.26000005 0.07999992 0.38000005 0.25999975 c 0.64 0.98 1.46 1.48 2.4399998 1.48 h 1.02 c -0.46000004 -1.7399998 -1.3 -3.8799999 -2.4999998 -6.4199996 c -0.10000014 -0.24000001 -0.16000009 -0.42 -0.16000009 -0.52 c 0 -0.4 0.22000003 -0.6 0.63999987 -0.6 c 0.3800001 0 0.6600001 0.22 0.84000015 0.64 c 0.3599999 1.14 0.6199999 2.02 0.75999975 2.62 l 1.1000004 4.2799997 h 2.06 c -0.54000044 -2.3799996 -0.8200002 -4.04 -0.8200002 -4.9799995 c 0 -0.9799999 0.21999979 -2.56 0.96000004 -2.56 c 0.42000008 0 0.8800001 0.39999998 0.8800001 0.81999993 c 0 0.100000024 -0.03999996 0.26 -0.119999886 0.45999998 c -0.3800001 0.94000006 -0.5600004 2 -0.5600004 3.2199998 c 0 0.94000006 0.119999886 1.96 0.34000015 3.04 h 2.1800003 c 0.6999998 0 1.04 0.24000025 1.04 0.7399998 c 0 0.46000004 -0.3600006 0.5600004 -0.8600006 0.5600004 Z "/>
        </symbol>
    </defs>
</svg>
