<svg class="typst-doc" viewBox="0 0 283.46456692913387 38.469165354330705" width="283.46456692913387pt" height="38.469165354330705pt" xmlns="http://www.w3.org/2000/svg" xmlns:xlink="http://www.w3.org/1999/xlink" xmlns:h5="http://www.w3.org/1999/xhtml">
    <path class="typst-shape" fill="#ffffff" fill-rule="nonzero" d="M 0 0v 38.469166 h 283.46457 v -38.469166 Z "/>
    <g>
        <g class="typst-text" transform="matrix(1 0 0 -1 11.338582677165354 27.130582677165354)">
            <use xlink:href="#g794106E754CC3BA651C5073AF3FB1555" x="0" y="0" fill="#000000" fill-rule="nonzero"/>
            <use xlink:href="#g5E61E78B4DBF2BC6DF1B804CDCCDE5B" x="11.64" y="0" fill="#000000" fill-rule="nonzero"/>
            <use xlink:href="#g9EFCB4C01A8CFD14DD496A94C363246D" x="24.096" y="0" fill="#000000" fill-rule="nonzero"/>
            <use xlink:href="#g934E1B6BC086CC0B7811967CA1BEF433" x="30.6" y="0" fill="#000000" fill-rule="nonzero"/>
            <use xlink:href="#gEF2713DB2A4CD7B8795B26A754AF6D61" x="43.608000000000004" y="0" fill="#000000" fill-rule="nonzero"/>
            <use xlink:href="#gB48CB8CB63E7579F23DFBE29EBB189D9" x="51.720000000000006" y="0" fill="#000000" fill-rule="nonzero"/>
            <use xlink:href="#gD3182813BC598743594E42A1008C6E95" x="63.816" y="0" fill="#000000" fill-rule="nonzero"/>
            <use xlink:href="#g12D3DC64A36822DF78DD3630BE626262" x="72.744" y="0" fill="#000000" fill-rule="nonzero"/>
            <use xlink:href="#g9EFCB4C01A8CFD14DD496A94C363246D" x="84.576" y="0" fill="#000000" fill-rule="nonzero"/>
            <use xlink:href="#g31770BA7744B573709B98A221B0822FB" x="91.08" y="0" fill="#000000" fill-rule="nonzero"/>
            <use xlink:href="#gD6FD9F505AEF9C52F61C079A78EB3781" x="104.664" y="0" fill="#000000" fill-rule="nonzero"/>
            <use xlink:href="#gB48CB8CB63E7579F23DFBE29EBB189D9" x="114.936" y="0" fill="#000000" fill-rule="nonzero"/>
            <use xlink:href="#gE3405609265A4D09E816E1B6AEAFCA3" x="127.03200000000001" y="0" fill="#000000" fill-rule="nonzero"/>
            <use xlink:href="#g5E61E78B4DBF2BC6DF1B804CDCCDE5B" x="139.776" y="0" fill="#000000" fill-rule="nonzero"/>
            <use xlink:href="#g3D4BFF6C396A441BDD4B74A751FE4E7D" x="152.232" y="0" fill="#000000" fill-rule="nonzero"/>
            <use xlink:href="#g9EFCB4C01A8CFD14DD496A94C363246D" x="158.568" y="0" fill="#000000" fill-rule="nonzero"/>
            <use xlink:href="#g934E1B6BC086CC0B7811967CA1BEF433" x="165.072" y="0" fill="#000000" fill-rule="nonzero"/>
            <use xlink:href="#gF9A1F539175DFE21F3CBDCD50A014CA6" x="178.08" y="0" fill="#000000" fill-rule="nonzero"/>
        </g>
    </g>
    <defs id="glyph">
        <symbol id="g794106E754CC3BA651C5073AF3FB1555" overflow="visible">
            <path d="M 0 0m 9.4800005 15.144 c -1.3920002 0.19200039 -1.3440008 0.64799976 -3.6960006 0.64799976 c -2.4239998 0 -4.56 -1.6079998 -4.56 -4.1519995 c 0 -2.5200005 2.088 -3.6720004 4.2000003 -4.4880004 c 1.4399996 -0.55200005 3.216 -1.224 3.216 -3.576 c 0 -1.944 -1.0800004 -2.952 -3.0000005 -2.952 c -2.2319999 0 -3.672 1.0320001 -4.2 3.408 c -0.31200004 0.096000195 -0.55200005 0.04799986 -0.79200006 -0.07200003 c 0.096000016 -1.848 0.19200003 -2.4720001 0.48000002 -3.648 c 1.5120001 0 2.184 -0.55200005 4.3199997 -0.55200005 c 1.0799999 0 2.112 0.264 2.9519997 0.792 c 1.3920002 0.864 2.2560005 2.328 2.2560005 3.8639998 c 0 2.5440001 -1.9200001 3.6720004 -3.888 4.416 c -1.44 0.5279999 -3.8400002 1.4400005 -3.8400002 3.4560003 c 0 1.3439999 1.224 2.6879997 2.6399999 2.6879997 c 2.328 0 3.0720005 -1.4879999 3.552 -3.0719995 c 0.26399994 -0.048000336 0.5760002 -0.024000168 0.7919998 0.14400005 c -0.09599972 1.1519995 -0.19199944 1.8239994 -0.4319992 3.0959997 Z "/>
        </symbol>
        <symbol id="g5E61E78B4DBF2BC6DF1B804CDCCDE5B" overflow="visible">
            <path d="M 0 0m 3.744 8.832 c -0.02399993 0.72000027 -0.07200003 1.3439999 -0.19199991 1.5840006 c -0.048000097 0.119999886 -0.095999956 0.19199944 -0.2880001 0.19199944 c -0.67199993 -0.26399994 -1.2959999 -0.47999954 -2.952 -0.6960001 c -0.048000008 -0.14400005 0 -0.5279999 0.048000008 -0.67199993 c 1.296 -0.119999886 1.5600001 -0.23999977 1.5600001 -1.6319995 v -10.248 c 0 -1.9919999 -0.26400006 -2.1119998 -1.728 -2.1839998 c -0.144 -0.14400005 -0.144 -0.64800024 0 -0.7920003 c 0.84000003 0.024000168 1.728 0.048000336 2.6880002 0.048000336 c 0.96000004 0 2.112 -0.024000168 2.9039998 -0.048000336 c 0.14400005 0.14400005 0.14400005 0.64800024 0 0.7920003 c -1.704 0.09599972 -1.9679999 0.19199991 -1.9679999 2.1839998 v 2.592 c 0 0.312 0.095999956 0.28800002 0.33599997 0.192 c 0.5999999 -0.24 1.3200002 -0.384 2.0880003 -0.384 c 1.3439999 0 2.5440001 0.408 3.5279994 1.344 c 1.1280003 1.104 1.776 2.592 1.776 4.536 c 0 2.5440001 -1.7999992 4.8960004 -4.2479997 4.8960004 c -1.1040001 0 -2.328 -0.72000027 -3.288 -1.8000002 c -0.14399981 -0.14400005 -0.23999977 -0.14400005 -0.26399994 0.09599972 Z m 0.45599985 -0.88799953 c 0.6240001 0.76799965 1.7280002 1.4879999 2.4240003 1.4879999 c 1.5359998 0 2.8560004 -1.7280002 2.8560004 -4.44 c 0 -1.9680002 -0.6960001 -4.4160004 -3.3840003 -4.4160004 c -0.43200016 0 -1.2720003 0.120000005 -1.704 0.50400007 c -0.48000026 0.43199992 -0.5760002 0.576 -0.5760002 1.4399999 v 4.368 c 0 0.5040002 0.095999956 0.72000027 0.38399982 1.0560002 Z "/>
        </symbol>
        <symbol id="g9EFCB4C01A8CFD14DD496A94C363246D" overflow="visible">
            <path d="M 0 0m 4.344 2.928 v 4.776 c 0 1.2000003 0.096000195 2.7360005 0.096000195 2.7360005 c 0 0.09599972 -0.119999886 0.16799927 -0.3119998 0.16799927 c -0.67200017 -0.26399994 -1.6320002 -0.47999954 -3.288 -0.6960001 c -0.048000038 -0.14400005 0 -0.5279999 0.047999978 -0.67199993 c 1.3199999 -0.119999886 1.56 -0.26399994 1.56 -1.6319995 v -4.6800003 c 0 -1.992 -0.26399994 -2.064 -1.7279999 -2.184 c -0.14400005 -0.144 -0.14400005 -0.648 0 -0.792 c 0.79199994 0.024 1.7279999 0.048 2.688 0.048 c 0.96000004 0 1.8720002 -0.024 2.664 -0.048 c 0.14400005 0.144 0.14400005 0.648 0 0.792 c -1.4640002 0.096000016 -1.7280002 0.19199997 -1.7280002 2.184 Z m -2.1839998 11.448 c 0 -0.62400055 0.576 -1.2480001 1.152 -1.2480001 c 0.67199993 0 1.2479999 0.64799976 1.2479999 1.1519995 c 0 0.5760002 -0.5039997 1.2480001 -1.152 1.2480001 c -0.576 0 -1.2479999 -0.5760002 -1.2479999 -1.1519995 Z "/>
        </symbol>
        <symbol id="g934E1B6BC086CC0B7811967CA1BEF433" overflow="visible">
            <path d="M 0 0m 4.416 8.592 c -0.14400005 -0.16800022 -0.28799963 -0.2159996 -0.28799963 0 c -0.024000168 0.64799976 -0.07200003 1.5839996 -0.19200015 1.8240004 c -0.048000097 0.119999886 -0.095999956 0.19199944 -0.2880001 0.19199944 c -0.67199993 -0.26399994 -1.296 -0.47999954 -2.9520001 -0.6960001 c -0.047999978 -0.14400005 0 -0.5279999 0.048000038 -0.67199993 c 1.296 -0.119999886 1.56 -0.23999977 1.56 -1.6319995 v -4.6800003 c 0 -1.9679999 -0.23999977 -2.064 -1.6799998 -2.184 c -0.144 -0.144 -0.144 -0.648 0 -0.792 c 0.71999997 0.024 1.6799998 0.048 2.6399999 0.048 c 0.96000004 0 1.6800003 -0.024 2.4 -0.048 c 0.14400005 0.144 0.14400005 0.648 0 0.792 c -1.224 0.120000005 -1.4640002 0.21600002 -1.4640002 2.184 v 3.9359999 c 0 0.5040002 0.21600008 0.7920003 0.408 1.0080004 c 0.9120002 0.888 1.9920001 1.4159999 2.9280005 1.4159999 c 0.47999954 0 0.9840002 -0.31200027 1.2719994 -0.8640003 c 0.24000072 -0.47999954 0.2880001 -1.1279998 0.2880001 -1.8479996 v -3.6480002 c 0 -1.9679999 -0.23999977 -2.064 -1.4879994 -2.184 c -0.12000036 -0.144 -0.12000036 -0.648 0 -0.792 c 0.7199998 0.024 1.4879994 0.048 2.4479995 0.048 c 0.96000004 0 1.8240004 -0.024 2.5440006 -0.048 c 0.119999886 0.144 0.119999886 0.648 0 0.792 c -1.3439999 0.120000005 -1.6080008 0.21600002 -1.6080008 2.184 v 3.5760002 c 0 1.3199997 -0.09599972 2.4719996 -0.64799976 3.216 c -0.408 0.5279999 -1.1519995 0.816 -1.9919996 0.816 c -1.1760001 0 -2.52 -0.31200027 -3.9360003 -1.9440002 Z "/>
        </symbol>
        <symbol id="gEF2713DB2A4CD7B8795B26A754AF6D61" overflow="visible">
            <path d="M 0 0m 6.504 5.352 c 0.3119998 0 0.64799976 0.67199993 0.64799976 0.96000004 c 0 0.23999977 -0.09599972 0.48000002 -0.33599997 0.48000002 h -5.256 c -0.2880001 0 -0.6 -0.55200005 -0.6 -0.9840002 c 0 -0.24000025 0.14399993 -0.45599985 0.36 -0.45599985 Z "/>
        </symbol>
        <symbol id="gB48CB8CB63E7579F23DFBE29EBB189D9" overflow="visible">
            <path d="M 0 0m 0.984 4.92 c 0 -2.448 1.632 -5.16 5.04 -5.16 c 1.5359998 0 2.712 0.55200005 3.5279999 1.344 c 1.0799999 1.0560001 1.5600004 2.5679998 1.5600004 4.032 c 0 2.4959998 -1.368 5.4 -5.0400004 5.4 c -1.5840001 0 -2.88 -0.64799976 -3.7680001 -1.6800003 c -0.86399984 -1.0320001 -1.3199999 -2.4239998 -1.3199999 -3.9359999 Z m 4.7279997 4.776 c 2.0640001 0 3.3360004 -1.8720002 3.3360004 -5.328 c 0 -3.0240002 -1.5600004 -3.7680001 -2.6880002 -3.7680001 c -2.496 0 -3.312 3.0240002 -3.312 4.872 c 0 2.0879998 0.50399995 4.224 2.6639998 4.224 Z "/>
        </symbol>
        <symbol id="gD3182813BC598743594E42A1008C6E95" overflow="visible">
            <path d="M 0 0m 4.224 8.592 c -0.04799986 0.96000004 -0.07200003 1.5839996 -0.19199991 1.8240004 c -0.048000097 0.119999886 -0.095999956 0.19199944 -0.2880001 0.19199944 c -0.67199993 -0.26399994 -1.296 -0.47999954 -2.952 -0.6960001 c -0.047999978 -0.14400005 0 -0.5279999 0.048000038 -0.67199993 c 1.2959999 -0.119999886 1.5600001 -0.23999977 1.5600001 -1.6319995 v -4.6800003 c 0 -1.992 -0.2880001 -2.0879998 -1.776 -2.184 c -0.144 -0.144 -0.144 -0.648 0 -0.792 c 0.84 0.024 1.776 0.048 2.736 0.048 c 0.96000004 0 2.0640001 -0.024 2.9039998 -0.048 c 0.14400005 0.144 0.14400005 0.648 0 0.792 c -1.6799998 0.120000005 -1.9679999 0.19199997 -1.9679999 2.184 v 3.336 c 0 0.6240001 0.2880001 1.1760001 0.5760002 1.6080003 c 0.26399994 0.3840003 0.816 1.1760001 1.1039996 1.1760001 c 0.21600008 0 0.43200016 -0.048000336 0.6240001 -0.31200027 c 0.16800022 -0.23999977 0.45600033 -0.55200005 0.8640003 -0.55200005 c 0.57599974 0 1.1279998 0.6000004 1.1279998 1.1999998 c 0 0.45600033 -0.43200016 1.1520004 -1.44 1.1520004 c -1.1279998 0 -2.112 -1.0559998 -2.664 -1.9920006 c -0.14400005 -0.26399994 -0.26399994 -0.07199955 -0.26399994 0.048000336 Z "/>
        </symbol>
        <symbol id="g12D3DC64A36822DF78DD3630BE626262" overflow="visible">
            <path d="M 0 0m 4.008 9.456 c -0.14399981 -0.14400005 -0.23999977 -0.09600067 -0.23999977 0.119999886 v 4.4160004 c 0 1.5599995 0.095999956 2.5200005 0.095999956 2.5200005 c 0 0.16799927 -0.095999956 0.23999977 -0.31200004 0.23999977 c -0.5999999 -0.23999977 -2.4 -0.5760002 -3.3600001 -0.6480007 c -0.048000008 -0.19200039 0 -0.5760002 0.144 -0.72000027 c 0.072 0 0.14400002 0 0.21599999 0 c 1.056 -0.07199955 1.3199999 -0.07199955 1.3199999 -1.9679995 v -11.712 c 0 -0.936 -0.02399993 -1.368 -0.095999956 -1.704 c 0.120000005 -0.192 0.24000001 -0.288 0.5279999 -0.288 c 0.14400005 0.144 0.38400006 0.35999998 0.5760002 0.576 c 0.24000001 0.288 0.38399982 0.288 0.648 0.07200003 c 0.5519998 -0.45600003 1.2720001 -0.6 2.1119998 -0.6 c 2.4480004 0 5.3040004 2.2319999 5.3040004 6.0480003 c 0 2.928 -2.1599998 4.728 -4.248 4.728 c -1.0320001 0 -1.9440002 -0.408 -2.6880002 -1.0799999 Z m 0.16800022 -0.74400043 c 0.6240001 0.55200005 1.3439999 0.7680006 2.04 0.7680006 c 1.4640002 0 2.664 -1.7760005 2.664 -4.1040006 c 0 -2.7359998 -1.1040001 -4.8 -3.3840003 -4.8 c -0.74399996 0 -1.2479997 0.528 -1.7279997 1.128 v 6 c 0 0.5040002 0.095999956 0.74399996 0.408 1.0079999 Z "/>
        </symbol>
        <symbol id="g31770BA7744B573709B98A221B0822FB" overflow="visible">
            <path d="M 0 0m 1.0320001 10.2960005 c -0.33600008 0 -0.43200004 -0.2880001 -0.43200004 -0.4800005 v -0.31200027 c 0 -0.119999886 0.023999989 -0.14400005 0.120000005 -0.14400005 h 1.4159999 v -7.224 c 0 -1.7039999 0.7440002 -2.376 1.848 -2.376 c 1.1039999 0 2.3040001 0.528 3.24 1.584 c -0.04799986 0.24000001 -0.19199991 0.38400006 -0.43199968 0.408 c -0.6240001 -0.48000002 -1.3440003 -0.67199993 -1.9680004 -0.67199993 c -0.64799976 0 -0.7919998 0.72 -0.7919998 2.2080002 v 6.0719995 h 2.4959998 c 0.24000025 0 0.5760002 0.09600067 0.5760002 0.31200027 v 0.4800005 c 0 0.09599972 -0.07200003 0.14400005 -0.19199991 0.14400005 h -2.88 v 0.9359999 c 0 1.5599995 0.096000195 2.5199995 0.096000195 2.5199995 c 0 0.14400005 -0.07200003 0.21600056 -0.19200015 0.21600056 c -0.095999956 0 -0.31200004 -0.09600067 -0.5280001 -0.21600056 c -0.26399994 -0.14400005 -0.50399995 -0.26399994 -0.816 -0.3359995 c -0.2880001 -0.09600067 -0.5279999 -0.16800022 -0.5279999 -0.33600044 c 0 -0.2880001 0.07199979 -0.119999886 0.07199979 -2.7839994 Z "/>
        </symbol>
        <symbol id="gD6FD9F505AEF9C52F61C079A78EB3781" overflow="visible">
            <path d="M 0 0m 9.552 2.184 c -0.09599972 0.21600008 -0.2880001 0.31200004 -0.5039997 0.33599997 c -0.816 -1.056 -1.848 -1.584 -2.88 -1.584 c -1.7520003 0 -3.216 1.7760001 -3.216 4.584 c 0 2.6399999 1.152 4.2240005 2.736 4.2240005 c 1.4159999 0 1.6079998 -0.84000015 1.704 -1.6800003 c 0.07200003 -0.64800024 0.408 -0.86399984 0.9119997 -0.86399984 c 0.5039997 0 1.1760006 0.3119998 1.1760006 1.0560002 c 0 1.3199997 -1.368 2.2799997 -3.6720004 2.2799997 c -2.3760002 0 -4.92 -2.1360006 -4.92 -5.544 c 0 -3.0960002 1.7279999 -5.2320004 4.752 -5.2320004 c 1.44 0 2.7120004 0.45600003 3.9120002 2.424 Z "/>
        </symbol>
        <symbol id="gE3405609265A4D09E816E1B6AEAFCA3" overflow="visible">
            <path d="M 0 0m 5.208 -0.24000001 c 0.9359999 0 2.0639997 0.48000002 3.2399998 1.44 c 0.119999886 0.095999956 0.33600044 0.14399993 0.35999966 -0.024000049 c 0.0720005 -0.6 0.2640009 -1.416 0.2640009 -1.416 c 0.19199944 -0.072 0.31199932 -0.047999978 0.45599937 0 c 0.5279999 0.432 1.368 0.792 2.8319998 0.96000004 c 0.14400005 0.144 0.14400005 0.50399995 0 0.648 c -1.5359993 0.120000005 -1.7519999 0.576 -1.7519999 1.7520001 v 4.608 c 0 0.7199998 0.09600067 2.4719996 0.09600067 2.4719996 c 0 0.0720005 -0.0720005 0.14400005 -0.19200039 0.14400005 c -0.119999886 -0.024000168 -0.47999954 -0.047999382 -0.84000015 -0.047999382 c -0.76799965 0 -1.632 0.023999214 -2.448 0.047999382 c -0.14400005 -0.14400005 -0.14400005 -0.64799976 0 -0.7919998 c 1.1759996 -0.07199955 1.4879999 -0.35999966 1.4879999 -1.9439998 v -4.632 c 0 -0.4560001 -0.047999382 -0.648 -0.38399982 -0.9360001 c -0.888 -0.768 -1.8000002 -1.152 -2.4 -1.152 c -0.7199998 0 -1.9200001 0.33599997 -1.9200001 2.4720001 v 4.368 c 0 0.7199998 0.096000195 2.4719996 0.096000195 2.4719996 c 0 0.0720005 -0.07200003 0.14400005 -0.19200015 0.14400005 c -0.119999886 -0.024000168 -0.48000002 -0.047999382 -0.8399999 -0.047999382 c -0.7680001 0 -1.632 0.023999214 -2.448 0.047999382 c -0.144 -0.14400005 -0.144 -0.64799976 0 -0.7919998 c 1.152 -0.09599972 1.4879999 -0.35999966 1.4879999 -1.9200001 v -4.608 c 0 -1.6559999 0.72 -3.264 3.0960002 -3.264 Z "/>
        </symbol>
        <symbol id="g3D4BFF6C396A441BDD4B74A751FE4E7D" overflow="visible">
            <path d="M 0 0m 2.28 2.928 c 0 -1.992 -0.26399994 -2.112 -1.7279999 -2.184 c -0.144 -0.144 -0.144 -0.648 0 -0.792 c 0.84 0.024 1.7279999 0.048 2.688 0.048 c 0.9599998 0 1.872 -0.024 2.6640003 -0.048 c 0.14399958 0.144 0.14399958 0.648 0 0.792 c -1.4640002 0.07199997 -1.7280002 0.19199997 -1.7280002 2.184 v 11.064001 c 0 1.5599995 0.09599972 2.5200005 0.09599972 2.5200005 c 0 0.16799927 -0.09599972 0.23999977 -0.3119998 0.23999977 c -0.5999999 -0.23999977 -2.4 -0.5760002 -3.3600001 -0.6480007 c -0.048000038 -0.19200039 0 -0.5760002 0.144 -0.72000027 c 1.392 -0.09599972 1.536 -0.16799927 1.536 -1.9679995 Z "/>
        </symbol>
        <symbol id="gF9A1F539175DFE21F3CBDCD50A014CA6" overflow="visible">
            <path d="M 0 0m 10.656 9.288 c 0.45600033 0 0.88799953 0.43200016 0.88799953 0.9119997 c 0 0.50400066 -0.45599937 0.8880005 -1.1039991 0.8880005 c -0.62400055 0 -1.776 -0.408 -2.4000006 -1.224 c -0.2880001 0.19199944 -1.0799999 0.67199993 -2.4959998 0.67199993 c -2.1360002 0 -4.104 -1.4400005 -4.104 -3.6480002 c 0 -1.296 0.576 -2.04 1.2479999 -2.6880002 c -0.67199993 -0.57599974 -1.056 -1.6079998 -1.056 -2.4239998 c 0 -0.864 0.48000002 -1.536 1.1040001 -1.848 c -1.296 -0.768 -1.968 -1.872 -1.968 -2.904 c 0 -2.088 1.968 -2.7359998 3.816 -2.7359998 c 3.2399998 0 6.744 1.56 6.744 4.152 c 0 0.76800007 -0.35999966 1.368 -1.0559998 1.944 c -0.9359999 0.76799995 -2.6160002 0.792 -3.5040002 0.792 c -0.43200016 0 -1.0320001 -0.047999978 -1.6080003 -0.120000005 c -0.35999966 -0.02399993 -0.5999999 -0.047999978 -0.7199998 -0.047999978 c -0.6960001 0 -1.536 0.33599997 -1.536 1.3679999 c 0 0.48000002 0.14400005 0.9840002 0.43199992 1.3920002 c 0.576 -0.3360002 1.2480001 -0.5040002 2.184 -0.5040002 c 2.112 0 4.056 1.3200002 4.056 3.672 c 0 1.1280003 -0.33600044 1.776 -1.0320005 2.4960003 c 0.16800022 0.23999977 0.6480007 0.5760002 0.96000004 0.5760002 c 0.16800022 0 0.33600044 -0.0720005 0.4800005 -0.2880001 c 0.09599972 -0.19200039 0.408 -0.43200016 0.67199993 -0.43200016 Z m -7.488 -9.528 c 0.26399994 -0.072 0.648 -0.120000005 0.9600003 -0.120000005 c 0.74399996 0 1.4159999 0.07200003 1.7519999 0.07200003 c 1.1999998 0 2.2080002 -0.024000019 2.9040003 -0.408 c 0.9359999 -0.528 1.224 -0.8640001 1.224 -1.488 c 0 -1.7279999 -2.5440001 -2.6399999 -4.7040005 -2.6399999 c -0.86399984 0 -2.8799999 0.6959996 -2.8799999 2.3279998 c 0 0.816 0.048000097 1.416 0.74399996 2.256 Z m 4.488 6.936 c 0 -2.2319999 -1.1280003 -2.6880002 -2.0160003 -2.6880002 c -2.0159998 0 -2.2319999 1.704 -2.2319999 3.2400002 c 0 1.6800003 0.5999999 2.5439997 1.9200001 2.5439997 c 1.5120001 0 2.328 -1.1040001 2.328 -3.0959997 Z "/>
        </symbol>
    </defs>
</svg>
