<svg viewBox="0 0 793.700787402 115.135913386" width="793.700787402pt" height="115.135913386pt" xmlns="http://www.w3.org/2000/svg" xmlns:xlink="http://www.w3.org/1999/xlink" xmlns:h5="http://www.w3.org/1999/xhtml"><path fill="#ffffff" fill-rule="nonzero" d="M 0 0v 115.135913386h 793.700787402v -115.135913386Z "/><g transform="matrix(1 0 0 -1 28.346456693 43.480456693)"><use xlink:href="#g58E6B942CA5AD6753ACE467F6A4C84A" x="0" y="0" fill="#000000" fill-rule="nonzero"/><use xlink:href="#g86D64484051DC80F83FB125166AE11BF" x="12.811" y="0" fill="#000000" fill-rule="nonzero"/><use xlink:href="#gC1CD50073E252F4CF8D2A0D9C361B3C3" x="24.081" y="0" fill="#000000" fill-rule="nonzero"/><use xlink:href="#gC100FF19D79DD85EB914D849BECDE1FC" x="36.018" y="0" fill="#000000" fill-rule="nonzero"/><use xlink:href="#gCE455A6F61485B9E480EEE8398BF4043" x="42.09" y="0" fill="#000000" fill-rule="nonzero"/><use xlink:href="#g3A2661FD9F55E4BD2A83AF0F57158FD" x="52.601" y="0" fill="#000000" fill-rule="nonzero"/><use xlink:href="#gCE455A6F61485B9E480EEE8398BF4043" x="65.067" y="0" fill="#000000" fill-rule="nonzero"/><use xlink:href="#g373D86D0917D6F33B84C48081FE8761A" x="75.578" y="0" fill="#000000" fill-rule="nonzero"/><use xlink:href="#g3EA83007E3D865CA62F9746A5A947B84" x="82.846" y="0" fill="#000000" fill-rule="nonzero"/><use xlink:href="#gD0FC87669A9B60A2B853070829253FD1" x="89.079" y="0" fill="#000000" fill-rule="nonzero"/><use xlink:href="#g3A2661FD9F55E4BD2A83AF0F57158FD" x="100.671" y="0" fill="#000000" fill-rule="nonzero"/><use xlink:href="#gCA9C5F6D4A5EC462FAB04A10B1EA857F" x="113.137" y="0" fill="#000000" fill-rule="nonzero"/></g><g transform="matrix(1 0 0 -1 28.346456693 86.789456693)"><use xlink:href="#g2394B2D369C49346CA9E2E2A2E9A7F" x="0" y="0" fill="#000000" fill-rule="nonzero"/></g><g transform="matrix(1 0 0 -1 44.510345582 86.789456693)"><use xlink:href="#gF3831564C0DDBC8DC22273E509D647A1" x="0" y="0" fill="#000000" fill-rule="nonzero"/></g><g transform="matrix(1 0 0 -1 68.793234471 86.789456693)"><use xlink:href="#gF5746BB976FEFF9E7F9DF8FCA9B8793E" x="0" y="0" fill="#000000" fill-rule="nonzero"/></g><g transform="matrix(1 0 0 -1 82.823234471 86.789456693)"><use xlink:href="#g465518B3AB2B2BA233B1D6080FBA6709" x="0" y="0" fill="#000000" fill-rule="nonzero"/></g><g transform="matrix(1 0 0 -1 94.788345582 86.789456693)"><use xlink:href="#gFF984BD249594E8C15C363AB590AF9A1" x="0" y="0" fill="#000000" fill-rule="nonzero"/></g><g transform="matrix(1 0 0 -1 117.793456693 86.789456693)"><use xlink:href="#g48F32AFE4D5540BDDEB24BD92091BF6A" x="0" y="0" fill="#000000" fill-rule="nonzero"/></g><g transform="matrix(1 0 0 -1 136.216456693 86.789456693)"><use xlink:href="#gF5746BB976FEFF9E7F9DF8FCA9B8793E" x="0" y="0" fill="#000000" fill-rule="nonzero"/></g><g transform="matrix(1 0 0 -1 142.610456693 86.789456693)"><use xlink:href="#g10145F1A685AC0E9CD28AFEC6BEDA295" x="0" y="0" fill="#000000" fill-rule="nonzero"/></g><g transform="matrix(1 0 0 -1 152.837790026 86.789456693)"><use xlink:href="#g5061902CECA1CC411EF1145F3EF3D368" x="0" y="0" fill="#000000" fill-rule="nonzero"/></g><g transform="matrix(1 0 0 -1 172.088790026 86.789456693)"><use xlink:href="#g10145F1A685AC0E9CD28AFEC6BEDA295" x="0" y="0" fill="#000000" fill-rule="nonzero"/></g><g transform="matrix(1 0 0 -1 182.31612336 86.789456693)"><use xlink:href="#g465518B3AB2B2BA233B1D6080FBA6709" x="0" y="0" fill="#000000" fill-rule="nonzero"/></g><g transform="matrix(1 0 0 -1 194.281234471 86.789456693)"><use xlink:href="#gF6FF92A0F815709DF2546291443AACF1" x="0" y="0" fill="#000000" fill-rule="nonzero"/></g><g transform="matrix(1 0 0 -1 217.286345582 86.789456693)"><use xlink:href="#g48F32AFE4D5540BDDEB24BD92091BF6A" x="0" y="0" fill="#000000" fill-rule="nonzero"/></g><g transform="matrix(1 0 0 -1 234.462234471 86.789456693)"><use xlink:href="#gF3831564C0DDBC8DC22273E509D647A1" x="0" y="0" fill="#000000" fill-rule="nonzero"/></g><g transform="matrix(1 0 0 -1 258.74512336 86.789456693)"><use xlink:href="#gF5746BB976FEFF9E7F9DF8FCA9B8793E" x="0" y="0" fill="#000000" fill-rule="nonzero"/></g><g transform="matrix(1 0 0 -1 272.77512336 86.789456693)"><use xlink:href="#g60EFFD97EB7083DD1A00F914A03034AF" x="0" y="0" fill="#000000" fill-rule="nonzero"/></g><g transform="matrix(1 0 0 -1 289.386234471 86.789456693)"><use xlink:href="#gFF984BD249594E8C15C363AB590AF9A1" x="0" y="0" fill="#000000" fill-rule="nonzero"/></g><g transform="matrix(1 0 0 -1 314.691345582 77.727456693)"><use xlink:href="#g132A0D485F4B00EFDE0B85637922E414" x="0" y="0" fill="#000000" fill-rule="nonzero"/></g><g transform="matrix(1 0 0 -1 314.691345582 94.724456693)"><use xlink:href="#g774ACCD633AAD639BA4AD49572657B96" x="0" y="0" fill="#000000" fill-rule="nonzero"/></g><path fill="none" stroke="#000000" stroke-width="1.104" stroke-linecap="butt" stroke-linejoin="miter" stroke-miterlimit="4" transform="translate(314.691345582 81.039456693)" d="M 0 0h 9.1609"/><g transform="matrix(1 0 0 -1 333.788245582 86.789456693)"><use xlink:href="#gF5746BB976FEFF9E7F9DF8FCA9B8793E" x="0" y="0" fill="#000000" fill-rule="nonzero"/></g><g transform="matrix(1 0 0 -1 340.182245582 86.789456693)"><use xlink:href="#g10145F1A685AC0E9CD28AFEC6BEDA295" x="0" y="0" fill="#000000" fill-rule="nonzero"/></g><g transform="matrix(1 0 0 -1 350.409578915 86.789456693)"><use xlink:href="#g60EFFD97EB7083DD1A00F914A03034AF" x="0" y="0" fill="#000000" fill-rule="nonzero"/></g><g transform="matrix(1 0 0 -1 367.020690026 86.789456693)"><use xlink:href="#gF6FF92A0F815709DF2546291443AACF1" x="0" y="0" fill="#000000" fill-rule="nonzero"/></g><g transform="matrix(1 0 0 -1 392.325801137 77.727456693)"><use xlink:href="#g132A0D485F4B00EFDE0B85637922E414" x="0" y="0" fill="#000000" fill-rule="nonzero"/></g><g transform="matrix(1 0 0 -1 392.325801137 94.724456693)"><use xlink:href="#g774ACCD633AAD639BA4AD49572657B96" x="0" y="0" fill="#000000" fill-rule="nonzero"/></g><path fill="none" stroke="#000000" stroke-width="1.104" stroke-linecap="butt" stroke-linejoin="miter" stroke-miterlimit="4" transform="translate(392.325801137 81.039456693)" d="M 0 0h 9.1609"/><g transform="matrix(1 0 0 -1 410.175590026 86.789456693)"><use xlink:href="#gF3831564C0DDBC8DC22273E509D647A1" x="0" y="0" fill="#000000" fill-rule="nonzero"/></g><g transform="matrix(1 0 0 -1 436.758478915 77.727456693)"><use xlink:href="#g132A0D485F4B00EFDE0B85637922E414" x="0" y="0" fill="#000000" fill-rule="nonzero"/></g><g transform="matrix(1 0 0 -1 436.758478915 94.724456693)"><use xlink:href="#g774ACCD633AAD639BA4AD49572657B96" x="0" y="0" fill="#000000" fill-rule="nonzero"/></g><path fill="none" stroke="#000000" stroke-width="1.104" stroke-linecap="butt" stroke-linejoin="miter" stroke-miterlimit="4" transform="translate(436.758478915 81.039456693)" d="M 0 0h 9.1609"/><g transform="matrix(1 0 0 -1 448.219378915 86.789456693)"><use xlink:href="#g10145F1A685AC0E9CD28AFEC6BEDA295" x="0" y="0" fill="#000000" fill-rule="nonzero"/></g><g transform="matrix(1 0 0 -1 460.746712248 77.727456693)"><use xlink:href="#gD17DDCF32D03B81B024D2233E6C268A0" x="0" y="0" fill="#000000" fill-rule="nonzero"/></g><g transform="matrix(1 0 0 -1 460.746712248 94.724456693)"><use xlink:href="#g774ACCD633AAD639BA4AD49572657B96" x="0" y="0" fill="#000000" fill-rule="nonzero"/></g><path fill="none" stroke="#000000" stroke-width="1.104" stroke-linecap="butt" stroke-linejoin="miter" stroke-miterlimit="4" transform="translate(460.746712248 81.039456693)" d="M 0 0h 9.1609"/><g transform="matrix(1 0 0 -1 472.207612248 86.789456693)"><use xlink:href="#g264830A1EB612DFE804C40B12F9751D7" x="0" y="0" fill="#000000" fill-rule="nonzero"/></g><defs><symbol id="g58E6B942CA5AD6753ACE467F6A4C84A" overflow="visible"><path d="M 0 0m 6.463 8.303h -2.093v 4.14c 0 1.012 0.276 1.472 1.518 1.472h 1.725c 1.725 0 2.093 -0.92 2.599 -2.507c 0.276 -0.046 0.529 0 0.759 0.115c -0.115 0.943 -0.46 3.151 -0.506 3.335c 0 0.046 -0.023 0.069 -0.092 0.069c -0.391 -0.069 -0.575 -0.092 -1.127 -0.092h -5.865c -0.69 0 -2.047 0.023 -2.967 0.046c -0.138 -0.138 -0.138 -0.621 0 -0.759c 1.61 -0.069 2.001 -0.184 2.001 -2.093v -9.223c 0 -1.909 -0.391 -2.024 -2.001 -2.093c -0.138 -0.138 -0.138 -0.621 0 -0.759c 0.851 0.023 2.231 0.046 2.99 0.046h 4.945c 1.104 0 2.944 -0.046 2.944 -0.046c 0.322 1.15 0.667 2.668 0.851 3.841c -0.23 0.138 -0.506 0.184 -0.805 0.115c -0.46 -1.656 -1.265 -3.013 -3.013 -3.013h -2.668c -0.966 0 -1.288 0.368 -1.288 1.449v 5.083h 2.093c 1.955 0 2.024 -0.529 2.093 -1.564c 0.138 -0.138 0.621 -0.138 0.759 0c -0.023 0.598 -0.046 1.242 -0.046 2.024c 0 0.644 0.023 1.426 0.046 1.978c -0.138 0.138 -0.621 0.138 -0.759 0c -0.069 -1.265 -0.138 -1.564 -2.093 -1.564Z "/></symbol><symbol id="g86D64484051DC80F83FB125166AE11BF" overflow="visible"><path d="M 0 0m 4.186 8.234c -0.529 0.782 -0.368 0.805 0.667 0.92c 0.138 0.138 0.138 0.621 0 0.759c -0.621 -0.023 -1.633 -0.046 -2.323 -0.046c -0.69 0 -1.38 0.023 -1.978 0.046c -0.138 -0.138 -0.138 -0.621 0 -0.759c 0.782 -0.069 1.426 -0.46 2.07 -1.403l 2.001 -2.921c 0.115 -0.161 0.115 -0.23 0.023 -0.345l -1.932 -2.484c -0.92 -1.173 -1.426 -1.242 -2.231 -1.288c -0.138 -0.138 -0.138 -0.621 0 -0.759c 0.46 0.023 0.966 0.046 1.656 0.046c 0.69 0 1.334 -0.023 1.932 -0.046c 0.138 0.138 0.138 0.621 0 0.759c -0.828 0.092 -1.012 0.184 -0.506 0.92l 1.449 2.093c 0.184 0.276 0.276 0.253 0.414 0.046l 1.334 -1.84c 0.805 -1.104 0.437 -1.15 -0.299 -1.219c -0.138 -0.138 -0.138 -0.621 0 -0.759c 0.69 0.023 1.449 0.046 2.277 0.046c 0.874 0 1.495 -0.023 2.047 -0.046c 0.138 0.138 0.138 0.621 0 0.759c -1.035 0.069 -1.38 0.138 -2.3 1.449l -2.07 2.921c -0.092 0.138 -0.115 0.207 0 0.345l 1.932 2.461c 0.851 1.081 1.403 1.196 2.231 1.265c 0.138 0.138 0.138 0.621 0 0.759c -0.46 -0.023 -0.989 -0.046 -1.679 -0.046c -0.69 0 -1.334 0.023 -1.932 0.046c -0.138 -0.138 -0.138 -0.621 0 -0.759c 0.851 -0.092 1.104 -0.161 0.552 -0.943l -1.495 -2.093c -0.161 -0.23 -0.253 -0.207 -0.437 0.046Z "/></symbol><symbol id="gC1CD50073E252F4CF8D2A0D9C361B3C3" overflow="visible"><path d="M 0 0m 3.588 8.464c -0.023 0.69 -0.069 1.288 -0.184 1.518c -0.046 0.115 -0.092 0.184 -0.276 0.184c -0.644 -0.253 -1.242 -0.46 -2.829 -0.667c -0.046 -0.138 0 -0.506 0.046 -0.644c 1.242 -0.115 1.495 -0.23 1.495 -1.564v -9.821c 0 -1.909 -0.253 -2.024 -1.656 -2.093c -0.138 -0.138 -0.138 -0.621 0 -0.759c 0.805 0.023 1.656 0.046 2.576 0.046c 0.92 0 2.024 -0.023 2.783 -0.046c 0.138 0.138 0.138 0.621 0 0.759c -1.633 0.092 -1.886 0.184 -1.886 2.093v 2.484c 0 0.299 0.092 0.276 0.322 0.184c 0.575 -0.23 1.265 -0.368 2.001 -0.368c 1.288 0 2.438 0.391 3.381 1.288c 1.081 1.058 1.702 2.484 1.702 4.347c 0 2.438 -1.725 4.692 -4.071 4.692c -1.058 0 -2.231 -0.69 -3.151 -1.725c -0.138 -0.138 -0.23 -0.138 -0.253 0.092Z m 0.437 -0.851c 0.598 0.736 1.656 1.426 2.323 1.426c 1.472 0 2.737 -1.656 2.737 -4.255c 0 -1.886 -0.667 -4.232 -3.243 -4.232c -0.414 0 -1.219 0.115 -1.633 0.483c -0.46 0.414 -0.552 0.552 -0.552 1.38v 4.186c 0 0.483 0.092 0.69 0.368 1.012Z "/></symbol><symbol id="gC100FF19D79DD85EB914D849BECDE1FC" overflow="visible"><path d="M 0 0m 2.185 2.806c 0 -1.909 -0.253 -2.024 -1.656 -2.093c -0.138 -0.138 -0.138 -0.621 0 -0.759c 0.805 0.023 1.656 0.046 2.576 0.046c 0.92 0 1.794 -0.023 2.553 -0.046c 0.138 0.138 0.138 0.621 0 0.759c -1.403 0.069 -1.656 0.184 -1.656 2.093v 10.603c 0 1.495 0.092 2.415 0.092 2.415c 0 0.161 -0.092 0.23 -0.299 0.23c -0.575 -0.23 -2.3 -0.552 -3.22 -0.621c -0.046 -0.184 0 -0.552 0.138 -0.69c 1.334 -0.092 1.472 -0.161 1.472 -1.886Z "/></symbol><symbol id="gCE455A6F61485B9E480EEE8398BF4043" overflow="visible"><path d="M 0 0m 6.739 1.104c 0.138 -0.713 0.391 -1.334 1.541 -1.334c 0.874 0 1.702 0.391 2.185 0.851c -0.046 0.276 -0.138 0.483 -0.391 0.621c -0.161 -0.138 -0.552 -0.368 -0.851 -0.368c -0.667 0 -0.69 0.897 -0.69 1.955v 3.381c 0 3.266 -1.794 3.887 -3.473 3.887c -1.886 0 -3.795 -1.242 -3.795 -2.553c 0 -0.552 0.276 -0.828 0.805 -0.828c 0.667 0 1.081 0.483 1.081 0.782c 0 0.161 -0.023 0.322 -0.069 0.414c -0.023 0.069 -0.046 0.207 -0.046 0.46c 0 0.713 0.966 0.966 1.84 0.966c 0.782 0 1.863 -0.391 1.863 -2.99c 0 -0.161 -0.069 -0.253 -0.138 -0.276l -1.978 -0.483c -2.208 -0.552 -3.795 -1.771 -3.795 -3.335c 0 -1.886 1.288 -2.484 2.898 -2.484c 0.805 0 1.495 0.184 2.507 0.966l 0.46 0.368Z m 0 4.255v -3.036c 0 -0.299 -0.138 -0.46 -0.322 -0.598c -0.598 -0.483 -1.38 -1.012 -2.024 -1.012c -1.15 0 -1.656 0.92 -1.656 1.633c 0 1.035 0.483 2.093 2.185 2.53Z "/></symbol><symbol id="g3A2661FD9F55E4BD2A83AF0F57158FD" overflow="visible"><path d="M 0 0m 4.232 8.234c -0.138 -0.161 -0.276 -0.207 -0.276 0c -0.023 0.621 -0.069 1.518 -0.184 1.748c -0.046 0.115 -0.092 0.184 -0.276 0.184c -0.644 -0.253 -1.242 -0.46 -2.829 -0.667c -0.046 -0.138 0 -0.506 0.046 -0.644c 1.242 -0.115 1.495 -0.23 1.495 -1.564v -4.485c 0 -1.886 -0.23 -1.978 -1.61 -2.093c -0.138 -0.138 -0.138 -0.621 0 -0.759c 0.69 0.023 1.61 0.046 2.53 0.046c 0.92 0 1.61 -0.023 2.3 -0.046c 0.138 0.138 0.138 0.621 0 0.759c -1.173 0.115 -1.403 0.207 -1.403 2.093v 3.772c 0 0.483 0.207 0.759 0.391 0.966c 0.874 0.851 1.909 1.357 2.806 1.357c 0.46 0 0.943 -0.299 1.219 -0.828c 0.23 -0.46 0.276 -1.081 0.276 -1.771v -3.496c 0 -1.886 -0.23 -1.978 -1.426 -2.093c -0.115 -0.138 -0.115 -0.621 0 -0.759c 0.69 0.023 1.426 0.046 2.346 0.046c 0.92 0 1.748 -0.023 2.438 -0.046c 0.115 0.138 0.115 0.621 0 0.759c -1.288 0.115 -1.541 0.207 -1.541 2.093v 3.427c 0 1.265 -0.092 2.369 -0.621 3.082c -0.391 0.506 -1.104 0.782 -1.909 0.782c -1.127 0 -2.415 -0.299 -3.772 -1.863Z "/></symbol><symbol id="g373D86D0917D6F33B84C48081FE8761A" overflow="visible"><path d="M 0 0m 0.989 9.867c -0.322 0 -0.414 -0.276 -0.414 -0.46v -0.299c 0 -0.115 0.023 -0.138 0.115 -0.138h 1.357v -6.923c 0 -1.633 0.713 -2.277 1.771 -2.277c 1.058 0 2.208 0.506 3.105 1.518c -0.046 0.23 -0.184 0.368 -0.414 0.391c -0.598 -0.46 -1.288 -0.644 -1.886 -0.644c -0.621 0 -0.759 0.69 -0.759 2.116v 5.819h 2.392c 0.23 0 0.552 0.092 0.552 0.299v 0.46c 0 0.092 -0.069 0.138 -0.184 0.138h -2.76v 0.897c 0 1.495 0.092 2.415 0.092 2.415c 0 0.138 -0.069 0.207 -0.184 0.207c -0.092 0 -0.299 -0.092 -0.506 -0.207c -0.253 -0.138 -0.483 -0.253 -0.782 -0.322c -0.276 -0.092 -0.506 -0.161 -0.506 -0.322c 0 -0.276 0.069 -0.115 0.069 -2.668Z "/></symbol><symbol id="g3EA83007E3D865CA62F9746A5A947B84" overflow="visible"><path d="M 0 0m 4.163 2.806v 4.577c 0 1.15 0.092 2.622 0.092 2.622c 0 0.092 -0.115 0.161 -0.299 0.161c -0.644 -0.253 -1.564 -0.46 -3.151 -0.667c -0.046 -0.138 0 -0.506 0.046 -0.644c 1.265 -0.115 1.495 -0.253 1.495 -1.564v -4.485c 0 -1.909 -0.253 -1.978 -1.656 -2.093c -0.138 -0.138 -0.138 -0.621 0 -0.759c 0.759 0.023 1.656 0.046 2.576 0.046c 0.92 0 1.794 -0.023 2.553 -0.046c 0.138 0.138 0.138 0.621 0 0.759c -1.403 0.092 -1.656 0.184 -1.656 2.093Z m -2.093 10.971c 0 -0.598 0.552 -1.196 1.104 -1.196c 0.644 0 1.196 0.621 1.196 1.104c 0 0.552 -0.483 1.196 -1.104 1.196c -0.552 0 -1.196 -0.552 -1.196 -1.104Z "/></symbol><symbol id="gD0FC87669A9B60A2B853070829253FD1" overflow="visible"><path d="M 0 0m 0.943 4.715c 0 -2.346 1.564 -4.945 4.83 -4.945c 1.472 0 2.599 0.529 3.381 1.288c 1.035 1.012 1.495 2.461 1.495 3.864c 0 2.392 -1.311 5.175 -4.83 5.175c -1.518 0 -2.76 -0.621 -3.611 -1.61c -0.828 -0.989 -1.265 -2.323 -1.265 -3.772Z m 4.531 4.577c 1.978 0 3.197 -1.794 3.197 -5.106c 0 -2.898 -1.495 -3.611 -2.576 -3.611c -2.392 0 -3.174 2.898 -3.174 4.669c 0 2.001 0.483 4.048 2.553 4.048Z "/></symbol><symbol id="gCA9C5F6D4A5EC462FAB04A10B1EA857F" overflow="visible"><path d="M 0 0m 1.61 1.38c 0 -0.667 0.552 -1.219 1.219 -1.219c 0.667 0 1.219 0.552 1.219 1.219c 0 0.667 -0.552 1.219 -1.219 1.219c -0.667 0 -1.219 -0.552 -1.219 -1.219Z m 0 6.854c 0 -0.667 0.552 -1.219 1.219 -1.219c 0.667 0 1.219 0.552 1.219 1.219c 0 0.667 -0.552 1.219 -1.219 1.219c -0.667 0 -1.219 -0.552 -1.219 -1.219Z "/></symbol><symbol id="g2394B2D369C49346CA9E2E2A2E9A7F" overflow="visible"><path d="M 0 0m 9.131 14.283c 0 0.621 -0.322 0.92 -0.943 0.92c -0.644 0 -1.288 -0.644 -1.288 -1.288c 0 -0.621 0.299 -0.92 0.92 -0.92c 0.644 0 1.311 0.644 1.311 1.288Z m -2.99 -4.071c -1.219 0 -2.254 -0.92 -2.76 -1.725c -0.621 -0.989 -0.92 -1.61 -0.92 -1.886c 0 -0.207 0.115 -0.299 0.345 -0.299c 0.115 0 0.184 0.023 0.253 0.046c 0.115 0.184 0.184 0.345 0.253 0.46c 0.736 1.817 1.656 2.714 2.76 2.714c 0.414 0 0.621 -0.322 0.621 -0.943c 0 -0.345 -0.046 -0.736 -0.161 -1.15l -2.116 -8.487c -0.322 -1.334 -1.242 -2.967 -2.691 -2.967c -0.207 0 -0.414 0.023 -0.621 0.092c 0.575 0.23 0.851 0.644 0.851 1.219c 0 0.598 -0.322 0.897 -0.943 0.897c -0.736 0 -1.311 -0.667 -1.311 -1.403c 0 -1.012 0.989 -1.495 2.07 -1.495c 0.989 0 1.909 0.345 2.76 1.035c 0.805 0.667 1.311 1.518 1.564 2.507l 2.093 8.326c 0.069 0.299 0.115 0.598 0.115 0.874c 0 1.265 -0.897 2.185 -2.162 2.185Z "/></symbol><symbol id="gF3831564C0DDBC8DC22273E509D647A1" overflow="visible"><path d="M 0 0m 16.054 8.441h -14.214c -0.368 0 -0.552 -0.184 -0.552 -0.529c 0 -0.345 0.184 -0.529 0.552 -0.529h 14.214c 0.368 0 0.552 0.184 0.552 0.529c 0 0.276 -0.253 0.529 -0.552 0.529Z m 0 -4.324h -14.214c -0.368 0 -0.552 -0.184 -0.552 -0.529c 0 -0.345 0.184 -0.529 0.552 -0.529h 14.214c 0.368 0 0.552 0.184 0.552 0.529c 0 0.299 -0.253 0.529 -0.552 0.529Z "/></symbol><symbol id="gF5746BB976FEFF9E7F9DF8FCA9B8793E" overflow="visible"><path d="M 0 0m 3.197 -5.75c 0.299 0 0.46 0.184 0.46 0.552v 21.896c 0 0.368 -0.161 0.552 -0.46 0.552c -0.299 0 -0.46 -0.184 -0.46 -0.552v -21.896c 0 -0.368 0.161 -0.552 0.46 -0.552Z "/></symbol><symbol id="g465518B3AB2B2BA233B1D6080FBA6709" overflow="visible"><path d="M 0 0m 3.979 14.536l -2.852 -11.799c -0.069 -0.322 -0.115 -0.598 -0.115 -0.805c 0 -1.219 0.897 -2.185 2.116 -2.185c 1.127 0 1.932 1.196 2.415 3.588c 0 0.207 -0.115 0.322 -0.368 0.322c -0.184 0 -0.322 -0.161 -0.391 -0.483c -0.46 -1.817 -0.989 -2.737 -1.61 -2.737c -0.391 0 -0.575 0.322 -0.575 0.943c 0 0.345 0.046 0.713 0.138 1.081l 3.197 13.156v 0.092c -0.069 0.161 -0.207 0.253 -0.368 0.253c -0.736 0 -2.438 -0.207 -2.714 -0.23c -0.345 -0.046 -0.506 -0.23 -0.506 -0.575c 0 -0.207 0.207 -0.322 0.644 -0.322c 0.391 0 0.989 0 0.989 -0.299Z "/></symbol><symbol id="gFF984BD249594E8C15C363AB590AF9A1" overflow="visible"><path d="M 0 0m 16.054 6.21h -14.214c -0.368 0 -0.552 -0.161 -0.552 -0.46c 0 -0.299 0.184 -0.46 0.552 -0.46h 14.214c 0.368 0 0.552 0.161 0.552 0.46c 0 0.276 -0.276 0.46 -0.552 0.46Z "/></symbol><symbol id="g48F32AFE4D5540BDDEB24BD92091BF6A" overflow="visible"><path d="M 0 0m 9.66 8.142c 0 1.311 -1.334 2.024 -2.76 2.024c -1.449 0 -2.484 -0.437 -3.105 -1.311c -0.529 -0.759 -0.805 -1.449 -0.805 -2.07c 0 -1.219 0.805 -2.001 2.392 -2.346c 0.667 -0.115 1.173 -0.276 1.564 -0.46c 0.483 -0.207 0.713 -0.598 0.713 -1.15c 0 -0.414 -0.184 -0.874 -0.575 -1.403c -0.483 -0.667 -1.334 -1.012 -2.553 -1.012c -1.242 0 -2.047 0.345 -2.415 1.012c 0.736 -0.023 1.357 0.575 1.357 1.311c 0 0.575 -0.299 0.874 -0.92 0.874c -0.828 0 -1.357 -0.759 -1.357 -1.587c 0 -1.518 1.656 -2.277 3.312 -2.277c 1.725 0 2.967 0.506 3.703 1.541c 0.621 0.851 0.92 1.61 0.92 2.3c 0 0.989 -0.483 1.725 -1.426 2.208c -0.713 0.253 -1.265 0.414 -1.61 0.483c -0.805 0.207 -1.633 0.276 -1.633 1.265c 0 1.219 1.15 1.955 2.438 1.955c 0.966 0 1.587 -0.299 1.886 -0.874c -0.506 -0.092 -1.035 -0.529 -1.035 -1.104c 0 -0.483 0.253 -0.736 0.782 -0.736c 0.713 0 1.127 0.644 1.127 1.357Z "/></symbol><symbol id="g10145F1A685AC0E9CD28AFEC6BEDA295" overflow="visible"><path d="M 0 0m 3.197 2.438c -0.736 0 -1.219 -0.552 -1.219 -1.288c 0 -0.69 0.529 -1.265 1.219 -1.265c 0.322 0 0.598 0.092 0.805 0.299l 0.023 -0.184c 0 -1.449 -0.483 -2.691 -1.449 -3.68c -0.161 -0.184 -0.253 -0.322 -0.253 -0.414c 0 -0.23 0.092 -0.345 0.299 -0.345c 0.207 0 0.483 0.276 0.874 0.805c 0.782 1.104 1.173 2.323 1.173 3.634c 0 1.219 -0.414 2.438 -1.472 2.438Z "/></symbol><symbol id="g5061902CECA1CC411EF1145F3EF3D368" overflow="visible"><path d="M 0 0m 17.273 1.219c 0 0.69 -0.598 1.219 -1.288 1.219c -0.713 0 -1.311 -0.529 -1.311 -1.219c 0 -0.69 0.598 -1.219 1.311 -1.219c 0.69 0 1.288 0.529 1.288 1.219Z m -6.348 0c 0 0.69 -0.598 1.219 -1.288 1.219c -0.713 0 -1.288 -0.529 -1.288 -1.219c 0 -0.69 0.575 -1.219 1.288 -1.219c 0.69 0 1.288 0.529 1.288 1.219Z m -6.325 0c 0 0.69 -0.598 1.219 -1.311 1.219c -0.69 0 -1.288 -0.529 -1.288 -1.219c 0 -0.69 0.598 -1.219 1.288 -1.219c 0.69 0 1.311 0.529 1.311 1.219Z "/></symbol><symbol id="gF6FF92A0F815709DF2546291443AACF1" overflow="visible"><path d="M 0 0m 16.054 6.302h -6.555v 6.555c 0 0.368 -0.184 0.552 -0.552 0.552c -0.368 0 -0.552 -0.184 -0.552 -0.552v -6.555h -6.555c -0.368 0 -0.552 -0.184 -0.552 -0.552c 0 -0.368 0.184 -0.552 0.552 -0.552h 6.555v -6.555c 0 -0.368 0.184 -0.552 0.552 -0.552c 0.368 0 0.552 0.184 0.552 0.552v 6.555h 6.555c 0.368 0 0.552 0.184 0.552 0.552c 0 0.299 -0.253 0.552 -0.552 0.552Z "/></symbol><symbol id="g60EFFD97EB7083DD1A00F914A03034AF" overflow="visible"><path d="M 0 0m 6.187 15.318c -0.943 -0.966 -2.323 -1.449 -4.14 -1.449v -0.897c 1.196 0 2.185 0.184 2.944 0.552v -11.638c 0 -0.414 -0.092 -0.69 -0.299 -0.805c -0.207 -0.115 -0.782 -0.184 -1.702 -0.184h -0.805v -0.897c 0.575 0.046 1.817 0.069 3.726 0.069c 1.909 0 3.151 -0.023 3.726 -0.069v 0.897h -0.805c -0.943 0 -1.518 0.069 -1.702 0.184c -0.184 0.115 -0.299 0.391 -0.299 0.805v 12.742c 0 0.552 -0.046 0.69 -0.644 0.69Z "/></symbol><symbol id="g132A0D485F4B00EFDE0B85637922E414" overflow="visible"><path d="M 0 0m 4.8783 10.6904c -0.6923 -0.6762 -1.7227 -1.0143 -3.1234 -1.0143v -0.7084c 0.9499 0 1.7066 0.1449 2.2862 0.4186v -8.0178c 0 -0.2093 -0.0161 -0.3381 -0.0644 -0.4025c -0.0805 -0.1771 -0.5635 -0.2737 -1.449 -0.2737h -0.6601v -0.6923l 2.8658 0.0644l 2.8819 -0.0644v 0.6923h -0.6601c -0.8855 0 -1.3685 0.0966 -1.4651 0.2737c -0.0322 0.0644 -0.0483 0.1932 -0.0483 0.4025v 8.8067c 0 0.4347 -0.0644 0.5152 -0.5635 0.5152Z "/></symbol><symbol id="g774ACCD633AAD639BA4AD49572657B96" overflow="visible"><path d="M 0 0m 1.9159 6.8264c 0.5152 0 0.9016 0.3864 0.9016 0.9016c 0 0.5796 -0.3059 0.8855 -0.9016 0.9016c 0.3542 0.7567 1.1592 1.3685 2.2057 1.3685c 1.4168 0 2.3506 -1.0626 2.3506 -2.4794c 0 -0.7728 -0.2737 -1.5134 -0.8372 -2.2379c -0.2737 -0.3703 -0.483 -0.6279 -0.6279 -0.7728l -3.8157 -3.7835c -0.2093 -0.1932 -0.1771 -0.2415 -0.1771 -0.7245h 6.6332l 0.4991 3.0268h -0.6762c -0.1127 -0.8533 -0.2415 -1.3524 -0.3864 -1.4651c -0.0805 -0.0483 -0.5796 -0.0805 -1.5295 -0.0805h -2.737c 1.0787 0.9499 2.0769 1.8032 3.0268 2.5599c 0.7245 0.5635 1.2397 1.0626 1.5617 1.4973c 0.483 0.6279 0.7245 1.288 0.7245 1.9803c 0 0.9982 -0.3864 1.7871 -1.1753 2.3667c -0.6923 0.5313 -1.5617 0.805 -2.5921 0.805c -0.8855 0 -1.6422 -0.2576 -2.3023 -0.7728c -0.6923 -0.5635 -1.0465 -1.2719 -1.0465 -2.1413c 0 -0.5474 0.4025 -0.9499 0.9016 -0.9499Z "/></symbol><symbol id="gD17DDCF32D03B81B024D2233E6C268A0" overflow="visible"><path d="M 0 0m 5.6833 5.6833c 1.0787 0.4347 2.1091 1.3846 2.1091 2.7531c 0 0.7245 -0.3864 1.3041 -1.1431 1.7227c -0.6279 0.3542 -1.3363 0.5313 -2.1252 0.5313c -0.7889 0 -1.4812 -0.161 -2.0769 -0.4991c -0.7245 -0.4025 -1.0948 -0.966 -1.0948 -1.6905c 0 -0.6118 0.3059 -0.9177 0.9016 -0.9177c 0.4991 0 0.8694 0.3864 0.8694 0.8855c 0 0.4991 -0.2576 0.7889 -0.7567 0.8694c 0.4669 0.4991 1.1592 0.7567 2.1091 0.7567c 1.0465 0 1.6422 -0.6279 1.6422 -1.6583c 0 -0.7567 -0.2093 -1.3685 -0.6118 -1.8515c -0.4508 -0.5313 -0.7728 -0.6118 -1.7066 -0.6762c -0.4347 -0.0322 -0.7245 0.0161 -0.7245 -0.3059c 0 -0.1932 0.161 -0.2898 0.4669 -0.2898h 0.8533c 1.3846 0 2.0608 -1.0465 2.0608 -2.4955c 0 -1.4168 -0.644 -2.4955 -1.9964 -2.4955c -1.1753 0 -2.0286 0.322 -2.5599 0.9821c 0.5635 0.0644 0.8533 0.3864 0.8533 0.9499c 0 0.5313 -0.4025 0.9338 -0.9338 0.9338c -0.6279 0 -0.9499 -0.322 -0.9499 -0.9821c 0 -0.8211 0.4186 -1.4812 1.2397 -1.9481c 0.6923 -0.3864 1.4812 -0.5796 2.3828 -0.5796c 0.9821 0 1.8354 0.2737 2.576 0.8211c 0.805 0.5957 1.2075 1.3685 1.2075 2.3184c 0 1.4973 -1.3041 2.5277 -2.5921 2.8658Z "/></symbol><symbol id="g264830A1EB612DFE804C40B12F9751D7" overflow="visible"><path d="M 0 0m 1.311 0.989c 0 -0.667 0.552 -1.219 1.219 -1.219c 0.667 0 1.219 0.552 1.219 1.219c 0 0.667 -0.552 1.219 -1.219 1.219c -0.667 0 -1.219 -0.552 -1.219 -1.219Z "/></symbol></defs></svg>