<svg class="typst-doc" viewBox="0 0 43.315748031496064 47.17574803149606" width="43.315748031496064pt" height="47.17574803149606pt" xmlns="http://www.w3.org/2000/svg" xmlns:xlink="http://www.w3.org/1999/xlink" xmlns:h5="http://www.w3.org/1999/xhtml">
    <path class="typst-shape" fill="#ffffff" fill-rule="nonzero" d="M 0 0v 47.175747 h 43.315746 v -47.175747 Z "/>
    <g>
        <g class="typst-text" transform="matrix(1 0 0 -1 17.007874015748033 30.167874015748033)">
            <use xlink:href="#g80F45D4343B74B5CF887E8B7EA047AF0" x="0" y="0" fill="#000000" fill-rule="nonzero"/>
        </g>
    </g>
    <defs id="glyph">
        <symbol id="g80F45D4343B74B5CF887E8B7EA047AF0" overflow="visible">
            <path d="M 0 0m 4.2999997 11.5 c 0.86000013 0 1.6600003 -0.52000046 1.6600003 -1.8000002 c 0 -1 -1.1600003 -2.54 -3.14 -2.8200002 l 0.099999905 -0.63999987 c 0.34000015 0.03999996 0.70000005 0.03999996 0.96000004 0.03999996 c 1.1400001 0 2.6200001 -0.3199997 2.6200001 -2.58 c 0 -2.6599998 -1.7800002 -3.1999998 -2.48 -3.1999998 c -1.02 0 -1.2 0.45999998 -1.44 0.81999993 c -0.20000005 0.27999997 -0.46000004 0.52 -0.86 0.52 c -0.41999996 0 -0.8399999 -0.38 -0.8399999 -0.6999999 c 0 -0.79999995 1.68 -1.3399999 2.88 -1.3399999 c 2.3799999 0 4.5 1.54 4.5 4.18 c 0 2.1799998 -1.6400003 2.96 -2.8200002 3.1599998 l -0.01999998 0.03999996 c 1.6399999 0.7800002 2.1 1.5999999 2.1 2.6600003 c 0 0.5999994 -0.14000034 1.0799999 -0.62000036 1.5799999 c -0.43999958 0.43999958 -1.1399999 0.77999973 -2.1799998 0.77999973 c -2.9399998 0 -3.7799997 -1.9200001 -3.7799997 -2.58 c 0 -0.27999973 0.19999999 -0.6800003 0.68 -0.6800003 c 0.6999999 0 0.77999985 0.65999985 0.77999985 1.04 c 0 1.2799997 1.3800001 1.5200005 1.8999999 1.5200005 Z "/>
        </symbol>
    </defs>
</svg>
