<svg class="typst-doc" viewBox="0 0 793.7007874015748 163.2289133858268" width="793.7007874015748pt" height="163.2289133858268pt" xmlns="http://www.w3.org/2000/svg" xmlns:xlink="http://www.w3.org/1999/xlink" xmlns:h5="http://www.w3.org/1999/xhtml">
    <path class="typst-shape" fill="#ffffff" fill-rule="nonzero" d="M 0 0v 163.22891 h 793.7008 v -163.22891 Z "/>
    <g>
        <g class="typst-text" transform="matrix(1 0 0 -1 28.346456692913385 43.480456692913386)">
            <use xlink:href="#g8EE9C12D8EEB1B50AE9F6ECADA57C467" x="0" y="0" fill="#000000" fill-rule="nonzero"/>
            <use xlink:href="#g6EDEC7CFE0FF41E4C99195D7FA267726" x="20.493" y="0" fill="#000000" fill-rule="nonzero"/>
            <use xlink:href="#gA708B7317D066AACA16A8CF1BCCF9219" x="31.003999999999998" y="0" fill="#000000" fill-rule="nonzero"/>
            <use xlink:href="#gBDDF711540E9D8CD85D8E10D69FAB298" x="38.272" y="0" fill="#000000" fill-rule="nonzero"/>
            <use xlink:href="#g9390E41BB8FAB9F56F81F195EEEF9575" x="48.553" y="0" fill="#000000" fill-rule="nonzero"/>
            <use xlink:href="#g53101F28E17FBF7AFD91854E30D810C7" x="62.858999999999995" y="0" fill="#000000" fill-rule="nonzero"/>
            <use xlink:href="#gB343D807E1CB93F472B90F9E10F3FC37" x="69.092" y="0" fill="#000000" fill-rule="nonzero"/>
            <use xlink:href="#g28E39A6866B5D79D9C6AA1FEFC6D616B" x="81.55799999999999" y="0" fill="#000000" fill-rule="nonzero"/>
            <use xlink:href="#g53101F28E17FBF7AFD91854E30D810C7" x="90.52799999999999" y="0" fill="#000000" fill-rule="nonzero"/>
            <use xlink:href="#gDA27726B7C89943A61F15D2B642599F0" x="96.761" y="0" fill="#000000" fill-rule="nonzero"/>
            <use xlink:href="#gBDDF711540E9D8CD85D8E10D69FAB298" x="108.399" y="0" fill="#000000" fill-rule="nonzero"/>
            <use xlink:href="#g6EDEC7CFE0FF41E4C99195D7FA267726" x="124.43" y="0" fill="#000000" fill-rule="nonzero"/>
            <use xlink:href="#g9390E41BB8FAB9F56F81F195EEEF9575" x="140.691" y="0" fill="#000000" fill-rule="nonzero"/>
            <use xlink:href="#g53101F28E17FBF7AFD91854E30D810C7" x="149.247" y="0" fill="#000000" fill-rule="nonzero"/>
            <use xlink:href="#gB15B76542432EA88B278B5EE50A1D25B" x="155.48000000000002" y="0" fill="#000000" fill-rule="nonzero"/>
            <use xlink:href="#g53101F28E17FBF7AFD91854E30D810C7" x="166.98000000000002" y="0" fill="#000000" fill-rule="nonzero"/>
            <use xlink:href="#gDA27726B7C89943A61F15D2B642599F0" x="173.21300000000002" y="0" fill="#000000" fill-rule="nonzero"/>
            <use xlink:href="#g9CBD281D7A29E4AC748208EE0E06C698" x="190.60100000000003" y="0" fill="#000000" fill-rule="nonzero"/>
            <use xlink:href="#g7832ADFD69B84C3E0E9C6BC3C8AD6625" x="200.44500000000002" y="0" fill="#000000" fill-rule="nonzero"/>
            <use xlink:href="#gB5C2AF791EB11DC382D7D52C5245183A" x="212.29000000000002" y="0" fill="#000000" fill-rule="nonzero"/>
            <use xlink:href="#g53101F28E17FBF7AFD91854E30D810C7" x="218.36200000000002" y="0" fill="#000000" fill-rule="nonzero"/>
            <use xlink:href="#gB343D807E1CB93F472B90F9E10F3FC37" x="224.59500000000003" y="0" fill="#000000" fill-rule="nonzero"/>
            <use xlink:href="#gDA27726B7C89943A61F15D2B642599F0" x="237.06100000000004" y="0" fill="#000000" fill-rule="nonzero"/>
            <use xlink:href="#g9390E41BB8FAB9F56F81F195EEEF9575" x="248.69900000000004" y="0" fill="#000000" fill-rule="nonzero"/>
            <use xlink:href="#g53101F28E17FBF7AFD91854E30D810C7" x="257.25500000000005" y="0" fill="#000000" fill-rule="nonzero"/>
            <use xlink:href="#g9CBD281D7A29E4AC748208EE0E06C698" x="263.48800000000006" y="0" fill="#000000" fill-rule="nonzero"/>
            <use xlink:href="#g6EDEC7CFE0FF41E4C99195D7FA267726" x="273.33200000000005" y="0" fill="#000000" fill-rule="nonzero"/>
            <use xlink:href="#gB5C2AF791EB11DC382D7D52C5245183A" x="283.8430000000001" y="0" fill="#000000" fill-rule="nonzero"/>
            <use xlink:href="#g53101F28E17FBF7AFD91854E30D810C7" x="295.6650000000001" y="0" fill="#000000" fill-rule="nonzero"/>
            <use xlink:href="#gB343D807E1CB93F472B90F9E10F3FC37" x="301.8980000000001" y="0" fill="#000000" fill-rule="nonzero"/>
            <use xlink:href="#g28E39A6866B5D79D9C6AA1FEFC6D616B" x="314.3640000000001" y="0" fill="#000000" fill-rule="nonzero"/>
            <use xlink:href="#g9B7F9713B4E9EFEB34E9BA215EB9194E" x="323.3340000000001" y="0" fill="#000000" fill-rule="nonzero"/>
            <use xlink:href="#gB5C2AF791EB11DC382D7D52C5245183A" x="335.54700000000014" y="0" fill="#000000" fill-rule="nonzero"/>
            <use xlink:href="#g6EDEC7CFE0FF41E4C99195D7FA267726" x="341.61900000000014" y="0" fill="#000000" fill-rule="nonzero"/>
            <use xlink:href="#gA708B7317D066AACA16A8CF1BCCF9219" x="352.13000000000017" y="0" fill="#000000" fill-rule="nonzero"/>
            <use xlink:href="#gBDDF711540E9D8CD85D8E10D69FAB298" x="359.39800000000014" y="0" fill="#000000" fill-rule="nonzero"/>
            <use xlink:href="#gDA27726B7C89943A61F15D2B642599F0" x="369.84000000000015" y="0" fill="#000000" fill-rule="nonzero"/>
            <use xlink:href="#gA708B7317D066AACA16A8CF1BCCF9219" x="387.2280000000001" y="0" fill="#000000" fill-rule="nonzero"/>
            <use xlink:href="#g6EDEC7CFE0FF41E4C99195D7FA267726" x="394.4960000000001" y="0" fill="#000000" fill-rule="nonzero"/>
            <use xlink:href="#gB343D807E1CB93F472B90F9E10F3FC37" x="405.0070000000001" y="0" fill="#000000" fill-rule="nonzero"/>
            <use xlink:href="#gF4FEF33690E0D3BA0B8D03E8403DDDFC" x="417.4730000000001" y="0" fill="#000000" fill-rule="nonzero"/>
            <use xlink:href="#g53101F28E17FBF7AFD91854E30D810C7" x="434.99900000000014" y="0" fill="#000000" fill-rule="nonzero"/>
            <use xlink:href="#g28E39A6866B5D79D9C6AA1FEFC6D616B" x="441.23200000000014" y="0" fill="#000000" fill-rule="nonzero"/>
            <use xlink:href="#g28E39A6866B5D79D9C6AA1FEFC6D616B" x="455.95200000000017" y="0" fill="#000000" fill-rule="nonzero"/>
            <use xlink:href="#gBDDF711540E9D8CD85D8E10D69FAB298" x="464.9220000000002" y="0" fill="#000000" fill-rule="nonzero"/>
            <use xlink:href="#gA708B7317D066AACA16A8CF1BCCF9219" x="475.2030000000002" y="0" fill="#000000" fill-rule="nonzero"/>
            <use xlink:href="#g53101F28E17FBF7AFD91854E30D810C7" x="488.22100000000023" y="0" fill="#000000" fill-rule="nonzero"/>
            <use xlink:href="#gB343D807E1CB93F472B90F9E10F3FC37" x="494.45400000000024" y="0" fill="#000000" fill-rule="nonzero"/>
            <use xlink:href="#gA708B7317D066AACA16A8CF1BCCF9219" x="506.92000000000024" y="0" fill="#000000" fill-rule="nonzero"/>
            <use xlink:href="#gF08C01CE4B15EB9A355572885E9E40A7" x="514.1880000000002" y="0" fill="#000000" fill-rule="nonzero"/>
            <use xlink:href="#g9390E41BB8FAB9F56F81F195EEEF9575" x="531.5300000000002" y="0" fill="#000000" fill-rule="nonzero"/>
            <use xlink:href="#gF08C01CE4B15EB9A355572885E9E40A7" x="539.9020000000002" y="0" fill="#000000" fill-rule="nonzero"/>
            <use xlink:href="#gA708B7317D066AACA16A8CF1BCCF9219" x="551.4940000000001" y="0" fill="#000000" fill-rule="nonzero"/>
            <use xlink:href="#g6EDEC7CFE0FF41E4C99195D7FA267726" x="558.7620000000002" y="0" fill="#000000" fill-rule="nonzero"/>
            <use xlink:href="#gA708B7317D066AACA16A8CF1BCCF9219" x="569.2730000000001" y="0" fill="#000000" fill-rule="nonzero"/>
            <use xlink:href="#g53101F28E17FBF7AFD91854E30D810C7" x="576.5410000000002" y="0" fill="#000000" fill-rule="nonzero"/>
            <use xlink:href="#gF08C01CE4B15EB9A355572885E9E40A7" x="582.7740000000001" y="0" fill="#000000" fill-rule="nonzero"/>
            <use xlink:href="#gB343D807E1CB93F472B90F9E10F3FC37" x="594.3660000000001" y="0" fill="#000000" fill-rule="nonzero"/>
            <use xlink:href="#g6EDEC7CFE0FF41E4C99195D7FA267726" x="612.5820000000001" y="0" fill="#000000" fill-rule="nonzero"/>
            <use xlink:href="#gB343D807E1CB93F472B90F9E10F3FC37" x="623.0930000000001" y="0" fill="#000000" fill-rule="nonzero"/>
            <use xlink:href="#gDA27726B7C89943A61F15D2B642599F0" x="635.5590000000001" y="0" fill="#000000" fill-rule="nonzero"/>
            <use xlink:href="#gB5C2AF791EB11DC382D7D52C5245183A" x="652.9470000000001" y="0" fill="#000000" fill-rule="nonzero"/>
            <use xlink:href="#gBDDF711540E9D8CD85D8E10D69FAB298" x="659.0190000000001" y="0" fill="#000000" fill-rule="nonzero"/>
            <use xlink:href="#gBF011CE9AAE1D3C07BA7900E99485927" x="669.3000000000001" y="0" fill="#000000" fill-rule="nonzero"/>
            <use xlink:href="#gA708B7317D066AACA16A8CF1BCCF9219" x="688.758" y="0" fill="#000000" fill-rule="nonzero"/>
            <use xlink:href="#gF08C01CE4B15EB9A355572885E9E40A7" x="696.0260000000001" y="0" fill="#000000" fill-rule="nonzero"/>
        </g>
        <g class="typst-text" transform="matrix(1 0 0 -1 28.346456692913385 73.56445669291338)">
            <use xlink:href="#g9CBD281D7A29E4AC748208EE0E06C698" x="0" y="0" fill="#000000" fill-rule="nonzero"/>
            <use xlink:href="#gF08C01CE4B15EB9A355572885E9E40A7" x="9.844" y="0" fill="#000000" fill-rule="nonzero"/>
            <use xlink:href="#gF6B0282C592AC9F033DCF38E9D7F9F7" x="21.436" y="0" fill="#000000" fill-rule="nonzero"/>
            <use xlink:href="#gBDDF711540E9D8CD85D8E10D69FAB298" x="39.606" y="0" fill="#000000" fill-rule="nonzero"/>
            <use xlink:href="#gA708B7317D066AACA16A8CF1BCCF9219" x="55.637" y="0" fill="#000000" fill-rule="nonzero"/>
            <use xlink:href="#gF08C01CE4B15EB9A355572885E9E40A7" x="62.905" y="0" fill="#000000" fill-rule="nonzero"/>
            <use xlink:href="#g9390E41BB8FAB9F56F81F195EEEF9575" x="80.247" y="0" fill="#000000" fill-rule="nonzero"/>
            <use xlink:href="#gBDDF711540E9D8CD85D8E10D69FAB298" x="88.619" y="0" fill="#000000" fill-rule="nonzero"/>
            <use xlink:href="#g28E39A6866B5D79D9C6AA1FEFC6D616B" x="98.9" y="0" fill="#000000" fill-rule="nonzero"/>
            <use xlink:href="#gA708B7317D066AACA16A8CF1BCCF9219" x="107.87" y="0" fill="#000000" fill-rule="nonzero"/>
            <use xlink:href="#g9B7F9713B4E9EFEB34E9BA215EB9194E" x="120.888" y="0" fill="#000000" fill-rule="nonzero"/>
            <use xlink:href="#gB343D807E1CB93F472B90F9E10F3FC37" x="133.101" y="0" fill="#000000" fill-rule="nonzero"/>
            <use xlink:href="#gDA27726B7C89943A61F15D2B642599F0" x="145.567" y="0" fill="#000000" fill-rule="nonzero"/>
            <use xlink:href="#gBDDF711540E9D8CD85D8E10D69FAB298" x="157.205" y="0" fill="#000000" fill-rule="nonzero"/>
            <use xlink:href="#g9390E41BB8FAB9F56F81F195EEEF9575" x="167.48600000000002" y="0" fill="#000000" fill-rule="nonzero"/>
            <use xlink:href="#gA708B7317D066AACA16A8CF1BCCF9219" x="181.79200000000003" y="0" fill="#000000" fill-rule="nonzero"/>
            <use xlink:href="#g8394266AEDBDAE5791EC8B20E560D183" x="189.06000000000003" y="0" fill="#000000" fill-rule="nonzero"/>
            <use xlink:href="#gBDDF711540E9D8CD85D8E10D69FAB298" x="201.43400000000003" y="0" fill="#000000" fill-rule="nonzero"/>
            <use xlink:href="#g6EDEC7CFE0FF41E4C99195D7FA267726" x="217.46500000000003" y="0" fill="#000000" fill-rule="nonzero"/>
            <use xlink:href="#g9CBD281D7A29E4AC748208EE0E06C698" x="227.97600000000003" y="0" fill="#000000" fill-rule="nonzero"/>
            <use xlink:href="#gA708B7317D066AACA16A8CF1BCCF9219" x="237.82000000000002" y="0" fill="#000000" fill-rule="nonzero"/>
            <use xlink:href="#g53101F28E17FBF7AFD91854E30D810C7" x="245.08800000000002" y="0" fill="#000000" fill-rule="nonzero"/>
            <use xlink:href="#gF08C01CE4B15EB9A355572885E9E40A7" x="251.32100000000003" y="0" fill="#000000" fill-rule="nonzero"/>
            <use xlink:href="#gB343D807E1CB93F472B90F9E10F3FC37" x="262.913" y="0" fill="#000000" fill-rule="nonzero"/>
            <use xlink:href="#gF08C01CE4B15EB9A355572885E9E40A7" x="281.129" y="0" fill="#000000" fill-rule="nonzero"/>
            <use xlink:href="#g89CCC747E44A011CD9A8A1AAE3D0C2C8" x="292.721" y="0" fill="#000000" fill-rule="nonzero"/>
            <use xlink:href="#g960D878813C4BBA6AE0DF21B5089C3D" x="305.601" y="0" fill="#000000" fill-rule="nonzero"/>
            <use xlink:href="#g53101F28E17FBF7AFD91854E30D810C7" x="317.032" y="0" fill="#000000" fill-rule="nonzero"/>
            <use xlink:href="#g28E39A6866B5D79D9C6AA1FEFC6D616B" x="323.265" y="0" fill="#000000" fill-rule="nonzero"/>
            <use xlink:href="#g9CBD281D7A29E4AC748208EE0E06C698" x="332.235" y="0" fill="#000000" fill-rule="nonzero"/>
            <use xlink:href="#gF08C01CE4B15EB9A355572885E9E40A7" x="342.079" y="0" fill="#000000" fill-rule="nonzero"/>
            <use xlink:href="#g9B7F9713B4E9EFEB34E9BA215EB9194E" x="353.671" y="0" fill="#000000" fill-rule="nonzero"/>
            <use xlink:href="#g28E39A6866B5D79D9C6AA1FEFC6D616B" x="365.884" y="0" fill="#000000" fill-rule="nonzero"/>
            <use xlink:href="#g89CCC747E44A011CD9A8A1AAE3D0C2C8" x="380.60400000000004" y="0" fill="#000000" fill-rule="nonzero"/>
            <use xlink:href="#gF08C01CE4B15EB9A355572885E9E40A7" x="387.73400000000004" y="0" fill="#000000" fill-rule="nonzero"/>
            <use xlink:href="#g9390E41BB8FAB9F56F81F195EEEF9575" x="399.326" y="0" fill="#000000" fill-rule="nonzero"/>
            <use xlink:href="#g9CBD281D7A29E4AC748208EE0E06C698" x="407.69800000000004" y="0" fill="#000000" fill-rule="nonzero"/>
            <use xlink:href="#gBDDF711540E9D8CD85D8E10D69FAB298" x="417.54200000000003" y="0" fill="#000000" fill-rule="nonzero"/>
            <use xlink:href="#g28E39A6866B5D79D9C6AA1FEFC6D616B" x="427.82300000000004" y="0" fill="#000000" fill-rule="nonzero"/>
            <use xlink:href="#gE7684A05A8ED9E92010F1AB50BE29568" x="436.79300000000006" y="0" fill="#000000" fill-rule="nonzero"/>
            <use xlink:href="#gAE5D06D91D2DE1C4651C92ACB7E3A458" x="447.60300000000007" y="0" fill="#000000" fill-rule="nonzero"/>
            <use xlink:href="#gBDDF711540E9D8CD85D8E10D69FAB298" x="461.10400000000004" y="0" fill="#000000" fill-rule="nonzero"/>
            <use xlink:href="#gB15B76542432EA88B278B5EE50A1D25B" x="471.38500000000005" y="0" fill="#000000" fill-rule="nonzero"/>
            <use xlink:href="#g6EDEC7CFE0FF41E4C99195D7FA267726" x="482.88500000000005" y="0" fill="#000000" fill-rule="nonzero"/>
            <use xlink:href="#g9390E41BB8FAB9F56F81F195EEEF9575" x="493.3960000000001" y="0" fill="#000000" fill-rule="nonzero"/>
            <use xlink:href="#gDA27726B7C89943A61F15D2B642599F0" x="501.7680000000001" y="0" fill="#000000" fill-rule="nonzero"/>
            <use xlink:href="#g53101F28E17FBF7AFD91854E30D810C7" x="513.4060000000001" y="0" fill="#000000" fill-rule="nonzero"/>
            <use xlink:href="#gB343D807E1CB93F472B90F9E10F3FC37" x="519.639" y="0" fill="#000000" fill-rule="nonzero"/>
            <use xlink:href="#gB15B76542432EA88B278B5EE50A1D25B" x="532.105" y="0" fill="#000000" fill-rule="nonzero"/>
            <use xlink:href="#gA708B7317D066AACA16A8CF1BCCF9219" x="549.355" y="0" fill="#000000" fill-rule="nonzero"/>
            <use xlink:href="#g8394266AEDBDAE5791EC8B20E560D183" x="556.623" y="0" fill="#000000" fill-rule="nonzero"/>
            <use xlink:href="#gBDDF711540E9D8CD85D8E10D69FAB298" x="568.9970000000001" y="0" fill="#000000" fill-rule="nonzero"/>
            <use xlink:href="#gA708B7317D066AACA16A8CF1BCCF9219" x="585.028" y="0" fill="#000000" fill-rule="nonzero"/>
            <use xlink:href="#g6EDEC7CFE0FF41E4C99195D7FA267726" x="592.296" y="0" fill="#000000" fill-rule="nonzero"/>
            <use xlink:href="#gB343D807E1CB93F472B90F9E10F3FC37" x="602.807" y="0" fill="#000000" fill-rule="nonzero"/>
            <use xlink:href="#gF4FEF33690E0D3BA0B8D03E8403DDDFC" x="615.273" y="0" fill="#000000" fill-rule="nonzero"/>
            <use xlink:href="#g6EDEC7CFE0FF41E4C99195D7FA267726" x="632.799" y="0" fill="#000000" fill-rule="nonzero"/>
            <use xlink:href="#gB343D807E1CB93F472B90F9E10F3FC37" x="643.31" y="0" fill="#000000" fill-rule="nonzero"/>
            <use xlink:href="#gDA27726B7C89943A61F15D2B642599F0" x="655.776" y="0" fill="#000000" fill-rule="nonzero"/>
            <use xlink:href="#gA708B7317D066AACA16A8CF1BCCF9219" x="673.164" y="0" fill="#000000" fill-rule="nonzero"/>
            <use xlink:href="#g8394266AEDBDAE5791EC8B20E560D183" x="680.432" y="0" fill="#000000" fill-rule="nonzero"/>
            <use xlink:href="#gBDDF711540E9D8CD85D8E10D69FAB298" x="692.806" y="0" fill="#000000" fill-rule="nonzero"/>
        </g>
        <g class="typst-group">
            <g>
                <g class="typst-text" transform="matrix(1 0 0 -1 28.346456692913385 104.22345669291337)">
                    <use xlink:href="#g39A8423162778569ECD4747BFA738685" x="0" y="0" fill="#000000" fill-rule="nonzero"/>
                    <use xlink:href="#g6EDEC7CFE0FF41E4C99195D7FA267726" x="17.181" y="0" fill="#000000" fill-rule="nonzero"/>
                    <use xlink:href="#gA708B7317D066AACA16A8CF1BCCF9219" x="27.692" y="0" fill="#000000" fill-rule="nonzero"/>
                    <use xlink:href="#gBDDF711540E9D8CD85D8E10D69FAB298" x="34.96" y="0" fill="#000000" fill-rule="nonzero"/>
                    <use xlink:href="#g9390E41BB8FAB9F56F81F195EEEF9575" x="45.241" y="0" fill="#000000" fill-rule="nonzero"/>
                    <use xlink:href="#g6EDEC7CFE0FF41E4C99195D7FA267726" x="59.547" y="0" fill="#000000" fill-rule="nonzero"/>
                    <use xlink:href="#g28E39A6866B5D79D9C6AA1FEFC6D616B" x="70.05799999999999" y="0" fill="#000000" fill-rule="nonzero"/>
                    <use xlink:href="#gA708B7317D066AACA16A8CF1BCCF9219" x="84.77799999999999" y="0" fill="#000000" fill-rule="nonzero"/>
                    <use xlink:href="#g8394266AEDBDAE5791EC8B20E560D183" x="92.04599999999999" y="0" fill="#000000" fill-rule="nonzero"/>
                    <use xlink:href="#gBDDF711540E9D8CD85D8E10D69FAB298" x="104.41999999999999" y="0" fill="#000000" fill-rule="nonzero"/>
                    <use xlink:href="#g9CBD281D7A29E4AC748208EE0E06C698" x="120.451" y="0" fill="#000000" fill-rule="nonzero"/>
                    <use xlink:href="#gB5C2AF791EB11DC382D7D52C5245183A" x="130.295" y="0" fill="#000000" fill-rule="nonzero"/>
                    <use xlink:href="#gF08C01CE4B15EB9A355572885E9E40A7" x="136.367" y="0" fill="#000000" fill-rule="nonzero"/>
                    <use xlink:href="#g28E39A6866B5D79D9C6AA1FEFC6D616B" x="147.959" y="0" fill="#000000" fill-rule="nonzero"/>
                    <use xlink:href="#gBDDF711540E9D8CD85D8E10D69FAB298" x="156.929" y="0" fill="#000000" fill-rule="nonzero"/>
                    <use xlink:href="#gDA27726B7C89943A61F15D2B642599F0" x="167.371" y="0" fill="#000000" fill-rule="nonzero"/>
                    <use xlink:href="#g28E39A6866B5D79D9C6AA1FEFC6D616B" x="184.75900000000001" y="0" fill="#000000" fill-rule="nonzero"/>
                    <use xlink:href="#g7832ADFD69B84C3E0E9C6BC3C8AD6625" x="193.729" y="0" fill="#000000" fill-rule="nonzero"/>
                    <use xlink:href="#g28E39A6866B5D79D9C6AA1FEFC6D616B" x="205.574" y="0" fill="#000000" fill-rule="nonzero"/>
                    <use xlink:href="#gA708B7317D066AACA16A8CF1BCCF9219" x="214.544" y="0" fill="#000000" fill-rule="nonzero"/>
                    <use xlink:href="#gBDDF711540E9D8CD85D8E10D69FAB298" x="221.812" y="0" fill="#000000" fill-rule="nonzero"/>
                    <use xlink:href="#gF6B0282C592AC9F033DCF38E9D7F9F7" x="232.09300000000002" y="0" fill="#000000" fill-rule="nonzero"/>
                    <use xlink:href="#g923E16E4247930409E41F1DB1D58DC4B" x="250.26300000000003" y="0" fill="#000000" fill-rule="nonzero"/>
                    <use xlink:href="#g8394266AEDBDAE5791EC8B20E560D183" x="261.07300000000004" y="0" fill="#000000" fill-rule="nonzero"/>
                    <use xlink:href="#gF08C01CE4B15EB9A355572885E9E40A7" x="273.44700000000006" y="0" fill="#000000" fill-rule="nonzero"/>
                    <use xlink:href="#g39A8423162778569ECD4747BFA738685" x="284.87800000000004" y="0" fill="#000000" fill-rule="nonzero"/>
                    <use xlink:href="#gDA27726B7C89943A61F15D2B642599F0" x="307.809" y="0" fill="#000000" fill-rule="nonzero"/>
                    <use xlink:href="#gF08C01CE4B15EB9A355572885E9E40A7" x="319.447" y="0" fill="#000000" fill-rule="nonzero"/>
                    <use xlink:href="#g39A8423162778569ECD4747BFA738685" x="336.789" y="0" fill="#000000" fill-rule="nonzero"/>
                    <use xlink:href="#gF08C01CE4B15EB9A355572885E9E40A7" x="353.786" y="0" fill="#000000" fill-rule="nonzero"/>
                    <use xlink:href="#g9390E41BB8FAB9F56F81F195EEEF9575" x="365.378" y="0" fill="#000000" fill-rule="nonzero"/>
                    <use xlink:href="#gF4FEF33690E0D3BA0B8D03E8403DDDFC" x="373.93399999999997" y="0" fill="#000000" fill-rule="nonzero"/>
                    <use xlink:href="#gBB4539A6CAE80D82A7675AF984049FB3" x="391.46" y="0" fill="#000000" fill-rule="nonzero"/>
                </g>
                <g class="typst-text" transform="matrix(1 0 0 -1 426.6604566929134 104.22345669291337)">
                    <use xlink:href="#g87E9C1ECE905D2468028549FFA93098D" x="0" y="0" fill="#000000" fill-rule="nonzero"/>
                </g>
                <g class="typst-text" transform="matrix(1 0 0 -1 451.4084566929134 104.22345669291337)">
                    <use xlink:href="#gE25B5A9D2AC0EB5280483D3B350DAD14" x="0" y="0" fill="#000000" fill-rule="nonzero"/>
                    <use xlink:href="#g923E16E4247930409E41F1DB1D58DC4B" x="6.854" y="0" fill="#000000" fill-rule="nonzero"/>
                    <use xlink:href="#g8394266AEDBDAE5791EC8B20E560D183" x="17.664" y="0" fill="#000000" fill-rule="nonzero"/>
                    <use xlink:href="#gBDDF711540E9D8CD85D8E10D69FAB298" x="30.038000000000004" y="0" fill="#000000" fill-rule="nonzero"/>
                    <use xlink:href="#g6EDEC7CFE0FF41E4C99195D7FA267726" x="40.319" y="0" fill="#000000" fill-rule="nonzero"/>
                    <use xlink:href="#gA708B7317D066AACA16A8CF1BCCF9219" x="50.830000000000005" y="0" fill="#000000" fill-rule="nonzero"/>
                    <use xlink:href="#gBB4539A6CAE80D82A7675AF984049FB3" x="63.848000000000006" y="0" fill="#000000" fill-rule="nonzero"/>
                </g>
                <g class="typst-text" transform="matrix(1 0 0 -1 522.1104566929133 104.22345669291337)">
                    <use xlink:href="#g956D631B36A8F4E90FBFC7EF8A5A0FA" x="0" y="0" fill="#000000" fill-rule="nonzero"/>
                </g>
                <g class="typst-text" transform="matrix(1 0 0 -1 540.3034566929133 104.22345669291337)">
                    <use xlink:href="#gE25B5A9D2AC0EB5280483D3B350DAD14" x="0" y="0" fill="#000000" fill-rule="nonzero"/>
                    <use xlink:href="#g923E16E4247930409E41F1DB1D58DC4B" x="6.854" y="0" fill="#000000" fill-rule="nonzero"/>
                    <use xlink:href="#g6EDEC7CFE0FF41E4C99195D7FA267726" x="17.664" y="0" fill="#000000" fill-rule="nonzero"/>
                    <use xlink:href="#gB343D807E1CB93F472B90F9E10F3FC37" x="28.175000000000004" y="0" fill="#000000" fill-rule="nonzero"/>
                    <use xlink:href="#gDA27726B7C89943A61F15D2B642599F0" x="40.641000000000005" y="0" fill="#000000" fill-rule="nonzero"/>
                    <use xlink:href="#g53101F28E17FBF7AFD91854E30D810C7" x="58.029" y="0" fill="#000000" fill-rule="nonzero"/>
                    <use xlink:href="#gB343D807E1CB93F472B90F9E10F3FC37" x="64.262" y="0" fill="#000000" fill-rule="nonzero"/>
                    <use xlink:href="#gA708B7317D066AACA16A8CF1BCCF9219" x="76.728" y="0" fill="#000000" fill-rule="nonzero"/>
                    <use xlink:href="#gBDDF711540E9D8CD85D8E10D69FAB298" x="83.996" y="0" fill="#000000" fill-rule="nonzero"/>
                    <use xlink:href="#g9390E41BB8FAB9F56F81F195EEEF9575" x="94.277" y="0" fill="#000000" fill-rule="nonzero"/>
                    <use xlink:href="#gB343D807E1CB93F472B90F9E10F3FC37" x="102.833" y="0" fill="#000000" fill-rule="nonzero"/>
                    <use xlink:href="#g6EDEC7CFE0FF41E4C99195D7FA267726" x="115.29899999999999" y="0" fill="#000000" fill-rule="nonzero"/>
                    <use xlink:href="#gB5C2AF791EB11DC382D7D52C5245183A" x="125.80999999999999" y="0" fill="#000000" fill-rule="nonzero"/>
                    <use xlink:href="#gBDDF711540E9D8CD85D8E10D69FAB298" x="137.63199999999998" y="0" fill="#000000" fill-rule="nonzero"/>
                    <use xlink:href="#gB343D807E1CB93F472B90F9E10F3FC37" x="147.91299999999998" y="0" fill="#000000" fill-rule="nonzero"/>
                    <use xlink:href="#gBDDF711540E9D8CD85D8E10D69FAB298" x="160.379" y="0" fill="#000000" fill-rule="nonzero"/>
                    <use xlink:href="#g9390E41BB8FAB9F56F81F195EEEF9575" x="170.66" y="0" fill="#000000" fill-rule="nonzero"/>
                    <use xlink:href="#gB15B76542432EA88B278B5EE50A1D25B" x="179.216" y="0" fill="#000000" fill-rule="nonzero"/>
                    <use xlink:href="#g7832ADFD69B84C3E0E9C6BC3C8AD6625" x="190.716" y="0" fill="#000000" fill-rule="nonzero"/>
                </g>
            </g>
        </g>
        <g class="typst-group">
            <g>
                <g class="typst-text" transform="matrix(1 0 0 -1 28.346456692913385 134.8824566929134)">
                    <use xlink:href="#gBB4539A6CAE80D82A7675AF984049FB3" x="0" y="0" fill="#000000" fill-rule="nonzero"/>
                </g>
                <g class="typst-text" transform="matrix(1 0 0 -1 35.200456692913384 134.8824566929134)">
                    <use xlink:href="#g11033F3F451634686F1654D0C5A9A0B7" x="0" y="0" fill="#000000" fill-rule="nonzero"/>
                </g>
                <g class="typst-text" transform="matrix(1 0 0 -1 54.35945669291338 134.8824566929134)">
                    <use xlink:href="#gAE33301678F62E6CBE809ACCA3039128" x="0" y="0" fill="#000000" fill-rule="nonzero"/>
                </g>
                <g class="typst-text" transform="matrix(1 0 0 -1 72.48345669291338 134.8824566929134)">
                    <use xlink:href="#gE25B5A9D2AC0EB5280483D3B350DAD14" x="0" y="0" fill="#000000" fill-rule="nonzero"/>
                    <use xlink:href="#g9CBD281D7A29E4AC748208EE0E06C698" x="12.604" y="0" fill="#000000" fill-rule="nonzero"/>
                    <use xlink:href="#g8394266AEDBDAE5791EC8B20E560D183" x="22.448" y="0" fill="#000000" fill-rule="nonzero"/>
                    <use xlink:href="#g6EDEC7CFE0FF41E4C99195D7FA267726" x="34.822" y="0" fill="#000000" fill-rule="nonzero"/>
                    <use xlink:href="#gB343D807E1CB93F472B90F9E10F3FC37" x="45.333000000000006" y="0" fill="#000000" fill-rule="nonzero"/>
                    <use xlink:href="#gB15B76542432EA88B278B5EE50A1D25B" x="57.79900000000001" y="0" fill="#000000" fill-rule="nonzero"/>
                    <use xlink:href="#gBDDF711540E9D8CD85D8E10D69FAB298" x="69.299" y="0" fill="#000000" fill-rule="nonzero"/>
                    <use xlink:href="#g6EDEC7CFE0FF41E4C99195D7FA267726" x="85.33000000000001" y="0" fill="#000000" fill-rule="nonzero"/>
                    <use xlink:href="#g28E39A6866B5D79D9C6AA1FEFC6D616B" x="95.84100000000001" y="0" fill="#000000" fill-rule="nonzero"/>
                    <use xlink:href="#gA708B7317D066AACA16A8CF1BCCF9219" x="110.561" y="0" fill="#000000" fill-rule="nonzero"/>
                    <use xlink:href="#g8394266AEDBDAE5791EC8B20E560D183" x="117.82900000000001" y="0" fill="#000000" fill-rule="nonzero"/>
                    <use xlink:href="#gBDDF711540E9D8CD85D8E10D69FAB298" x="130.203" y="0" fill="#000000" fill-rule="nonzero"/>
                    <use xlink:href="#g39A8423162778569ECD4747BFA738685" x="146.234" y="0" fill="#000000" fill-rule="nonzero"/>
                    <use xlink:href="#g6EDEC7CFE0FF41E4C99195D7FA267726" x="163.41500000000002" y="0" fill="#000000" fill-rule="nonzero"/>
                    <use xlink:href="#gA708B7317D066AACA16A8CF1BCCF9219" x="173.92600000000002" y="0" fill="#000000" fill-rule="nonzero"/>
                    <use xlink:href="#gBDDF711540E9D8CD85D8E10D69FAB298" x="181.19400000000002" y="0" fill="#000000" fill-rule="nonzero"/>
                    <use xlink:href="#g9390E41BB8FAB9F56F81F195EEEF9575" x="191.47500000000002" y="0" fill="#000000" fill-rule="nonzero"/>
                    <use xlink:href="#g28E39A6866B5D79D9C6AA1FEFC6D616B" x="205.78100000000003" y="0" fill="#000000" fill-rule="nonzero"/>
                    <use xlink:href="#gB5C2AF791EB11DC382D7D52C5245183A" x="214.75100000000003" y="0" fill="#000000" fill-rule="nonzero"/>
                    <use xlink:href="#gF08C01CE4B15EB9A355572885E9E40A7" x="220.82300000000004" y="0" fill="#000000" fill-rule="nonzero"/>
                    <use xlink:href="#g39A8423162778569ECD4747BFA738685" x="232.25400000000005" y="0" fill="#000000" fill-rule="nonzero"/>
                    <use xlink:href="#g28E39A6866B5D79D9C6AA1FEFC6D616B" x="249.43500000000006" y="0" fill="#000000" fill-rule="nonzero"/>
                    <use xlink:href="#gA708B7317D066AACA16A8CF1BCCF9219" x="264.1550000000001" y="0" fill="#000000" fill-rule="nonzero"/>
                    <use xlink:href="#gF08C01CE4B15EB9A355572885E9E40A7" x="271.4230000000001" y="0" fill="#000000" fill-rule="nonzero"/>
                    <use xlink:href="#g6EDEC7CFE0FF41E4C99195D7FA267726" x="288.7650000000001" y="0" fill="#000000" fill-rule="nonzero"/>
                    <use xlink:href="#g28E39A6866B5D79D9C6AA1FEFC6D616B" x="305.0260000000001" y="0" fill="#000000" fill-rule="nonzero"/>
                    <use xlink:href="#gA708B7317D066AACA16A8CF1BCCF9219" x="313.99600000000015" y="0" fill="#000000" fill-rule="nonzero"/>
                    <use xlink:href="#gF08C01CE4B15EB9A355572885E9E40A7" x="321.2640000000001" y="0" fill="#000000" fill-rule="nonzero"/>
                    <use xlink:href="#g2D18F0C480219300B90694E310D937E8" x="332.8560000000001" y="0" fill="#000000" fill-rule="nonzero"/>
                    <use xlink:href="#g8C49F4C9E11D6F68FDDD4503E289B435" x="344.7930000000001" y="0" fill="#000000" fill-rule="nonzero"/>
                </g>
            </g>
        </g>
    </g>
    <defs id="glyph">
        <symbol id="g8EE9C12D8EEB1B50AE9F6ECADA57C467" overflow="visible">
            <path d="M 0 0m 18.63 12.995 l -3.5879993 -9.982 l -0.069000244 0.023000002 l -3.1739998 9.705999 c -0.3909998 1.2420006 0.4140005 1.3110008 1.1960001 1.3800001 c 0.13800049 0.13800049 0.13800049 0.6210003 0 0.7589998 c -0.94299984 -0.022999763 -1.9549999 -0.045999527 -2.875 -0.045999527 c -0.7589998 0 -1.5640001 0.022999763 -2.2999997 0.045999527 c -0.13800001 -0.13799953 -0.13800001 -0.62099934 0 -0.7589998 c 1.2189994 -0.06899929 1.7249999 -0.7819996 1.9319997 -1.3800001 l 0.5290003 -1.5179996 c 0.09200001 -0.27600002 0.16100025 -0.50599957 0.16100025 -0.7130003 c 0 -0.22999954 -0.023000717 -0.41399956 -0.20700073 -0.80499935 l -2.9669995 -6.7390003 l -0.11500025 0.023000002 l -3.3579998 10.166 c -0.27600002 0.8050003 0.3449998 0.9200001 1.1500001 0.9659996 c 0.13800001 0.13800049 0.13800001 0.6210003 0 0.7589998 c -0.7590003 -0.022999763 -1.7710001 -0.045999527 -2.6680002 -0.045999527 c -0.80499995 0 -1.4719999 0.022999763 -2.139 0.045999527 c -0.138 -0.13799953 -0.138 -0.62099934 0 -0.7589998 c 1.035 -0.06899929 1.196 -0.09200001 1.633 -1.3339996 l 4.324 -12.443 c 0.11500025 -0.368 0.25300026 -0.621 0.50600004 -0.621 c 0.29900026 0 0.43700027 0.22999999 0.59800005 0.621 l 3.4270005 7.7050004 c 0.20699978 0.46000004 0.27600002 0.5749998 0.3909998 0.5749998 c 0.09200001 0 0.18400002 -0.25300026 0.32199955 -0.64400005 l 2.6450005 -7.636 c 0.13799953 -0.391 0.25300026 -0.621 0.5290003 -0.621 c 0.2529993 0 0.41399956 0.253 0.5289993 0.598 l 4.623001 12.397 c 0.2989998 0.8050003 0.71299934 1.3340006 1.9779987 1.4029999 c 0.13800049 0.13800049 0.13800049 0.6210003 0 0.7589998 c -0.6669998 -0.022999763 -1.4029999 -0.045999527 -2.0009995 -0.045999527 c -0.5979996 0 -1.6100006 0.022999763 -2.5300007 0.045999527 c -0.13799858 -0.13799953 -0.13799858 -0.62099934 0 -0.7589998 c 0.9430008 -0.06899929 1.8630009 -0.13799953 1.5179996 -1.1269999 Z "/>
        </symbol>
        <symbol id="g6EDEC7CFE0FF41E4C99195D7FA267726" overflow="visible">
            <path d="M 0 0m 6.739 1.104 c 0.13800001 -0.71299994 0.39100027 -1.334 1.5409999 -1.334 c 0.87400055 0 1.7020006 0.391 2.1850004 0.851 c -0.04600048 0.27600002 -0.13800049 0.48299998 -0.3909998 0.621 c -0.16100025 -0.13800001 -0.55200005 -0.36799997 -0.8510008 -0.36799997 c -0.6669998 0 -0.6899996 0.897 -0.6899996 1.9549999 v 3.381 c 0 3.2659998 -1.7940001 3.887 -3.473 3.887 c -1.8859999 0 -3.795 -1.2420006 -3.795 -2.553 c 0 -0.55200005 0.27600002 -0.82800007 0.80499995 -0.82800007 c 0.66700006 0 1.0810001 0.4829998 1.0810001 0.78200006 c 0 0.16099977 -0.023000002 0.32200003 -0.069000006 0.41400003 c -0.023000002 0.06899977 -0.046000004 0.20700026 -0.046000004 0.45999956 c 0 0.7130003 0.96599984 0.96600056 1.8399999 0.96600056 c 0.78200006 0 1.8629999 -0.39100075 1.8629999 -2.9900002 c 0 -0.16100025 -0.06899977 -0.25300026 -0.13800001 -0.27600002 l -1.9779997 -0.4829998 c -2.2080002 -0.55200005 -3.795 -1.7710001 -3.795 -3.3350003 c 0 -1.8859999 1.2879999 -2.484 2.898 -2.484 c 0.80500007 0 1.4950001 0.184 2.5069997 0.966 l 0.46000004 0.36799997 Z m 0 4.255 v -3.0360003 c 0 -0.29900002 -0.13800001 -0.45999992 -0.32200003 -0.59799993 c -0.5979996 -0.48300004 -1.3799996 -1.0120001 -2.0239997 -1.0120001 c -1.1500001 0 -1.6560001 0.92 -1.6560001 1.6329999 c 0 1.0350001 0.48300004 2.0930002 2.185 2.53 Z "/>
        </symbol>
        <symbol id="gA708B7317D066AACA16A8CF1BCCF9219" overflow="visible">
            <path d="M 0 0m 0.989 9.867 c -0.32200003 0 -0.41400003 -0.27600002 -0.41400003 -0.46000004 v -0.2989998 c 0 -0.11499977 0.023000002 -0.13799953 0.11500001 -0.13799953 h 1.3569999 v -6.9230003 c 0 -1.6329999 0.71300006 -2.277 1.7710001 -2.277 c 1.0579998 0 2.208 0.506 3.1049998 1.518 c -0.046000004 0.23000002 -0.18400002 0.36800003 -0.41400003 0.39100003 c -0.59800005 -0.46000004 -1.2879996 -0.64400005 -1.8859997 -0.64400005 c -0.6210003 0 -0.75900006 0.69000006 -0.75900006 2.1160002 v 5.8190002 h 2.392 c 0.23000002 0 0.55200005 0.09200001 0.55200005 0.2989998 v 0.46000004 c 0 0.09200001 -0.069000244 0.13799953 -0.18400002 0.13799953 h -2.76 v 0.8970003 c 0 1.4949999 0.09200001 2.415 0.09200001 2.415 c 0 0.13800049 -0.069000006 0.20699978 -0.18400002 0.20699978 c -0.09200001 0 -0.29900002 -0.09200001 -0.50600004 -0.20699978 c -0.25300002 -0.13799953 -0.48300004 -0.25300026 -0.78200006 -0.32199955 c -0.27600002 -0.09200001 -0.5059999 -0.16100025 -0.5059999 -0.3220005 c 0 -0.27600002 0.06899989 -0.11499977 0.06899989 -2.6680002 Z "/>
        </symbol>
        <symbol id="gBDDF711540E9D8CD85D8E10D69FAB298" overflow="visible">
            <path d="M 0 0m 8.878 2.139 c -0.85099983 -0.87399995 -1.5180001 -1.2419999 -2.8520002 -1.2419999 c -0.82800007 0 -1.7940001 0.48299998 -2.507 1.6559999 c -0.46000004 0.75900006 -0.73600006 1.8169999 -0.73600006 3.151 l 6.118 -0.046000004 c 0.27600002 0 0.43700027 0.13800001 0.43700027 0.3909998 c 0 1.9320002 -0.69000053 4.002 -3.887 4.002 c -2.0010002 0 -4.6000004 -1.9089994 -4.6000004 -5.4049997 c 0 -1.2879999 0.32199997 -2.53 1.0810001 -3.4039998 c 0.78199995 -0.91999996 1.863 -1.472 3.519 -1.472 c 1.7479997 0 2.9899998 0.805 3.9099998 2.001 c -0.069000244 0.2299999 -0.20699978 0.3449999 -0.4829998 0.3679999 Z m -6.026 4.347 c 0.43700004 2.599 2.0470002 2.8059998 2.5990002 2.8059998 c 0.8739996 0 1.9089999 -0.4829998 1.9089999 -2.415 c 0 -0.20699978 -0.09200001 -0.32200003 -0.34500027 -0.32200003 Z "/>
        </symbol>
        <symbol id="g9390E41BB8FAB9F56F81F195EEEF9575" overflow="visible">
            <path d="M 0 0m 4.048 8.234 c -0.046000004 0.9200001 -0.06899977 1.5179996 -0.18399978 1.7480001 c -0.046000004 0.11499977 -0.09200001 0.18400002 -0.27600002 0.18400002 c -0.64400005 -0.25300026 -1.2420001 -0.46000004 -2.829 -0.6670008 c -0.046000004 -0.13799953 0 -0.50599957 0.046000004 -0.64400005 c 1.2419999 -0.11499977 1.4949999 -0.22999954 1.4949999 -1.5639997 v -4.4849997 c 0 -1.9089999 -0.27600002 -2.001 -1.7019999 -2.093 c -0.13799998 -0.13800001 -0.13799998 -0.621 0 -0.759 c 0.805 0.023 1.7019999 0.046 2.622 0.046 c 0.91999984 0 1.9779999 -0.023 2.7829998 -0.046 c 0.13800001 0.138 0.13800001 0.621 0 0.759 c -1.6099997 0.11500001 -1.8859997 0.18400002 -1.8859997 2.093 v 3.1969998 c 0 0.59800005 0.27600002 1.1270003 0.55200005 1.5410004 c 0.25299978 0.36800003 0.78200006 1.1270003 1.0580001 1.1270003 c 0.20699978 0 0.41399956 -0.04600048 0.5979996 -0.29900074 c 0.16100025 -0.22999954 0.43700027 -0.5289998 0.82800007 -0.5289998 c 0.55200005 0 1.0810003 0.5750003 1.0810003 1.1500001 c 0 0.43700027 -0.41400003 1.1040001 -1.3800001 1.1040001 c -1.0809999 0 -2.0240002 -1.0120001 -2.553 -1.9090004 c -0.13800001 -0.25299978 -0.25300026 -0.06899929 -0.25300026 0.04600048 Z "/>
        </symbol>
        <symbol id="g53101F28E17FBF7AFD91854E30D810C7" overflow="visible">
            <path d="M 0 0m 4.163 2.806 v 4.5769997 c 0 1.1500001 0.09200001 2.6220002 0.09200001 2.6220002 c 0 0.09200001 -0.11500025 0.16100025 -0.29900002 0.16100025 c -0.64400005 -0.25300026 -1.5640001 -0.46000004 -3.151 -0.6670008 c -0.046000004 -0.13799953 0 -0.50599957 0.046000004 -0.64400005 c 1.2649999 -0.11499977 1.4949999 -0.2529993 1.4949999 -1.5639997 v -4.4849997 c 0 -1.9089999 -0.25300002 -1.9779999 -1.6559999 -2.093 c -0.13800001 -0.13800001 -0.13800001 -0.621 0 -0.759 c 0.759 0.023 1.6559999 0.046 2.576 0.046 c 0.91999984 0 1.7939999 -0.023 2.5530002 -0.046 c 0.13799953 0.138 0.13799953 0.621 0 0.759 c -1.4030004 0.09200001 -1.6560001 0.18400002 -1.6560001 2.093 Z m -2.0930002 10.971001 c 0 -0.5980005 0.55200005 -1.1960001 1.1040001 -1.1960001 c 0.64400005 0 1.1959999 0.62099934 1.1959999 1.1040001 c 0 0.55200005 -0.4829998 1.1959991 -1.1039999 1.1959991 c -0.55200005 0 -1.1960001 -0.5519991 -1.1960001 -1.1039991 Z "/>
        </symbol>
        <symbol id="gB343D807E1CB93F472B90F9E10F3FC37" overflow="visible">
            <path d="M 0 0m 4.232 8.234 c -0.13800001 -0.16100025 -0.27599978 -0.20699978 -0.27599978 0 c -0.023000002 0.62099934 -0.069000006 1.5179996 -0.18400002 1.7480001 c -0.046000004 0.11499977 -0.09200001 0.18400002 -0.27600002 0.18400002 c -0.64400005 -0.25300026 -1.2420001 -0.46000004 -2.829 -0.6670008 c -0.046000004 -0.13799953 0 -0.50599957 0.046000004 -0.64400005 c 1.2420001 -0.11499977 1.4949999 -0.22999954 1.4949999 -1.5639997 v -4.4849997 c 0 -1.8859999 -0.2299999 -1.9779999 -1.6099999 -2.093 c -0.13799998 -0.13800001 -0.13799998 -0.621 0 -0.759 c 0.69 0.023 1.6099999 0.046 2.53 0.046 c 0.91999984 0 1.6099999 -0.023 2.3 -0.046 c 0.13800001 0.138 0.13800001 0.621 0 0.759 c -1.1729999 0.11500001 -1.4029999 0.20700002 -1.4029999 2.093 v 3.772 c 0 0.4829998 0.20699978 0.7589998 0.3909998 0.9660001 c 0.8740001 0.8510003 1.9089999 1.3569999 2.8060002 1.3569999 c 0.46000004 0 0.94299984 -0.2989998 1.2189999 -0.82800007 c 0.2300005 -0.46000004 0.27600002 -1.0809999 0.27600002 -1.7709999 v -3.496 c 0 -1.8859999 -0.22999954 -1.9779999 -1.4260001 -2.093 c -0.11499977 -0.13800001 -0.11499977 -0.621 0 -0.759 c 0.69000006 0.023 1.4260001 0.046 2.3460002 0.046 c 0.9200001 0 1.7480001 -0.023 2.4379997 -0.046 c 0.11499977 0.138 0.11499977 0.621 0 0.759 c -1.2880001 0.11500001 -1.5409994 0.20700002 -1.5409994 2.093 v 3.4269998 c 0 1.2650003 -0.09200001 2.3690004 -0.6210003 3.0819998 c -0.3909998 0.5060005 -1.1040001 0.78200054 -1.9090004 0.78200054 c -1.1269999 0 -2.4149995 -0.2989998 -3.7719998 -1.8629999 Z "/>
        </symbol>
        <symbol id="g28E39A6866B5D79D9C6AA1FEFC6D616B" overflow="visible">
            <path d="M 0 0m 1.104 3.174 c 0.09200001 -1.1270001 0.16100001 -2.208 0.16100001 -3.174 c 0.23000002 0.046 0.46000004 0.069 0.57500005 0.069 c 0.1609999 0 0.2989999 0 0.45999992 -0.045999996 c 0.62100005 -0.161 1.2420001 -0.253 2.0930002 -0.253 c 1.2880001 0 3.657 0.621 3.657 2.898 c 0 1.5639999 -1.1270003 2.484 -2.691 3.0590003 c -1.3800001 0.5289998 -2.3000002 0.8739996 -2.3000002 2.139 c 0 0.94299984 0.82800007 1.4720001 1.6100001 1.4720001 c 0.50600004 0 1.8399997 -0.18400002 2.139 -2.1390004 c 0.13800001 -0.13800001 0.59800005 -0.11499977 0.73600006 0.02300024 c 0.06899977 0.82800007 0.11499977 1.6789999 0.13800001 2.4379997 c -0.7130003 0.11499977 -1.8169999 0.43700027 -3.013 0.43700027 c -1.7020001 0 -3.243 -1.1040001 -3.243 -2.5760002 c 0 -1.6789999 0.75899994 -2.3919997 2.5300002 -3.1279998 c 1.9090002 -0.78200006 2.346 -1.2650001 2.346 -2.2540002 c 0 -1.127 -1.1040001 -1.6099999 -1.9549999 -1.6099999 c -0.8970001 0 -1.4030001 0.29900002 -1.6330001 0.552 c -0.50600004 0.52900004 -0.75899994 1.541 -0.89699996 2.1160002 c -0.13800001 0.13800001 -0.57500005 0.11500001 -0.71300006 -0.023000002 Z "/>
        </symbol>
        <symbol id="gDA27726B7C89943A61F15D2B642599F0" overflow="visible">
            <path d="M 0 0m 7.682 1.15 c 0.11499977 0.09200001 0.32199955 0.13800001 0.34500027 -0.023000002 c 0.06899929 -0.552 0.2529993 -1.357 0.2529993 -1.357 c 0.18400002 -0.06899999 0.29900074 -0.04599999 0.43700027 0 c 0.50599957 0.414 1.3109999 0.759 2.7139997 0.92 c 0.13800049 0.13800001 0.13800049 0.48299998 0 0.621 c -1.4720001 0.11500001 -1.6789999 0.55200005 -1.6789999 1.679 v 10.419001 c 0 1.4949999 0.09200001 2.415 0.09200001 2.415 c 0 0.1609993 -0.09200001 0.2300005 -0.2989998 0.2300005 c -0.5749998 -0.2300005 -2.3000002 -0.552001 -3.2200003 -0.62100124 c -0.046000004 -0.18400002 0 -0.55200005 0.13800001 -0.6899996 c 0.069000244 0 0.13800001 0 0.20700026 0 c 1.0120001 -0.069000244 1.2649999 -0.069000244 1.2649999 -1.8859997 v -2.9440002 c 0 -0.16100025 -0.046000004 -0.20699978 -0.20699978 -0.20699978 c -0.09200001 0 -1.0350003 0.3909998 -1.7940001 0.3909998 c -1.5180001 0 -2.53 -0.5060005 -3.45 -1.3800001 c -0.98899996 -0.98899984 -1.5869999 -2.3460002 -1.5869999 -4.048 c 0 -2.829 1.4259999 -4.899 3.91 -4.899 c 0.89699984 0 1.7479997 0.46 2.875 1.38 Z m 0.25299978 1.702 c 0 -0.43700004 -0.046000004 -0.62100005 -0.36800003 -0.89699996 c -0.85099983 -0.73600006 -1.5869999 -1.1040001 -2.1619997 -1.1040001 c -1.2420001 0 -2.5300002 1.3569999 -2.5300002 4.2320004 c 0 1.6559997 0.32200003 2.5759997 0.66700006 3.059 c 0.71300006 1.0809994 1.6790001 1.1499996 2.1390002 1.1499996 c 0.8279996 0 1.4029999 -0.2989998 1.8629999 -0.82800007 c 0.32200003 -0.36800003 0.3909998 -0.5289998 0.3909998 -1.2419996 Z "/>
        </symbol>
        <symbol id="gB15B76542432EA88B278B5EE50A1D25B" overflow="visible">
            <path d="M 0 0m 10.212 8.901 c 0.43700027 0 0.85099983 0.41399956 0.85099983 0.8739996 c 0 0.48300076 -0.43699932 0.8510008 -1.0579996 0.8510008 c -0.5980005 0 -1.7019997 -0.39100075 -2.3000002 -1.1730003 c -0.27600002 0.18400002 -1.0349998 0.64400005 -2.3919997 0.64400005 c -2.0470002 0 -3.933 -1.3800001 -3.933 -3.4960003 c 0 -1.2419996 0.55200005 -1.9549999 1.196 -2.5759997 c -0.64399993 -0.55200005 -1.012 -1.5410001 -1.012 -2.323 c 0 -0.828 0.45999992 -1.472 1.058 -1.771 c -1.242 -0.736 -1.8859999 -1.794 -1.8859999 -2.783 c 0 -2.0010002 1.8859999 -2.622 3.657 -2.622 c 3.105 0 6.463 1.4949999 6.463 3.979 c 0 0.736 -0.34500027 1.311 -1.0120001 1.863 c -0.8970003 0.73599994 -2.507 0.75899994 -3.3579998 0.75899994 c -0.41400003 0 -0.98899984 -0.046000004 -1.5409999 -0.11500001 c -0.34500027 -0.022999942 -0.5750003 -0.045999944 -0.69000006 -0.045999944 c -0.66700006 0 -1.4720001 0.32199997 -1.4720001 1.3109999 c 0 0.46000004 0.13800001 0.9430001 0.41400003 1.3340001 c 0.55200005 -0.32200003 1.1960001 -0.48300004 2.093 -0.48300004 c 2.0240002 0 3.887 1.2650001 3.887 3.5189998 c 0 1.0810003 -0.3220005 1.7020001 -0.9890003 2.3919997 c 0.16100025 0.2300005 0.6210003 0.55200005 0.9200001 0.55200005 c 0.16100025 0 0.3220005 -0.06899929 0.46000004 -0.27600002 c 0.09200001 -0.18400002 0.3909998 -0.41399956 0.64400005 -0.41399956 Z m -7.1759996 -9.131 c 0.25300002 -0.06899999 0.62100005 -0.114999995 0.9200001 -0.114999995 c 0.71300006 0 1.3570001 0.069000006 1.6790001 0.069000006 c 1.1499996 0 2.1159997 -0.023000002 2.783 -0.391 c 0.89699936 -0.506 1.1729994 -0.828 1.1729994 -1.4259999 c 0 -1.6560001 -2.4379997 -2.5300002 -4.5079994 -2.5300002 c -0.82800007 0 -2.7600002 0.66700006 -2.7600002 2.2310002 c 0 0.78199995 0.046000004 1.357 0.71300006 2.162 Z m 4.3009996 6.647 c 0 -2.139 -1.0809999 -2.5759997 -1.9319997 -2.5759997 c -1.9320002 0 -2.1390002 1.6329999 -2.1390002 3.105 c 0 1.6099997 0.57500005 2.4379997 1.8399999 2.4379997 c 1.4489999 0 2.231 -1.0579996 2.231 -2.967 Z "/>
        </symbol>
        <symbol id="g9CBD281D7A29E4AC748208EE0E06C698" overflow="visible">
            <path d="M 0 0m 9.154 2.093 c -0.09200001 0.20700002 -0.27600002 0.29900002 -0.4829998 0.32200003 c -0.78200054 -1.012 -1.7710004 -1.5179999 -2.7600007 -1.5179999 c -1.6789999 0 -3.0819998 1.7019999 -3.0819998 4.393 c 0 2.5300002 1.1040001 4.0480003 2.6220002 4.0480003 c 1.3569999 0 1.5409999 -0.8050003 1.6329999 -1.6100001 c 0.06899977 -0.6210003 0.3909998 -0.82800007 0.8740001 -0.82800007 c 0.4829998 0 1.1269999 0.2989998 1.1269999 1.0120001 c 0 1.2649999 -1.3109999 2.185 -3.519 2.185 c -2.277 0 -4.715 -2.047 -4.715 -5.313 c 0 -2.967 1.6559999 -5.014 4.5540004 -5.014 c 1.3799996 0 2.5989995 0.437 3.749 2.323 Z "/>
        </symbol>
        <symbol id="g7832ADFD69B84C3E0E9C6BC3C8AD6625" overflow="visible">
            <path d="M 0 0m 4.692 -3.68 c 0.36800003 0.64400005 0.6670003 1.2880001 0.9430003 1.978 c 1.8399997 4.439 2.875 6.808 4.071 9.384 c 0.46000004 0.9659996 0.7819996 1.3339996 1.8629999 1.4720001 c 0.13799953 0.13799953 0.13799953 0.62099934 0 0.7589998 c -0.46000004 -0.022999763 -0.9890003 -0.04600048 -1.6330004 -0.04600048 c -0.6899996 0 -1.4029999 0.023000717 -2.093 0.04600048 c -0.13800001 -0.13800049 -0.13800001 -0.6210003 0 -0.7589998 c 0.73600054 -0.069000244 1.4719996 -0.20700073 1.1039996 -1.0349998 l -2.2769995 -5.267 c -0.16100025 -0.36800003 -0.36800003 -0.43700004 -0.55200005 0.023000002 l -2.047 4.784 c -0.41400003 0.9660001 -0.52900004 1.4030004 0.7589998 1.4950004 c 0.13800001 0.13799953 0.13800001 0.62099934 0 0.7589998 c -0.85099983 -0.022999763 -1.7709999 -0.04600048 -2.599 -0.04600048 c -0.78199995 0 -1.4029999 0.023000717 -1.8629999 0.04600048 c -0.138 -0.13800049 -0.138 -0.6210003 0 -0.7589998 c 0.91999996 -0.115000725 1.219 -0.3220005 1.8169999 -1.7250004 l 2.599 -6.049 c 0.20700026 -0.45999998 0.55200005 -1.518 0.32200003 -2.162 c -0.27600002 -0.759 -0.55200005 -1.4029999 -0.89699984 -2.116 c -0.25300002 -0.46000004 -0.57500005 -0.66700006 -1.1500001 -0.66700006 c -0.32200003 0 -0.41400003 0.069000006 -0.66700006 0.069000006 c -0.66699994 0 -1.012 -0.6899998 -1.012 -0.9890001 c 0 -0.4829998 0.46000004 -0.85099983 1.081 -0.85099983 c 0.48300004 0 1.4030001 0.18400002 2.231 1.6559999 Z "/>
        </symbol>
        <symbol id="gB5C2AF791EB11DC382D7D52C5245183A" overflow="visible">
            <path d="M 0 0m 2.185 2.806 c 0 -1.9089999 -0.2529999 -2.024 -1.6559999 -2.093 c -0.13799998 -0.13800001 -0.13799998 -0.621 0 -0.759 c 0.805 0.023 1.6559999 0.046 2.576 0.046 c 0.9200001 0 1.7940001 -0.023 2.553 -0.046 c 0.13800001 0.138 0.13800001 0.621 0 0.759 c -1.4029999 0.069000006 -1.6560001 0.18400002 -1.6560001 2.093 v 10.603001 c 0 1.4949999 0.09200001 2.415 0.09200001 2.415 c 0 0.1609993 -0.09200001 0.2300005 -0.2989998 0.2300005 c -0.57500005 -0.2300005 -2.3000002 -0.552001 -3.22 -0.62100124 c -0.046000004 -0.18400002 0 -0.55200005 0.13800001 -0.6899996 c 1.3339999 -0.09200001 1.4719999 -0.16100025 1.4719999 -1.8859997 Z "/>
        </symbol>
        <symbol id="g9B7F9713B4E9EFEB34E9BA215EB9194E" overflow="visible">
            <path d="M 0 0m 4.991 -0.23 c 0.89699984 0 1.9779997 0.46 3.1049995 1.38 c 0.115000725 0.09200001 0.3220005 0.13800001 0.34500027 -0.023000002 c 0.069000244 -0.575 0.25300026 -1.357 0.25300026 -1.357 c 0.18400002 -0.06899999 0.2989998 -0.04599999 0.43699932 0 c 0.5060005 0.414 1.3110008 0.759 2.7140007 0.92 c 0.13799953 0.13800001 0.13799953 0.48299998 0 0.621 c -1.4720001 0.11500001 -1.6789999 0.55200005 -1.6789999 1.679 v 4.4160004 c 0 0.6899996 0.09200001 2.3689995 0.09200001 2.3689995 c 0 0.069000244 -0.069000244 0.13800049 -0.18400002 0.13800049 c -0.115000725 -0.022999763 -0.46000004 -0.04600048 -0.8050003 -0.04600048 c -0.73600006 0 -1.5640001 0.023000717 -2.3460002 0.04600048 c -0.13800001 -0.13800049 -0.13800001 -0.6210003 0 -0.7589998 c 1.1270003 -0.069000244 1.4260001 -0.34500027 1.4260001 -1.8630004 v -4.439 c 0 -0.43700004 -0.045999527 -0.62100005 -0.36800003 -0.89699996 c -0.85099983 -0.73600006 -1.7249999 -1.1040001 -2.2999997 -1.1040001 c -0.69000006 0 -1.8400002 0.32199997 -1.8400002 2.369 v 4.186 c 0 0.6899996 0.09200001 2.3689995 0.09200001 2.3689995 c 0 0.069000244 -0.069000006 0.13800049 -0.18400002 0.13800049 c -0.11500001 -0.022999763 -0.46000004 -0.04600048 -0.80500007 -0.04600048 c -0.73600006 0 -1.564 0.023000717 -2.346 0.04600048 c -0.13799998 -0.13800049 -0.13799998 -0.6210003 0 -0.7589998 c 1.1040001 -0.09200001 1.4259999 -0.34500027 1.4259999 -1.8400002 v -4.4160004 c 0 -1.587 0.69000006 -3.128 2.9670002 -3.128 Z "/>
        </symbol>
        <symbol id="gF4FEF33690E0D3BA0B8D03E8403DDDFC" overflow="visible">
            <path d="M 0 0m 1.978 2.806 c 0 -1.9089999 -0.25300002 -2.001 -1.541 -2.093 c -0.13800001 -0.13800001 -0.13800001 -0.621 0 -0.759 c 0.75899994 0.023 1.541 0.046 2.461 0.046 c 0.80500007 0 1.5639999 -0.023 2.0930002 -0.046 c 0.13800001 0.138 0.13800001 0.621 0 0.759 c -0.9430003 0.09200001 -1.1960001 0.18400002 -1.1960001 2.093 v 2.0010002 c 0.4369998 -0.02300024 0.7589998 -0.046000004 0.98899984 -0.11500025 c 0.25300026 -0.18400002 0.46000004 -0.3909998 0.73600006 -0.7589998 l 1.6789999 -2.2540002 c 0.6670003 -0.897 0.9430003 -1.334 0.9660001 -1.61 c 0 -0.069 0.022999763 -0.114999995 0.09200001 -0.114999995 c 0.46000004 0.023 0.9659996 0.046 1.4259996 0.046 c 0.7130003 0 1.4260006 -0.023 1.8860006 -0.046 c 0.13799953 0.138 0.13799953 0.621 0 0.759 c -0.78200054 0.09200001 -1.3570004 0.18400002 -1.9780006 0.966 l -3.0359998 3.8180003 c -0.09200001 0.11499977 -0.16099977 0.20699978 -0.16099977 0.32200003 c 0 0.09199953 0 0.13799953 0.09200001 0.22999954 l 2.0240002 2.0930004 c 0.6899996 0.73600006 1.4949999 0.9200001 2.415 1.0120001 c 0.13799953 0.13799953 0.13799953 0.62099934 0 0.7589998 c -0.5290003 -0.022999763 -1.1730003 -0.04600048 -2.0010004 -0.04600048 c -0.8739996 0 -1.7249999 0.023000717 -2.2539997 0.04600048 c -0.13800001 -0.13800049 -0.13800001 -0.6210003 0 -0.7589998 c 1.2880001 -0.09200001 0.73600006 -0.8970003 0.5289998 -1.1730003 c -0.5289998 -0.6669998 -1.2420001 -1.4489999 -1.8399997 -1.8860002 c -0.50600004 -0.36799955 -1.1270003 -0.6439996 -1.5640001 -0.7129998 v 8.027 c 0 1.4949999 0.09200001 2.415 0.09200001 2.415 c 0 0.1609993 -0.09200001 0.2300005 -0.29900002 0.2300005 c -0.57500005 -0.2300005 -2.3000002 -0.552001 -3.22 -0.62100124 c -0.046000004 -0.18400002 0 -0.55200005 0.13799998 -0.6899996 c 0.069000006 0 0.13800001 0 0.20700002 0 c 1.0120001 -0.069000244 1.2650001 -0.069000244 1.2650001 -1.8859997 Z "/>
        </symbol>
        <symbol id="gF08C01CE4B15EB9A355572885E9E40A7" overflow="visible">
            <path d="M 0 0m 0.943 4.715 c 0 -2.3460002 1.5639999 -4.945 4.8300004 -4.945 c 1.4719996 0 2.5989995 0.529 3.381 1.288 c 1.0349998 1.012 1.4949999 2.461 1.4949999 3.8639998 c 0 2.3920002 -1.3109999 5.175 -4.83 5.175 c -1.5180001 0 -2.7600002 -0.6210003 -3.6110003 -1.6099997 c -0.82799995 -0.9890003 -1.2649999 -2.3230004 -1.2649999 -3.7720003 Z m 4.531 4.5769997 c 1.9780002 0 3.1970005 -1.7939997 3.1970005 -5.106 c 0 -2.8979998 -1.4950004 -3.6109998 -2.5760007 -3.6109998 c -2.3919997 0 -3.1739998 2.898 -3.1739998 4.669 c 0 2.001 0.48300004 4.048 2.553 4.048 Z "/>
        </symbol>
        <symbol id="gBF011CE9AAE1D3C07BA7900E99485927" overflow="visible">
            <path d="M 0 0m 4.025 8.97 h 4.4620004 v -6.9230003 c 0 -1.6329999 0.71299934 -2.277 1.7709999 -2.277 c 1.0579996 0 2.2079992 0.506 3.1049995 1.518 c -0.045999527 0.23000002 -0.18400002 0.36800003 -0.41399956 0.39100003 c -0.5980005 -0.46000004 -1.2880001 -0.64400005 -1.8860006 -0.64400005 c -0.62099934 0 -0.7589998 0.69000006 -0.7589998 2.1160002 v 5.8190002 h 2.3920002 c 0.22999954 0 0.55200005 0.09200001 0.55200005 0.2989998 v 0.46000004 c 0 0.09200001 -0.069000244 0.13799953 -0.18400002 0.13799953 h -2.7600002 v 0.8970003 c 0 1.4949999 0.09200001 2.415 0.09200001 2.415 c 0 0.16100025 -0.09200001 0.2300005 -0.2989998 0.2300005 l -1.3339996 -0.5980005 c -0.023000717 -0.022999763 -0.069000244 -0.045999527 -0.115000725 -0.069000244 c -0.11499977 -0.045999527 -0.20699978 -0.11499977 -0.20699978 -0.22999954 c 0.04600048 -0.5060005 0.04600048 -0.7130003 0.04600048 -2.3920002 c 0 -0.09200001 0 -0.16100025 0 -0.25300026 h -4.4620004 v 1.3110008 c 0 0.3909998 0 0.7819996 0 1.1269999 c -0.02300024 0.9659996 -0.046000004 1.7019997 0.09200001 2.0929995 c 0.18400002 0.55200005 0.69000006 0.87400055 1.0349998 0.87400055 c 0.64400005 0 0.9660001 -0.39100075 1.2420001 -1.0580006 c 0.16099977 -0.3909998 0.4369998 -0.64400005 0.89699984 -0.64400005 c 0.43700027 0 0.7590003 0.34500027 0.7590003 0.82800007 c 0 0.36800003 -0.20700026 0.7589998 -0.6670003 1.1040001 c -0.46000004 0.34500027 -1.1500001 0.552001 -2.0239997 0.552001 c -0.6670003 0 -1.7250001 -0.36800098 -2.2770002 -1.104001 c -0.69000006 -0.9200001 -0.8740001 -2.139 -0.8740001 -4.163 v -0.9200001 h -1.173 c -0.41399997 0 -0.529 -0.27600002 -0.529 -0.46000004 v -0.2989998 c 0 -0.11499977 0.023000002 -0.13799953 0.11500001 -0.13799953 h 1.5869999 v -6.1640005 c 0 -1.9089999 -0.2529999 -2.001 -1.4949999 -2.093 c -0.13800001 -0.13800001 -0.13800001 -0.621 0 -0.759 c 0.782 0.023 1.6099999 0.046 2.415 0.046 c 0.80500007 0 1.7939999 -0.023 2.714 -0.046 c 0.13800001 0.138 0.13800001 0.621 0 0.759 c -1.5640001 0.09200001 -1.8169999 0.18400002 -1.8169999 2.093 Z "/>
        </symbol>
        <symbol id="gF6B0282C592AC9F033DCF38E9D7F9F7" overflow="visible">
            <path d="M 0 0m 3.91 8.234 c -0.023000002 0.6899996 -0.069000006 1.5179996 -0.18400002 1.7480001 c -0.046000004 0.11499977 -0.09200001 0.18400002 -0.27600002 0.18400002 c -0.64400005 -0.25300026 -1.2420001 -0.46000004 -2.829 -0.6670008 c -0.046000004 -0.13799953 0 -0.50599957 0.046000004 -0.64400005 c 1.2420001 -0.11499977 1.4949999 -0.22999954 1.4949999 -1.5639997 v -4.4849997 c 0 -1.8859999 -0.2989999 -2.001 -1.5639999 -2.093 c -0.13799998 -0.13800001 -0.13799998 -0.621 0 -0.759 c 0.69 0.023 1.5639999 0.046 2.484 0.046 c 0.91999984 0 1.6330001 -0.023 2.3230002 -0.046 c 0.13800001 0.138 0.13800001 0.621 0 0.759 c -1.1730003 0.11500001 -1.4260001 0.20700002 -1.4260001 2.093 v 3.772 c 0 0.4829998 0.20699978 0.7589998 0.3909998 0.9660001 c 0.9200001 0.89699984 1.7709999 1.3569999 2.4840002 1.3569999 c 0.8740001 0 1.5179996 -0.55200005 1.5179996 -2.093 v -4.002 c 0 -1.8859999 -0.18400002 -2.001 -1.4259996 -2.093 c -0.11500025 -0.13800001 -0.11500025 -0.621 0 -0.759 c 0.5749998 0.023 1.4259996 0.046 2.3459997 0.046 c 0.9200001 0 1.6789999 -0.023 2.2540007 -0.046 c 0.11499977 0.138 0.11499977 0.621 0 0.759 c -1.1500006 0.09200001 -1.3570004 0.20700002 -1.3570004 2.093 v 3.6569998 c 0 0.32200003 0 0.64400005 -0.022999763 0.9200001 c 1.1040001 1.2190003 2.139 1.5180001 3.0359993 1.5180001 c 0.87400055 0 1.3800001 -0.50599957 1.3800001 -2.047 v -4.0480003 c 0 -1.8859999 -0.22999954 -2.001 -1.4259996 -2.093 c -0.11499977 -0.13800001 -0.11499977 -0.621 0 -0.759 c 0.5749998 0.023 1.4259996 0.046 2.3459997 0.046 c 0.92000103 0 1.7249994 -0.023 2.3690004 -0.046 c 0.11499977 0.138 0.11499977 0.621 0 0.759 c -1.2649994 0.09200001 -1.4720001 0.20700002 -1.4720001 2.093 v 3.634 c 0 2.0470004 -0.3449993 3.657 -2.3690004 3.657 c -1.1729994 0 -2.599 -0.43700027 -3.795 -1.7019997 c -0.06899929 -0.069000244 -0.20699978 -0.18400002 -0.2529993 0.022999763 c -0.20700073 0.94299984 -1.1040001 1.6789999 -2.3000002 1.6789999 c -1.3340001 0 -2.5300002 -0.78200054 -3.4960003 -1.8629999 c -0.11499977 -0.11499977 -0.25299978 -0.27600002 -0.27599978 0 Z "/>
        </symbol>
        <symbol id="g8394266AEDBDAE5791EC8B20E560D183" overflow="visible">
            <path d="M 0 0m 3.841 6.578 c 0 0.4829998 0.20699978 0.7589998 0.3909998 0.9660001 c 0.8740001 0.8510003 2.047 1.3569999 2.9440002 1.3569999 c 0.46000004 0 0.9430003 -0.2989998 1.2190003 -0.82800007 c 0.22999954 -0.46000004 0.27600002 -1.0809999 0.27600002 -1.7709999 v -3.496 c 0 -1.8859999 -0.2300005 -1.9779999 -1.4260006 -2.093 c -0.11499977 -0.13800001 -0.11499977 -0.621 0 -0.759 c 0.64400005 0.023 1.4260006 0.046 2.3459997 0.046 c 0.9200001 0 1.6790009 -0.023 2.4380007 -0.046 c 0.11499977 0.138 0.11499977 0.621 0 0.759 c -1.2880001 0.11500001 -1.5410004 0.20700002 -1.5410004 2.093 v 3.4269998 c 0 1.2650003 -0.09200001 2.3920002 -0.6210003 3.0819998 c -0.3909998 0.5060005 -1.1039991 0.78200054 -1.9089994 0.78200054 c -1.1270003 0 -2.507 -0.2989998 -3.9100003 -1.8629999 c 0 -0.022999763 -0.022999763 -0.022999763 -0.046000004 -0.04600048 c -0.06899977 -0.09200001 -0.18399978 -0.22999954 -0.18399978 0.04600048 l 0.023000002 5.175 c 0 1.4949999 0.09200001 2.415 0.09200001 2.415 c 0 0.1609993 -0.09200001 0.2300005 -0.29900002 0.2300005 c -0.57500005 -0.2300005 -2.3000002 -0.552001 -3.22 -0.62100124 c -0.046000004 -0.18400002 0 -0.55200005 0.13799998 -0.6899996 c 0.069000006 0 0.13800001 0 0.20700002 0 c 1.0120001 -0.069000244 1.2649999 -0.069000244 1.2649999 -1.8859997 v -10.051001 c 0 -1.9089999 -0.2759999 -2.001 -1.6099999 -2.093 c -0.13800001 -0.13800001 -0.13800001 -0.621 0 -0.759 c 0.75899994 0.023 1.6099999 0.046 2.53 0.046 c 0.8740001 0 1.6330001 -0.023 2.2770002 -0.046 c 0.13800001 0.138 0.13800001 0.621 0 0.759 c -1.1730003 0.09200001 -1.3800001 0.18400002 -1.3800001 2.093 Z "/>
        </symbol>
        <symbol id="g89CCC747E44A011CD9A8A1AAE3D0C2C8" overflow="visible">
            <path d="M 0 0m 4.025 2.806 v 6.1640005 h 2.139 c 0.20699978 0 0.5289998 0.09200001 0.5289998 0.2989998 v 0.46000004 c 0 0.09200001 -0.06899977 0.13799953 -0.18400002 0.13799953 h -2.4839997 v 1.3110008 c 0 3.5419998 1.0580001 4.094 1.8169999 4.094 c 0.69000006 0 1.0580001 -0.27600002 1.3800001 -1.0810003 c 0.18400002 -0.41399956 0.4369998 -0.73600006 0.9200001 -0.73600006 c 0.3909998 0 0.94299984 0.4829998 0.94299984 0.94299984 c 0 0.3909998 -0.25300026 0.8050003 -0.73600006 1.1730003 c -0.59800005 0.41399956 -1.1960001 0.48300076 -2.0700002 0.48300076 c -1.9319997 0 -4.071 -1.6790009 -4.071 -5.267001 v -0.9200001 h -1.173 c -0.41399997 0 -0.529 -0.27600002 -0.529 -0.46000004 v -0.2989998 c 0 -0.11499977 0.023000002 -0.13799953 0.11500001 -0.13799953 h 1.5869999 v -6.1640005 c 0 -1.9089999 -0.3679999 -2.001 -1.6099999 -2.093 c -0.13799998 -0.13800001 -0.13799998 -0.621 0 -0.759 c 0.805 0.023 1.6099999 0.046 2.53 0.046 c 0.91999984 0 2.024 -0.023 2.8289998 -0.046 c 0.13800001 0.138 0.13800001 0.621 0 0.759 c -1.7939997 0.09200001 -1.9319997 0.18400002 -1.9319997 2.093 Z "/>
        </symbol>
        <symbol id="g960D878813C4BBA6AE0DF21B5089C3D" overflow="visible">
            <path d="M 0 0m 7.475 9.154 c 1.2420001 -0.09200001 1.3799996 -0.36800003 0.89699984 -1.5410004 l -1.8629999 -4.508 c -0.36800003 -0.8970001 -0.4829998 -0.8970001 -0.85099983 0.069000006 l -1.6560001 4.439 c -0.4139998 1.1040001 -0.5059998 1.3800001 0.7130003 1.5410004 c 0.13800001 0.13799953 0.13800001 0.62099934 0 0.7589998 c -0.75900006 -0.022999763 -1.5640001 -0.04600048 -2.3230002 -0.04600048 c -0.75899994 0 -1.4489999 0.023000717 -2.139 0.04600048 c -0.13799998 -0.13800049 -0.13799998 -0.6210003 0 -0.7589998 c 1.219 -0.13800049 1.38 -0.5060005 1.8399999 -1.6790004 l 2.9440002 -7.268 c 0.13800001 -0.345 0.27600002 -0.48299998 0.5749998 -0.48299998 c 0.23000002 0 0.3909998 0.138 0.55200005 0.529 l 3.0589995 7.1990004 c 0.43700027 1.0119996 0.69000053 1.5869994 1.9780006 1.7020001 c 0.13799953 0.13799953 0.13799953 0.62099934 0 0.7589998 c -0.46000004 -0.022999763 -1.0120001 -0.04600048 -1.6100006 -0.04600048 c -0.7589998 0 -1.5409994 0.023000717 -2.1159997 0.04600048 c -0.13800001 -0.13800049 -0.13800001 -0.6210003 0 -0.7589998 Z "/>
        </symbol>
        <symbol id="gE7684A05A8ED9E92010F1AB50BE29568" overflow="visible">
            <path d="M 0 0m 1.311 0.989 c 0 -0.66700006 0.55200005 -1.219 1.219 -1.219 c 0.66700006 0 1.2190001 0.552 1.2190001 1.219 c 0 0.667 -0.55200005 1.2189999 -1.2190001 1.2189999 c -0.66699994 0 -1.219 -0.5519999 -1.219 -1.2189999 Z "/>
        </symbol>
        <symbol id="gAE5D06D91D2DE1C4651C92ACB7E3A458" overflow="visible">
            <path d="M 0 0m 4.347 2.806 v 3.8869998 c 1.9319997 0 2.369 -0.3449998 2.691 -0.8739996 l 2.4609995 -4.0020003 c 0.6670008 -1.0810001 1.6560001 -2.047 3.0360003 -2.047 c 0.34500027 0 0.73600006 0.046000004 0.96600056 0.16100001 c 0.09200001 0.161 0.06899929 0.368 -0.023000717 0.552 c -1.0349998 0 -1.6099997 0.78199995 -2.2079992 1.7709999 l -2.8980007 4.83 c 0.9890003 0.32200003 3.059 1.5180001 3.059 3.933 c 0 1.1499996 -0.3909998 2.0929995 -1.2189999 2.875 c -1.1040001 1.0349998 -2.5299997 1.1040001 -3.979 1.1040001 c -1.0809999 0 -2.047 -0.16100025 -2.8749998 -0.16100025 c -0.80500007 0 -1.886 0.022999763 -2.967 0.045999527 c -0.13800001 -0.13799953 -0.13800001 -0.62099934 0 -0.7589998 c 1.6099999 -0.06899929 2.001 -0.18400002 2.001 -2.0929995 v -9.223001 c 0 -1.9089999 -0.39100003 -2.024 -2.001 -2.093 c -0.13800001 -0.13800001 -0.13800001 -0.621 0 -0.759 c 1.035 0.023 2.116 0.046 2.99 0.046 c 0.8740001 0 1.9549999 -0.023 2.967 -0.046 c 0.13800001 0.138 0.13800001 0.621 0 0.759 c -1.6100001 0.069000006 -2.001 0.18400002 -2.001 2.093 Z m 1.9089999 11.408 c 1.4029999 0 3.0589995 -0.50599957 3.0589995 -3.2199993 c 0 -2.875 -1.6329994 -3.5190005 -3.8639994 -3.5190005 h -1.1040001 v 5.2669997 c 0 0.6670008 0.27600002 1.4720001 1.9089999 1.4720001 Z "/>
        </symbol>
        <symbol id="g39A8423162778569ECD4747BFA738685" overflow="visible">
            <path d="M 0 0m 4.669 9.154 c 0.13800001 0.13799953 0.13800001 0.62099934 0 0.7589998 c -0.69000006 -0.022999763 -1.4950001 -0.04600048 -2.3230002 -0.04600048 c -0.87399995 0 -1.4949999 0.023000717 -2.093 0.04600048 c -0.13799998 -0.13800049 -0.13799998 -0.6210003 0 -0.7589998 c 1.081 -0.115000725 1.334 -0.34500027 1.8169999 -1.5410004 l 3.0130002 -7.429 c 0.13800001 -0.322 0.32200003 -0.45999998 0.55200005 -0.45999998 c 0.20699978 0 0.3909998 0.138 0.55199957 0.506 l 2.3230004 5.658 l 2.3689995 -5.704 c 0.13800049 -0.322 0.3220005 -0.45999998 0.55200005 -0.45999998 c 0.20700073 0 0.3909998 0.138 0.5290003 0.48299998 l 3.0129995 7.2910004 c 0.36800003 0.94299984 0.7590008 1.5869999 1.9320011 1.6560001 c 0.13799858 0.13799953 0.13799858 0.62099934 0 0.7589998 c -0.460001 -0.022999763 -0.96600056 -0.04600048 -1.6560011 -0.04600048 c -0.6899996 0 -1.6559992 0.023000717 -2.3459997 0.04600048 c -0.13799953 -0.13800049 -0.13799953 -0.6210003 0 -0.7589998 c 1.7250004 -0.09200001 1.4949999 -0.7589998 1.1730003 -1.5640001 l -1.9320002 -4.7840004 c -0.2300005 -0.57500005 -0.3220005 -0.57500005 -0.50599957 -0.09200001 l -1.9780006 5.0369997 c -0.43700027 1.0809999 -0.3909998 1.3110003 0.82800007 1.4030004 c 0.13800049 0.13799953 0.13800049 0.62099934 0 0.7589998 c -0.6899996 -0.022999763 -1.6099997 -0.04600048 -2.3000002 -0.04600048 c -0.5749998 0 -1.3339996 0.023000717 -2.0239997 0.04600048 c -0.13800001 -0.13800049 -0.13800001 -0.6210003 0 -0.7589998 c 1.0809999 -0.09200001 1.3569999 -0.7589998 1.7709999 -1.7940001 l 0.13800001 -0.36800003 l -1.6100001 -4.071 c -0.2989998 -0.75900006 -0.3449998 -0.78200006 -0.6439996 -0.046000004 l -1.8400002 4.738 c -0.43700004 1.1040001 -0.41400003 1.4720001 0.69000006 1.5410004 Z "/>
        </symbol>
        <symbol id="g923E16E4247930409E41F1DB1D58DC4B" overflow="visible">
            <path d="M 0 0m 2.392 2.185 c -0.71299994 0 -1.219 -0.48299992 -1.219 -1.127 c 0 -0.71299994 0.59800005 -0.94299996 1.012 -1.012 c 0.43700004 -0.046 0.82800007 -0.184 0.82800007 -0.713 c 0 -0.48299998 -0.82800007 -1.5409999 -2.024 -1.8399999 c 0 -0.23000002 0.045999944 -0.39100003 0.20699996 -0.55200005 c 1.38 0.25300002 2.7140002 1.357 2.7140002 2.967 c 0 1.38 -0.59800005 2.277 -1.5180001 2.277 Z "/>
        </symbol>
        <symbol id="gBB4539A6CAE80D82A7675AF984049FB3" overflow="visible">
            <path d="M 0 0m 1.012 5.796 c 0 -1.0349998 0.09200001 -6.348 4.876 -10.488 c 0.23000002 0.046000004 0.41400003 0.20699978 0.4829998 0.3909998 c -0.7589998 0.8740001 -3.4499998 4.0480003 -3.4499998 10.097 c 0 6.0490003 2.7140002 9.223 3.4499998 10.051001 c -0.06899977 0.22999954 -0.23000002 0.39100075 -0.4829998 0.41399956 c -2.737 -2.3459997 -4.876 -6.1869993 -4.876 -10.465 Z "/>
        </symbol>
        <symbol id="g87E9C1ECE905D2468028549FFA93098D" overflow="visible">
            <path d="M 0 0m 21.988 15.64 c -0.43700027 0 -1.9320011 0.06899929 -2.3690014 0.06899929 c -0.3449993 0 -0.5289993 -0.18400002 -0.5289993 -0.5289993 c 0 -0.2300005 0.13800049 -0.34500027 0.41399956 -0.36800003 c 0.85099983 -0.023000717 1.2649994 -0.27600002 1.2649994 -0.78200054 c 0 -0.13799953 -0.091999054 -0.36800003 -0.27599907 -0.71299934 l -6.026 -10.442 l -0.8050003 10.971 c -0.09200001 0.82800007 0.46000004 0.96600056 1.4949999 0.96600056 c 0.48300076 0 0.7130003 0.18400002 0.7130003 0.55200005 c 0 0.22999954 -0.13799953 0.3449993 -0.43700027 0.3449993 c -0.50599957 0 -2.2769995 -0.06899929 -2.783 -0.06899929 c -0.43699932 0 -1.9549999 0.06899929 -2.3919992 0.06899929 c -0.34500027 0 -0.5290003 -0.18400002 -0.5290003 -0.55200005 c 0 -0.22999954 0.20699978 -0.3449993 0.64400005 -0.3449993 c 0.7130003 0 1.0810003 -0.16100025 1.1040001 -0.4829998 l 0.13799953 -1.7250004 l -5.612 -9.729 l -0.8279996 11.224 c -0.069000244 0.5749998 0.89699984 0.7130003 1.6329999 0.7130003 c 0.3909998 0 0.5749998 0.18400002 0.5749998 0.55200005 c 0 0.22999954 -0.13800001 0.3449993 -0.41400003 0.3449993 c -0.50600004 0 -2.2999997 -0.06899929 -2.8059998 -0.06899929 c -0.43700004 0 -1.9550002 0.06899929 -2.3920002 0.06899929 c -0.34500003 0 -0.50600004 -0.18400002 -0.50600004 -0.5289993 c 0 -0.25300026 0.23000002 -0.36800003 0.66700006 -0.36800003 c 0.96599996 0 1.058 -0.04600048 1.104 -0.73600006 l 1.0350001 -13.915 c 0.022999763 -0.43699998 0.18400002 -0.667 0.46000004 -0.667 c 0.2989998 0.045999974 0.41400003 0.11499998 0.59800005 0.45999998 c 0.022999763 0.023 0.022999763 0.046 0.022999763 0.069 l 6.555 11.339001 l 0.82800007 -11.201 c 0.022999763 -0.43699998 0.18400002 -0.667 0.46000004 -0.667 c 0.2300005 0 0.43700027 0.16099998 0.6210003 0.48299998 l 7.498 12.948999 c 0.6210003 1.1270008 1.0580006 1.7710009 2.4610004 1.8860006 c 0.41399956 0.045999527 0.5289993 0.1609993 0.5289993 0.55200005 c 0 0.22999954 -0.11499977 0.3449993 -0.36800003 0.3449993 c -0.3220005 0 -1.4260006 -0.06899929 -1.7479992 -0.06899929 Z "/>
        </symbol>
        <symbol id="gE25B5A9D2AC0EB5280483D3B350DAD14" overflow="visible">
            <path d="M 0 0m 5.842 5.796 c 0 1.0349998 -0.09200001 6.348 -4.876 10.488001 c -0.23000002 -0.045999527 -0.41400003 -0.20700073 -0.483 -0.39100075 c 0.75899994 -0.8739996 3.45 -4.0479994 3.45 -10.097 c 0 -6.049 -2.7140002 -9.223 -3.45 -10.051001 c 0.068999976 -0.23000002 0.22999999 -0.3909998 0.483 -0.41400003 c 2.737 2.3460002 4.876 6.1870003 4.876 10.465 Z "/>
        </symbol>
        <symbol id="g956D631B36A8F4E90FBFC7EF8A5A0FA" overflow="visible">
            <path d="M 0 0m 7.038 -0.552 c 0.6669998 0 1.3800001 0.11499998 2.139 0.32199997 c -0.069000244 -0.87399995 -0.09200001 -1.426 -0.09200001 -1.633 c 0 -1.725 0.6669998 -2.599 1.9779997 -2.599 c 1.4029999 0 2.4840002 1.1269999 3.0130005 2.162 c 0.5749998 1.196 0.8739996 1.9779999 0.8739996 2.346 c 0 0.20699999 -0.11499977 0.322 -0.3449993 0.322 c -0.16100025 0 -0.27600002 -0.09200001 -0.34500027 -0.299 c -0.34500027 -1.058 -1.2880001 -2.139 -2.5760002 -2.139 c -1.1730003 0 -1.3339996 0.94299996 -1.5179996 2.208 c 1.9319992 0.759 3.5649996 2.07 4.8759995 3.9559999 c 1.3110008 1.8860002 1.9780006 3.841 1.9780006 5.8880005 c 0 1.8169994 -0.52900124 3.2889996 -1.6100006 4.462 c -1.0809994 1.1729994 -2.507 1.7709999 -4.278 1.7709999 c -1.2189999 0 -2.4379997 -0.2989998 -3.657 -0.9200001 c -2.4839997 -1.2189999 -4.3009996 -3.151 -5.474 -5.75 c -0.5749999 -1.3109999 -0.87399995 -2.599 -0.87399995 -3.9099998 c 0 -3.6110003 2.3460002 -6.1870003 5.9110003 -6.1870003 Z m 7.797 11.27 c 0 -1.4030008 -0.34500027 -3.0130005 -1.0349998 -4.8760004 c -0.8050003 -2.139 -2.047 -3.726 -3.7720003 -4.738 c -0.09200001 0.50600004 -0.22999954 0.96599996 -0.41399956 1.38 c -0.29900074 0.69000006 -0.85099983 1.0350001 -1.6560001 1.0350001 c -1.2650003 0 -2.415 -1.1500001 -2.415 -2.415 c 0 -0.20699996 0.022999763 -0.41399997 0.06899977 -0.575 c -1.5409999 0.713 -2.3 2.162 -2.3 4.3700004 c 0 0.9660001 0.18400002 2.139 0.57500005 3.519 c 0.8049998 2.9209995 2.2539997 4.991 4.347 6.21 c 0.98899937 0.55200005 1.9089994 0.82800007 2.7600002 0.82800007 c 2.5299997 0 3.8409996 -2.0930004 3.8409996 -4.738 Z m -6.877 -7.8890004 c 0.85099983 0 1.2880001 -0.62100005 1.2880001 -1.8399999 c 0 -0.20700002 -0.069000244 -0.32200003 -0.20700073 -0.36800003 c -0.6439991 -0.276 -1.2649994 -0.41399997 -1.8629994 -0.41399997 c -0.64400005 0 -0.9660001 0.29899997 -0.9660001 0.89699996 c 0 0.8740001 0.8740001 1.725 1.7480001 1.725 Z "/>
        </symbol>
        <symbol id="g11033F3F451634686F1654D0C5A9A0B7" overflow="visible">
            <path d="M 0 0m 17.457 0 c 0.39099884 0 0.5979996 0.092 0.5979996 0.299 l -7.8200006 15.709 c -0.1609993 0.2989998 -0.36800003 0.460001 -0.6669998 0.460001 c -0.2989998 0 -0.50599957 -0.1610012 -0.6669998 -0.460001 l -7.705 -15.433 c -0.069000006 -0.16099998 -0.11500001 -0.253 -0.11500001 -0.299 c 0 -0.18399999 0.20700002 -0.276 0.59800005 -0.276 Z m -8.625001 13.892 l 5.9800005 -11.983 h -11.96 Z "/>
        </symbol>
        <symbol id="gAE33301678F62E6CBE809ACCA3039128" overflow="visible">
            <path d="M 0 0m 14.766 15.64 c -0.43699932 0 -1.9089994 0.06899929 -2.3459997 0.06899929 c -0.34500027 0 -0.5060005 -0.18400002 -0.5060005 -0.55200005 c 0 -0.20699978 0.16100025 -0.32199955 0.48300076 -0.3449993 c 0.98899937 0 1.4720001 -0.2989998 1.4720001 -0.8970003 c 0 -0.13799953 -0.023000717 -0.2989998 -0.069000244 -0.46000004 l -2.047 -8.1189995 c -0.34500027 -1.3109999 -1.0120001 -2.438 -2.0010004 -3.4039998 c -1.0809994 -1.0350001 -2.277 -1.541 -3.565 -1.541 c -1.7019997 0 -2.6909997 1.15 -2.6909997 2.852 l 0.023000002 0.20700002 c 0 0.43700004 0.069000006 0.9430001 0.23000002 1.5410001 l 2.2079997 8.855 c 0.11500025 0.48300076 0.32200003 0.78200054 0.6210003 0.8970003 c 0.13800001 0.045999527 0.5289998 0.069000244 1.1960001 0.069000244 c 0.5979996 0 0.85099983 0 0.85099983 0.55200005 c 0 0.22999954 -0.13799953 0.3449993 -0.3909998 0.3449993 l -2.921 -0.06899929 l -2.9210002 0.06899929 c -0.36800003 0 -0.5289999 -0.20699978 -0.5289999 -0.55200005 c 0 -0.1609993 0.069000006 -0.27600002 0.1839999 -0.2989998 c 0.23000002 -0.022999763 0.41400003 -0.045999527 0.52900004 -0.045999527 c 0.71300006 -0.023000717 1.1270001 -0.069000244 1.2420001 -0.09200001 c 0.11500001 -0.022999763 0.16100001 -0.09200001 0.16100001 -0.20699978 c 0 -0.04600048 -0.023000002 -0.20700073 -0.09200001 -0.46000004 l -2.185 -8.7630005 c -0.11500001 -0.4369998 -0.16100001 -0.8740001 -0.16100001 -1.3339999 c 0 -2.645 1.909 -4.462 4.554 -4.462 c 1.4950004 0 2.8750005 0.575 4.14 1.7479999 c 1.2190008 1.104 2.0010004 2.3920002 2.3690004 3.887 l 2.0240002 8.073 c 0.2989998 1.1730003 0.94299984 1.5869999 2.3689995 1.6100006 c 0.3220005 0.022999763 0.4829998 0.20699978 0.4829998 0.55200005 v 0.09200001 c -0.069000244 0.1609993 -0.18400002 0.2529993 -0.39099884 0.2529993 c -0.43700027 0 -1.8860006 -0.06899929 -2.323001 -0.06899929 Z "/>
        </symbol>
        <symbol id="g2D18F0C480219300B90694E310D937E8" overflow="visible">
            <path d="M 0 0m 3.588 8.464 c -0.023000002 0.69000053 -0.069000006 1.2880001 -0.18400002 1.5180006 c -0.046000004 0.11499977 -0.09200001 0.18400002 -0.27600002 0.18400002 c -0.64400005 -0.25300026 -1.242 -0.46000004 -2.829 -0.6670008 c -0.046000004 -0.13799953 0 -0.50599957 0.046000004 -0.64400005 c 1.242 -0.11499977 1.495 -0.22999954 1.495 -1.5639997 v -9.821 c 0 -1.9090002 -0.25300002 -2.024 -1.656 -2.0930002 c -0.138 -0.13800001 -0.138 -0.6209998 0 -0.7589998 c 0.805 0.022999763 1.656 0.046000004 2.576 0.046000004 c 0.9200001 0 2.024 -0.02300024 2.7830002 -0.046000004 c 0.13800001 0.13800001 0.13800001 0.6209998 0 0.7589998 c -1.6330001 0.09200001 -1.8860002 0.18400002 -1.8860002 2.0930002 v 2.484 c 0 0.299 0.09200001 0.276 0.32200003 0.184 c 0.5749998 -0.22999999 1.2649999 -0.368 2.001 -0.368 c 1.2880001 0 2.4380002 0.391 3.381 1.288 c 1.0810003 1.058 1.7019997 2.4840002 1.7019997 4.347 c 0 2.4379997 -1.7249994 4.692 -4.0709996 4.692 c -1.0580001 0 -2.231 -0.69000053 -3.151 -1.7250004 c -0.13800001 -0.13799953 -0.23000002 -0.13799953 -0.25300002 0.09200001 Z m 0.43700004 -0.85099983 c 0.59800005 0.73600006 1.6560001 1.4259996 2.323 1.4259996 c 1.4720001 0 2.737 -1.6559997 2.737 -4.2549996 c 0 -1.8859999 -0.6669998 -4.232 -3.243 -4.232 c -0.41400003 0 -1.2189999 0.11500001 -1.6329999 0.48299998 c -0.46000004 0.41400003 -0.55200005 0.55200005 -0.55200005 1.38 v 4.186 c 0 0.48300028 0.09200001 0.69000006 0.36800003 1.0120001 Z "/>
        </symbol>
        <symbol id="g8C49F4C9E11D6F68FDDD4503E289B435" overflow="visible">
            <path d="M 0 0m 2.622 13.156 c 0 0.6899996 0.9200001 1.2419996 2.2310002 1.2419996 c 1.3109999 0 2.185 -1.3109999 2.185 -2.8059998 c 0 -1.0810003 -0.34500027 -1.7480001 -1.2649999 -2.599 c -1.4950004 -1.3569999 -1.6100001 -2.7140002 -1.6100001 -3.703 v -1.0580001 c 0 -0.16099977 0.18400002 -0.23000002 0.36800003 -0.23000002 c 0.18400002 0 0.3909998 0.069000244 0.3909998 0.23000002 v 1.0120001 c 0 0.55200005 0.02300024 1.1040001 0.32200003 1.6789999 c 0.20700026 0.39100027 0.6669998 0.7590003 1.1960001 1.1500001 c 1.0809999 0.7819996 2.5069995 1.7939997 2.5069995 3.611 c 0 2.0930004 -1.5179996 3.4729996 -3.8639994 3.4729996 c -1.2190001 0 -2.1850002 -0.32199955 -2.8520002 -0.89699936 c -0.68999994 -0.55200005 -1.173 -1.1960001 -1.173 -2.0700006 c 0 -0.80499935 0.57500005 -0.98899937 0.94299996 -0.98899937 c 0.43700004 0 0.8970001 0.27600002 0.8970001 0.80499935 c 0 0.29900074 -0.046000004 0.43700027 -0.13800001 0.55200005 c -0.09200001 0.115000725 -0.13800001 0.25300026 -0.13800001 0.5980005 Z m 0.69000006 -12.167 c 0 -0.66700006 0.55200005 -1.219 1.2190001 -1.219 c 0.6669998 0 1.2189999 0.552 1.2189999 1.219 c 0 0.667 -0.55200005 1.2189999 -1.2189999 1.2189999 c -0.66700006 0 -1.2190001 -0.5519999 -1.2190001 -1.2189999 Z "/>
        </symbol>
    </defs>
</svg>
