<svg class="typst-doc" viewBox="0 0 283.46456692913387 71.06116535433071" width="283.46456692913387pt" height="71.06116535433071pt" xmlns="http://www.w3.org/2000/svg" xmlns:xlink="http://www.w3.org/1999/xlink" xmlns:h5="http://www.w3.org/1999/xhtml">
    <path class="typst-shape" fill="#ffffff" fill-rule="nonzero" d="M 0 0v 71.061165 h 283.46457 v -71.061165 Z "/>
    <g>
        <g class="typst-group">
            <g>
                <g class="typst-text" transform="matrix(1 0 0 -1 11.338582677165354 27.730582677165355)">
                    <use xlink:href="#g420CEBAE922C75A13DC1804FF7DE9274" x="0" y="0" fill="#000000" fill-rule="nonzero"/>
                </g>
                <g class="typst-text" transform="matrix(1 0 0 -1 31.330582677165353 27.730582677165355)">
                    <use xlink:href="#g8B2F16B74C9562939D7956FD6ED6FFEE" x="0" y="0" fill="#000000" fill-rule="nonzero"/>
                </g>
                <g class="typst-text" transform="matrix(1 0 0 -1 46.04258267716535 33.658582677165356)">
                    <use xlink:href="#g89C741FC3C1C19ED5562F40DA90FE39B" x="0" y="0" fill="#000000" fill-rule="nonzero"/>
                    <use xlink:href="#g9E1CAEB3F5A5B142E22EF0499F57E822" x="8.4" y="0" fill="#000000" fill-rule="nonzero"/>
                    <use xlink:href="#g66760C4424D85F595F8742927A6234AD" x="16.8" y="0" fill="#000000" fill-rule="nonzero"/>
                </g>
                <g class="typst-text" transform="matrix(1 0 0 -1 77.47244934383201 27.730582677165355)">
                    <use xlink:href="#gB55CDA46F6AD324B84D96C11ABE5FC3A" x="0" y="0" fill="#000000" fill-rule="nonzero"/>
                </g>
                <g class="typst-group">
                    <g>
                        <g class="typst-text" transform="matrix(1 0 0 -1 102.81111601049867 27.730582677165355)">
                            <use xlink:href="#g1D03DC511698D4685E9D3A61264191CC" x="0" y="0" fill="#000000" fill-rule="nonzero"/>
                        </g>
                        <g class="typst-text" transform="matrix(1 0 0 -1 114.81111601049867 27.730582677165355)">
                            <use xlink:href="#g4C1CED8083A0AD60C929E688BB10A548" x="0" y="0" fill="#000000" fill-rule="nonzero"/>
                        </g>
                        <g class="typst-text" transform="matrix(1 0 0 -1 126.81111601049867 27.730582677165355)">
                            <use xlink:href="#g609F4ED62443AB8B9D19117CDC676FC3" x="0" y="0" fill="#000000" fill-rule="nonzero"/>
                        </g>
                        <g class="typst-text" transform="matrix(1 0 0 -1 133.48311601049866 27.730582677165355)">
                            <use xlink:href="#gF5416CFE415D2AF5B9E001134210A6C" x="0" y="0" fill="#000000" fill-rule="nonzero"/>
                        </g>
                        <g class="typst-text" transform="matrix(1 0 0 -1 145.48311601049866 27.730582677165355)">
                            <use xlink:href="#gBF09CF92ABD88E8980C821BC0DC00E4F" x="0" y="0" fill="#000000" fill-rule="nonzero"/>
                        </g>
                        <g class="typst-text" transform="matrix(1 0 0 -1 165.76311601049866 27.730582677165355)">
                            <use xlink:href="#gF80BD3B9229511BA69A0DFDF2ED52411" x="7.968" y="0" fill="#000000" fill-rule="nonzero"/>
                            <use xlink:href="#g6C2425FA378084A1771EA5F413A47986" x="20.304000000000002" y="0" fill="#000000" fill-rule="nonzero"/>
                            <use xlink:href="#g484D3A76DCF66CD3D6D3A6B912CD1A69" x="32.304" y="0" fill="#000000" fill-rule="nonzero"/>
                        </g>
                    </g>
                </g>
                <g class="typst-text" transform="matrix(1 0 0 -1 216.7391160104987 27.730582677165355)">
                    <use xlink:href="#g1B8AFB530D0F7B28D4E2C8C3D5AB9545" x="6" y="0" fill="#000000" fill-rule="nonzero"/>
                    <use xlink:href="#g934E1B6BC086CC0B7811967CA1BEF433" x="16.968000000000004" y="0" fill="#000000" fill-rule="nonzero"/>
                    <use xlink:href="#g9D20516B94338A40F3653F6582D06E94" x="29.976000000000006" y="0" fill="#000000" fill-rule="nonzero"/>
                </g>
            </g>
        </g>
        <g class="typst-group">
            <g>
                <g class="typst-text" transform="matrix(1 0 0 -1 11.338582677165354 59.722582677165356)">
                    <use xlink:href="#g420CEBAE922C75A13DC1804FF7DE9274" x="0" y="0" fill="#000000" fill-rule="nonzero"/>
                </g>
                <g class="typst-text" transform="matrix(1 0 0 -1 31.330582677165353 59.722582677165356)">
                    <use xlink:href="#g8B2F16B74C9562939D7956FD6ED6FFEE" x="0" y="0" fill="#000000" fill-rule="nonzero"/>
                </g>
                <g class="typst-text" transform="matrix(1 0 0 -1 46.04258267716535 65.65058267716535)">
                    <use xlink:href="#g39357B94544666BF8D8853BB83C56022" x="0" y="0" fill="#000000" fill-rule="nonzero"/>
                    <use xlink:href="#g10A4C71CF102471E04D59B74A73C4434" x="9.3408" y="0" fill="#000000" fill-rule="nonzero"/>
                    <use xlink:href="#g16F35AA3DF35617B52B50AC84C7B2AB0" x="18.6816" y="0" fill="#000000" fill-rule="nonzero"/>
                    <use xlink:href="#gF4409BC0B9602BE835C3E01140E40CD4" x="23.352" y="0" fill="#000000" fill-rule="nonzero"/>
                    <use xlink:href="#g4BE80526461A40693D774FE4F6216E1B" x="32.2224" y="0" fill="#000000" fill-rule="nonzero"/>
                    <use xlink:href="#g47F5B9ABC191381965FECFD74063FF66" x="39.6816" y="0" fill="#000000" fill-rule="nonzero"/>
                    <use xlink:href="#g66760C4424D85F595F8742927A6234AD" x="46.2672" y="0" fill="#000000" fill-rule="nonzero"/>
                    <use xlink:href="#g4BE80526461A40693D774FE4F6216E1B" x="52.8864" y="0" fill="#000000" fill-rule="nonzero"/>
                </g>
                <g class="typst-text" transform="matrix(1 0 0 -1 114.39884934383201 59.722582677165356)">
                    <use xlink:href="#gB55CDA46F6AD324B84D96C11ABE5FC3A" x="0" y="0" fill="#000000" fill-rule="nonzero"/>
                </g>
                <g class="typst-text" transform="matrix(1 0 0 -1 139.73751601049867 59.722582677165356)">
                    <use xlink:href="#gDE3ACE62D7EA81B01B9DC9FF8D1DD868" x="0" y="0" fill="#000000" fill-rule="nonzero"/>
                </g>
                <g class="typst-text" transform="matrix(1 0 0 -1 159.70551601049866 59.722582677165356)">
                    <use xlink:href="#gF80BD3B9229511BA69A0DFDF2ED52411" x="7.968" y="0" fill="#000000" fill-rule="nonzero"/>
                    <use xlink:href="#g6C2425FA378084A1771EA5F413A47986" x="20.304000000000002" y="0" fill="#000000" fill-rule="nonzero"/>
                    <use xlink:href="#g484D3A76DCF66CD3D6D3A6B912CD1A69" x="32.304" y="0" fill="#000000" fill-rule="nonzero"/>
                </g>
            </g>
        </g>
    </g>
    <defs id="glyph">
        <symbol id="g420CEBAE922C75A13DC1804FF7DE9274" overflow="visible">
            <path d="M 0 0m 18.216 0 c 0.40800095 0 0.62400055 0.096 0.62400055 0.312 l -8.16 16.392 c -0.16800022 0.31200027 -0.38399982 0.47999954 -0.6960001 0.47999954 c -0.31200027 0 -0.5279999 -0.16799927 -0.6960001 -0.47999954 l -8.04 -16.104 c -0.07200003 -0.16800001 -0.120000005 -0.26400003 -0.120000005 -0.31200004 c 0 -0.19199999 0.21599996 -0.288 0.62399995 -0.288 Z m -9 14.496 l 6.2400007 -12.504001 h -12.4800005 Z "/>
        </symbol>
        <symbol id="g8B2F16B74C9562939D7956FD6ED6FFEE" overflow="visible">
            <path d="M 0 0m 3.192 3.7680001 c 0 0.57599974 0.07200003 1.0559998 0.19200015 1.44 c 0 0.23999977 -0.120000124 0.35999966 -0.38400006 0.35999966 c -0.119999886 0 -0.21600008 -0.04799986 -0.26399994 -0.09599972 c -0.120000124 -0.119999886 -1.488 -5.28 -1.488 -5.664 c 0 -0.21599999 0.120000005 -0.336 0.36 -0.336 c 0.120000005 0 0.288 0.120000005 0.50399995 0.384 l 1.0799999 1.2720001 c 0.84000015 -1.104 2.184 -1.656 4.0080004 -1.656 c 1.5840001 0 2.9759994 0.648 4.2239995 1.92 c 1.2480001 1.2720001 1.8720007 2.688 1.8720007 4.2720003 c 0 1.1280003 -0.38400078 2.0879998 -1.1760006 2.8560004 c -0.35999966 0.31199932 -0.84000015 0.57599926 -1.4399996 0.7919998 c -0.55200005 0.119999886 -1.0799999 0.26399994 -1.6079998 0.408 l -1.5840006 0.43200016 c -0.7919998 0.2159996 -1.3919997 1.1040001 -1.3919997 2.0640001 c 0 1.0319996 0.408 1.9199991 1.2479997 2.6879997 c 0.84000015 0.76799965 1.776 1.1519995 2.8080006 1.1519995 c 2.2079992 0 3.3119993 -1.1999998 3.3119993 -3.5759993 c 0 -0.43200016 -0.09599972 -0.91200066 -0.09599972 -1.3200006 v -0.07199955 c 0.0720005 -0.16800022 0.19200039 -0.26399994 0.38399982 -0.26399994 c 0.21600056 0 0.3600006 0.19199944 0.45600033 0.55200005 l 1.2720003 5.207999 c 0 0.2159996 -0.119999886 0.33600044 -0.3600006 0.33600044 c -0.119999886 0 -0.2880001 -0.12000084 -0.5039997 -0.38400078 l -1.0319996 -1.2479992 c -0.6720009 1.0799999 -1.8000002 1.632 -3.408001 1.632 c -1.5119991 0 -2.8799996 -0.5760002 -4.0799994 -1.7039995 c -1.2480001 -1.1520004 -1.8720002 -2.4720001 -1.8720002 -3.9840002 c 0 -1.7280006 1.1280003 -3.0960007 2.5440001 -3.4800005 l 2.52 -0.64799976 c 1.2959995 -0.36000013 2.1120005 -0.816 2.1120005 -2.4240003 c 0 -1.1039999 -0.43200016 -2.0879998 -1.2720003 -2.9519997 c -0.84000015 -0.864 -1.8000002 -1.32 -2.88 -1.32 c -2.3520002 0 -4.056 1.0320001 -4.056 3.3600001 Z "/>
        </symbol>
        <symbol id="g89C741FC3C1C19ED5562F40DA90FE39B" overflow="visible">
            <path d="M 0 0m 7.2408 7.6103997 c -0.6384001 0 -1.2263999 -0.25199986 -1.7639999 -0.75600004 c -0.5040002 0.38640022 -1.0752001 0.5711999 -1.7304001 0.5711999 c -1.4447999 0 -2.7552 -1.0751996 -2.7552 -2.4863997 c 0 -0.70560026 0.25199997 -1.2768002 0.7559999 -1.7136002 c -0.31919992 -0.4031999 -0.4871999 -0.85679984 -0.4871999 -1.3775998 c 0 -0.63839996 0.2184 -1.1256 0.63839996 -1.4447999 c -0.7056 -0.23519997 -1.428 -0.8399999 -1.428 -1.6968 c 0 -0.72240007 0.47039998 -1.2936 1.3944 -1.6967999 c 0.7056 -0.31920004 1.4784 -0.4704001 2.3184 -0.4704001 c 0.8568001 0 1.6464 0.15120006 2.3519998 0.4704001 c 0.92400026 0.4031999 1.3776002 0.9743998 1.3776002 1.7303998 c 0 0.8904 -0.3696003 1.5455999 -1.1087999 1.9656 c -0.77279997 0.42000002 -1.6296 0.47040004 -2.8728 0.47040004 c -0.7391999 0 -1.1423998 0 -1.2263999 0.016799927 c -0.47039986 0.067200065 -0.80639994 0.5208 -0.80639994 1.0416001 c 0 0.25199986 0.067199945 0.48719978 0.21839988 0.68879986 c 0.4704001 -0.31920004 1.0080001 -0.48720002 1.6296 -0.48720002 c 1.4447999 0 2.7384 1.0752001 2.7384 2.4864001 c 0 0.6552 -0.2184 1.1927996 -0.6552 1.6127996 c 0.42000008 0.38640022 0.8736 0.5711999 1.3607998 0.5711999 c -0.08400011 -0.083999634 -0.13439989 -0.2184 -0.13439989 -0.38639975 c 0 -0.36959982 0.18480015 -0.55439997 0.55439997 -0.55439997 c 0.3527999 0 0.53760004 0.18480015 0.53760004 0.5711999 c 0 0.5208001 -0.40320015 0.8736 -0.90719986 0.8736 Z m -3.4944 -0.7055998 c 0.90719986 0 1.3607998 -0.6552 1.3607998 -1.9656 c 0 -1.3271999 -0.45359993 -1.9992001 -1.3607998 -1.9992001 c -0.924 0 -1.3776 0.6552 -1.3776 1.9824002 c 0 1.3271999 0.45359993 1.9824 1.3776 1.9824 Z m -0.9912 -6.8375998 h 0.97440004 c 0.8736 0 1.5791998 -0.050399996 2.1167998 -0.16799998 c 0.7224002 -0.15120001 1.0752001 -0.5544 1.0752001 -1.1927999 c 0 -0.5375999 -0.33599997 -0.9576 -1.0079999 -1.2768 c -0.5208001 -0.25199986 -1.092 -0.36959982 -1.7136002 -0.36959982 c -0.6048 0 -1.1759999 0.117599964 -1.7135999 0.36959982 c -0.6888 0.31920004 -1.0248 0.7392001 -1.0248 1.2768 c 0 0.70559996 0.60479987 1.3607999 1.2936 1.3607999 Z "/>
        </symbol>
        <symbol id="g9E1CAEB3F5A5B142E22EF0499F57E822" overflow="visible">
            <path d="M 0 0m 8.1144 1.5287999 v 0.9912001 h -0.53760004 v -0.9912001 c 0 -0.65519994 -0.18480015 -0.9911999 -0.53760004 -0.9911999 c -0.33599997 0 -0.53760004 0.41999996 -0.53760004 0.756 v 3.3095999 c 0 0.5879998 -0.067200184 1.0247998 -0.18480015 1.3271999 c -0.40319967 0.9912 -1.5623999 1.5959997 -2.7383997 1.5959997 c -1.2936001 0 -2.5703998 -0.7223997 -2.5703998 -1.9319997 c 0 -0.55439997 0.28559995 -0.84000015 0.8399999 -0.84000015 c 0.5544001 0 0.82319987 0.26880026 0.82319987 0.8232002 c 0 0.48719978 -0.25199986 0.77279997 -0.77279985 0.82319975 c 0.36959994 0.42000008 0.9239999 0.6384001 1.6463999 0.6384001 c 1.0416002 0 1.6799998 -0.9576001 1.6799998 -2.0496001 v -0.55439997 c -1.3103998 -0.08400011 -2.3015997 -0.2855997 -2.9903996 -0.6048 c -1.1256001 -0.5207999 -1.6968 -1.2431998 -1.6968 -2.2008 c 0 -0.4368 0.16799998 -0.80639994 0.48719996 -1.092 c 0.53760004 -0.4872 1.2768 -0.72239995 2.2175999 -0.72239995 c 0.99119973 0 1.6968 0.42 2.1336 1.2768 c 0.117599964 -0.6384 0.5879998 -1.1928 1.3104 -1.1928 c 0.89039993 0 1.428 0.70559996 1.428 1.6295999 Z m -4.7544003 -1.2263999 c -0.77279997 0 -1.4111999 0.57119995 -1.4111999 1.344 c 0 1.5623999 1.6295999 2.2343998 3.2759995 2.3184 v -1.596 c 0 -1.1256 -0.73919964 -2.0664 -1.8647997 -2.0664 Z "/>
        </symbol>
        <symbol id="g66760C4424D85F595F8742927A6234AD" overflow="visible">
            <path d="M 0 0m 6.048 2.184 c 0 1.2767999 -0.8736 2.0832 -2.604 2.4192 c -0.7895999 0.15119982 -1.2935998 0.33599997 -1.5623999 0.52079964 c -0.26880002 0.18480015 -0.4031999 0.4536004 -0.4031999 0.77279997 c 0 0.7896004 0.5879998 1.1760001 1.7639999 1.1760001 c 1.1424 0 1.7639997 -0.6384001 1.8479998 -1.9319997 c 0.016799927 -0.13440037 0.10080004 -0.20160007 0.26880026 -0.20160007 c 0.18479967 0 0.2855997 0.15119982 0.2855997 0.45359993 v 1.6631999 c 0 0.31920004 -0.08400011 0.47039986 -0.25199986 0.47039986 c -0.18480015 0 -0.4368 -0.30239964 -0.6048002 -0.4368 c -0.4199996 0.2856002 -0.9407997 0.4368 -1.5455997 0.4368 c -1.4952 0 -2.688 -0.67199993 -2.688 -2.1 c 0 -0.5711999 0.23519999 -1.0583997 0.72239995 -1.4447999 c 0.58800006 -0.48720002 1.1424 -0.5879998 2.2008 -0.77279997 c 1.0919998 -0.2184 1.6463997 -0.7056 1.6463997 -1.4616 c 0 -0.95759994 -0.5879998 -1.4447999 -1.7807996 -1.4447999 c -1.1592 0 -1.8984001 0.77279997 -2.2175999 2.3016 c -0.05040002 0.2184 -0.13440001 0.33599997 -0.2856 0.33599997 c -0.18479997 0 -0.2856 -0.16799998 -0.2856 -0.48720002 v -2.1671999 c 0 -0.31919998 0.08399999 -0.47039998 0.25199997 -0.47039998 c 0.05040002 0 0.13440001 0.050400004 0.26880002 0.168 c 0.3024 0.2688 0.16799998 0.21839999 0.47039998 0.5208 c 0.48720002 -0.45360002 1.092 -0.6888 1.7976 -0.6888 c 1.596 0 2.7048 0.8232 2.7048 2.3688 Z "/>
        </symbol>
        <symbol id="gB55CDA46F6AD324B84D96C11ABE5FC3A" overflow="visible">
            <path d="M 0 0m 16.752 8.808 h -14.832001 c -0.38400006 0 -0.5760001 -0.19199944 -0.5760001 -0.5519991 c 0 -0.3600006 0.19200003 -0.5520005 0.5760001 -0.5520005 h 14.832001 c 0.38399887 0 0.5760002 0.19199991 0.5760002 0.5520005 c 0 0.28799915 -0.26399994 0.5519991 -0.5760002 0.5519991 Z m 0 -4.5119996 h -14.832001 c -0.38400006 0 -0.5760001 -0.19199991 -0.5760001 -0.55200005 c 0 -0.3599999 0.19200003 -0.55200005 0.5760001 -0.55200005 h 14.832001 c 0.38399887 0 0.5760002 0.19200015 0.5760002 0.55200005 c 0 0.31200027 -0.26399994 0.55200005 -0.5760002 0.55200005 Z "/>
        </symbol>
        <symbol id="g1D03DC511698D4685E9D3A61264191CC" overflow="visible">
            <path d="M 0 0m 6.456 15.984 c -0.9839997 -1.0080004 -2.4239998 -1.5120001 -4.3199997 -1.5120001 v -0.9359999 c 1.2480001 0 2.28 0.19199944 3.0720003 0.5760002 v -12.144 c 0 -0.43200004 -0.096000195 -0.72 -0.31200027 -0.84000003 c -0.21600008 -0.120000005 -0.816 -0.19200003 -1.7759998 -0.19200003 h -0.84000015 v -0.936 c 0.60000014 0.048 1.8960001 0.072 3.8880002 0.072 c 1.9919996 0 3.288 -0.023999996 3.8879995 -0.072 v 0.936 h -0.84000015 c -0.98399925 0 -1.5839996 0.07200003 -1.7759995 0.19200003 c -0.19199991 0.120000005 -0.3119998 0.408 -0.3119998 0.84000003 v 13.296 c 0 0.5760002 -0.048000336 0.72000027 -0.6720004 0.72000027 Z "/>
        </symbol>
        <symbol id="g4C1CED8083A0AD60C929E688BB10A548" overflow="visible">
            <path d="M 0 0m 6 15.984 c -1.1760001 0 -2.208 -0.38399982 -3.072 -1.1520004 c -0.86399984 -0.76799965 -1.296 -1.7279997 -1.296 -2.9039993 c 0 -0.9840002 0.36 -1.8720007 1.0800002 -2.6640005 c 0.16799998 -0.19199944 0.69599986 -0.5999994 1.5839999 -1.224 c -2.184 -1.1279998 -3.288 -2.592 -3.288 -4.368 c 0 -1.2719998 0.528 -2.304 1.5600001 -3.096 c 0.96000004 -0.74399996 2.088 -1.104 3.4079998 -1.104 c 1.3440003 0 2.5200005 0.43199998 3.5040007 1.296 c 0.98399925 0.86399996 1.4879999 1.992 1.4879999 3.3119998 c 0 1.1040001 -0.38400078 2.0880003 -1.1760006 2.9760003 c -0.2880001 0.3119998 -1.0319996 0.86399984 -2.2079997 1.6080003 c 1.848 0.98399925 2.7599998 2.2319994 2.7599998 3.6959991 c 0 2.184 -2.0879993 3.6240005 -4.344 3.6240005 Z m 3.0959997 -3.6240005 c 0 -1.2479992 -0.7439995 -2.327999 -2.2319999 -3.2159996 l -2.856 1.8719997 c -0.74399996 0.4800005 -1.1279998 1.1040001 -1.1279998 1.8480005 c 0 1.4399996 1.56 2.328 3.0959997 2.328 c 1.6560001 0 3.12 -1.1760006 3.12 -2.8320007 Z m -3.0959997 -12.023999 c -1.9679999 0 -3.624 1.416 -3.624 3.336 c 0 1.6080003 0.888 2.9040003 2.664 3.888 l 2.8320003 -1.7999997 c 1.152 -0.74399996 1.7280002 -1.5840001 1.7280002 -2.5440001 c 0 -1.728 -1.8000002 -2.88 -3.6000004 -2.88 Z "/>
        </symbol>
        <symbol id="g609F4ED62443AB8B9D19117CDC676FC3" overflow="visible">
            <path d="M 0 0m 4.608 1.272 c 0 0.6960001 -0.57599974 1.272 -1.2719998 1.272 c -0.69599986 0 -1.2719998 -0.57599986 -1.2719998 -1.272 c 0 -0.696 0.576 -1.272 1.2719998 -1.272 c 0.6960001 0 1.2719998 0.576 1.2719998 1.272 Z "/>
        </symbol>
        <symbol id="gF5416CFE415D2AF5B9E001134210A6C" overflow="visible">
            <path d="M 0 0m 5.688 15.984 c -1.224 0 -2.2560003 -0.43200016 -3.1440003 -1.2960005 c -0.8879999 -0.86399937 -1.3439999 -1.8719997 -1.3439999 -3.0959997 c 0 -0.816 0.6 -1.4160004 1.3439999 -1.4160004 c 0.72 0 1.3200002 0.62400055 1.3200002 1.3440008 c 0 0.7919998 -0.576 1.3439999 -1.3440001 1.3439999 c -0.07200003 0 -0.119999886 0 -0.16799998 -0.024000168 c 0.4560001 1.1759996 1.5120001 2.2080002 3.024 2.2080002 c 1.9679999 0 3.072 -1.7040005 3.072 -3.7680006 c 0 -1.6079998 -0.816 -3.3359995 -2.448 -5.16 l -4.512 -5.088 c -0.31200004 -0.36000007 -0.288 -0.33600008 -0.288 -1.0320001 h 8.904 l 0.6960001 4.32 h -0.7919998 c -0.19200039 -1.2240002 -0.3600006 -1.9200001 -0.50400066 -2.1360002 c -0.119999886 -0.119999886 -0.8399992 -0.16799998 -2.1599998 -0.16799998 h -4.008 l 2.328 2.28 c 1.632 1.5360003 3.6959996 3.192 4.3919997 4.464 c 0.4800005 0.84000015 0.72000027 1.6800003 0.72000027 2.5199995 c 0 2.8320007 -2.2080002 4.7040005 -5.088 4.7040005 Z "/>
        </symbol>
        <symbol id="gBF09CF92ABD88E8980C821BC0DC00E4F" overflow="visible">
            <path d="M 0 0m 11.400001 14.496 c 0.16799927 0.2159996 0.23999977 0.5279999 0.23999977 0.96000004 h -5.808 c -1.6560001 0 -2.5920002 0.09599972 -2.7600002 0.31200027 c -0.07200003 0.07199955 -0.14400005 0.23999882 -0.19199991 0.45600033 h -0.7440002 l -0.81599987 -5.0880013 h 0.79199994 c 0.24000001 1.3440008 0.43199992 2.0640001 0.576 2.184 c 0.07200003 0.0720005 0.816 0.12000084 2.232 0.12000084 h 4.7040005 l -2.5440006 -3.6000004 c -1.9439998 -2.7600002 -2.9039998 -5.736 -2.9039998 -8.976 c 0 -0.936 0.38399982 -1.392 1.1760001 -1.392 c 0.7919998 0 1.1759996 0.456 1.1759996 1.392 v 1.224 c 0 3.648 0.5760002 6.288 1.7040005 7.896 Z "/>
        </symbol>
        <symbol id="gF80BD3B9229511BA69A0DFDF2ED52411" overflow="visible">
            <path d="M 0 0m 4.8 0.192 c -1.0800002 0 -1.8720002 0.38399997 -2.4240003 1.176 c 0.96000004 0.047999978 1.44 0.528 1.44 1.4159999 c 0 0.8160002 -0.5999999 1.44 -1.4159999 1.44 c -0.8640001 0 -1.4160001 -0.62399983 -1.4160001 -1.4879999 c 0 -1.944 1.872 -3.264 3.864 -3.264 c 1.0799999 0 2.0640001 0.31199998 2.928 0.96000004 c 0.8640003 0.648 1.3920002 1.512 1.5360003 2.568 c 0.024000168 0.120000124 0.024000168 0.4560001 0.024000168 1.0560002 v 10.535999 c 0 0.408 0.07199955 0.67199993 0.26399994 0.74400043 c 0.19199944 0.07199955 0.7199993 0.119999886 1.5599995 0.119999886 v 0.9359999 l -3.144 -0.0720005 c -1.56 -0.024000168 -2.9039998 0 -4.0319996 0.0720005 v -0.9359999 h 0.9360001 c 1.2719998 0 1.9920001 -0.119999886 2.1360002 -0.38399982 c 0.04799986 -0.12000084 0.07200003 -0.33600044 0.07200003 -0.6480007 v -10.823999 c 0 -1.6560001 -0.7920003 -3.4080002 -2.328 -3.4080002 Z "/>
        </symbol>
        <symbol id="g6C2425FA378084A1771EA5F413A47986" overflow="visible">
            <path d="M 0 0m 10.656 17.232 c 0.024000168 0.048000336 0.024000168 0.11999893 0.024000168 0.19199944 c 0 0.38400078 -0.19200039 0.5760002 -0.5760002 0.5760002 c -0.26399994 0 -0.43200016 -0.11999893 -0.5279999 -0.38400078 l -8.208 -22.848 c -0.024000049 -0.048000336 -0.024000049 -0.12000036 -0.024000049 -0.19200039 c 0 -0.38399982 0.19200003 -0.57599974 0.5760001 -0.57599974 c 0.26399994 0 0.43199992 0.119999886 0.5279999 0.38399982 Z "/>
        </symbol>
        <symbol id="g484D3A76DCF66CD3D6D3A6B912CD1A69" overflow="visible">
            <path d="M 0 0m 13.2 14.784 c 0 -0.21600056 -0.119999886 -0.45600033 -0.38399982 -0.72000027 l -7.272 -6.936 v 7.3199997 c 0 0.43200016 0.09599972 0.6960001 0.26399994 0.816 c 0.16799974 0.119999886 0.67199993 0.19200039 1.5120001 0.19200039 h 0.67199993 v 0.9359999 c -0.6240001 -0.048000336 -1.8239999 -0.0720005 -3.6 -0.0720005 c -1.7760003 0 -2.9760003 0.024000168 -3.6000001 0.0720005 v -0.9359999 h 0.672 c 0.8399999 0 1.3440001 -0.0720005 1.5120001 -0.19200039 c 0.16799998 -0.119999886 0.26399994 -0.38399982 0.26399994 -0.816 v -12.504 c 0 -0.43200004 -0.095999956 -0.72 -0.26399994 -0.84000003 c -0.16799998 -0.119999945 -0.67200017 -0.16799998 -1.5120001 -0.16799998 h -0.672 v -0.936 c 0.624 0.048 1.8239999 0.072 3.576 0.072 c 1.8000002 0 3 -0.023999996 3.624 -0.072 v 0.936 h -0.67199993 c -0.84000015 0 -1.3440003 0.048000038 -1.5120001 0.16799998 c -0.16800022 0.120000005 -0.26399994 0.408 -0.26399994 0.84000003 v 4.104 l 2.6399999 2.52 l 4.224 -6.264 c 0.21600056 -0.33599985 0.33600044 -0.5999999 0.33600044 -0.7679999 c 0 -0.408 -0.45600033 -0.6 -1.3920002 -0.6 v -0.936 c 1.0319996 0.072 2.184 0.096 3.4799995 0.072 l 2.8319998 -0.072 v 0.936 c -1.5599995 0 -1.8479996 0.14400005 -2.5199995 1.08 l -5.424 8.016001 l 4.224 4.0319996 c 0.9359999 0.9359999 2.0639992 1.3920002 3.3840008 1.3920002 v 0.9359999 c -0.48000145 -0.048000336 -1.1760006 -0.0720005 -2.1120005 -0.0720005 c -1.4640007 0 -2.4960003 0.024000168 -3.0960007 0.0720005 v -0.9359999 c 0.5760002 0 1.0799999 -0.19200039 1.0799999 -0.67199993 Z "/>
        </symbol>
        <symbol id="g1B8AFB530D0F7B28D4E2C8C3D5AB9545" overflow="visible">
            <path d="M 0 0m 7.032 1.152 c 0.14400005 -0.74399996 0.408 -1.392 1.6080003 -1.392 c 0.9119997 0 1.776 0.408 2.2799997 0.888 c -0.048000336 0.288 -0.14400005 0.50399995 -0.408 0.648 c -0.16800022 -0.14400005 -0.5760002 -0.384 -0.88799953 -0.384 c -0.6960001 0 -0.72000027 0.93600005 -0.72000027 2.0400002 v 3.5279999 c 0 3.4080005 -1.8720002 4.056 -3.624 4.056 c -1.9680002 0 -3.96 -1.2960005 -3.96 -2.664 c 0 -0.5760002 0.288 -0.8640003 0.84000003 -0.8640003 c 0.69599986 0 1.128 0.5040002 1.128 0.816 c 0 0.16800022 -0.024000168 0.33599997 -0.07200003 0.43200064 c -0.024000168 0.07199955 -0.048000097 0.2159996 -0.048000097 0.47999954 c 0 0.74400043 1.0080001 1.0080004 1.9199998 1.0080004 c 0.81600046 0 1.9440002 -0.408 1.9440002 -3.1200004 c 0 -0.16800022 -0.07200003 -0.26399994 -0.14400005 -0.2880001 l -2.0640001 -0.5039997 c -2.304 -0.5760002 -3.9599998 -1.8480003 -3.9599998 -3.4800003 c 0 -1.9679999 1.3439999 -2.592 3.024 -2.592 c 0.84000015 0 1.56 0.192 2.6160002 1.008 l 0.48000002 0.38399994 Z m 0 4.44 v -3.168 c 0 -0.31200004 -0.14400005 -0.48000002 -0.33599997 -0.62399995 c -0.6240001 -0.50400007 -1.44 -1.056 -2.112 -1.056 c -1.2 0 -1.7280002 0.96 -1.7280002 1.704 c 0 1.0800002 0.5040002 2.184 2.2800002 2.6399999 Z "/>
        </symbol>
        <symbol id="g934E1B6BC086CC0B7811967CA1BEF433" overflow="visible">
            <path d="M 0 0m 4.416 8.592 c -0.14400005 -0.16800022 -0.28799963 -0.2159996 -0.28799963 0 c -0.024000168 0.64799976 -0.07200003 1.5839996 -0.19200015 1.8240004 c -0.048000097 0.119999886 -0.095999956 0.19199944 -0.2880001 0.19199944 c -0.67199993 -0.26399994 -1.296 -0.47999954 -2.9520001 -0.6960001 c -0.047999978 -0.14400005 0 -0.5279999 0.048000038 -0.67199993 c 1.296 -0.119999886 1.56 -0.23999977 1.56 -1.6319995 v -4.6800003 c 0 -1.9679999 -0.23999977 -2.064 -1.6799998 -2.184 c -0.144 -0.144 -0.144 -0.648 0 -0.792 c 0.71999997 0.024 1.6799998 0.048 2.6399999 0.048 c 0.96000004 0 1.6800003 -0.024 2.4 -0.048 c 0.14400005 0.144 0.14400005 0.648 0 0.792 c -1.224 0.120000005 -1.4640002 0.21600002 -1.4640002 2.184 v 3.9359999 c 0 0.5040002 0.21600008 0.7920003 0.408 1.0080004 c 0.9120002 0.888 1.9920001 1.4159999 2.9280005 1.4159999 c 0.47999954 0 0.9840002 -0.31200027 1.2719994 -0.8640003 c 0.24000072 -0.47999954 0.2880001 -1.1279998 0.2880001 -1.8479996 v -3.6480002 c 0 -1.9679999 -0.23999977 -2.064 -1.4879994 -2.184 c -0.12000036 -0.144 -0.12000036 -0.648 0 -0.792 c 0.7199998 0.024 1.4879994 0.048 2.4479995 0.048 c 0.96000004 0 1.8240004 -0.024 2.5440006 -0.048 c 0.119999886 0.144 0.119999886 0.648 0 0.792 c -1.3439999 0.120000005 -1.6080008 0.21600002 -1.6080008 2.184 v 3.5760002 c 0 1.3199997 -0.09599972 2.4719996 -0.64799976 3.216 c -0.408 0.5279999 -1.1519995 0.816 -1.9919996 0.816 c -1.1760001 0 -2.52 -0.31200027 -3.9360003 -1.9440002 Z "/>
        </symbol>
        <symbol id="g9D20516B94338A40F3653F6582D06E94" overflow="visible">
            <path d="M 0 0m 8.016 1.2 c 0.119999886 0.095999956 0.33600044 0.14399993 0.3600006 -0.024000049 c 0.07199955 -0.576 0.26399994 -1.416 0.26399994 -1.416 c 0.19199944 -0.072 0.31199932 -0.047999978 0.45599937 0 c 0.52800083 0.432 1.368 0.792 2.8320007 0.96000004 c 0.14400005 0.144 0.14400005 0.50399995 0 0.648 c -1.5360003 0.120000005 -1.7520008 0.576 -1.7520008 1.7520001 v 10.872001 c 0 1.5599995 0.09600067 2.5200005 0.09600067 2.5200005 c 0 0.16799927 -0.09600067 0.23999977 -0.31200027 0.23999977 c -0.6000004 -0.23999977 -2.4 -0.5760002 -3.3600001 -0.6480007 c -0.04799986 -0.19200039 0 -0.5760002 0.14400005 -0.72000027 c 0.07200003 0 0.14400005 0 0.21600008 0 c 1.0559998 -0.07199955 1.3199997 -0.07199955 1.3199997 -1.9679995 v -3.0720005 c 0 -0.16800022 -0.047999382 -0.2159996 -0.2159996 -0.2159996 c -0.096000195 0 -1.0799999 0.408 -1.8720002 0.408 c -1.5840001 0 -2.6399999 -0.5279999 -3.6 -1.4400005 c -1.032 -1.0319996 -1.656 -2.4479995 -1.656 -4.2239995 c 0 -2.9520001 1.488 -5.1120005 4.0800004 -5.1120005 c 0.9359999 0 1.8239999 0.48000002 2.9999995 1.44 Z m 0.26399994 1.776 c 0 -0.4560001 -0.047999382 -0.648 -0.38399982 -0.9360001 c -0.888 -0.768 -1.6559997 -1.152 -2.256 -1.152 c -1.296 0 -2.6399999 1.4159999 -2.6399999 4.416 c 0 1.7280002 0.33599997 2.6880002 0.6960001 3.1920004 c 0.74399996 1.1280003 1.7519999 1.1999998 2.2319999 1.1999998 c 0.8640003 0 1.4640002 -0.31200027 1.9440002 -0.8640003 c 0.33599997 -0.38399982 0.40799952 -0.55200005 0.40799952 -1.2959995 Z "/>
        </symbol>
        <symbol id="g39357B94544666BF8D8853BB83C56022" overflow="visible">
            <path d="M 0 0m 4.4856 0.3024 c -1.1592002 0 -1.3776002 0.48719996 -1.3776002 1.5791999 v 5.5439997 l -2.5703998 -0.18479967 v -0.6384001 c 0.65519994 0 1.0416 -0.067200184 1.1424 -0.18480015 c 0.10080004 -0.117599964 0.15119994 -0.53760004 0.15119994 -1.2767997 v -2.4696002 c 0 -0.65519977 0.05040002 -1.1591998 0.1680001 -1.5455998 c 0.25199997 -0.8736 1.176 -1.3104 2.4024 -1.3104 c 0.90719986 0 1.5959997 0.42 2.0664 1.2768 v -1.2768 l 2.52 0.1848 v 0.63839996 c -0.6048002 0 -0.9576006 0.033600032 -1.092 0.13440001 c -0.13440037 0.10079998 -0.20160007 0.33599997 -0.20160007 0.72239995 v 5.9304 l -2.5535998 -0.18479967 v -0.6384001 c 0.5879998 0 0.9407997 -0.050400257 1.0751996 -0.1512003 c 0.13440037 -0.10079956 0.20160007 -0.31919956 0.20160007 -0.7055998 v -2.9399998 c 0 -1.3271999 -0.7055998 -2.5032 -1.9319997 -2.5032 Z "/>
        </symbol>
        <symbol id="g10A4C71CF102471E04D59B74A73C4434" overflow="visible">
            <path d="M 0 0m 5.2752 6.9384 c 0.75600004 0 1.1423998 -0.5879998 1.1423998 -1.7807999 v -3.8304 c 0 -0.31919992 -0.05039978 -0.5208 -0.16799974 -0.58799994 c -0.117599964 -0.067200005 -0.48720026 -0.10080004 -1.1087999 -0.10080004 v -0.63839996 l 1.9319997 0.050399996 l 1.9152002 -0.050399996 v 0.63839996 c -0.5376005 0 -0.89039993 0.016800046 -1.0584002 0.067200005 c -0.16800022 0.05040002 -0.23519993 0.16799998 -0.23519993 0.3696 v 3.1415997 c 0 0.7895999 -0.016799927 1.3439999 -0.067200184 1.6631999 c -0.16799974 1.0248003 -0.9239998 1.5455999 -2.2511997 1.5455999 c -1.0584002 0 -1.848 -0.5039997 -2.3688 -1.5119996 v 1.5119996 l -2.4696 -0.18479967 v -0.6384001 c 0.6047999 0 0.9744 -0.050400257 1.1087999 -0.1512003 c 0.13440001 -0.10079956 0.18479991 -0.31919956 0.18479991 -0.7055998 v -4.4184 c 0 -0.31919992 -0.067199945 -0.5208 -0.18479991 -0.58799994 c -0.11760008 -0.067200005 -0.48720002 -0.10080004 -1.1087999 -0.10080004 v -0.63839996 l 1.9319999 0.050399996 l 1.9152 -0.050399996 v 0.63839996 c -0.62160015 0 -0.97440004 0.033600032 -1.092 0.10080004 c -0.117599964 0.067199945 -0.18480015 0.26880002 -0.18480015 0.58799994 v 3.0239997 c 0 1.3608003 0.8568001 2.5872002 2.1672 2.5872002 Z "/>
        </symbol>
        <symbol id="g16F35AA3DF35617B52B50AC84C7B2AB0" overflow="visible">
            <path d="M 0 0m 3.2591999 10.0968 c 0 0.5039997 -0.42000008 0.9407997 -0.924 0.9407997 c -0.50399995 0 -0.94079983 -0.4368 -0.94079983 -0.9407997 c 0 -0.50400066 0.41999996 -0.9576006 0.9239999 -0.9576006 c 0.5207999 0 0.94079995 0.4368 0.94079995 0.9576006 Z m -0.85679984 -10.0464 l 1.7472 -0.050399996 v 0.6552 c -0.5544002 0 -0.8904002 0.033599973 -0.9912002 0.10079998 c -0.10080004 0.067200005 -0.13439989 0.25200003 -0.13439989 0.5544 v 6.1656 l -2.4024 -0.20160007 v -0.6384001 c 0.5544 0 0.9071999 -0.05039978 1.0248001 -0.13439989 c 0.117599964 -0.08400011 0.16799998 -0.31920004 0.16799998 -0.7055998 v -4.4688 c 0 -0.31919992 -0.05040002 -0.5208 -0.16799998 -0.58799994 c -0.11760008 -0.067200005 -0.48720002 -0.08399999 -1.092 -0.08399999 v -0.6552 Z "/>
        </symbol>
        <symbol id="gF4409BC0B9602BE835C3E01140E40CD4" overflow="visible">
            <path d="M 0 0m 6.5183997 5.9472 c 0 -0.08400011 -0.033599854 -0.20160007 -0.10080004 -0.36959982 l -1.6127996 -4.0488 l -1.7976 4.4519997 c -0.067200184 0.1512003 -0.10080004 0.23519993 -0.10080004 0.25200033 c 0 0.25199986 0.3191998 0.36959982 0.9575999 0.36959982 v 0.6384001 l -1.8815999 -0.050400257 c -0.40320003 -0.016799927 -0.9576 0 -1.6631999 0.050400257 v -0.6384001 c 0.9408 0 1.092 0.033599854 1.3271999 -0.5711999 l 2.3856 -5.8631997 c 0.083999634 -0.23519999 0.2184 -0.3528 0.40319967 -0.3528 c 0.18480015 0 0.31920004 0.1176 0.40320015 0.3528 l 2.1672 5.3591995 c 0.06719971 0.18480015 0.13439989 0.33599997 0.2184 0.47039986 c 0.23519993 0.40320015 0.67199993 0.6048002 1.3104 0.6048002 v 0.6384001 c -0.55440044 -0.050400257 -0.99120045 -0.067200184 -1.3104 -0.050400257 l -1.4952002 0.050400257 v -0.6384001 c 0.48719978 -0.016799927 0.7895999 -0.2184 0.7895999 -0.6552 Z "/>
        </symbol>
        <symbol id="g4BE80526461A40693D774FE4F6216E1B" overflow="visible">
            <path d="M 0 0m 6.9719996 4.2167997 c 0 1.9320002 -1.1255999 3.3095999 -3.0071998 3.3095999 c -1.0079999 0 -1.848 -0.38639975 -2.5368 -1.1759996 c -0.6384 -0.7392001 -0.9576 -1.6296 -0.9576 -2.6544 c 0 -1.0583999 0.3528 -1.9488 1.0583999 -2.7215998 c 0.70560014 -0.77279997 1.5791999 -1.1592 2.6208 -1.1592 c 0.95759964 0 1.6967998 0.336 2.2008 0.9912 c 0.4199996 0.55439997 0.6215997 0.9576 0.6215997 1.2264 c 0 0.16799998 -0.10080004 0.25199986 -0.2855997 0.25199986 c -0.13440037 0 -0.2184 -0.08399987 -0.26880026 -0.26879978 c -0.36959982 -1.1088 -1.092 -1.6632 -2.1671996 -1.6632 c -0.7560003 0 -1.3440001 0.35279998 -1.7976003 1.0752 c -0.3191998 0.5208 -0.47039986 1.3104 -0.4871999 2.3855999 h 4.536 c 0.36959982 0 0.47039986 0.033600092 0.47039986 0.4031999 Z m -1.4951997 1.6464 c 0.18479967 -0.55439997 0.26879978 -1.092 0.26879978 -1.5791998 h -3.7631998 c 0.05040002 1.1087999 0.33599997 1.8648 0.8399999 2.2511997 c 0.42000008 0.33599997 0.78960013 0.5040002 1.1424 0.5040002 c 0.75600004 0 1.2599998 -0.38640022 1.5120001 -1.1760001 Z "/>
        </symbol>
        <symbol id="g47F5B9ABC191381965FECFD74063FF66" overflow="visible">
            <path d="M 0 0m 6.1151996 6.3504 c 0 0.6552 -0.6215997 1.0751996 -1.2767997 1.0751996 c -0.8568001 0 -1.5120001 -0.5039997 -1.9488001 -1.5288 v 1.5288 l -2.4192 -0.18479967 v -0.6384001 c 0.58799994 0 0.94079995 -0.050400257 1.0752 -0.1512003 c 0.13440001 -0.10079956 0.20159996 -0.31919956 0.20159996 -0.7055998 v -4.4184 c 0 -0.31919992 -0.0503999 -0.5208 -0.16799998 -0.58799994 c -0.117599964 -0.067200005 -0.4871999 -0.10080004 -1.1087999 -0.10080004 v -0.63839996 l 1.932 0.050399996 c 0.7055998 0.016800001 1.4279997 0 2.1503997 -0.050399996 v 0.63839996 h -0.40319967 c -0.5544002 0 -0.9072001 0.05040002 -1.0248001 0.13440001 c -0.117599964 0.08399999 -0.16799998 0.28559995 -0.16799998 0.58799994 v 2.5368 c 0 0.72239995 0.13439989 1.3776 0.38639998 1.9319999 c 0.33599997 0.7223997 0.8232 1.092 1.4784 1.1087999 c -0.16800022 -0.16800022 -0.25200033 -0.36959982 -0.25200033 -0.6048002 c 0 -0.52079964 0.25200033 -0.77279997 0.77279997 -0.77279997 c 0.4536004 0 0.77279997 0.35280037 0.77279997 0.7896004 Z "/>
        </symbol>
        <symbol id="gDE3ACE62D7EA81B01B9DC9FF8D1DD868" overflow="visible">
            <path d="M 0 0m 5.976 -0.528 c 3.3839998 0 5.064 2.736 5.064 8.208 c 0 3.672 -0.76799965 6.12 -2.2799997 7.3199997 c -0.84000015 0.64799976 -1.776 0.9840002 -2.7600002 0.9840002 c -3.384 0 -5.064 -2.7600002 -5.064 -8.304 c 0 -4.4160004 1.176 -8.208 5.04 -8.208 Z m 2.6880007 13.104 c 0.16799927 -0.84000015 0.23999977 -2.3760004 0.23999977 -4.6080003 c 0 -2.2079997 -0.09600067 -3.8399997 -0.26399994 -4.896 c -0.31200027 -1.9200001 -1.2000003 -2.88 -2.6640005 -2.88 c -0.55199957 0 -1.1039996 0.21599999 -1.6079998 0.62399995 c -0.648 0.55200005 -1.0320001 1.6800001 -1.2 3.408 c -0.07200003 0.5999999 -0.095999956 1.848 -0.095999956 3.744 c 0 2.0879998 0.07200003 3.5520005 0.19199991 4.3440003 c 0.21600008 1.3199997 0.648 2.1599998 1.3200002 2.5199995 c 0.5279999 0.2880001 0.9839997 0.43200016 1.3919997 0.43200016 c 1.5600004 0 2.4239998 -1.2719994 2.6880007 -2.6879997 Z "/>
        </symbol>
    </defs>
</svg>
